<svg width="32" height="32" viewBox="0 0 32 32" fill="none" xmlns="http://www.w3.org/2000/svg">
<path d="M16 32C24.8366 32 32 24.8366 32 16C32 7.16344 24.8366 0 16 0C7.16344 0 0 7.16344 0 16C0 24.8366 7.16344 32 16 32Z" fill="white"/>
<path d="M17.5573 15.9976C17.5573 19.8104 14.4874 22.9014 10.7005 22.9014C6.91362 22.9014 3.84375 19.8104 3.84375 15.9976C3.84375 12.1847 6.91363 9.09375 10.7006 9.09375C14.4874 9.09375 17.5573 12.1847 17.5573 15.9976Z" fill="black"/>
<path d="M25.0794 15.9987C25.0794 19.5879 23.5445 22.4975 21.651 22.4975C19.7576 22.4975 18.2227 19.5879 18.2227 15.9987C18.2227 12.4096 19.7576 9.5 21.651 9.5C23.5445 9.5 25.0794 12.4096 25.0794 15.9987Z" fill="black"/>
<path d="M28.1577 15.9984C28.1577 19.2142 27.6178 21.821 26.9518 21.821C26.2859 21.821 25.7461 19.2142 25.7461 15.9984C25.7461 12.7827 26.2858 10.1758 26.9518 10.1758C27.6178 10.1758 28.1577 12.7827 28.1577 15.9984Z" fill="black"/>
</svg>
