<svg width="328" height="125" viewBox="0 0 328 125" fill="none" xmlns="http://www.w3.org/2000/svg">
<path d="M27.9949 86.1971C13.7894 86.1971 3.65406 75.7425 3.65406 61.2976C3.65406 41.426 17.6201 26.5023 36.0553 26.5023C50.1809 26.5023 59.598 36.3184 59.6778 51.2421H48.1059C47.7867 42.3038 42.8387 36.877 34.8582 36.877C23.8449 36.877 15.7047 47.172 15.7047 60.9784C15.7047 69.8369 21.1315 75.8223 29.2717 75.8223C37.1725 75.8223 43.2378 70.7147 46.3502 61.5371H57.8423C53.6924 77.0992 42.5993 86.1971 27.9949 86.1971ZM88.0051 86.1971C73.7997 86.1971 63.6643 75.7425 63.6643 61.2976C63.6643 41.5058 78.0294 26.5023 96.9434 26.5023C111.069 26.5023 121.284 36.877 121.284 51.4017C121.284 71.1138 106.919 86.1971 88.0051 86.1971ZM89.282 75.8223C100.614 75.8223 109.234 65.3677 109.234 51.6411C109.234 42.8625 103.807 36.877 95.7463 36.877C84.3341 36.877 75.715 47.2518 75.715 61.0582C75.715 69.9167 81.1418 75.8223 89.282 75.8223ZM160.251 85L124.498 85L134.634 27.6994L146.365 27.6994L137.985 74.3858H162.087L160.251 85ZM189.477 86.1971C175.272 86.1971 165.136 75.7425 165.136 61.2976C165.136 41.5058 179.501 26.5023 198.415 26.5023C212.541 26.5023 222.756 36.877 222.756 51.4017C222.756 71.1138 208.391 86.1971 189.477 86.1971ZM190.754 75.8223C202.086 75.8223 210.705 65.3677 210.705 51.6411C210.705 42.8625 205.279 36.877 197.218 36.877C185.806 36.877 177.187 47.2518 177.187 61.0582C177.187 69.9167 182.614 75.8223 190.754 75.8223ZM237.702 85H225.97L236.106 27.6994L257.653 27.6994C269.145 27.6994 276.807 34.0838 276.807 43.7404C276.807 53.3171 271.061 60.2602 260.526 63.1332L271.699 85H258.77L248.635 64.6495H241.213L237.702 85ZM246.081 37.5155L242.969 54.7536L252.386 54.7536C260.446 54.7536 264.995 51.2421 264.995 45.0172C264.995 40.2289 261.643 37.5155 255.339 37.5155H246.081ZM324.049 67.4427C324.049 78.6155 315.35 85.7981 301.863 85.7981C287.737 85.7981 279.198 78.2963 279.118 65.9264H290.69C290.77 72.3109 295.479 76.381 302.502 76.381C308.487 76.381 312.238 73.5878 312.238 69.1984C312.238 65.687 310.402 63.9312 304.976 62.4149L296.835 60.0208C288.296 57.5468 283.747 52.1998 283.747 44.7778C283.747 34.004 292.366 26.9811 305.614 26.9811C318.064 26.9811 326.284 34.6425 326.364 46.3739H314.792C314.792 40.4683 310.722 36.2386 304.976 36.2386C298.99 36.2386 295.479 39.0318 295.479 43.6605C295.479 47.0922 297.793 49.247 302.262 50.444L310.801 52.918C319.42 55.392 324.049 60.4198 324.049 67.4427Z" fill="#101C35"/>
<path d="M66.8119 109.254C56.6826 109.254 49.4233 101.882 49.4233 91.6963C49.4233 77.6278 59.215 67.1609 72.3268 67.1609C82.6812 67.1609 89.5466 74.3077 89.6029 85.2248H79.4173C79.1359 79.5411 76.2097 76.2772 71.3139 76.2772C64.7298 76.2772 60.0028 82.6362 60.0028 91.4149C60.0028 96.6484 63.1541 100.137 67.8811 100.137C72.6644 100.137 76.4911 96.8735 78.4044 91.2461H88.5337C85.6637 102.445 77.4477 109.254 66.8119 109.254ZM109.457 109.254C99.3277 109.254 92.0684 101.882 92.0684 91.6963C92.0684 77.6841 102.254 67.1609 115.76 67.1609C125.889 67.1609 133.205 74.5327 133.205 84.7183C133.205 98.7305 123.019 109.254 109.457 109.254ZM110.526 100.137C117.448 100.137 122.625 93.6096 122.625 84.9997C122.625 79.7662 119.474 76.2772 114.747 76.2772C107.825 76.2772 102.648 82.7487 102.648 91.4712C102.648 96.7047 105.799 100.137 110.526 100.137ZM161.75 108.41L135.019 108.41L142.166 68.005H152.464L146.893 99.0682L163.382 99.0682L161.75 108.41ZM182.382 109.254C172.253 109.254 164.994 101.882 164.994 91.6963C164.994 77.6841 175.179 67.1609 188.685 67.1609C198.814 67.1609 206.13 74.5327 206.13 84.7183C206.13 98.7305 195.944 109.254 182.382 109.254ZM183.452 100.137C190.373 100.137 195.55 93.6096 195.55 84.9997C195.55 79.7662 192.399 76.2772 187.672 76.2772C180.75 76.2772 175.573 82.7487 175.573 91.4712C175.573 96.7047 178.725 100.137 183.452 100.137ZM218.243 108.41H207.945L215.092 68.005H231.13C239.852 68.005 245.536 72.6194 245.536 79.6537C245.536 86.294 241.765 91.021 234.45 93.4971L242.159 108.41H230.792L224.039 94.8476H220.606L218.243 108.41ZM223.87 76.6149L222.126 86.2377H227.416C232.48 86.2377 235.181 84.3807 235.181 80.8917C235.181 78.0217 233.212 76.6149 229.16 76.6149H223.87ZM279.771 95.4667C279.771 103.739 273.468 108.972 263.395 108.972C252.928 108.972 246.625 103.514 246.569 94.4537H256.698C256.698 98.2241 259.681 100.756 264.014 100.756C267.447 100.756 269.416 99.4058 269.416 97.0986C269.416 95.1853 268.403 94.2849 265.083 93.3282L258.78 91.4712C252.815 89.7267 249.551 85.7875 249.551 80.4978C249.551 72.6757 255.967 67.4985 265.702 67.4985C274.987 67.4985 281.065 73.0696 281.121 81.6795H270.992C270.992 78.1343 268.572 75.602 265.083 75.602C261.763 75.602 259.793 77.0651 259.793 79.4849C259.793 81.2294 260.975 82.4111 263.564 83.1427L270.204 85.056C276.394 86.8567 279.771 90.5146 279.771 95.4667Z" fill="#2563EB"/>
</svg>
