<svg width="861" height="482" viewBox="0 0 861 482" fill="none" xmlns="http://www.w3.org/2000/svg">
<path d="M68.9071 85H48.3171L58.4525 27.6994H77.7655C91.8912 27.6994 101.787 37.5155 101.787 51.6411C101.787 71.034 87.9807 85 68.9071 85ZM68.3484 37.9943L61.8043 74.705H70.0243C81.676 74.705 89.7364 65.6072 89.7364 52.1998C89.7364 43.3413 84.4692 37.9943 75.8502 37.9943H68.3484ZM143.844 74.8647L142.008 85H104.898L115.034 27.6994L151.665 27.6994L149.909 37.8347H124.93L122.695 50.444H145.36L143.604 60.5794H120.939L118.385 74.8647H143.844ZM196.275 67.4427C196.275 78.6155 187.576 85.7981 174.089 85.7981C159.963 85.7981 151.424 78.2963 151.344 65.9264H162.916C162.996 72.3109 167.704 76.381 174.727 76.381C180.713 76.381 184.464 73.5878 184.464 69.1984C184.464 65.687 182.628 63.9312 177.201 62.4149L169.061 60.0208C160.522 57.5468 155.973 52.1998 155.973 44.7778C155.973 34.004 164.592 26.9811 177.84 26.9811C190.289 26.9811 198.509 34.6425 198.589 46.3739H187.017C187.017 40.4683 182.947 36.2386 177.201 36.2386C171.216 36.2386 167.704 39.0318 167.704 43.6605C167.704 47.0922 170.019 49.247 174.488 50.444L183.027 52.918C191.646 55.392 196.275 60.4198 196.275 67.4427ZM214.049 85H202.318L212.453 27.6994H224.184L214.049 85ZM252.509 86.1971C237.665 86.1971 227.291 75.9819 227.291 61.2976C227.291 41.5856 241.735 26.5023 260.57 26.5023C274.296 26.5023 283.793 34.8021 284.751 47.4912H272.78C272.062 40.8673 267.194 36.877 259.772 36.877C248.04 36.877 239.341 47.2518 239.341 61.0582C239.341 70.1561 245.167 76.381 253.706 76.381C261.687 76.381 268.311 71.5926 270.306 63.612H254.345L255.941 54.1949H284.432C281.638 74.1464 269.907 86.1971 252.509 86.1971ZM323.651 85L305.695 44.4586L298.512 85H287.579L297.714 27.6994L310.324 27.6994L327.402 66.3254L334.265 27.6994L345.279 27.6994L335.143 85H323.651ZM400.373 85L398.378 72.4705H376.99L370.526 85H357.996L388.961 27.6994H401.81L412.264 85H400.373ZM393.43 40.6279L381.779 63.1332H396.942L393.43 40.6279ZM442.836 66.2456H434.058L430.865 85H419.134L429.269 27.6994L449.62 27.6994C461.032 27.6994 468.534 34.3233 468.534 44.299C468.534 57.5468 458.398 66.2456 442.836 66.2456ZM447.704 37.8347H439.165L435.893 56.1103H444.512C452.014 56.1103 456.723 51.9604 456.723 45.5759C456.723 40.7875 453.291 37.8347 447.704 37.8347ZM493.572 66.2456H484.794L481.601 85H469.87L480.005 27.6994L500.356 27.6994C511.768 27.6994 519.27 34.3233 519.27 44.299C519.27 57.5468 509.134 66.2456 493.572 66.2456ZM498.44 37.8347H489.901L486.629 56.1103H495.248C502.75 56.1103 507.459 51.9604 507.459 45.5759C507.459 40.7875 504.027 37.8347 498.44 37.8347ZM532.337 85L520.606 85L530.741 27.6994L552.289 27.6994C563.781 27.6994 571.442 34.0838 571.442 43.7404C571.442 53.3171 565.696 60.2602 555.162 63.1332L566.335 85H553.406L543.271 64.6495H535.849L532.337 85ZM540.717 37.5155L537.605 54.7536H547.022C555.082 54.7536 559.631 51.2421 559.631 45.0172C559.631 40.2289 556.279 37.5155 549.975 37.5155H540.717ZM599.613 86.1971C585.408 86.1971 575.272 75.7425 575.272 61.2976C575.272 41.5058 589.637 26.5023 608.551 26.5023C622.677 26.5023 632.892 36.877 632.892 51.4017C632.892 71.1138 618.527 86.1971 599.613 86.1971ZM600.89 75.8223C612.222 75.8223 620.841 65.3677 620.841 51.6411C620.841 42.8625 615.415 36.877 607.354 36.877C595.942 36.877 587.323 47.2518 587.323 61.0582C587.323 69.9167 592.75 75.8223 600.89 75.8223ZM671.199 85L669.204 72.4705H647.816L641.352 85H628.822L659.787 27.6994H672.636L683.09 85H671.199ZM664.256 40.6279L652.604 63.1332H667.767L664.256 40.6279ZM711.528 86.1971C697.323 86.1971 687.188 75.7425 687.188 61.2976C687.188 41.426 701.154 26.5023 719.589 26.5023C733.714 26.5023 743.132 36.3184 743.211 51.2421H731.639C731.32 42.3038 726.372 36.877 718.392 36.877C707.378 36.877 699.238 47.172 699.238 60.9784C699.238 69.8369 704.665 75.8223 712.805 75.8223C720.706 75.8223 726.771 70.7147 729.884 61.5371L741.376 61.5371C737.226 77.0992 726.133 86.1971 711.528 86.1971ZM757.493 85H745.761L755.897 27.6994L767.628 27.6994L763.558 50.3642L787.5 50.3642L791.57 27.6994H803.301L793.166 85H781.435L785.664 60.6592L761.802 60.6592L757.493 85Z" fill="#15223E"/>
<path d="M167.512 108.41H151.756L158.902 68.005H173.702C183.944 68.005 191.091 74.9267 191.091 84.8309C191.091 98.5617 181.243 108.41 167.512 108.41ZM167.625 77.0088L163.573 99.4058H168.469C175.728 99.4058 180.512 93.8347 180.512 85.3373C180.512 80.0476 177.417 77.0088 172.014 77.0088H167.625ZM222.123 99.5184L220.547 108.41L192.917 108.41L200.064 68.005L227.357 68.005L225.837 76.8963H208.786L207.661 83.1989L223.08 83.1989L221.504 92.0902L206.085 92.0902L204.734 99.5184L222.123 99.5184ZM259.467 95.4667C259.467 103.739 253.164 108.972 243.091 108.972C232.624 108.972 226.322 103.514 226.265 94.4537H236.395C236.395 98.2241 239.377 100.756 243.71 100.756C247.143 100.756 249.113 99.4058 249.113 97.0986C249.113 95.1853 248.1 94.2849 244.78 93.3282L238.477 91.4712C232.512 89.7267 229.248 85.7875 229.248 80.4978C229.248 72.6757 235.663 67.4985 245.399 67.4985C254.684 67.4985 260.761 73.0696 260.818 81.6795L250.688 81.6795C250.688 78.1343 248.269 75.602 244.78 75.602C241.459 75.602 239.49 77.0651 239.49 79.4849C239.49 81.2294 240.672 82.4111 243.26 83.1427L249.9 85.056C256.091 86.8567 259.467 90.5146 259.467 95.4667ZM273.173 108.41H262.875L270.021 68.005L280.32 68.005L273.173 108.41ZM300.14 109.254C289.561 109.254 282.133 102.051 282.133 91.6963C282.133 77.7966 292.318 67.1609 305.655 67.1609C315.503 67.1609 322.369 72.9571 323.213 82.0172H312.689C312.07 78.3594 309.257 76.2772 304.98 76.2772C297.889 76.2772 292.712 82.7487 292.712 91.4712C292.712 96.9298 296.145 100.7 301.153 100.7C305.711 100.7 309.594 98.2804 310.72 94.1724H301.322L302.729 85.9564H323.156C321.187 100.588 312.858 109.254 300.14 109.254ZM349.851 108.41L338.934 82.7487L334.432 108.41H324.809L331.956 68.005H342.985L353.059 91.8089L357.279 68.005H366.902L359.755 108.41H349.851ZM404.94 108.41L403.87 100.756L390.083 100.756L386.257 108.41H375.283L396.949 68.005H408.203L415.35 108.41H404.94ZM400.832 79.3723L394.191 92.5967H402.689L400.832 79.3723ZM437.051 95.9731H432.043L429.905 108.41H419.606L426.753 68.005H442.003C450.613 68.005 456.241 72.7883 456.241 80.1039C456.241 89.7267 448.7 95.9731 437.051 95.9731ZM440.372 76.8963H435.476L433.619 87.0818L438.514 87.0818C443.073 87.0818 445.83 84.8872 445.83 81.3419C445.83 78.5282 443.804 76.8963 440.372 76.8963ZM474.311 95.9731H469.302L467.164 108.41H456.866L464.013 68.005H479.263C487.873 68.005 493.5 72.7883 493.5 80.1039C493.5 89.7267 485.96 95.9731 474.311 95.9731ZM477.631 76.8963H472.735L470.878 87.0818H475.774C480.332 87.0818 483.09 84.8872 483.09 81.3419C483.09 78.5282 481.064 76.8963 477.631 76.8963ZM504.424 108.41H494.125L501.272 68.005H517.31C526.033 68.005 531.716 72.6194 531.716 79.6537C531.716 86.294 527.946 91.021 520.63 93.4971L528.34 108.41H516.973L510.22 94.8476H506.787L504.424 108.41ZM510.051 76.6149L508.306 86.2377H513.596C518.661 86.2377 521.362 84.3807 521.362 80.8917C521.362 78.0217 519.392 76.6149 515.341 76.6149H510.051ZM551.545 109.254C541.416 109.254 534.156 101.882 534.156 91.6963C534.156 77.6841 544.342 67.1609 557.848 67.1609C567.977 67.1609 575.293 74.5327 575.293 84.7183C575.293 98.7305 565.107 109.254 551.545 109.254ZM552.614 100.137C559.536 100.137 564.713 93.6096 564.713 84.9997C564.713 79.7662 561.562 76.2772 556.835 76.2772C549.913 76.2772 544.736 82.7487 544.736 91.4712C544.736 96.7047 547.887 100.137 552.614 100.137ZM601.404 108.41L600.335 100.756H586.548L582.721 108.41H571.747L593.413 68.005H604.668L611.815 108.41H601.404ZM597.296 79.3723L590.656 92.5967H599.153L597.296 79.3723ZM631.615 109.254C621.485 109.254 614.226 101.882 614.226 91.6963C614.226 77.6278 624.018 67.1609 637.129 67.1609C647.484 67.1609 654.349 74.3077 654.406 85.2248H644.22C643.939 79.5411 641.012 76.2772 636.116 76.2772C629.532 76.2772 624.805 82.6362 624.805 91.4149C624.805 96.6484 627.957 100.137 632.684 100.137C637.467 100.137 641.294 96.8735 643.207 91.2461H653.336C650.466 102.445 642.25 109.254 631.615 109.254ZM666.156 108.41H655.858L663.005 68.005H673.303L670.602 83.1427H685.064L687.765 68.005H698.064L690.917 108.41H680.619L683.489 92.1465H669.026L666.156 108.41Z" fill="#2563EB"/>
<rect x="1.64208" y="219.207" width="171.043" height="52.7413" rx="23.0464" fill="#2563EB"/>
<rect x="1.64208" y="219.207" width="171.043" height="52.7413" rx="23.0464" stroke="#2563EB" stroke-width="1.55369"/>
<path d="M42.2619 252.577H39.5625V239.827H44.5528C47.7671 239.827 49.6318 241.318 49.6318 243.964C49.6318 245.687 48.5662 247.054 46.7549 247.658L50.0402 252.577H46.8259L43.949 248.067H42.2619V252.577ZM42.2619 242.064V245.847H44.4285C46.0623 245.847 46.9324 245.207 46.9324 243.964C46.9324 242.704 46.0623 242.064 44.4285 242.064H42.2619ZM60.2972 250.233V252.577H51.7197V239.827H60.1729V242.171H54.419V244.852H59.6401V247.179H54.419V250.233H60.2972ZM72.1704 248.617C72.1704 251.05 70.217 252.755 67.0204 252.755C63.8061 252.755 61.7993 251.032 61.604 248.333H64.3388C64.4099 249.736 65.3156 250.642 66.9671 250.642C68.3345 250.642 69.3113 250.038 69.3113 249.008C69.3113 248.209 68.6897 247.729 67.6064 247.516L65.5109 247.108C63.5752 246.735 62.0835 245.687 62.0835 243.574C62.0835 241.301 64.0902 239.667 66.8428 239.667C69.702 239.667 71.7975 241.336 71.9751 244H69.2402C69.1514 242.668 68.228 241.762 66.8783 241.762C65.5642 241.762 64.8183 242.508 64.8183 243.396C64.8183 244.266 65.6175 244.639 66.5409 244.817L68.7252 245.261C70.9628 245.705 72.1704 246.735 72.1704 248.617ZM82.7384 250.233V252.577H74.161V239.827H82.6141V242.171H76.8603V244.852H82.0814V247.179H76.8603V250.233H82.7384ZM93.3508 252.577L92.3919 249.843H87.4372L86.4604 252.577H83.7433L88.5382 239.827H91.4862L96.2455 252.577H93.3508ZM89.9412 242.775L88.2008 247.694H91.646L89.9412 242.775ZM100.498 252.577H97.7989V239.827H102.789C106.003 239.827 107.868 241.318 107.868 243.964C107.868 245.687 106.803 247.054 104.991 247.658L108.277 252.577H105.062L102.185 248.067H100.498V252.577ZM100.498 242.064V245.847H102.665C104.299 245.847 105.169 245.207 105.169 243.964C105.169 242.704 104.299 242.064 102.665 242.064H100.498ZM115.534 252.844C111.947 252.844 109.141 249.931 109.141 246.184C109.141 242.455 111.947 239.56 115.534 239.56C118.89 239.56 121.519 241.798 121.963 245.065H119.103C118.802 243.236 117.381 241.975 115.569 241.975C113.385 241.975 111.911 243.698 111.911 246.184C111.911 248.688 113.385 250.429 115.569 250.429C117.381 250.429 118.784 249.15 119.103 247.321H121.963C121.519 250.624 118.89 252.844 115.534 252.844ZM126.547 252.577H123.847V239.827H126.547V244.852H132.07V239.827H134.769V252.577H132.07V247.179H126.547V252.577Z" fill="white"/>
<rect x="212.576" y="219.207" width="340.655" height="52.7413" rx="23.0464" fill="#2563EB"/>
<rect x="212.576" y="219.207" width="340.655" height="52.7413" rx="23.0464" stroke="#2563EB" stroke-width="1.55369"/>
<path d="M260.213 248.617C260.213 251.05 258.26 252.755 255.063 252.755C251.849 252.755 249.842 251.032 249.647 248.333H252.382C252.453 249.736 253.358 250.642 255.01 250.642C256.377 250.642 257.354 250.038 257.354 249.008C257.354 248.209 256.733 247.729 255.649 247.516L253.554 247.108C251.618 246.735 250.126 245.687 250.126 243.574C250.126 241.301 252.133 239.667 254.886 239.667C257.745 239.667 259.84 241.336 260.018 244H257.283C257.194 242.668 256.271 241.762 254.921 241.762C253.607 241.762 252.861 242.508 252.861 243.396C252.861 244.266 253.66 244.639 254.584 244.817L256.768 245.261C259.006 245.705 260.213 246.735 260.213 248.617ZM264.903 252.577H262.204V239.827H264.903V252.577ZM273.3 252.577L269.961 244.106V252.577H267.511V239.827H270.743L274.437 249.274L278.148 239.827H281.38V252.577H278.93V244.035L275.555 252.577H273.3ZM286.685 252.577H283.986V239.827H286.685V252.577ZM297.533 252.577H289.293V239.827H291.992V250.144H297.533V252.577ZM307.911 252.577L306.952 249.843H301.997L301.02 252.577H298.303L303.098 239.827H306.046L310.805 252.577H307.911ZM304.501 242.775L302.76 247.694H306.206L304.501 242.775ZM315.058 252.577H312.359V239.827H317.349C320.563 239.827 322.428 241.318 322.428 243.964C322.428 245.687 321.362 247.054 319.551 247.658L322.836 252.577H319.622L316.745 248.067H315.058V252.577ZM315.058 242.064V245.847H317.224C318.858 245.847 319.728 245.207 319.728 243.964C319.728 242.704 318.858 242.064 317.224 242.064H315.058ZM332.933 248.422H330.926V252.577H328.227V239.827H332.933C336.041 239.827 337.977 241.301 337.977 244.071C337.977 246.841 336.041 248.422 332.933 248.422ZM332.915 242.1H330.926V246.149H332.915C334.443 246.149 335.295 245.35 335.295 244.089C335.295 242.828 334.443 242.1 332.915 242.1ZM348.052 252.577H339.812V239.827H342.511V250.144H348.052V252.577ZM358.429 252.577L357.47 249.843H352.516L351.539 252.577H348.822L353.617 239.827H356.565L361.324 252.577H358.429ZM355.02 242.775L353.279 247.694H356.725L355.02 242.775ZM367.485 252.577H364.786V242.26H360.773V239.827H371.517V242.26H367.485V252.577ZM375.826 252.577H373.127V239.827H381.367V242.171H375.826V245.385H380.497V247.711H375.826V252.577ZM388.992 252.844C385.316 252.844 382.474 250.002 382.474 246.184C382.474 242.366 385.316 239.56 388.992 239.56C392.686 239.56 395.545 242.366 395.545 246.184C395.545 250.002 392.686 252.844 388.992 252.844ZM388.992 250.429C391.336 250.429 392.757 248.528 392.757 246.184C392.757 243.84 391.336 241.975 388.992 241.975C386.665 241.975 385.245 243.84 385.245 246.184C385.245 248.528 386.665 250.429 388.992 250.429ZM400.106 252.577H397.406V239.827H402.397C405.611 239.827 407.476 241.318 407.476 243.964C407.476 245.687 406.41 247.054 404.599 247.658L407.884 252.577H404.67L401.793 248.067H400.106V252.577ZM400.106 242.064V245.847H402.272C403.906 245.847 404.776 245.207 404.776 243.964C404.776 242.704 403.906 242.064 402.272 242.064H400.106ZM415.353 252.577L412.014 244.106V252.577H409.564V239.827H412.796L416.49 249.274L420.201 239.827H423.433V252.577H420.983V244.035L417.608 252.577H415.353ZM438.275 252.577L437.316 249.843H432.361L431.384 252.577H428.667L433.462 239.827H436.41L441.169 252.577H438.275ZM434.865 242.775L433.125 247.694H436.57L434.865 242.775ZM451.034 252.577L445.191 243.68V252.577H442.723V239.827H445.635L451.194 248.28V239.827H453.68V252.577H451.034ZM464.826 252.577L463.867 249.843H458.912L457.936 252.577H455.219L460.013 239.827H462.961L467.721 252.577H464.826ZM461.416 242.775L459.676 247.694H463.121L461.416 242.775ZM477.514 252.577H469.274V239.827H471.973V250.144H477.514V252.577ZM483.809 247.783V252.577H481.11V247.783L476.599 239.827H479.511L482.548 245.314L485.638 239.827H488.355L483.809 247.783ZM498.934 248.617C498.934 251.05 496.98 252.755 493.784 252.755C490.569 252.755 488.563 251.032 488.367 248.333H491.102C491.173 249.736 492.079 250.642 493.73 250.642C495.098 250.642 496.075 250.038 496.075 249.008C496.075 248.209 495.453 247.729 494.37 247.516L492.274 247.108C490.338 246.735 488.847 245.687 488.847 243.574C488.847 241.301 490.853 239.667 493.606 239.667C496.465 239.667 498.561 241.336 498.738 244H496.004C495.915 242.668 494.991 241.762 493.642 241.762C492.327 241.762 491.582 242.508 491.582 243.396C491.582 244.266 492.381 244.639 493.304 244.817L495.489 245.261C497.726 245.705 498.934 246.735 498.934 248.617ZM503.624 252.577H500.924V239.827H503.624V252.577ZM516.016 248.617C516.016 251.05 514.063 252.755 510.866 252.755C507.652 252.755 505.645 251.032 505.45 248.333H508.185C508.256 249.736 509.161 250.642 510.813 250.642C512.18 250.642 513.157 250.038 513.157 249.008C513.157 248.209 512.535 247.729 511.452 247.516L509.357 247.108C507.421 246.735 505.929 245.687 505.929 243.574C505.929 241.301 507.936 239.667 510.689 239.667C513.548 239.667 515.643 241.336 515.821 244H513.086C512.997 242.668 512.074 241.762 510.724 241.762C509.41 241.762 508.664 242.508 508.664 243.396C508.664 244.266 509.463 244.639 510.387 244.817L512.571 245.261C514.809 245.705 516.016 246.735 516.016 248.617Z" fill="white"/>
<rect x="577.746" y="219.207" width="257.53" height="52.7413" rx="23.0464" fill="#2563EB"/>
<rect x="577.746" y="219.207" width="257.53" height="52.7413" rx="23.0464" stroke="#2563EB" stroke-width="1.55369"/>
<path d="M618.349 252.577H615.65V239.827H618.349V252.577ZM625.485 252.577H620.957V239.827H625.485C629.534 239.827 631.985 242.419 631.985 246.131C631.985 249.843 629.446 252.577 625.485 252.577ZM623.656 242.153V250.251H625.343C627.883 250.251 629.215 248.777 629.215 246.131C629.215 243.591 627.883 242.153 625.343 242.153H623.656ZM642.437 250.233V252.577H633.86V239.827H642.313V242.171H636.559V244.852H641.78V247.179H636.559V250.233H642.437ZM653.05 252.577L652.091 249.843H647.136L646.159 252.577H643.442L648.237 239.827H651.185L655.944 252.577H653.05ZM649.64 242.775L647.9 247.694H651.345L649.64 242.775ZM662.106 252.577H659.406V242.26H655.393V239.827H666.137V242.26H662.106V252.577ZM670.447 252.577H667.747V239.827H670.447V252.577ZM678.826 252.844C675.15 252.844 672.308 250.002 672.308 246.184C672.308 242.366 675.15 239.56 678.826 239.56C682.519 239.56 685.379 242.366 685.379 246.184C685.379 250.002 682.519 252.844 678.826 252.844ZM678.826 250.429C681.17 250.429 682.591 248.528 682.591 246.184C682.591 243.84 681.17 241.975 678.826 241.975C676.499 241.975 675.079 243.84 675.079 246.184C675.079 248.528 676.499 250.429 678.826 250.429ZM695.551 252.577L689.709 243.68V252.577H687.24V239.827H690.153L695.711 248.28V239.827H698.197V252.577H695.551ZM709.042 245.616L711.315 248.067C711.421 247.552 711.474 246.983 711.492 246.415H713.748C713.73 247.481 713.375 248.706 712.842 249.7L715.506 252.577H712.469L711.421 251.459C710.462 252.293 709.379 252.737 708.207 252.737C705.543 252.737 703.838 251.21 703.838 248.83C703.838 247.481 704.655 246.344 706.005 245.58C705.561 244.959 705.348 244.32 705.348 243.591C705.348 241.745 706.946 240.395 709.095 240.395C711.261 240.395 712.7 241.691 712.718 243.645H710.427C710.338 242.81 709.823 242.366 709.095 242.366C708.402 242.366 707.887 242.881 707.887 243.609C707.887 244.266 708.242 244.746 709.042 245.616ZM706.2 248.688C706.2 249.825 706.946 250.73 708.384 250.73C709.042 250.73 709.663 250.517 710.16 250.109L707.266 247.037C706.609 247.374 706.2 247.96 706.2 248.688ZM723.255 252.577H720.555V239.827H728.795V242.171H723.255V245.385H727.925V247.711H723.255V252.577ZM733.348 252.577H730.649V239.827H733.348V252.577ZM744.267 252.577L738.424 243.68V252.577H735.955V239.827H738.868L744.426 248.28V239.827H746.913V252.577H744.267ZM758.059 252.577L757.1 249.843H752.145L751.169 252.577H748.451L753.246 239.827H756.194L760.954 252.577H758.059ZM754.649 242.775L752.909 247.694H756.354L754.649 242.775ZM770.747 252.577H762.507V239.827H765.206V250.144H770.747V252.577ZM775.3 252.577H772.6V239.827H775.3V252.577ZM787.373 252.577H777.321V250.446L783.839 242.153H777.339V239.827H787.159V241.993L780.606 250.251H787.373V252.577ZM797.913 250.233V252.577H789.336V239.827H797.789V242.171H792.035V244.852H797.256V247.179H792.035V250.233H797.913Z" fill="white"/>
<rect x="508.556" y="317.707" width="195.548" height="52.7413" rx="23.0464" fill="#2563EB"/>
<rect x="508.556" y="317.707" width="195.548" height="52.7413" rx="23.0464" stroke="#2563EB" stroke-width="1.55369"/>
<path d="M549.237 351.077H546.538V338.326H554.778V340.671H549.237V343.885H553.908V346.211H549.237V351.077ZM564.871 351.077H556.631V338.326H559.33V348.644H564.871V351.077ZM571.438 351.344C567.762 351.344 564.921 348.502 564.921 344.684C564.921 340.866 567.762 338.06 571.438 338.06C575.132 338.06 577.991 340.866 577.991 344.684C577.991 348.502 575.132 351.344 571.438 351.344ZM571.438 348.928C573.782 348.928 575.203 347.028 575.203 344.684C575.203 342.34 573.782 340.475 571.438 340.475C569.112 340.475 567.691 342.34 567.691 344.684C567.691 347.028 569.112 348.928 571.438 348.928ZM589.132 351.077L586.753 342.162L584.373 351.077H581.638L578.371 338.326H580.999L583.059 346.975L585.403 338.326H588.156L590.429 347.01L592.507 338.326H595.153L591.867 351.077H589.132ZM604.915 351.077H600.386V338.326H604.915C608.964 338.326 611.415 340.919 611.415 344.631C611.415 348.342 608.875 351.077 604.915 351.077ZM603.086 340.653V348.751H604.773C607.312 348.751 608.644 347.277 608.644 344.631C608.644 342.091 607.312 340.653 604.773 340.653H603.086ZM621.867 348.733V351.077H613.289V338.326H621.742V340.671H615.989V343.352H621.21V345.678H615.989V348.733H621.867ZM633.74 347.117C633.74 349.55 631.787 351.255 628.59 351.255C625.376 351.255 623.369 349.532 623.174 346.833H625.908C625.979 348.236 626.885 349.141 628.537 349.141C629.904 349.141 630.881 348.538 630.881 347.508C630.881 346.708 630.259 346.229 629.176 346.016L627.08 345.607C625.145 345.235 623.653 344.187 623.653 342.073C623.653 339.8 625.66 338.167 628.412 338.167C631.272 338.167 633.367 339.836 633.545 342.5H630.81C630.721 341.168 629.798 340.262 628.448 340.262C627.134 340.262 626.388 341.008 626.388 341.896C626.388 342.766 627.187 343.139 628.11 343.317L630.295 343.761C632.532 344.204 633.74 345.235 633.74 347.117ZM638.43 351.077H635.731V338.326H638.43V351.077ZM646.862 351.344C643.168 351.344 640.291 348.591 640.291 344.648C640.291 340.884 643.026 338.06 646.756 338.06C649.988 338.06 652.296 339.978 653.131 342.748H649.952C649.562 341.452 648.389 340.475 646.685 340.475C644.625 340.475 643.062 341.985 643.062 344.72C643.062 347.17 644.429 349.053 646.987 349.053C648.869 349.053 650.059 347.934 650.414 346.353H646.72V344.204H653.291C653.451 348.36 650.929 351.344 646.862 351.344ZM663.483 351.077L657.64 342.18V351.077H655.172V338.326H658.084L663.642 346.78V338.326H666.129V351.077H663.483Z" fill="white"/>
<rect x="288.492" y="317.707" width="188.34" height="52.7413" rx="23.0464" fill="#2563EB"/>
<rect x="288.492" y="317.707" width="188.34" height="52.7413" rx="23.0464" stroke="#2563EB" stroke-width="1.55369"/>
<path d="M336.158 347.117C336.158 349.55 334.205 351.255 331.008 351.255C327.794 351.255 325.787 349.532 325.592 346.833H328.326C328.397 348.236 329.303 349.141 330.955 349.141C332.322 349.141 333.299 348.538 333.299 347.508C333.299 346.708 332.677 346.229 331.594 346.016L329.498 345.607C327.563 345.235 326.071 344.187 326.071 342.073C326.071 339.8 328.078 338.167 330.83 338.167C333.69 338.167 335.785 339.836 335.963 342.5H333.228C333.139 341.168 332.216 340.262 330.866 340.262C329.552 340.262 328.806 341.008 328.806 341.896C328.806 342.766 329.605 343.139 330.529 343.317L332.713 343.761C334.95 344.204 336.158 345.235 336.158 347.117ZM343.45 351.077H340.751V340.759H336.737V338.326H347.481V340.759H343.45V351.077ZM355.094 346.282V351.077H352.395V346.282L347.884 338.326H350.797L353.833 343.814L356.923 338.326H359.64L355.094 346.282ZM369.298 351.077H361.058V338.326H363.757V348.644H369.298V351.077ZM379.729 348.733V351.077H371.151V338.326H379.605V340.671H373.851V343.352H379.072V345.678H373.851V348.733H379.729ZM391.353 351.344C387.659 351.344 384.783 348.591 384.783 344.648C384.783 340.884 387.517 338.06 391.247 338.06C394.479 338.06 396.787 339.978 397.622 342.748H394.443C394.053 341.452 392.881 340.475 391.176 340.475C389.116 340.475 387.553 341.985 387.553 344.72C387.553 347.17 388.92 349.053 391.478 349.053C393.36 349.053 394.55 347.934 394.905 346.353H391.211V344.204H397.782C397.942 348.36 395.42 351.344 391.353 351.344ZM410.123 338.326V346.229C410.123 349.248 408.205 351.344 404.884 351.344C401.51 351.344 399.627 349.248 399.627 346.229V338.326H402.326V346.282C402.326 347.863 403.09 348.928 404.884 348.928C406.66 348.928 407.423 347.863 407.423 346.282V338.326H410.123ZM415.404 351.077H412.704V338.326H415.404V351.077ZM422.54 351.077H418.011V338.326H422.54C426.589 338.326 429.039 340.919 429.039 344.631C429.039 348.342 426.5 351.077 422.54 351.077ZM420.71 340.653V348.751H422.397C424.937 348.751 426.269 347.277 426.269 344.631C426.269 342.091 424.937 340.653 422.397 340.653H420.71ZM439.491 348.733V351.077H430.914V338.326H439.367V340.671H433.613V343.352H438.834V345.678H433.613V348.733H439.491Z" fill="white"/>
<rect x="38.1577" y="317.707" width="210.443" height="52.7413" rx="23.0464" fill="#2563EB"/>
<rect x="38.1577" y="317.707" width="210.443" height="52.7413" rx="23.0464" stroke="#2563EB" stroke-width="1.55369"/>
<path d="M87.0782 338.326L82.4609 351.077H79.5129L74.9312 338.326H77.8436L81.0757 347.934L84.3788 338.326H87.0782ZM91.2372 351.077H88.5379V338.326H91.2372V351.077ZM103.63 347.117C103.63 349.55 101.676 351.255 98.4797 351.255C95.2654 351.255 93.2586 349.532 93.0633 346.833H95.7981C95.8692 348.236 96.7749 349.141 98.4264 349.141C99.7939 349.141 100.771 348.538 100.771 347.508C100.771 346.708 100.149 346.229 99.0658 346.016L96.9702 345.607C95.0345 345.235 93.5428 344.187 93.5428 342.073C93.5428 339.8 95.5495 338.167 98.3021 338.167C101.161 338.167 103.257 339.836 103.434 342.5H100.7C100.611 341.168 99.6873 340.262 98.3376 340.262C97.0235 340.262 96.2776 341.008 96.2776 341.896C96.2776 342.766 97.0768 343.139 98.0002 343.317L100.185 343.761C102.422 344.204 103.63 345.235 103.63 347.117ZM116.08 338.326V346.229C116.08 349.248 114.162 351.344 110.841 351.344C107.467 351.344 105.585 349.248 105.585 346.229V338.326H108.284V346.282C108.284 347.863 109.048 348.928 110.841 348.928C112.617 348.928 113.381 347.863 113.381 346.282V338.326H116.08ZM126.666 351.077L125.707 348.342H120.752L119.775 351.077H117.058L121.853 338.326H124.801L129.56 351.077H126.666ZM123.256 341.274L121.516 346.193H124.961L123.256 341.274ZM139.354 351.077H131.114V338.326H133.813V348.644H139.354V351.077ZM149.447 351.077H144.919V338.326H149.447C153.496 338.326 155.947 340.919 155.947 344.631C155.947 348.342 153.407 351.077 149.447 351.077ZM147.618 340.653V348.751H149.305C151.844 348.751 153.176 347.277 153.176 344.631C153.176 342.091 151.844 340.653 149.305 340.653H147.618ZM166.399 348.733V351.077H157.821V338.326H166.275V340.671H160.521V343.352H165.742V345.678H160.521V348.733H166.399ZM178.272 347.117C178.272 349.55 176.319 351.255 173.122 351.255C169.908 351.255 167.901 349.532 167.706 346.833H170.441C170.512 348.236 171.417 349.141 173.069 349.141C174.436 349.141 175.413 348.538 175.413 347.508C175.413 346.708 174.791 346.229 173.708 346.016L171.613 345.607C169.677 345.235 168.185 344.187 168.185 342.073C168.185 339.8 170.192 338.167 172.945 338.167C175.804 338.167 177.899 339.836 178.077 342.5H175.342C175.253 341.168 174.33 340.262 172.98 340.262C171.666 340.262 170.92 341.008 170.92 341.896C170.92 342.766 171.719 343.139 172.643 343.317L174.827 343.761C177.065 344.204 178.272 345.235 178.272 347.117ZM182.962 351.077H180.263V338.326H182.962V351.077ZM191.394 351.344C187.701 351.344 184.824 348.591 184.824 344.648C184.824 340.884 187.558 338.06 191.288 338.06C194.52 338.06 196.829 339.978 197.663 342.748H194.484C194.094 341.452 192.922 340.475 191.217 340.475C189.157 340.475 187.594 341.985 187.594 344.72C187.594 347.17 188.961 349.053 191.519 349.053C193.401 349.053 194.591 347.934 194.946 346.353H191.252V344.204H197.823C197.983 348.36 195.461 351.344 191.394 351.344ZM208.015 351.077L202.172 342.18V351.077H199.704V338.326H202.616L208.175 346.78V338.326H210.661V351.077H208.015Z" fill="white"/>
<rect x="294.259" y="406.597" width="233.506" height="52.7413" rx="23.0464" fill="#2563EB"/>
<rect x="294.259" y="406.597" width="233.506" height="52.7413" rx="23.0464" stroke="#2563EB" stroke-width="1.55369"/>
<path d="M337.957 439.967H335.257V429.649H331.244V427.216H341.988V429.649H337.957V439.967ZM352.176 437.623V439.967H343.598V427.216H352.051V429.561H346.298V432.242H351.519V434.569H346.298V437.623H352.176ZM364.049 436.007C364.049 438.44 362.096 440.145 358.899 440.145C355.685 440.145 353.678 438.422 353.483 435.723H356.217C356.288 437.126 357.194 438.032 358.846 438.032C360.213 438.032 361.19 437.428 361.19 436.398C361.19 435.599 360.568 435.119 359.485 434.906L357.389 434.498C355.454 434.125 353.962 433.077 353.962 430.964C353.962 428.69 355.969 427.057 358.721 427.057C361.581 427.057 363.676 428.726 363.854 431.39H361.119C361.03 430.058 360.107 429.152 358.757 429.152C357.443 429.152 356.697 429.898 356.697 430.786C356.697 431.656 357.496 432.029 358.42 432.207L360.604 432.651C362.841 433.095 364.049 434.125 364.049 436.007ZM371.341 439.967H368.642V429.649H364.628V427.216H375.372V429.649H371.341V439.967ZM385.205 433.006L387.478 435.457C387.584 434.942 387.638 434.373 387.655 433.805H389.911C389.893 434.871 389.538 436.096 389.005 437.09L391.669 439.967H388.632L387.584 438.848C386.625 439.683 385.542 440.127 384.37 440.127C381.706 440.127 380.001 438.6 380.001 436.22C380.001 434.871 380.818 433.734 382.168 432.97C381.724 432.349 381.511 431.709 381.511 430.981C381.511 429.134 383.109 427.785 385.258 427.785C387.425 427.785 388.863 429.081 388.881 431.035H386.59C386.501 430.2 385.986 429.756 385.258 429.756C384.565 429.756 384.05 430.271 384.05 430.999C384.05 431.656 384.406 432.136 385.205 433.006ZM382.363 436.078C382.363 437.215 383.109 438.12 384.548 438.12C385.205 438.12 385.826 437.907 386.324 437.499L383.429 434.427C382.772 434.764 382.363 435.35 382.363 436.078ZM399.418 439.967H396.719V427.216H399.418V439.967ZM407.726 439.967H405.027V429.649H401.013V427.216H411.757V429.649H407.726V439.967ZM421.945 437.623V439.967H413.367V427.216H421.821V429.561H416.067V432.242H421.288V434.569H416.067V437.623H421.945ZM426.732 439.967H424.033V427.216H429.023C432.238 427.216 434.102 428.708 434.102 431.354C434.102 433.077 433.037 434.444 431.225 435.048L434.511 439.967H431.296L428.419 435.457H426.732V439.967ZM426.732 429.454V433.237H428.899C430.533 433.237 431.403 432.597 431.403 431.354C431.403 430.093 430.533 429.454 428.899 429.454H426.732ZM444.628 439.967L443.669 437.232H438.714L437.737 439.967H435.02L439.815 427.216H442.763L447.522 439.967H444.628ZM441.218 430.164L439.478 435.084H442.923L441.218 430.164ZM453.684 439.967H450.984V429.649H446.971V427.216H457.715V429.649H453.684V439.967ZM462.025 439.967H459.325V427.216H462.025V439.967ZM470.404 440.234C466.728 440.234 463.886 437.392 463.886 433.574C463.886 429.756 466.728 426.95 470.404 426.95C474.097 426.95 476.957 429.756 476.957 433.574C476.957 437.392 474.097 440.234 470.404 440.234ZM470.404 437.818C472.748 437.818 474.168 435.918 474.168 433.574C474.168 431.23 472.748 429.365 470.404 429.365C468.077 429.365 466.657 431.23 466.657 433.574C466.657 435.918 468.077 437.818 470.404 437.818ZM487.129 439.967L481.287 431.07V439.967H478.818V427.216H481.731L487.289 435.67V427.216H489.775V439.967H487.129Z" fill="white"/>
<path d="M206.089 174.678C241.665 173.19 269.843 188.557 281.089 209.384C281.371 209.459 281.652 209.534 281.933 209.609C278.823 202.206 275.652 194.66 272.763 187.189C272.105 185.622 276.091 184.413 276.749 185.979C280.338 194.522 283.706 203.132 287.295 211.674C287.713 212.671 285.798 214.055 284.332 213.537C283.488 213.311 282.866 213.019 282.022 212.793C281.316 213.489 279.766 213.96 279.024 213.382C276.696 212.002 274.429 210.764 271.999 209.735C266.817 208.097 261.635 206.46 256.453 204.822C254.143 204.078 256.142 201.705 258.554 202.097C264.502 203.181 269.744 204.961 274.381 207.086C274.663 207.161 274.944 207.236 275.225 207.311C263.487 188.88 237.775 175.815 205.538 176.932C172.576 178.108 139.258 194.482 126.149 216.762C125.664 217.391 124.318 217.158 124.581 216.596C137.17 193.671 172.241 176.122 206.089 174.678Z" fill="#2563EB"/>
<path d="M522.647 177.128C558.224 175.64 586.401 191.007 597.648 211.835C597.929 211.91 598.21 211.985 598.492 212.06C595.381 204.656 592.211 197.11 589.322 189.639C588.664 188.073 592.65 186.863 593.308 188.429C596.897 196.972 600.264 205.582 603.853 214.125C604.272 215.122 602.357 216.506 600.891 215.987C600.047 215.762 599.425 215.469 598.581 215.244C597.875 215.94 596.325 216.41 595.583 215.833C593.255 214.452 590.987 213.214 588.558 212.186C583.376 210.548 578.194 208.91 573.011 207.273C570.702 206.529 572.701 204.156 575.112 204.548C581.061 205.632 586.303 207.412 590.94 209.536C591.221 209.611 591.502 209.687 591.784 209.762C580.046 191.331 554.334 178.266 522.096 179.382C489.135 180.558 455.817 196.932 442.708 219.213C442.223 219.842 440.876 219.608 441.14 219.047C453.729 196.121 488.8 178.573 522.647 177.128Z" fill="#2563EB"/>
<path d="M798.656 335.172C769.611 355.77 737.608 358.2 716.843 346.839C716.566 346.929 716.289 347.019 716.012 347.109C722.649 351.63 729.413 356.238 735.901 360.936C737.305 361.893 734.619 365.076 733.215 364.119C725.556 358.903 718.048 353.509 710.39 348.292C709.496 347.684 710.351 345.481 711.863 345.118C712.693 344.849 713.375 344.756 714.205 344.486C714.42 343.518 715.464 342.28 716.401 342.361C719.105 342.253 721.682 342.059 724.28 341.601C729.519 340.157 734.758 338.712 739.998 337.268C742.341 336.636 741.953 339.715 739.717 340.697C734.135 343.023 728.768 344.38 723.722 345.12C723.445 345.21 723.168 345.3 722.891 345.389C742.765 354.472 771.448 351.451 797.893 332.98C824.913 314.066 843.966 282.205 842.849 256.378C842.914 255.587 844.171 255.05 844.255 255.665C846.16 281.75 826.274 315.55 798.656 335.172Z" fill="#2563EB"/>
<path d="M200.975 439.052C233.03 454.557 264.994 451.654 283.592 437.013C283.88 437.055 284.168 437.098 284.455 437.141C278.659 442.699 272.75 448.363 267.13 454.07C265.904 455.246 269.08 457.94 270.307 456.765C276.995 450.352 283.507 443.79 290.196 437.377C290.976 436.629 289.769 434.598 288.218 434.491C287.354 434.362 286.666 434.383 285.803 434.255C285.431 433.336 284.196 432.288 283.285 432.523C280.601 432.865 278.028 433.099 275.39 433.078C269.984 432.521 264.577 431.964 259.171 431.407C256.756 431.172 257.648 434.144 260.016 434.743C265.905 436.112 271.423 436.562 276.523 436.456C276.811 436.498 277.099 436.541 277.387 436.584C259.291 448.831 230.504 450.601 201.365 436.764C171.586 422.585 147.521 394.318 144.346 368.663C144.151 367.893 142.823 367.572 142.841 368.192C145.282 394.232 170.49 424.274 200.975 439.052Z" fill="#2563EB"/>
<path d="M452.484 315.367C459.212 314.908 466.256 314.301 472.998 313.666C476.06 313.41 475.069 310.479 471.705 310.708C468.039 310.91 464.359 311.288 460.693 311.49C469.924 298.292 488.932 284.556 514.651 282.438C527.201 281.439 542.253 283.508 550.854 290.323C559.47 296.962 559.635 314.56 545.988 317.946C545.054 318.217 545.577 319.33 546.812 319.086C559.115 317.355 561.811 306.054 560.804 299.391C559.616 291.114 550.108 284.217 536.964 281.077C504.097 273.315 475.176 289.353 460.907 304.76C460.741 302.969 460.89 301.029 460.724 299.238C460.544 297.623 456.657 296.74 455.615 298.422C452.502 303.291 450.913 308.121 449.887 313.534C449.188 314.714 450.946 315.583 452.484 315.367Z" fill="#2563EB"/>
<path d="M238.187 315.367C244.915 314.908 251.959 314.301 258.701 313.666C261.763 313.41 260.772 310.479 257.408 310.708C253.742 310.91 250.062 311.288 246.396 311.49C255.627 298.292 274.635 284.556 300.354 282.438C312.904 281.439 327.956 283.508 336.558 290.323C345.173 296.962 345.338 314.56 331.691 317.946C330.757 318.217 331.28 319.33 332.516 319.086C344.818 317.355 347.514 306.054 346.507 299.391C345.319 291.114 335.811 284.217 322.667 281.077C289.8 273.315 260.879 289.353 246.61 304.76C246.444 302.969 246.593 301.029 246.427 299.238C246.247 297.623 242.361 296.74 241.318 298.422C238.205 303.291 236.616 308.121 235.59 313.534C234.891 314.714 236.649 315.583 238.187 315.367Z" fill="#2563EB"/>
</svg>
