<svg width="437" height="381" viewBox="0 0 437 381" fill="none" xmlns="http://www.w3.org/2000/svg">
<rect y="31.0776" width="436.106" height="349.518" rx="28" fill="#16181C"/>
<path d="M49.8347 113.686C49.8347 115.471 48.5106 116.755 46.725 116.755C44.9394 116.755 43.6152 115.471 43.6152 113.686C43.6152 111.84 44.9394 110.536 46.725 110.536C48.5106 110.536 49.8347 111.84 49.8347 113.686ZM65.544 118.962H63.3371V104.557H72.0846V106.483H65.544V111.178H71.1215V113.104H65.544V118.962ZM76.0182 113.525V118.962H73.9918V108.329H75.8777V110.576C76.62 109.111 78.2251 108.189 79.9706 108.189V110.295C77.6834 110.175 76.0182 111.178 76.0182 113.525ZM88.215 114.589V108.329H90.2414V118.962H88.3555V117.277C87.7937 118.381 86.5498 119.163 85.1053 119.163C82.9585 119.163 81.4739 117.899 81.4739 115.171V108.329H83.5002V114.769C83.5002 116.615 84.4231 117.377 85.7473 117.377C87.1116 117.377 88.215 116.254 88.215 114.589ZM101.482 115.792C101.482 117.879 99.8569 119.163 97.028 119.163C94.2192 119.163 92.554 117.779 92.3533 115.492H94.2994C94.3797 116.816 95.443 117.638 97.0681 117.638C98.4926 117.638 99.4356 117.137 99.4356 116.134C99.4356 115.251 98.8939 114.87 97.5697 114.609L95.8443 114.288C93.8781 113.907 92.7746 112.903 92.7746 111.298C92.7746 109.432 94.3998 108.128 96.8675 108.128C99.4155 108.128 101.141 109.493 101.321 111.68H99.3754C99.255 110.396 98.312 109.653 96.8876 109.653C95.6035 109.653 94.7408 110.195 94.7408 111.118C94.7408 111.98 95.2825 112.382 96.5666 112.623L98.3722 112.964C100.479 113.345 101.482 114.268 101.482 115.792ZM109.556 116.996V118.782C108.934 119.063 108.392 119.163 107.75 119.163C105.784 119.163 104.42 118.1 104.42 115.752V110.054H102.073V108.329H104.42V105.179H106.446V108.329H109.656V110.054H106.446V115.291C106.446 116.755 107.149 117.277 108.232 117.277C108.713 117.277 109.135 117.197 109.556 116.996ZM113.617 113.525V118.962H111.59V108.329H113.476V110.576C114.219 109.111 115.824 108.189 117.569 108.189V110.295C115.282 110.175 113.617 111.178 113.617 113.525ZM125.613 118.962V117.317C124.951 118.501 123.767 119.163 122.202 119.163C119.995 119.163 118.551 117.899 118.551 115.953C118.551 113.866 120.216 112.783 123.386 112.783C124.008 112.783 124.509 112.803 125.372 112.903V112.121C125.372 110.596 124.55 109.733 123.145 109.733C121.66 109.733 120.758 110.616 120.697 112.101H118.852C118.952 109.713 120.657 108.128 123.145 108.128C125.773 108.128 127.298 109.613 127.298 112.141V118.962H125.613ZM120.477 115.893C120.477 116.996 121.299 117.718 122.603 117.718C124.309 117.718 125.372 116.655 125.372 115.03V114.167C124.59 114.067 124.028 114.047 123.506 114.047C121.48 114.047 120.477 114.649 120.477 115.893ZM135.908 116.996V118.782C135.286 119.063 134.745 119.163 134.103 119.163C132.136 119.163 130.772 118.1 130.772 115.752V110.054H128.425V108.329H130.772V105.179H132.799V108.329H136.009V110.054H132.799V115.291C132.799 116.755 133.501 117.277 134.584 117.277C135.066 117.277 135.487 117.197 135.908 116.996ZM142.022 119.163C138.953 119.163 136.886 116.936 136.886 113.586C136.886 110.436 139.033 108.128 141.962 108.128C145.132 108.128 147.239 110.696 146.878 114.147H138.953C139.113 116.314 140.197 117.578 141.982 117.578C143.487 117.578 144.53 116.755 144.871 115.371H146.878C146.356 117.739 144.53 119.163 142.022 119.163ZM141.922 109.653C140.297 109.653 139.193 110.817 138.973 112.803H144.731C144.631 110.837 143.567 109.653 141.922 109.653ZM148.074 113.646C148.074 110.416 149.919 108.128 152.788 108.128C154.213 108.128 155.457 108.851 156.199 110.155V104.557H158.226V118.962H156.34V117.056C155.577 118.401 154.293 119.163 152.788 119.163C149.919 119.163 148.074 116.836 148.074 113.646ZM150.18 113.646C150.18 116.013 151.424 117.357 153.19 117.357C154.915 117.357 156.199 115.953 156.199 113.606C156.199 111.218 154.875 109.914 153.19 109.914C151.424 109.914 150.18 111.238 150.18 113.646ZM174.023 118.962L171.615 111.058L169.188 118.962H167.141L164.072 108.329H166.058L168.205 116.073L170.612 108.329H172.618L174.986 116.093L177.133 108.329H179.139L176.049 118.962H174.023ZM183.26 105.861C183.26 106.624 182.658 107.206 181.795 107.206C180.932 107.206 180.31 106.624 180.31 105.861C180.31 105.079 180.932 104.517 181.795 104.517C182.658 104.517 183.26 105.079 183.26 105.861ZM182.818 118.962H180.792V108.329H182.818V118.962ZM191.63 116.996V118.782C191.008 119.063 190.466 119.163 189.824 119.163C187.858 119.163 186.494 118.1 186.494 115.752V110.054H184.147V108.329H186.494V105.179H188.52V108.329H191.73V110.054H188.52V115.291C188.52 116.755 189.223 117.277 190.306 117.277C190.787 117.277 191.209 117.197 191.63 116.996ZM195.691 112.964V118.962H193.664V104.557H195.691V110.034C196.393 108.891 197.476 108.128 198.941 108.128C201.128 108.128 202.572 109.533 202.572 112.081V118.962H200.546V112.763C200.546 110.937 199.743 109.914 198.239 109.914C196.854 109.914 195.691 111.078 195.691 112.964ZM217.882 115.792C217.882 117.879 216.257 119.163 213.428 119.163C210.62 119.163 208.954 117.779 208.754 115.492H210.7C210.78 116.816 211.844 117.638 213.469 117.638C214.893 117.638 215.836 117.137 215.836 116.134C215.836 115.251 215.294 114.87 213.97 114.609L212.245 114.288C210.279 113.907 209.175 112.903 209.175 111.298C209.175 109.432 210.8 108.128 213.268 108.128C215.816 108.128 217.541 109.493 217.722 111.68H215.776C215.655 110.396 214.713 109.653 213.288 109.653C212.004 109.653 211.141 110.195 211.141 111.118C211.141 111.98 211.683 112.382 212.967 112.623L214.773 112.964C216.879 113.345 217.882 114.268 217.882 115.792ZM224.288 119.183C221.379 119.183 219.332 116.896 219.332 113.646C219.332 110.436 221.419 108.128 224.288 108.128C226.916 108.128 228.822 109.874 229.203 112.643H227.077C226.856 110.937 225.793 109.914 224.308 109.914C222.563 109.914 221.419 111.399 221.419 113.646C221.419 115.913 222.563 117.377 224.308 117.377C225.813 117.377 226.856 116.374 227.097 114.649H229.203C228.842 117.458 226.956 119.183 224.288 119.183ZM237.683 118.962V117.317C237.021 118.501 235.838 119.163 234.273 119.163C232.066 119.163 230.621 117.899 230.621 115.953C230.621 113.866 232.286 112.783 235.456 112.783C236.078 112.783 236.58 112.803 237.443 112.903V112.121C237.443 110.596 236.62 109.733 235.216 109.733C233.731 109.733 232.828 110.616 232.768 112.101H230.922C231.022 109.713 232.728 108.128 235.216 108.128C237.844 108.128 239.369 109.613 239.369 112.141V118.962H237.683ZM232.547 115.893C232.547 116.996 233.37 117.718 234.674 117.718C236.379 117.718 237.443 116.655 237.443 115.03V114.167C236.66 114.067 236.098 114.047 235.577 114.047C233.55 114.047 232.547 114.649 232.547 115.893ZM247.979 116.996V118.782C247.357 119.063 246.815 119.163 246.173 119.163C244.207 119.163 242.843 118.1 242.843 115.752V110.054H240.495V108.329H242.843V105.179H244.869V108.329H248.079V110.054H244.869V115.291C244.869 116.755 245.571 117.277 246.655 117.277C247.136 117.277 247.557 117.197 247.979 116.996ZM256.364 116.996V118.782C255.743 119.063 255.201 119.163 254.559 119.163C252.593 119.163 251.228 118.1 251.228 115.752V110.054H248.881V108.329H251.228V105.179H253.255V108.329H256.465V110.054H253.255V115.291C253.255 116.755 253.957 117.277 255.04 117.277C255.522 117.277 255.943 117.197 256.364 116.996ZM262.479 119.163C259.409 119.163 257.342 116.936 257.342 113.586C257.342 110.436 259.489 108.128 262.418 108.128C265.588 108.128 267.695 110.696 267.334 114.147H259.409C259.569 116.314 260.653 117.578 262.438 117.578C263.943 117.578 264.986 116.755 265.327 115.371H267.334C266.812 117.739 264.986 119.163 262.479 119.163ZM262.378 109.653C260.753 109.653 259.65 110.817 259.429 112.803H265.187C265.087 110.837 264.023 109.653 262.378 109.653ZM271.515 113.525V118.962H269.488V108.329H271.374V110.576C272.116 109.111 273.721 108.189 275.467 108.189V110.295C273.18 110.175 271.515 111.178 271.515 113.525ZM281.405 119.163C278.335 119.163 276.269 116.936 276.269 113.586C276.269 110.436 278.416 108.128 281.345 108.128C284.515 108.128 286.621 110.696 286.26 114.147H278.335C278.496 116.314 279.579 117.578 281.365 117.578C282.87 117.578 283.913 116.755 284.254 115.371H286.26C285.739 117.739 283.913 119.163 281.405 119.163ZM281.305 109.653C279.68 109.653 278.576 110.817 278.356 112.803H284.114C284.013 110.837 282.95 109.653 281.305 109.653ZM287.456 113.646C287.456 110.416 289.302 108.128 292.171 108.128C293.596 108.128 294.84 108.851 295.582 110.155V104.557H297.608V118.962H295.722V117.056C294.96 118.401 293.676 119.163 292.171 119.163C289.302 119.163 287.456 116.836 287.456 113.646ZM289.563 113.646C289.563 116.013 290.807 117.357 292.573 117.357C294.298 117.357 295.582 115.953 295.582 113.606C295.582 111.218 294.258 109.914 292.573 109.914C290.807 109.914 289.563 111.238 289.563 113.646ZM303.856 113.646C303.856 110.416 305.701 108.128 308.57 108.128C309.995 108.128 311.239 108.851 311.981 110.155V104.557H314.007V118.962H312.122V117.056C311.359 118.401 310.075 119.163 308.57 119.163C305.701 119.163 303.856 116.836 303.856 113.646ZM305.962 113.646C305.962 116.013 307.206 117.357 308.972 117.357C310.697 117.357 311.981 115.953 311.981 113.606C311.981 111.218 310.657 109.914 308.972 109.914C307.206 109.914 305.962 111.238 305.962 113.646ZM323.264 118.962V117.317C322.602 118.501 321.419 119.163 319.854 119.163C317.647 119.163 316.202 117.899 316.202 115.953C316.202 113.866 317.868 112.783 321.037 112.783C321.659 112.783 322.161 112.803 323.024 112.903V112.121C323.024 110.596 322.201 109.733 320.797 109.733C319.312 109.733 318.409 110.616 318.349 112.101H316.503C316.604 109.713 318.309 108.128 320.797 108.128C323.425 108.128 324.95 109.613 324.95 112.141V118.962H323.264ZM318.128 115.893C318.128 116.996 318.951 117.718 320.255 117.718C321.96 117.718 323.024 116.655 323.024 115.03V114.167C322.241 114.067 321.679 114.047 321.158 114.047C319.131 114.047 318.128 114.649 318.128 115.893ZM333.56 116.996V118.782C332.938 119.063 332.396 119.163 331.754 119.163C329.788 119.163 328.424 118.1 328.424 115.752V110.054H326.076V108.329H328.424V105.179H330.45V108.329H333.66V110.054H330.45V115.291C330.45 116.755 331.152 117.277 332.236 117.277C332.717 117.277 333.139 117.197 333.56 116.996ZM342.034 118.962V117.317C341.372 118.501 340.189 119.163 338.624 119.163C336.417 119.163 334.972 117.899 334.972 115.953C334.972 113.866 336.637 112.783 339.807 112.783C340.429 112.783 340.931 112.803 341.794 112.903V112.121C341.794 110.596 340.971 109.733 339.567 109.733C338.082 109.733 337.179 110.616 337.119 112.101H335.273C335.373 109.713 337.079 108.128 339.567 108.128C342.195 108.128 343.72 109.613 343.72 112.141V118.962H342.034ZM336.898 115.893C336.898 116.996 337.721 117.718 339.025 117.718C340.73 117.718 341.794 116.655 341.794 115.03V114.167C341.011 114.067 340.449 114.047 339.928 114.047C337.901 114.047 336.898 114.649 336.898 115.893ZM357.062 118.962V117.317C356.4 118.501 355.216 119.163 353.651 119.163C351.444 119.163 350 117.899 350 115.953C350 113.866 351.665 112.783 354.835 112.783C355.457 112.783 355.958 112.803 356.821 112.903V112.121C356.821 110.596 355.999 109.733 354.594 109.733C353.11 109.733 352.207 110.616 352.147 112.101H350.301C350.401 109.713 352.106 108.128 354.594 108.128C357.222 108.128 358.747 109.613 358.747 112.141V118.962H357.062ZM351.926 115.893C351.926 116.996 352.748 117.718 354.052 117.718C355.758 117.718 356.821 116.655 356.821 115.03V114.167C356.039 114.067 355.477 114.047 354.955 114.047C352.929 114.047 351.926 114.649 351.926 115.893ZM363.483 112.964V118.962H361.457V108.329H363.342V110.095C364.065 108.911 365.268 108.128 366.733 108.128C368.92 108.128 370.364 109.533 370.364 112.081V118.962H368.338V112.763C368.338 110.937 367.536 109.914 366.031 109.914C364.647 109.914 363.483 111.078 363.483 112.964ZM372.293 113.646C372.293 110.416 374.139 108.128 377.008 108.128C378.432 108.128 379.676 108.851 380.419 110.155V104.557H382.445V118.962H380.559V117.056C379.797 118.401 378.513 119.163 377.008 119.163C374.139 119.163 372.293 116.836 372.293 113.646ZM374.4 113.646C374.4 116.013 375.644 117.357 377.409 117.357C379.134 117.357 380.419 115.953 380.419 113.606C380.419 111.218 379.094 109.914 377.409 109.914C375.644 109.914 374.4 111.238 374.4 113.646ZM65.203 150.962H63.1766V140.329H65.0625V142.095C65.7848 140.871 66.9284 140.128 68.393 140.128C69.9579 140.128 71.1416 140.931 71.6231 142.335C72.3654 140.971 73.5893 140.128 75.2144 140.128C77.4012 140.128 78.8056 141.553 78.8056 144.081V150.962H76.7793V144.723C76.7793 142.957 75.9968 141.914 74.5122 141.914C73.1278 141.914 72.0043 143.078 72.0043 144.863V150.962H69.9779V144.723C69.9779 142.957 69.1955 141.914 67.7108 141.914C66.3064 141.914 65.203 143.078 65.203 144.863V150.962ZM87.9556 150.962V149.317C87.2935 150.501 86.1098 151.163 84.5449 151.163C82.338 151.163 80.8935 149.899 80.8935 147.953C80.8935 145.866 82.5587 144.783 85.7286 144.783C86.3506 144.783 86.8522 144.803 87.7149 144.903V144.121C87.7149 142.596 86.8923 141.733 85.4879 141.733C84.0032 141.733 83.1004 142.616 83.0402 144.101H81.1944C81.2947 141.713 83.0001 140.128 85.4879 140.128C88.1161 140.128 89.6409 141.613 89.6409 144.141V150.962H87.9556ZM82.8195 147.893C82.8195 148.996 83.6421 149.718 84.9462 149.718C86.6515 149.718 87.7149 148.655 87.7149 147.03V146.167C86.9324 146.067 86.3706 146.047 85.849 146.047C83.8226 146.047 82.8195 146.649 82.8195 147.893ZM94.3766 144.964V150.962H92.3502V140.329H94.2361V142.095C94.9584 140.911 96.1622 140.128 97.6268 140.128C99.8136 140.128 101.258 141.533 101.258 144.081V150.962H99.2318V144.763C99.2318 142.937 98.4293 141.914 96.9246 141.914C95.5402 141.914 94.3766 143.078 94.3766 144.964ZM110.59 146.589V140.329H112.616V150.962H110.73V149.277C110.169 150.381 108.925 151.163 107.48 151.163C105.333 151.163 103.849 149.899 103.849 147.171V140.329H105.875V146.769C105.875 148.615 106.798 149.377 108.122 149.377C109.486 149.377 110.59 148.254 110.59 146.589ZM121.871 150.962V149.317C121.209 150.501 120.025 151.163 118.46 151.163C116.253 151.163 114.808 149.899 114.808 147.953C114.808 145.866 116.474 144.783 119.644 144.783C120.266 144.783 120.767 144.803 121.63 144.903V144.121C121.63 142.596 120.807 141.733 119.403 141.733C117.918 141.733 117.015 142.616 116.955 144.101H115.109C115.21 141.713 116.915 140.128 119.403 140.128C122.031 140.128 123.556 141.613 123.556 144.141V150.962H121.871ZM116.735 147.893C116.735 148.996 117.557 149.718 118.861 149.718C120.567 149.718 121.63 148.655 121.63 147.03V146.167C120.847 146.067 120.286 146.047 119.764 146.047C117.738 146.047 116.735 146.649 116.735 147.893ZM128.312 150.962H126.265V136.557H128.312V150.962ZM145.469 145.646C145.469 148.856 143.623 151.163 140.774 151.163C139.33 151.163 138.106 150.441 137.343 149.157V154.835H135.317V140.329H137.203V142.275C137.965 140.911 139.269 140.128 140.774 140.128C143.603 140.128 145.469 142.436 145.469 145.646ZM143.362 145.646C143.362 143.258 142.098 141.914 140.353 141.914C138.668 141.914 137.343 143.258 137.343 145.646C137.343 147.993 138.648 149.357 140.353 149.357C142.098 149.357 143.362 148.033 143.362 145.646ZM149.55 145.525V150.962H147.523V140.329H149.409V142.576C150.152 141.111 151.757 140.189 153.502 140.189V142.295C151.215 142.175 149.55 143.178 149.55 145.525ZM159.521 151.163C156.511 151.163 154.304 148.796 154.304 145.646C154.304 142.496 156.511 140.128 159.521 140.128C162.53 140.128 164.737 142.496 164.737 145.646C164.737 148.796 162.53 151.163 159.521 151.163ZM159.521 149.377C161.266 149.377 162.65 147.973 162.65 145.646C162.65 143.318 161.266 141.934 159.521 141.934C157.775 141.934 156.411 143.318 156.411 145.646C156.411 147.973 157.775 149.377 159.521 149.377ZM170.996 151.183C168.087 151.183 166.04 148.896 166.04 145.646C166.04 142.436 168.127 140.128 170.996 140.128C173.624 140.128 175.53 141.874 175.911 144.643H173.785C173.564 142.937 172.5 141.914 171.016 141.914C169.27 141.914 168.127 143.399 168.127 145.646C168.127 147.913 169.27 149.377 171.016 149.377C172.521 149.377 173.564 148.374 173.805 146.649H175.911C175.55 149.458 173.664 151.183 170.996 151.183ZM182.227 151.163C179.157 151.163 177.091 148.936 177.091 145.586C177.091 142.436 179.237 140.128 182.166 140.128C185.336 140.128 187.443 142.696 187.082 146.147H179.157C179.318 148.314 180.401 149.578 182.187 149.578C183.691 149.578 184.735 148.755 185.076 147.371H187.082C186.56 149.739 184.735 151.163 182.227 151.163ZM182.126 141.653C180.501 141.653 179.398 142.817 179.177 144.803H184.935C184.835 142.837 183.772 141.653 182.126 141.653ZM197.663 147.792C197.663 149.879 196.038 151.163 193.209 151.163C190.4 151.163 188.735 149.779 188.534 147.492H190.48C190.56 148.816 191.624 149.638 193.249 149.638C194.673 149.638 195.616 149.137 195.616 148.134C195.616 147.251 195.075 146.87 193.75 146.609L192.025 146.288C190.059 145.907 188.955 144.903 188.955 143.298C188.955 141.432 190.581 140.128 193.048 140.128C195.596 140.128 197.322 141.493 197.502 143.68H195.556C195.436 142.396 194.493 141.653 193.068 141.653C191.784 141.653 190.922 142.195 190.922 143.118C190.922 143.98 191.463 144.382 192.747 144.623L194.553 144.964C196.66 145.345 197.663 146.268 197.663 147.792ZM208.302 147.792C208.302 149.879 206.677 151.163 203.848 151.163C201.039 151.163 199.374 149.779 199.173 147.492H201.119C201.199 148.816 202.263 149.638 203.888 149.638C205.312 149.638 206.255 149.137 206.255 148.134C206.255 147.251 205.713 146.87 204.389 146.609L202.664 146.288C200.698 145.907 199.594 144.903 199.594 143.298C199.594 141.432 201.219 140.128 203.687 140.128C206.235 140.128 207.961 141.493 208.141 143.68H206.195C206.075 142.396 205.132 141.653 203.707 141.653C202.423 141.653 201.56 142.195 201.56 143.118C201.56 143.98 202.102 144.382 203.386 144.623L205.192 144.964C207.298 145.345 208.302 146.268 208.302 147.792ZM214.888 151.163C211.818 151.163 209.752 148.936 209.752 145.586C209.752 142.436 211.898 140.128 214.828 140.128C217.998 140.128 220.104 142.696 219.743 146.147H211.818C211.979 148.314 213.062 149.578 214.848 149.578C216.352 149.578 217.396 148.755 217.737 147.371H219.743C219.221 149.739 217.396 151.163 214.888 151.163ZM214.787 141.653C213.162 141.653 212.059 142.817 211.838 144.803H217.596C217.496 142.837 216.433 141.653 214.787 141.653ZM230.324 147.792C230.324 149.879 228.699 151.163 225.87 151.163C223.061 151.163 221.396 149.779 221.195 147.492H223.141C223.222 148.816 224.285 149.638 225.91 149.638C227.334 149.638 228.277 149.137 228.277 148.134C228.277 147.251 227.736 146.87 226.412 146.609L224.686 146.288C222.72 145.907 221.617 144.903 221.617 143.298C221.617 141.432 223.242 140.128 225.709 140.128C228.257 140.128 229.983 141.493 230.163 143.68H228.217C228.097 142.396 227.154 141.653 225.729 141.653C224.445 141.653 223.583 142.195 223.583 143.118C223.583 143.98 224.124 144.382 225.408 144.623L227.214 144.964C229.321 145.345 230.324 146.268 230.324 147.792ZM235.285 149.518C235.285 150.421 234.663 151.063 233.74 151.063C232.837 151.063 232.195 150.421 232.195 149.518C232.195 148.575 232.837 147.933 233.74 147.933C234.663 147.933 235.285 148.575 235.285 149.518ZM49.8347 177.686C49.8347 179.471 48.5106 180.755 46.725 180.755C44.9394 180.755 43.6152 179.471 43.6152 177.686C43.6152 175.84 44.9394 174.536 46.725 174.536C48.5106 174.536 49.8347 175.84 49.8347 177.686ZM73.2482 182.962L71.9441 179.391H65.7246L64.4004 182.962H62.1734L67.6908 168.557H70.1184L75.5956 182.962H73.2482ZM68.8544 170.965L66.3867 177.606H71.282L68.8544 170.965ZM79.4469 176.964V182.962H77.4205V172.329H79.3064V174.095C80.0287 172.911 81.2325 172.128 82.6971 172.128C84.8839 172.128 86.3285 173.533 86.3285 176.081V182.962H84.3021V176.763C84.3021 174.937 83.4996 173.914 81.9949 173.914C80.6105 173.914 79.4469 175.078 79.4469 176.964ZM90.1229 182.962H87.8357L91.6075 177.525L88.0765 172.329H90.4238L93.0521 176.342L95.6803 172.329H97.8672L94.3762 177.586L98.1079 182.962H95.7806L92.9317 178.729L90.1229 182.962ZM102.204 169.861C102.204 170.624 101.603 171.206 100.74 171.206C99.8771 171.206 99.2551 170.624 99.2551 169.861C99.2551 169.079 99.8771 168.517 100.74 168.517C101.603 168.517 102.204 169.079 102.204 169.861ZM101.763 182.962H99.7367V172.329H101.763V182.962ZM109.03 183.163C106.021 183.163 103.814 180.796 103.814 177.646C103.814 174.496 106.021 172.128 109.03 172.128C112.039 172.128 114.246 174.496 114.246 177.646C114.246 180.796 112.039 183.163 109.03 183.163ZM109.03 181.377C110.776 181.377 112.16 179.973 112.16 177.646C112.16 175.318 110.776 173.934 109.03 173.934C107.285 173.934 105.92 175.318 105.92 177.646C105.92 179.973 107.285 181.377 109.03 181.377ZM122.953 178.589V172.329H124.979V182.962H123.093V181.277C122.532 182.381 121.288 183.163 119.843 183.163C117.696 183.163 116.212 181.899 116.212 179.171V172.329H118.238V178.769C118.238 180.615 119.161 181.377 120.485 181.377C121.849 181.377 122.953 180.254 122.953 178.589ZM136.22 179.792C136.22 181.879 134.595 183.163 131.766 183.163C128.957 183.163 127.292 181.779 127.091 179.492H129.037C129.118 180.816 130.181 181.638 131.806 181.638C133.231 181.638 134.173 181.137 134.173 180.134C134.173 179.251 133.632 178.87 132.308 178.609L130.582 178.288C128.616 177.907 127.513 176.903 127.513 175.298C127.513 173.432 129.138 172.128 131.605 172.128C134.153 172.128 135.879 173.493 136.059 175.68H134.113C133.993 174.396 133.05 173.653 131.625 173.653C130.341 173.653 129.479 174.195 129.479 175.118C129.479 175.98 130.02 176.382 131.304 176.623L133.11 176.964C135.217 177.345 136.22 178.268 136.22 179.792ZM149.065 182.962V181.317C148.403 182.501 147.22 183.163 145.655 183.163C143.448 183.163 142.003 181.899 142.003 179.953C142.003 177.866 143.668 176.783 146.838 176.783C147.46 176.783 147.962 176.803 148.825 176.903V176.121C148.825 174.596 148.002 173.733 146.598 173.733C145.113 173.733 144.21 174.616 144.15 176.101H142.304C142.404 173.713 144.11 172.128 146.598 172.128C149.226 172.128 150.751 173.613 150.751 176.141V182.962H149.065ZM143.929 179.893C143.929 180.996 144.752 181.718 146.056 181.718C147.761 181.718 148.825 180.655 148.825 179.03V178.167C148.042 178.067 147.48 178.047 146.959 178.047C144.932 178.047 143.929 178.649 143.929 179.893ZM163.612 177.646C163.612 180.836 161.766 183.163 158.897 183.163C157.392 183.163 156.108 182.401 155.346 181.056V182.962H153.46V168.557H155.486V174.155C156.229 172.851 157.452 172.128 158.897 172.128C161.746 172.128 163.612 174.416 163.612 177.646ZM161.505 177.646C161.505 175.238 160.241 173.914 158.496 173.914C156.81 173.914 155.486 175.218 155.486 177.606C155.486 179.953 156.77 181.357 158.496 181.357C160.241 181.357 161.505 180.013 161.505 177.646ZM170.12 183.163C167.111 183.163 164.904 180.796 164.904 177.646C164.904 174.496 167.111 172.128 170.12 172.128C173.13 172.128 175.337 174.496 175.337 177.646C175.337 180.796 173.13 183.163 170.12 183.163ZM170.12 181.377C171.866 181.377 173.25 179.973 173.25 177.646C173.25 175.318 171.866 173.934 170.12 173.934C168.375 173.934 167.01 175.318 167.01 177.646C167.01 179.973 168.375 181.377 170.12 181.377ZM184.043 178.589V172.329H186.069V182.962H184.184V181.277C183.622 182.381 182.378 183.163 180.933 183.163C178.787 183.163 177.302 181.899 177.302 179.171V172.329H179.328V178.769C179.328 180.615 180.251 181.377 181.575 181.377C182.94 181.377 184.043 180.254 184.043 178.589ZM194.882 180.996V182.782C194.261 183.063 193.719 183.163 193.077 183.163C191.111 183.163 189.746 182.1 189.746 179.752V174.054H187.399V172.329H189.746V169.179H191.773V172.329H194.983V174.054H191.773V179.291C191.773 180.755 192.475 181.277 193.558 181.277C194.04 181.277 194.461 181.197 194.882 180.996ZM203.136 182.962H201.11V172.329H202.995V174.095C203.718 172.871 204.861 172.128 206.326 172.128C207.891 172.128 209.075 172.931 209.556 174.335C210.298 172.971 211.522 172.128 213.147 172.128C215.334 172.128 216.739 173.553 216.739 176.081V182.962H214.712V176.723C214.712 174.957 213.93 173.914 212.445 173.914C211.061 173.914 209.937 175.078 209.937 176.863V182.962H207.911V176.723C207.911 174.957 207.128 173.914 205.644 173.914C204.239 173.914 203.136 175.078 203.136 176.863V182.962ZM225.889 182.962V181.317C225.226 182.501 224.043 183.163 222.478 183.163C220.271 183.163 218.826 181.899 218.826 179.953C218.826 177.866 220.492 176.783 223.662 176.783C224.283 176.783 224.785 176.803 225.648 176.903V176.121C225.648 174.596 224.825 173.733 223.421 173.733C221.936 173.733 221.033 174.616 220.973 176.101H219.127C219.228 173.713 220.933 172.128 223.421 172.128C226.049 172.128 227.574 173.613 227.574 176.141V182.962H225.889ZM220.752 179.893C220.752 180.996 221.575 181.718 222.879 181.718C224.584 181.718 225.648 180.655 225.648 179.03V178.167C224.865 178.067 224.304 178.047 223.782 178.047C221.756 178.047 220.752 178.649 220.752 179.893ZM232.309 182.962H230.283V168.557H232.309V177.084L236.864 172.329H239.251L234.336 177.485L239.713 182.962H237.105L232.309 177.927V182.962ZM243.605 169.861C243.605 170.624 243.003 171.206 242.141 171.206C241.278 171.206 240.656 170.624 240.656 169.861C240.656 169.079 241.278 168.517 242.141 168.517C243.003 168.517 243.605 169.079 243.605 169.861ZM243.164 182.962H241.137V172.329H243.164V182.962ZM248.003 176.964V182.962H245.977V172.329H247.863V174.095C248.585 172.911 249.789 172.128 251.253 172.128C253.44 172.128 254.885 173.533 254.885 176.081V182.962H252.858V176.763C252.858 174.937 252.056 173.914 250.551 173.914C249.167 173.914 248.003 175.078 248.003 176.964ZM261.829 187.055C259.04 187.055 257.235 185.571 257.114 183.163H259.081C259.201 184.648 260.164 185.45 261.809 185.45C263.635 185.45 264.598 184.467 264.598 182.641V180.715C263.996 181.999 262.792 182.742 261.348 182.742C258.699 182.742 256.813 180.555 256.813 177.425C256.813 174.255 258.619 172.128 261.287 172.128C262.812 172.128 264.016 172.871 264.738 174.215V172.329H266.624V182.601C266.624 185.39 264.839 187.055 261.829 187.055ZM258.86 177.425C258.86 179.632 259.943 180.976 261.709 180.976C263.434 180.976 264.598 179.592 264.598 177.485C264.598 175.278 263.454 173.874 261.709 173.874C259.963 173.874 258.86 175.238 258.86 177.425ZM272.86 177.646C272.86 174.416 274.706 172.128 277.575 172.128C278.999 172.128 280.243 172.851 280.985 174.155V168.557H283.012V182.962H281.126V181.056C280.363 182.401 279.079 183.163 277.575 183.163C274.706 183.163 272.86 180.836 272.86 177.646ZM274.966 177.646C274.966 180.013 276.21 181.357 277.976 181.357C279.701 181.357 280.985 179.953 280.985 177.606C280.985 175.218 279.661 173.914 277.976 173.914C276.21 173.914 274.966 175.238 274.966 177.646ZM290.202 183.163C287.133 183.163 285.066 180.936 285.066 177.586C285.066 174.436 287.213 172.128 290.142 172.128C293.312 172.128 295.419 174.696 295.057 178.147H287.133C287.293 180.314 288.377 181.578 290.162 181.578C291.667 181.578 292.71 180.755 293.051 179.371H295.057C294.536 181.739 292.71 183.163 290.202 183.163ZM290.102 173.653C288.477 173.653 287.373 174.817 287.153 176.803H292.911C292.81 174.837 291.747 173.653 290.102 173.653ZM301.209 183.183C298.3 183.183 296.254 180.896 296.254 177.646C296.254 174.436 298.34 172.128 301.209 172.128C303.837 172.128 305.743 173.874 306.125 176.643H303.998C303.777 174.937 302.714 173.914 301.229 173.914C299.484 173.914 298.34 175.399 298.34 177.646C298.34 179.913 299.484 181.377 301.229 181.377C302.734 181.377 303.777 180.374 304.018 178.649H306.125C305.763 181.458 303.878 183.183 301.209 183.183ZM310.632 169.861C310.632 170.624 310.03 171.206 309.167 171.206C308.305 171.206 307.683 170.624 307.683 169.861C307.683 169.079 308.305 168.517 309.167 168.517C310.03 168.517 310.632 169.079 310.632 169.861ZM310.191 182.962H308.164V172.329H310.191V182.962ZM321.43 179.792C321.43 181.879 319.805 183.163 316.976 183.163C314.167 183.163 312.502 181.779 312.301 179.492H314.248C314.328 180.816 315.391 181.638 317.016 181.638C318.441 181.638 319.384 181.137 319.384 180.134C319.384 179.251 318.842 178.87 317.518 178.609L315.792 178.288C313.826 177.907 312.723 176.903 312.723 175.298C312.723 173.432 314.348 172.128 316.816 172.128C319.364 172.128 321.089 173.493 321.27 175.68H319.324C319.203 174.396 318.26 173.653 316.836 173.653C315.552 173.653 314.689 174.195 314.689 175.118C314.689 175.98 315.231 176.382 316.515 176.623L318.32 176.964C320.427 177.345 321.43 178.268 321.43 179.792ZM326.11 169.861C326.11 170.624 325.508 171.206 324.646 171.206C323.783 171.206 323.161 170.624 323.161 169.861C323.161 169.079 323.783 168.517 324.646 168.517C325.508 168.517 326.11 169.079 326.11 169.861ZM325.669 182.962H323.643V172.329H325.669V182.962ZM332.936 183.163C329.926 183.163 327.72 180.796 327.72 177.646C327.72 174.496 329.926 172.128 332.936 172.128C335.945 172.128 338.152 174.496 338.152 177.646C338.152 180.796 335.945 183.163 332.936 183.163ZM332.936 181.377C334.681 181.377 336.066 179.973 336.066 177.646C336.066 175.318 334.681 173.934 332.936 173.934C331.19 173.934 329.826 175.318 329.826 177.646C329.826 179.973 331.19 181.377 332.936 181.377ZM342.244 176.964V182.962H340.218V172.329H342.104V174.095C342.826 172.911 344.03 172.128 345.495 172.128C347.681 172.128 349.126 173.533 349.126 176.081V182.962H347.1V176.763C347.1 174.937 346.297 173.914 344.792 173.914C343.408 173.914 342.244 175.078 342.244 176.964ZM360.243 179.792C360.243 181.879 358.618 183.163 355.789 183.163C352.981 183.163 351.315 181.779 351.115 179.492H353.061C353.141 180.816 354.204 181.638 355.829 181.638C357.254 181.638 358.197 181.137 358.197 180.134C358.197 179.251 357.655 178.87 356.331 178.609L354.606 178.288C352.639 177.907 351.536 176.903 351.536 175.298C351.536 173.432 353.161 172.128 355.629 172.128C358.177 172.128 359.902 173.493 360.083 175.68H358.137C358.016 174.396 357.073 173.653 355.649 173.653C354.365 173.653 353.502 174.195 353.502 175.118C353.502 175.98 354.044 176.382 355.328 176.623L357.134 176.964C359.24 177.345 360.243 178.268 360.243 179.792ZM71.9642 214.962L69.5566 207.058L67.129 214.962H65.0826L62.0129 204.329H63.9992L66.1459 212.073L68.5535 204.329H70.5598L72.9272 212.093L75.0739 204.329H77.0802L73.9905 214.962H71.9642ZM81.201 201.861C81.201 202.624 80.5991 203.206 79.7364 203.206C78.8737 203.206 78.2517 202.624 78.2517 201.861C78.2517 201.079 78.8737 200.517 79.7364 200.517C80.5991 200.517 81.201 201.079 81.201 201.861ZM80.7596 214.962H78.7332V204.329H80.7596V214.962ZM89.5715 212.996V214.782C88.9495 215.063 88.4078 215.163 87.7658 215.163C85.7996 215.163 84.4353 214.1 84.4353 211.752V206.054H82.088V204.329H84.4353V201.179H86.4617V204.329H89.6718V206.054H86.4617V211.291C86.4617 212.755 87.1639 213.277 88.2473 213.277C88.7288 213.277 89.1501 213.197 89.5715 212.996ZM93.632 208.964V214.962H91.6057V200.557H93.632V206.034C94.3342 204.891 95.4176 204.128 96.8822 204.128C99.0691 204.128 100.514 205.533 100.514 208.081V214.962H98.4873V208.763C98.4873 206.937 97.6847 205.914 96.18 205.914C94.7957 205.914 93.632 207.078 93.632 208.964ZM107.659 215.163C104.649 215.163 102.442 212.796 102.442 209.646C102.442 206.496 104.649 204.128 107.659 204.128C110.668 204.128 112.875 206.496 112.875 209.646C112.875 212.796 110.668 215.163 107.659 215.163ZM107.659 213.377C109.404 213.377 110.788 211.973 110.788 209.646C110.788 207.318 109.404 205.934 107.659 205.934C105.913 205.934 104.549 207.318 104.549 209.646C104.549 211.973 105.913 213.377 107.659 213.377ZM121.581 210.589V204.329H123.608V214.962H121.722V213.277C121.16 214.381 119.916 215.163 118.472 215.163C116.325 215.163 114.84 213.899 114.84 211.171V204.329H116.867V210.769C116.867 212.615 117.79 213.377 119.114 213.377C120.478 213.377 121.581 212.254 121.581 210.589ZM132.421 212.996V214.782C131.799 215.063 131.257 215.163 130.615 215.163C128.649 215.163 127.285 214.1 127.285 211.752V206.054H124.937V204.329H127.285V201.179H129.311V204.329H132.521V206.054H129.311V211.291C129.311 212.755 130.013 213.277 131.097 213.277C131.578 213.277 131.999 213.197 132.421 212.996ZM140.674 209.525V214.962H138.648V204.329H140.534V206.576C141.276 205.111 142.881 204.189 144.627 204.189V206.295C142.339 206.175 140.674 207.178 140.674 209.525ZM150.565 215.163C147.495 215.163 145.429 212.936 145.429 209.586C145.429 206.436 147.575 204.128 150.505 204.128C153.675 204.128 155.781 206.696 155.42 210.147H147.495C147.656 212.314 148.739 213.578 150.525 213.578C152.029 213.578 153.073 212.755 153.414 211.371H155.42C154.898 213.739 153.073 215.163 150.565 215.163ZM150.464 205.653C148.839 205.653 147.736 206.817 147.515 208.803H153.273C153.173 206.837 152.11 205.653 150.464 205.653ZM164.015 214.962V213.317C163.353 214.501 162.169 215.163 160.604 215.163C158.397 215.163 156.952 213.899 156.952 211.953C156.952 209.866 158.618 208.783 161.788 208.783C162.41 208.783 162.911 208.803 163.774 208.903V208.121C163.774 206.596 162.951 205.733 161.547 205.733C160.062 205.733 159.159 206.616 159.099 208.101H157.253C157.354 205.713 159.059 204.128 161.547 204.128C164.175 204.128 165.7 205.613 165.7 208.141V214.962H164.015ZM158.879 211.893C158.879 212.996 159.701 213.718 161.005 213.718C162.711 213.718 163.774 212.655 163.774 211.03V210.167C162.991 210.067 162.43 210.047 161.908 210.047C159.882 210.047 158.879 210.649 158.879 211.893ZM170.456 214.962H168.409V200.557H170.456V214.962ZM178.605 210.348H172.365V208.522H178.605V210.348ZM186.418 212.996V214.782C185.796 215.063 185.255 215.163 184.613 215.163C182.647 215.163 181.282 214.1 181.282 211.752V206.054H178.935V204.329H181.282V201.179H183.309V204.329H186.519V206.054H183.309V211.291C183.309 212.755 184.011 213.277 185.094 213.277C185.576 213.277 185.997 213.197 186.418 212.996ZM190.92 201.861C190.92 202.624 190.318 203.206 189.456 203.206C188.593 203.206 187.971 202.624 187.971 201.861C187.971 201.079 188.593 200.517 189.456 200.517C190.318 200.517 190.92 201.079 190.92 201.861ZM190.479 214.962H188.453V204.329H190.479V214.962ZM195.318 214.962H193.292V204.329H195.178V206.095C195.9 204.871 197.044 204.128 198.508 204.128C200.073 204.128 201.257 204.931 201.739 206.335C202.481 204.971 203.705 204.128 205.33 204.128C207.517 204.128 208.921 205.553 208.921 208.081V214.962H206.895V208.723C206.895 206.957 206.112 205.914 204.628 205.914C203.243 205.914 202.12 207.078 202.12 208.863V214.962H200.093V208.723C200.093 206.957 199.311 205.914 197.826 205.914C196.422 205.914 195.318 207.078 195.318 208.863V214.962ZM216.005 215.163C212.935 215.163 210.868 212.936 210.868 209.586C210.868 206.436 213.015 204.128 215.944 204.128C219.114 204.128 221.221 206.696 220.86 210.147H212.935C213.095 212.314 214.179 213.578 215.964 213.578C217.469 213.578 218.512 212.755 218.853 211.371H220.86C220.338 213.739 218.512 215.163 216.005 215.163ZM215.904 205.653C214.279 205.653 213.176 206.817 212.955 208.803H218.713C218.613 206.837 217.549 205.653 215.904 205.653ZM229.675 201.861C229.675 202.624 229.073 203.206 228.21 203.206C227.347 203.206 226.726 202.624 226.726 201.861C226.726 201.079 227.347 200.517 228.21 200.517C229.073 200.517 229.675 201.079 229.675 201.861ZM229.233 214.962H227.207V204.329H229.233V214.962ZM234.073 208.964V214.962H232.046V204.329H233.932V206.095C234.655 204.911 235.858 204.128 237.323 204.128C239.51 204.128 240.954 205.533 240.954 208.081V214.962H238.928V208.763C238.928 206.937 238.126 205.914 236.621 205.914C235.236 205.914 234.073 207.078 234.073 208.964ZM252.072 211.792C252.072 213.879 250.447 215.163 247.618 215.163C244.809 215.163 243.144 213.779 242.943 211.492H244.889C244.97 212.816 246.033 213.638 247.658 213.638C249.082 213.638 250.025 213.137 250.025 212.134C250.025 211.251 249.484 210.87 248.16 210.609L246.434 210.288C244.468 209.907 243.364 208.903 243.364 207.298C243.364 205.432 244.99 204.128 247.457 204.128C250.005 204.128 251.731 205.493 251.911 207.68H249.965C249.845 206.396 248.902 205.653 247.477 205.653C246.193 205.653 245.331 206.195 245.331 207.118C245.331 207.98 245.872 208.382 247.156 208.623L248.962 208.964C251.069 209.345 252.072 210.268 252.072 211.792ZM256.752 201.861C256.752 202.624 256.15 203.206 255.287 203.206C254.425 203.206 253.803 202.624 253.803 201.861C253.803 201.079 254.425 200.517 255.287 200.517C256.15 200.517 256.752 201.079 256.752 201.861ZM256.311 214.962H254.284V204.329H256.311V214.962ZM263.377 219.055C260.588 219.055 258.783 217.571 258.662 215.163H260.628C260.749 216.648 261.712 217.45 263.357 217.45C265.183 217.45 266.146 216.467 266.146 214.641V212.715C265.544 213.999 264.34 214.742 262.895 214.742C260.247 214.742 258.361 212.555 258.361 209.425C258.361 206.255 260.167 204.128 262.835 204.128C264.36 204.128 265.564 204.871 266.286 206.215V204.329H268.172V214.601C268.172 217.39 266.386 219.055 263.377 219.055ZM260.408 209.425C260.408 211.632 261.491 212.976 263.257 212.976C264.982 212.976 266.146 211.592 266.146 209.485C266.146 207.278 265.002 205.874 263.257 205.874C261.511 205.874 260.408 207.238 260.408 209.425ZM273.004 208.964V214.962H270.977V200.557H273.004V206.034C273.706 204.891 274.789 204.128 276.254 204.128C278.441 204.128 279.885 205.533 279.885 208.081V214.962H277.859V208.763C277.859 206.937 277.056 205.914 275.552 205.914C274.167 205.914 273.004 207.078 273.004 208.964ZM288.536 212.996V214.782C287.914 215.063 287.372 215.163 286.73 215.163C284.764 215.163 283.4 214.1 283.4 211.752V206.054H281.052V204.329H283.4V201.179H285.426V204.329H288.636V206.054H285.426V211.291C285.426 212.755 286.128 213.277 287.212 213.277C287.693 213.277 288.114 213.197 288.536 212.996ZM298.957 211.792C298.957 213.879 297.332 215.163 294.503 215.163C291.694 215.163 290.029 213.779 289.829 211.492H291.775C291.855 212.816 292.918 213.638 294.543 213.638C295.968 213.638 296.911 213.137 296.911 212.134C296.911 211.251 296.369 210.87 295.045 210.609L293.32 210.288C291.353 209.907 290.25 208.903 290.25 207.298C290.25 205.432 291.875 204.128 294.343 204.128C296.891 204.128 298.616 205.493 298.797 207.68H296.851C296.73 206.396 295.787 205.653 294.363 205.653C293.079 205.653 292.216 206.195 292.216 207.118C292.216 207.98 292.758 208.382 294.042 208.623L295.847 208.964C297.954 209.345 298.957 210.268 298.957 211.792ZM303.918 213.518C303.918 214.421 303.296 215.063 302.373 215.063C301.471 215.063 300.829 214.421 300.829 213.518C300.829 212.575 301.471 211.933 302.373 211.933C303.296 211.933 303.918 212.575 303.918 213.518ZM49.8347 241.686C49.8347 243.471 48.5106 244.755 46.725 244.755C44.9394 244.755 43.6152 243.471 43.6152 241.686C43.6152 239.84 44.9394 238.536 46.725 238.536C48.5106 238.536 49.8347 239.84 49.8347 241.686ZM69.8174 247.263C65.6443 247.263 62.4945 243.993 62.4945 239.74C62.4945 235.486 65.6443 232.256 69.8174 232.256C73.9905 232.256 77.1404 235.486 77.1404 239.74C77.1404 243.993 73.9905 247.263 69.8174 247.263ZM69.8174 245.277C72.867 245.277 74.8532 242.829 74.8532 239.74C74.8532 236.65 72.867 234.242 69.8174 234.242C66.7679 234.242 64.7816 236.65 64.7816 239.74C64.7816 242.829 66.7679 245.277 69.8174 245.277ZM88.0899 236.329L84.0974 246.962H81.8905L77.898 236.329H80.0848L83.0341 244.635L86.0235 236.329H88.0899ZM93.5695 247.163C90.4999 247.163 88.4334 244.936 88.4334 241.586C88.4334 238.436 90.5801 236.128 93.5093 236.128C96.6792 236.128 98.7859 238.696 98.4247 242.147H90.4999C90.6604 244.314 91.7438 245.578 93.5294 245.578C95.0341 245.578 96.0774 244.755 96.4184 243.371H98.4247C97.9031 245.739 96.0774 247.163 93.5695 247.163ZM93.4692 237.653C91.8441 237.653 90.7406 238.817 90.5199 240.803H96.278C96.1777 238.837 95.1143 237.653 93.4692 237.653ZM102.606 241.525V246.962H100.579V236.329H102.465V238.576C103.207 237.111 104.812 236.189 106.558 236.189V238.295C104.271 238.175 102.606 239.178 102.606 241.525ZM116.949 246.962L114.542 239.058L112.114 246.962H110.068L106.998 236.329H108.984L111.131 244.073L113.538 236.329H115.545L117.912 244.093L120.059 236.329H122.065L118.975 246.962H116.949ZM125.745 240.964V246.962H123.718V232.557H125.745V238.034C126.447 236.891 127.53 236.128 128.995 236.128C131.182 236.128 132.626 237.533 132.626 240.081V246.962H130.6V240.763C130.6 238.937 129.797 237.914 128.293 237.914C126.908 237.914 125.745 239.078 125.745 240.964ZM139.691 247.163C136.621 247.163 134.555 244.936 134.555 241.586C134.555 238.436 136.701 236.128 139.631 236.128C142.801 236.128 144.907 238.696 144.546 242.147H136.621C136.782 244.314 137.865 245.578 139.651 245.578C141.155 245.578 142.199 244.755 142.54 243.371H144.546C144.024 245.739 142.199 247.163 139.691 247.163ZM139.59 237.653C137.965 237.653 136.862 238.817 136.641 240.803H142.399C142.299 238.837 141.236 237.653 139.59 237.653ZM148.747 246.962H146.7V232.557H148.747V246.962ZM153.586 246.962H151.559V236.329H153.445V238.095C154.168 236.871 155.311 236.128 156.776 236.128C158.341 236.128 159.524 236.931 160.006 238.335C160.748 236.971 161.972 236.128 163.597 236.128C165.784 236.128 167.189 237.553 167.189 240.081V246.962H165.162V240.723C165.162 238.957 164.38 237.914 162.895 237.914C161.511 237.914 160.387 239.078 160.387 240.863V246.962H158.361V240.723C158.361 238.957 157.578 237.914 156.094 237.914C154.689 237.914 153.586 239.078 153.586 240.863V246.962ZM174.272 247.163C171.202 247.163 169.136 244.936 169.136 241.586C169.136 238.436 171.283 236.128 174.212 236.128C177.382 236.128 179.488 238.696 179.127 242.147H171.202C171.363 244.314 172.446 245.578 174.232 245.578C175.737 245.578 176.78 244.755 177.121 243.371H179.127C178.606 245.739 176.78 247.163 174.272 247.163ZM174.172 237.653C172.547 237.653 171.443 238.817 171.222 240.803H176.981C176.88 238.837 175.817 237.653 174.172 237.653ZM180.323 241.646C180.323 238.416 182.169 236.128 185.038 236.128C186.463 236.128 187.707 236.851 188.449 238.155V232.557H190.475V246.962H188.589V245.056C187.827 246.401 186.543 247.163 185.038 247.163C182.169 247.163 180.323 244.836 180.323 241.646ZM182.43 241.646C182.43 244.013 183.674 245.357 185.439 245.357C187.165 245.357 188.449 243.953 188.449 241.606C188.449 239.218 187.125 237.914 185.439 237.914C183.674 237.914 182.43 239.238 182.43 241.646ZM207.637 241.646C207.637 244.836 205.791 247.163 202.922 247.163C201.417 247.163 200.133 246.401 199.371 245.056V246.962H197.485V232.557H199.511V238.155C200.254 236.851 201.477 236.128 202.922 236.128C205.771 236.128 207.637 238.416 207.637 241.646ZM205.53 241.646C205.53 239.238 204.266 237.914 202.521 237.914C200.835 237.914 199.511 239.218 199.511 241.606C199.511 243.953 200.795 245.357 202.521 245.357C204.266 245.357 205.53 244.013 205.53 241.646ZM218.186 236.329L212.869 250.835H210.662L212.187 246.822L207.994 236.329H210.181L213.27 244.434L216.139 236.329H218.186ZM229.816 244.996V246.782C229.194 247.063 228.653 247.163 228.011 247.163C226.044 247.163 224.68 246.1 224.68 243.752V238.054H222.333V236.329H224.68V233.179H226.707V236.329H229.917V238.054H226.707V243.291C226.707 244.755 227.409 245.277 228.492 245.277C228.974 245.277 229.395 245.197 229.816 244.996ZM233.877 240.964V246.962H231.851V232.557H233.877V238.034C234.579 236.891 235.662 236.128 237.127 236.128C239.314 236.128 240.758 237.533 240.758 240.081V246.962H238.732V240.763C238.732 238.937 237.93 237.914 236.425 237.914C235.041 237.914 233.877 239.078 233.877 240.964ZM247.823 247.163C244.754 247.163 242.687 244.936 242.687 241.586C242.687 238.436 244.834 236.128 247.763 236.128C250.933 236.128 253.04 238.696 252.678 242.147H244.754C244.914 244.314 245.997 245.578 247.783 245.578C249.288 245.578 250.331 244.755 250.672 243.371H252.678C252.157 245.739 250.331 247.163 247.823 247.163ZM247.723 237.653C246.098 237.653 244.994 238.817 244.774 240.803H250.532C250.431 238.837 249.368 237.653 247.723 237.653ZM263.219 247.183C260.31 247.183 258.263 244.896 258.263 241.646C258.263 238.436 260.35 236.128 263.219 236.128C265.847 236.128 267.753 237.874 268.134 240.643H266.008C265.787 238.937 264.724 237.914 263.239 237.914C261.493 237.914 260.35 239.399 260.35 241.646C260.35 243.913 261.493 245.377 263.239 245.377C264.744 245.377 265.787 244.374 266.028 242.649H268.134C267.773 245.458 265.887 247.183 263.219 247.183ZM274.53 247.163C271.52 247.163 269.314 244.796 269.314 241.646C269.314 238.496 271.52 236.128 274.53 236.128C277.539 236.128 279.746 238.496 279.746 241.646C279.746 244.796 277.539 247.163 274.53 247.163ZM274.53 245.377C276.275 245.377 277.66 243.973 277.66 241.646C277.66 239.318 276.275 237.934 274.53 237.934C272.784 237.934 271.42 239.318 271.42 241.646C271.42 243.973 272.784 245.377 274.53 245.377ZM283.838 246.962H281.812V236.329H283.698V238.095C284.42 236.871 285.564 236.128 287.028 236.128C288.593 236.128 289.777 236.931 290.259 238.335C291.001 236.971 292.225 236.128 293.85 236.128C296.037 236.128 297.441 237.553 297.441 240.081V246.962H295.415V240.723C295.415 238.957 294.632 237.914 293.148 237.914C291.763 237.914 290.64 239.078 290.64 240.863V246.962H288.613V240.723C288.613 238.957 287.831 237.914 286.346 237.914C284.942 237.914 283.838 239.078 283.838 240.863V246.962ZM310.303 241.646C310.303 244.856 308.457 247.163 305.608 247.163C304.163 247.163 302.94 246.441 302.177 245.157V250.835H300.151V236.329H302.037V238.275C302.799 236.911 304.103 236.128 305.608 236.128C308.437 236.128 310.303 238.436 310.303 241.646ZM308.196 241.646C308.196 239.258 306.932 237.914 305.187 237.914C303.501 237.914 302.177 239.258 302.177 241.646C302.177 243.993 303.481 245.357 305.187 245.357C306.932 245.357 308.196 244.033 308.196 241.646ZM314.404 246.962H312.357V232.557H314.404V246.962ZM321.59 247.163C318.52 247.163 316.454 244.936 316.454 241.586C316.454 238.436 318.6 236.128 321.53 236.128C324.7 236.128 326.806 238.696 326.445 242.147H318.52C318.681 244.314 319.764 245.578 321.55 245.578C323.054 245.578 324.098 244.755 324.439 243.371H326.445C325.923 245.739 324.098 247.163 321.59 247.163ZM321.49 237.653C319.864 237.653 318.761 238.817 318.54 240.803H324.298C324.198 238.837 323.135 237.653 321.49 237.653ZM329.252 246.962H326.965L330.737 241.525L327.206 236.329H329.553L332.182 240.342L334.81 236.329H336.997L333.506 241.586L337.237 246.962H334.91L332.061 242.729L329.252 246.962ZM341.334 233.861C341.334 234.624 340.732 235.206 339.869 235.206C339.007 235.206 338.385 234.624 338.385 233.861C338.385 233.079 339.007 232.517 339.869 232.517C340.732 232.517 341.334 233.079 341.334 233.861ZM340.892 246.962H338.866V236.329H340.892V246.962ZM349.704 244.996V246.782C349.082 247.063 348.541 247.163 347.899 247.163C345.932 247.163 344.568 246.1 344.568 243.752V238.054H342.221V236.329H344.568V233.179H346.595V236.329H349.805V238.054H346.595V243.291C346.595 244.755 347.297 245.277 348.38 245.277C348.862 245.277 349.283 245.197 349.704 244.996ZM354.206 233.861C354.206 234.624 353.604 235.206 352.742 235.206C351.879 235.206 351.257 234.624 351.257 233.861C351.257 233.079 351.879 232.517 352.742 232.517C353.604 232.517 354.206 233.079 354.206 233.861ZM353.765 246.962H351.739V236.329H353.765V246.962ZM360.952 247.163C357.882 247.163 355.816 244.936 355.816 241.586C355.816 238.436 357.962 236.128 360.891 236.128C364.061 236.128 366.168 238.696 365.807 242.147H357.882C358.043 244.314 359.126 245.578 360.912 245.578C362.416 245.578 363.46 244.755 363.801 243.371H365.807C365.285 245.739 363.46 247.163 360.952 247.163ZM360.851 237.653C359.226 237.653 358.123 238.817 357.902 240.803H363.66C363.56 238.837 362.497 237.653 360.851 237.653ZM376.388 243.792C376.388 245.879 374.763 247.163 371.934 247.163C369.125 247.163 367.46 245.779 367.259 243.492H369.205C369.285 244.816 370.349 245.638 371.974 245.638C373.398 245.638 374.341 245.137 374.341 244.134C374.341 243.251 373.8 242.87 372.475 242.609L370.75 242.288C368.784 241.907 367.68 240.903 367.68 239.298C367.68 237.432 369.306 236.128 371.773 236.128C374.321 236.128 376.047 237.493 376.227 239.68H374.281C374.161 238.396 373.218 237.653 371.793 237.653C370.509 237.653 369.647 238.195 369.647 239.118C369.647 239.98 370.188 240.382 371.472 240.623L373.278 240.964C375.385 241.345 376.388 242.268 376.388 243.792ZM387.247 247.163C384.238 247.163 382.031 244.796 382.031 241.646C382.031 238.496 384.238 236.128 387.247 236.128C390.256 236.128 392.463 238.496 392.463 241.646C392.463 244.796 390.256 247.163 387.247 247.163ZM387.247 245.377C388.992 245.377 390.377 243.973 390.377 241.646C390.377 239.318 388.992 237.934 387.247 237.934C385.502 237.934 384.137 239.318 384.137 241.646C384.137 243.973 385.502 245.377 387.247 245.377ZM397.225 246.962H395.198V238.054H392.851V236.329H395.198V235.547C395.198 233.5 396.302 232.377 398.308 232.377C398.91 232.377 399.391 232.477 399.793 232.637V234.283C399.472 234.142 399.11 234.102 398.749 234.102C397.786 234.102 397.225 234.543 397.225 235.567V236.329H400.194V238.054H397.225V246.962ZM69.1754 276.996V278.782C68.5535 279.063 68.0118 279.163 67.3698 279.163C65.4036 279.163 64.0393 278.1 64.0393 275.752V270.054H61.6919V268.329H64.0393V265.179H66.0657V268.329H69.2757V270.054H66.0657V275.291C66.0657 276.755 66.7679 277.277 67.8513 277.277C68.3328 277.277 68.7541 277.197 69.1754 276.996ZM73.236 273.525V278.962H71.2096V268.329H73.0955V270.576C73.8379 269.111 75.4429 268.189 77.1884 268.189V270.295C74.9012 270.175 73.236 271.178 73.236 273.525ZM85.2322 278.962V277.317C84.5701 278.501 83.3864 279.163 81.8215 279.163C79.6146 279.163 78.1701 277.899 78.1701 275.953C78.1701 273.866 79.8353 272.783 83.0052 272.783C83.6272 272.783 84.1288 272.803 84.9915 272.903V272.121C84.9915 270.596 84.1689 269.733 82.7645 269.733C81.2798 269.733 80.377 270.616 80.3168 272.101H78.471C78.5713 269.713 80.2767 268.128 82.7645 268.128C85.3927 268.128 86.9175 269.613 86.9175 272.141V278.962H85.2322ZM80.0961 275.893C80.0961 276.996 80.9187 277.718 82.2228 277.718C83.9281 277.718 84.9915 276.655 84.9915 275.03V274.167C84.209 274.067 83.6473 274.047 83.1256 274.047C81.0993 274.047 80.0961 274.649 80.0961 275.893ZM88.8644 273.646C88.8644 270.416 90.7102 268.128 93.5792 268.128C95.0037 268.128 96.2476 268.851 96.9899 270.155V264.557H99.0163V278.962H97.1304V277.056C96.368 278.401 95.0839 279.163 93.5792 279.163C90.7102 279.163 88.8644 276.836 88.8644 273.646ZM90.971 273.646C90.971 276.013 92.2149 277.357 93.9805 277.357C95.7059 277.357 96.9899 275.953 96.9899 273.606C96.9899 271.218 95.6658 269.914 93.9805 269.914C92.2149 269.914 90.971 271.238 90.971 273.646ZM104.301 265.861C104.301 266.624 103.699 267.206 102.836 267.206C101.974 267.206 101.352 266.624 101.352 265.861C101.352 265.079 101.974 264.517 102.836 264.517C103.699 264.517 104.301 265.079 104.301 265.861ZM103.859 278.962H101.833V268.329H103.859V278.962ZM112.671 276.996V278.782C112.049 279.063 111.508 279.163 110.866 279.163C108.899 279.163 107.535 278.1 107.535 275.752V270.054H105.188V268.329H107.535V265.179H109.562V268.329H112.772V270.054H109.562V275.291C109.562 276.755 110.264 277.277 111.347 277.277C111.829 277.277 112.25 277.197 112.671 276.996ZM117.173 265.861C117.173 266.624 116.571 267.206 115.709 267.206C114.846 267.206 114.224 266.624 114.224 265.861C114.224 265.079 114.846 264.517 115.709 264.517C116.571 264.517 117.173 265.079 117.173 265.861ZM116.732 278.962H114.706V268.329H116.732V278.962ZM123.999 279.163C120.989 279.163 118.783 276.796 118.783 273.646C118.783 270.496 120.989 268.128 123.999 268.128C127.008 268.128 129.215 270.496 129.215 273.646C129.215 276.796 127.008 279.163 123.999 279.163ZM123.999 277.377C125.744 277.377 127.129 275.973 127.129 273.646C127.129 271.318 125.744 269.934 123.999 269.934C122.253 269.934 120.889 271.318 120.889 273.646C120.889 275.973 122.253 277.377 123.999 277.377ZM133.307 272.964V278.962H131.281V268.329H133.167V270.095C133.889 268.911 135.093 268.128 136.558 268.128C138.744 268.128 140.189 269.533 140.189 272.081V278.962H138.163V272.763C138.163 270.937 137.36 269.914 135.855 269.914C134.471 269.914 133.307 271.078 133.307 272.964ZM149.32 278.962V277.317C148.658 278.501 147.474 279.163 145.909 279.163C143.702 279.163 142.258 277.899 142.258 275.953C142.258 273.866 143.923 272.783 147.093 272.783C147.715 272.783 148.217 272.803 149.079 272.903V272.121C149.079 270.596 148.257 269.733 146.852 269.733C145.368 269.733 144.465 270.616 144.405 272.101H142.559C142.659 269.713 144.365 268.128 146.852 268.128C149.481 268.128 151.005 269.613 151.005 272.141V278.962H149.32ZM144.184 275.893C144.184 276.996 145.007 277.718 146.311 277.718C148.016 277.718 149.079 276.655 149.079 275.03V274.167C148.297 274.067 147.735 274.047 147.213 274.047C145.187 274.047 144.184 274.649 144.184 275.893ZM155.761 278.962H153.715V264.557H155.761V278.962ZM169.207 279.263C165.194 279.263 162.084 275.993 162.084 271.74C162.084 267.506 165.194 264.256 169.207 264.256C172.818 264.256 175.707 266.664 176.249 270.215H173.901C173.5 267.888 171.614 266.242 169.227 266.242C166.378 266.242 164.372 268.55 164.372 271.74C164.372 274.97 166.378 277.277 169.227 277.277C171.614 277.277 173.5 275.612 173.901 273.285H176.249C175.707 276.856 172.818 279.263 169.207 279.263ZM180.749 278.962H178.542V264.557H183.919C187.23 264.557 189.216 266.182 189.216 269.051C189.216 271.118 187.912 272.703 185.725 273.224L189.637 278.962H186.989L183.398 273.545H180.749V278.962ZM180.749 266.403V271.7H183.779C185.825 271.7 186.989 270.797 186.989 269.051C186.989 267.326 185.825 266.403 183.779 266.403H180.749ZM198.348 278.962L193.794 267.948V278.962H191.768V264.557H194.476L199.311 276.254L204.126 264.557H206.855V278.962H204.808V267.928L200.234 278.962H198.348ZM222.428 275.792C222.428 277.879 220.803 279.163 217.974 279.163C215.165 279.163 213.5 277.779 213.299 275.492H215.245C215.326 276.816 216.389 277.638 218.014 277.638C219.439 277.638 220.382 277.137 220.382 276.134C220.382 275.251 219.84 274.87 218.516 274.609L216.79 274.288C214.824 273.907 213.721 272.903 213.721 271.298C213.721 269.432 215.346 268.128 217.813 268.128C220.361 268.128 222.087 269.493 222.267 271.68H220.321C220.201 270.396 219.258 269.653 217.834 269.653C216.55 269.653 215.687 270.195 215.687 271.118C215.687 271.98 216.229 272.382 217.513 272.623L219.318 272.964C221.425 273.345 222.428 274.268 222.428 275.792ZM233.233 268.329L227.916 282.835H225.709L227.234 278.822L223.041 268.329H225.228L228.318 276.434L231.187 268.329H233.233ZM242.863 275.792C242.863 277.879 241.238 279.163 238.409 279.163C235.6 279.163 233.935 277.779 233.735 275.492H235.681C235.761 276.816 236.824 277.638 238.449 277.638C239.874 277.638 240.817 277.137 240.817 276.134C240.817 275.251 240.275 274.87 238.951 274.609L237.226 274.288C235.259 273.907 234.156 272.903 234.156 271.298C234.156 269.432 235.781 268.128 238.249 268.128C240.797 268.128 242.522 269.493 242.703 271.68H240.757C240.636 270.396 239.693 269.653 238.269 269.653C236.985 269.653 236.122 270.195 236.122 271.118C236.122 271.98 236.664 272.382 237.948 272.623L239.753 272.964C241.86 273.345 242.863 274.268 242.863 275.792ZM250.937 276.996V278.782C250.315 279.063 249.774 279.163 249.132 279.163C247.165 279.163 245.801 278.1 245.801 275.752V270.054H243.454V268.329H245.801V265.179H247.828V268.329H251.038V270.054H247.828V275.291C247.828 276.755 248.53 277.277 249.613 277.277C250.095 277.277 250.516 277.197 250.937 276.996ZM257.051 279.163C253.982 279.163 251.915 276.936 251.915 273.586C251.915 270.436 254.062 268.128 256.991 268.128C260.161 268.128 262.268 270.696 261.907 274.147H253.982C254.142 276.314 255.226 277.578 257.011 277.578C258.516 277.578 259.559 276.755 259.9 275.371H261.907C261.385 277.739 259.559 279.163 257.051 279.163ZM256.951 269.653C255.326 269.653 254.222 270.817 254.002 272.803H259.76C259.66 270.837 258.596 269.653 256.951 269.653ZM266.087 278.962H264.061V268.329H265.947V270.095C266.669 268.871 267.813 268.128 269.277 268.128C270.842 268.128 272.026 268.931 272.508 270.335C273.25 268.971 274.474 268.128 276.099 268.128C278.286 268.128 279.69 269.553 279.69 272.081V278.962H277.664V272.723C277.664 270.957 276.881 269.914 275.397 269.914C274.012 269.914 272.889 271.078 272.889 272.863V278.962H270.862V272.723C270.862 270.957 270.08 269.914 268.595 269.914C267.191 269.914 266.087 271.078 266.087 272.863V278.962ZM290.826 275.792C290.826 277.879 289.201 279.163 286.372 279.163C283.563 279.163 281.898 277.779 281.698 275.492H283.644C283.724 276.816 284.787 277.638 286.412 277.638C287.837 277.638 288.78 277.137 288.78 276.134C288.78 275.251 288.238 274.87 286.914 274.609L285.189 274.288C283.222 273.907 282.119 272.903 282.119 271.298C282.119 269.432 283.744 268.128 286.212 268.128C288.76 268.128 290.485 269.493 290.666 271.68H288.72C288.599 270.396 287.656 269.653 286.232 269.653C284.948 269.653 284.085 270.195 284.085 271.118C284.085 271.98 284.627 272.382 285.911 272.623L287.716 272.964C289.823 273.345 290.826 274.268 290.826 275.792ZM295.787 277.518C295.787 278.421 295.165 279.063 294.242 279.063C293.34 279.063 292.698 278.421 292.698 277.518C292.698 276.575 293.34 275.933 294.242 275.933C295.165 275.933 295.787 276.575 295.787 277.518Z" fill="#B4CCFF"/>
<rect x="96.8818" y="1.24704" width="241.812" height="59.6609" rx="16.1032" fill="#16181C" stroke="#2563EB" stroke-width="1.58392"/>
<path d="M191.632 38.7104H187.841V24.3052H197.651V27.5956H191.632V30.2639H196.668V33.5543H191.632V38.7104ZM209.847 35.4201V38.7104H199.655V24.3052H209.706V27.5956H203.447V29.662H209.125V32.9524H203.447V35.4201H209.847ZM222.21 35.4201V38.7104H212.018V24.3052H222.07V27.5956H215.81V29.662H221.488V32.9524H215.81V35.4201H222.21ZM234.232 38.7104H224.381V24.3052H228.173V35.2797H234.232V38.7104ZM247.771 33.9957C247.771 36.965 245.403 38.9111 241.652 38.9111C237.9 38.9111 235.492 36.9248 235.231 33.7348H239.063C239.104 35.0991 240.006 35.9618 241.571 35.9618C242.875 35.9618 243.738 35.4602 243.738 34.5574C243.738 33.9355 243.116 33.474 242.274 33.3135L239.645 32.8119C237.338 32.3706 235.813 31.0263 235.813 28.699C235.813 26.0106 238.181 24.1247 241.411 24.1247C244.842 24.1247 247.309 26.0908 247.53 29.2006H243.698C243.598 27.8965 242.715 27.0539 241.451 27.0539C240.327 27.0539 239.645 27.6558 239.645 28.4382C239.645 29.0802 240.287 29.4614 241.05 29.6019L243.838 30.1436C246.407 30.6451 247.771 31.9091 247.771 33.9957Z" fill="#2563EB"/>
</svg>
