<svg width="437" height="381" viewBox="0 0 437 381" fill="none" xmlns="http://www.w3.org/2000/svg">
<rect x="0.0625" y="31.0776" width="436.106" height="349.518" rx="28" fill="#16181C"/>
<path d="M49.8992 113.686C49.8992 115.471 48.575 116.755 46.7894 116.755C45.0038 116.755 43.6797 115.471 43.6797 113.686C43.6797 111.84 45.0038 110.536 46.7894 110.536C48.575 110.536 49.8992 111.84 49.8992 113.686ZM73.9346 114.749C73.9346 117.257 71.9283 119.163 68.4374 119.163C64.9665 119.163 62.8599 117.257 62.6793 114.388H64.9263C65.0267 116.214 66.1903 117.397 68.3972 117.397C70.223 117.397 71.5872 116.535 71.5872 115.05C71.5872 113.846 70.8048 113.244 69.1396 112.883L67.053 112.482C65.0267 112.081 63.1809 111.058 63.1809 108.61C63.1809 106.182 65.3075 104.357 68.2969 104.357C71.2863 104.357 73.5534 106.182 73.734 109.051H71.4869C71.3666 107.326 70.1226 106.122 68.317 106.122C66.4511 106.122 65.4279 107.226 65.4279 108.469C65.4279 109.834 66.6116 110.315 67.9558 110.596L70.0825 111.017C72.5503 111.519 73.9346 112.602 73.9346 114.749ZM86.4809 113.646C86.4809 116.856 84.6351 119.163 81.7861 119.163C80.3416 119.163 79.1178 118.441 78.3554 117.157V122.835H76.329V108.329H78.2149V110.275C78.9773 108.911 80.2814 108.128 81.7861 108.128C84.615 108.128 86.4809 110.436 86.4809 113.646ZM84.3743 113.646C84.3743 111.258 83.1103 109.914 81.3648 109.914C79.6795 109.914 78.3554 111.258 78.3554 113.646C78.3554 115.993 79.6595 117.357 81.3648 117.357C83.1103 117.357 84.3743 116.033 84.3743 113.646ZM92.909 119.163C89.8394 119.163 87.7729 116.936 87.7729 113.586C87.7729 110.436 89.9196 108.128 92.8488 108.128C96.0188 108.128 98.1254 110.696 97.7642 114.147H89.8394C89.9999 116.314 91.0833 117.578 92.8689 117.578C94.3736 117.578 95.4169 116.755 95.758 115.371H97.7642C97.2426 117.739 95.4169 119.163 92.909 119.163ZM92.8087 109.653C91.1836 109.653 90.0801 110.817 89.8594 112.803H95.6175C95.5172 110.837 94.4539 109.653 92.8087 109.653ZM101.945 112.964V118.962H99.9187V108.329H101.805V110.095C102.527 108.911 103.731 108.128 105.195 108.128C107.382 108.128 108.827 109.533 108.827 112.081V118.962H106.8V112.763C106.8 110.937 105.998 109.914 104.493 109.914C103.109 109.914 101.945 111.078 101.945 112.964ZM110.755 113.646C110.755 110.416 112.601 108.128 115.47 108.128C116.894 108.128 118.138 108.851 118.881 110.155V104.557H120.907V118.962H119.021V117.056C118.259 118.401 116.975 119.163 115.47 119.163C112.601 119.163 110.755 116.836 110.755 113.646ZM112.862 113.646C112.862 116.013 114.106 117.357 115.871 117.357C117.597 117.357 118.881 115.953 118.881 113.606C118.881 111.218 117.557 109.914 115.871 109.914C114.106 109.914 112.862 111.238 112.862 113.646ZM132.15 115.792C132.15 117.879 130.525 119.163 127.696 119.163C124.888 119.163 123.222 117.779 123.022 115.492H124.968C125.048 116.816 126.111 117.638 127.736 117.638C129.161 117.638 130.104 117.137 130.104 116.134C130.104 115.251 129.562 114.87 128.238 114.609L126.513 114.288C124.546 113.907 123.443 112.903 123.443 111.298C123.443 109.432 125.068 108.128 127.536 108.128C130.084 108.128 131.809 109.493 131.99 111.68H130.044C129.923 110.396 128.98 109.653 127.556 109.653C126.272 109.653 125.409 110.195 125.409 111.118C125.409 111.98 125.951 112.382 127.235 112.623L129.041 112.964C131.147 113.345 132.15 114.268 132.15 115.792ZM144.554 116.996V118.782C143.932 119.063 143.391 119.163 142.749 119.163C140.783 119.163 139.418 118.1 139.418 115.752V110.054H137.071V108.329H139.418V105.179H141.445V108.329H144.655V110.054H141.445V115.291C141.445 116.755 142.147 117.277 143.23 117.277C143.712 117.277 144.133 117.197 144.554 116.996ZM149.056 105.861C149.056 106.624 148.454 107.206 147.592 107.206C146.729 107.206 146.107 106.624 146.107 105.861C146.107 105.079 146.729 104.517 147.592 104.517C148.454 104.517 149.056 105.079 149.056 105.861ZM148.615 118.962H146.589V108.329H148.615V118.962ZM153.454 118.962H151.428V108.329H153.314V110.095C154.036 108.871 155.18 108.128 156.644 108.128C158.209 108.128 159.393 108.931 159.874 110.335C160.617 108.971 161.841 108.128 163.466 108.128C165.653 108.128 167.057 109.553 167.057 112.081V118.962H165.031V112.723C165.031 110.957 164.248 109.914 162.764 109.914C161.379 109.914 160.256 111.078 160.256 112.863V118.962H158.229V112.723C158.229 110.957 157.447 109.914 155.962 109.914C154.558 109.914 153.454 111.078 153.454 112.863V118.962ZM174.141 119.163C171.071 119.163 169.004 116.936 169.004 113.586C169.004 110.436 171.151 108.128 174.08 108.128C177.25 108.128 179.357 110.696 178.996 114.147H171.071C171.231 116.314 172.315 117.578 174.1 117.578C175.605 117.578 176.648 116.755 176.989 115.371H178.996C178.474 117.739 176.648 119.163 174.141 119.163ZM174.04 109.653C172.415 109.653 171.312 110.817 171.091 112.803H176.849C176.749 110.837 175.685 109.653 174.04 109.653ZM189.797 119.163C186.788 119.163 184.581 116.796 184.581 113.646C184.581 110.496 186.788 108.128 189.797 108.128C192.806 108.128 195.013 110.496 195.013 113.646C195.013 116.796 192.806 119.163 189.797 119.163ZM189.797 117.377C191.542 117.377 192.927 115.973 192.927 113.646C192.927 111.318 191.542 109.934 189.797 109.934C188.052 109.934 186.687 111.318 186.687 113.646C186.687 115.973 188.052 117.377 189.797 117.377ZM199.105 112.964V118.962H197.079V108.329H198.965V110.095C199.687 108.911 200.891 108.128 202.356 108.128C204.543 108.128 205.987 109.533 205.987 112.081V118.962H203.961V112.763C203.961 110.937 203.158 109.914 201.653 109.914C200.269 109.914 199.105 111.078 199.105 112.964ZM221.699 108.329L217.706 118.962H215.499L211.507 108.329H213.693L216.643 116.635L219.632 108.329H221.699ZM229.343 118.962V117.317C228.68 118.501 227.497 119.163 225.932 119.163C223.725 119.163 222.28 117.899 222.28 115.953C222.28 113.866 223.946 112.783 227.116 112.783C227.737 112.783 228.239 112.803 229.102 112.903V112.121C229.102 110.596 228.279 109.733 226.875 109.733C225.39 109.733 224.487 110.616 224.427 112.101H222.581C222.682 109.713 224.387 108.128 226.875 108.128C229.503 108.128 231.028 109.613 231.028 112.141V118.962H229.343ZM224.206 115.893C224.206 116.996 225.029 117.718 226.333 117.718C228.038 117.718 229.102 116.655 229.102 115.03V114.167C228.319 114.067 227.758 114.047 227.236 114.047C225.21 114.047 224.206 114.649 224.206 115.893ZM235.763 113.525V118.962H233.737V108.329H235.623V110.576C236.365 109.111 237.97 108.189 239.716 108.189V110.295C237.429 110.175 235.763 111.178 235.763 113.525ZM243.787 105.861C243.787 106.624 243.185 107.206 242.323 107.206C241.46 107.206 240.838 106.624 240.838 105.861C240.838 105.079 241.46 104.517 242.323 104.517C243.185 104.517 243.787 105.079 243.787 105.861ZM243.346 118.962H241.319V108.329H243.346V118.962ZM250.613 119.163C247.603 119.163 245.397 116.796 245.397 113.646C245.397 110.496 247.603 108.128 250.613 108.128C253.622 108.128 255.829 110.496 255.829 113.646C255.829 116.796 253.622 119.163 250.613 119.163ZM250.613 117.377C252.358 117.377 253.743 115.973 253.743 113.646C253.743 111.318 252.358 109.934 250.613 109.934C248.867 109.934 247.503 111.318 247.503 113.646C247.503 115.973 248.867 117.377 250.613 117.377ZM264.536 114.589V108.329H266.562V118.962H264.676V117.277C264.114 118.381 262.871 119.163 261.426 119.163C259.279 119.163 257.795 117.899 257.795 115.171V108.329H259.821V114.769C259.821 116.615 260.744 117.377 262.068 117.377C263.432 117.377 264.536 116.254 264.536 114.589ZM277.803 115.792C277.803 117.879 276.178 119.163 273.349 119.163C270.54 119.163 268.875 117.779 268.674 115.492H270.62C270.7 116.816 271.764 117.638 273.389 117.638C274.813 117.638 275.756 117.137 275.756 116.134C275.756 115.251 275.215 114.87 273.89 114.609L272.165 114.288C270.199 113.907 269.095 112.903 269.095 111.298C269.095 109.432 270.721 108.128 273.188 108.128C275.736 108.128 277.462 109.493 277.642 111.68H275.696C275.576 110.396 274.633 109.653 273.208 109.653C271.924 109.653 271.062 110.195 271.062 111.118C271.062 111.98 271.603 112.382 272.887 112.623L274.693 112.964C276.8 113.345 277.803 114.268 277.803 115.792ZM294.36 113.646C294.36 116.856 292.514 119.163 289.665 119.163C288.221 119.163 286.997 118.441 286.234 117.157V122.835H284.208V108.329H286.094V110.275C286.856 108.911 288.16 108.128 289.665 108.128C292.494 108.128 294.36 110.436 294.36 113.646ZM292.253 113.646C292.253 111.258 290.989 109.914 289.244 109.914C287.559 109.914 286.234 111.258 286.234 113.646C286.234 115.993 287.538 117.357 289.244 117.357C290.989 117.357 292.253 116.033 292.253 113.646ZM298.461 118.962H296.414V104.557H298.461V118.962ZM307.713 118.962V117.317C307.051 118.501 305.868 119.163 304.303 119.163C302.096 119.163 300.651 117.899 300.651 115.953C300.651 113.866 302.317 112.783 305.486 112.783C306.108 112.783 306.61 112.803 307.473 112.903V112.121C307.473 110.596 306.65 109.733 305.246 109.733C303.761 109.733 302.858 110.616 302.798 112.101H300.952C301.053 109.713 302.758 108.128 305.246 108.128C307.874 108.128 309.399 109.613 309.399 112.141V118.962H307.713ZM302.577 115.893C302.577 116.996 303.4 117.718 304.704 117.718C306.409 117.718 307.473 116.655 307.473 115.03V114.167C306.69 114.067 306.129 114.047 305.607 114.047C303.581 114.047 302.577 114.649 302.577 115.893ZM318.009 116.996V118.782C317.387 119.063 316.845 119.163 316.203 119.163C314.237 119.163 312.873 118.1 312.873 115.752V110.054H310.525V108.329H312.873V105.179H314.899V108.329H318.109V110.054H314.899V115.291C314.899 116.755 315.601 117.277 316.685 117.277C317.166 117.277 317.588 117.197 318.009 116.996ZM323.228 118.962H321.202V110.054H318.855V108.329H321.202V107.547C321.202 105.5 322.306 104.377 324.312 104.377C324.914 104.377 325.395 104.477 325.797 104.637V106.283C325.475 106.142 325.114 106.102 324.753 106.102C323.79 106.102 323.228 106.543 323.228 107.567V108.329H326.198V110.054H323.228V118.962ZM331.903 119.163C328.894 119.163 326.687 116.796 326.687 113.646C326.687 110.496 328.894 108.128 331.903 108.128C334.913 108.128 337.12 110.496 337.12 113.646C337.12 116.796 334.913 119.163 331.903 119.163ZM331.903 117.377C333.649 117.377 335.033 115.973 335.033 113.646C335.033 111.318 333.649 109.934 331.903 109.934C330.158 109.934 328.793 111.318 328.793 113.646C328.793 115.973 330.158 117.377 331.903 117.377ZM341.212 113.525V118.962H339.185V108.329H341.071V110.576C341.814 109.111 343.419 108.189 345.164 108.189V110.295C342.877 110.175 341.212 111.178 341.212 113.525ZM348.794 118.962H346.768V108.329H348.654V110.095C349.376 108.871 350.519 108.128 351.984 108.128C353.549 108.128 354.733 108.931 355.214 110.335C355.956 108.971 357.18 108.128 358.805 108.128C360.992 108.128 362.397 109.553 362.397 112.081V118.962H360.37V112.723C360.37 110.957 359.588 109.914 358.103 109.914C356.719 109.914 355.595 111.078 355.595 112.863V118.962H353.569V112.723C353.569 110.957 352.787 109.914 351.302 109.914C349.897 109.914 348.794 111.078 348.794 112.863V118.962ZM373.533 115.792C373.533 117.879 371.908 119.163 369.079 119.163C366.27 119.163 364.605 117.779 364.404 115.492H366.35C366.431 116.816 367.494 117.638 369.119 117.638C370.543 117.638 371.486 117.137 371.486 116.134C371.486 115.251 370.945 114.87 369.621 114.609L367.895 114.288C365.929 113.907 364.826 112.903 364.826 111.298C364.826 109.432 366.451 108.128 368.918 108.128C371.466 108.128 373.192 109.493 373.372 111.68H371.426C371.306 110.396 370.363 109.653 368.938 109.653C367.654 109.653 366.792 110.195 366.792 111.118C366.792 111.98 367.333 112.382 368.617 112.623L370.423 112.964C372.53 113.345 373.533 114.268 373.533 115.792ZM69.2399 148.996V150.782C68.6179 151.063 68.0762 151.163 67.4342 151.163C65.468 151.163 64.1038 150.1 64.1038 147.752V142.054H61.7564V140.329H64.1038V137.179H66.1301V140.329H69.3402V142.054H66.1301V147.291C66.1301 148.755 66.8323 149.277 67.9157 149.277C68.3972 149.277 68.8186 149.197 69.2399 148.996ZM73.3004 145.525V150.962H71.2741V140.329H73.16V142.576C73.9023 141.111 75.5074 140.189 77.2528 140.189V142.295C74.9657 142.175 73.3004 143.178 73.3004 145.525ZM87.8801 140.329L82.5634 154.835H80.3565L81.8813 150.822L77.6881 140.329H79.875L82.9647 148.434L85.8337 140.329H87.8801ZM91.7867 137.861C91.7867 138.624 91.1848 139.206 90.3221 139.206C89.4594 139.206 88.8375 138.624 88.8375 137.861C88.8375 137.079 89.4594 136.517 90.3221 136.517C91.1848 136.517 91.7867 137.079 91.7867 137.861ZM91.3453 150.962H89.319V140.329H91.3453V150.962ZM96.1848 144.964V150.962H94.1584V140.329H96.0443V142.095C96.7666 140.911 97.9704 140.128 99.435 140.128C101.622 140.128 103.066 141.533 103.066 144.081V150.962H101.04V144.763C101.04 142.937 100.237 141.914 98.7328 141.914C97.3484 141.914 96.1848 143.078 96.1848 144.964ZM110.011 155.055C107.222 155.055 105.416 153.571 105.296 151.163H107.262C107.382 152.648 108.345 153.45 109.991 153.45C111.816 153.45 112.779 152.467 112.779 150.641V148.715C112.177 149.999 110.974 150.742 109.529 150.742C106.881 150.742 104.995 148.555 104.995 145.425C104.995 142.255 106.801 140.128 109.469 140.128C110.994 140.128 112.198 140.871 112.92 142.215V140.329H114.806V150.601C114.806 153.39 113.02 155.055 110.011 155.055ZM107.041 145.425C107.041 147.632 108.125 148.976 109.89 148.976C111.616 148.976 112.779 147.592 112.779 145.485C112.779 143.278 111.636 141.874 109.89 141.874C108.145 141.874 107.041 143.238 107.041 145.425ZM127.803 148.996V150.782C127.181 151.063 126.639 151.163 125.997 151.163C124.031 151.163 122.666 150.1 122.666 147.752V142.054H120.319V140.329H122.666V137.179H124.693V140.329H127.903V142.054H124.693V147.291C124.693 148.755 125.395 149.277 126.478 149.277C126.96 149.277 127.381 149.197 127.803 148.996ZM133.997 151.163C130.987 151.163 128.781 148.796 128.781 145.646C128.781 142.496 130.987 140.128 133.997 140.128C137.006 140.128 139.213 142.496 139.213 145.646C139.213 148.796 137.006 151.163 133.997 151.163ZM133.997 149.377C135.742 149.377 137.127 147.973 137.127 145.646C137.127 143.318 135.742 141.934 133.997 141.934C132.251 141.934 130.887 143.318 130.887 145.646C130.887 147.973 132.251 149.377 133.997 149.377ZM149.665 151.183C146.756 151.183 144.709 148.896 144.709 145.646C144.709 142.436 146.796 140.128 149.665 140.128C152.293 140.128 154.199 141.874 154.58 144.643H152.454C152.233 142.937 151.17 141.914 149.685 141.914C147.94 141.914 146.796 143.399 146.796 145.646C146.796 147.913 147.94 149.377 149.685 149.377C151.19 149.377 152.233 148.374 152.474 146.649H154.58C154.219 149.458 152.333 151.183 149.665 151.183ZM160.976 151.163C157.967 151.163 155.76 148.796 155.76 145.646C155.76 142.496 157.967 140.128 160.976 140.128C163.986 140.128 166.192 142.496 166.192 145.646C166.192 148.796 163.986 151.163 160.976 151.163ZM160.976 149.377C162.722 149.377 164.106 147.973 164.106 145.646C164.106 143.318 162.722 141.934 160.976 141.934C159.231 141.934 157.866 143.318 157.866 145.646C157.866 147.973 159.231 149.377 160.976 149.377ZM170.285 150.962H168.258V140.329H170.144V142.095C170.866 140.871 172.01 140.128 173.475 140.128C175.039 140.128 176.223 140.931 176.705 142.335C177.447 140.971 178.671 140.128 180.296 140.128C182.483 140.128 183.887 141.553 183.887 144.081V150.962H181.861V144.723C181.861 142.957 181.078 141.914 179.594 141.914C178.209 141.914 177.086 143.078 177.086 144.863V150.962H175.059V144.723C175.059 142.957 174.277 141.914 172.792 141.914C171.388 141.914 170.285 143.078 170.285 144.863V150.962ZM196.749 145.646C196.749 148.856 194.903 151.163 192.054 151.163C190.61 151.163 189.386 150.441 188.623 149.157V154.835H186.597V140.329H188.483V142.275C189.245 140.911 190.549 140.128 192.054 140.128C194.883 140.128 196.749 142.436 196.749 145.646ZM194.642 145.646C194.642 143.258 193.378 141.914 191.633 141.914C189.947 141.914 188.623 143.258 188.623 145.646C188.623 147.993 189.927 149.357 191.633 149.357C193.378 149.357 194.642 148.033 194.642 145.646ZM201.271 137.861C201.271 138.624 200.669 139.206 199.806 139.206C198.944 139.206 198.322 138.624 198.322 137.861C198.322 137.079 198.944 136.517 199.806 136.517C200.669 136.517 201.271 137.079 201.271 137.861ZM200.83 150.962H198.803V140.329H200.83V150.962ZM205.689 150.962H203.643V136.557H205.689V150.962ZM212.875 151.163C209.806 151.163 207.739 148.936 207.739 145.586C207.739 142.436 209.886 140.128 212.815 140.128C215.985 140.128 218.092 142.696 217.731 146.147H209.806C209.966 148.314 211.05 149.578 212.835 149.578C214.34 149.578 215.383 148.755 215.724 147.371H217.731C217.209 149.739 215.383 151.163 212.875 151.163ZM212.775 141.653C211.15 141.653 210.047 142.817 209.826 144.803H215.584C215.484 142.837 214.42 141.653 212.775 141.653ZM223.315 145.646C223.315 142.416 225.161 140.128 228.03 140.128C229.455 140.128 230.699 140.851 231.441 142.155V136.557H233.467V150.962H231.581V149.056C230.819 150.401 229.535 151.163 228.03 151.163C225.161 151.163 223.315 148.836 223.315 145.646ZM225.422 145.646C225.422 148.013 226.666 149.357 228.432 149.357C230.157 149.357 231.441 147.953 231.441 145.606C231.441 143.218 230.117 141.914 228.432 141.914C226.666 141.914 225.422 143.238 225.422 145.646ZM242.724 150.962V149.317C242.062 150.501 240.879 151.163 239.314 151.163C237.107 151.163 235.662 149.899 235.662 147.953C235.662 145.866 237.327 144.783 240.497 144.783C241.119 144.783 241.621 144.803 242.484 144.903V144.121C242.484 142.596 241.661 141.733 240.257 141.733C238.772 141.733 237.869 142.616 237.809 144.101H235.963C236.063 141.713 237.769 140.128 240.257 140.128C242.885 140.128 244.41 141.613 244.41 144.141V150.962H242.724ZM237.588 147.893C237.588 148.996 238.411 149.718 239.715 149.718C241.42 149.718 242.484 148.655 242.484 147.03V146.167C241.701 146.067 241.139 146.047 240.618 146.047C238.591 146.047 237.588 146.649 237.588 147.893ZM253.02 148.996V150.782C252.398 151.063 251.856 151.163 251.214 151.163C249.248 151.163 247.884 150.1 247.884 147.752V142.054H245.536V140.329H247.884V137.179H249.91V140.329H253.12V142.054H249.91V147.291C249.91 148.755 250.612 149.277 251.696 149.277C252.177 149.277 252.598 149.197 253.02 148.996ZM261.494 150.962V149.317C260.832 150.501 259.648 151.163 258.084 151.163C255.877 151.163 254.432 149.899 254.432 147.953C254.432 145.866 256.097 144.783 259.267 144.783C259.889 144.783 260.391 144.803 261.253 144.903V144.121C261.253 142.596 260.431 141.733 259.026 141.733C257.542 141.733 256.639 142.616 256.579 144.101H254.733C254.833 141.713 256.539 140.128 259.026 140.128C261.655 140.128 263.18 141.613 263.18 144.141V150.962H261.494ZM256.358 147.893C256.358 148.996 257.181 149.718 258.485 149.718C260.19 149.718 261.253 148.655 261.253 147.03V146.167C260.471 146.067 259.909 146.047 259.388 146.047C257.361 146.047 256.358 146.649 256.358 147.893ZM268.637 149.518C268.637 150.421 268.015 151.063 267.093 151.063C266.19 151.063 265.548 150.421 265.548 149.518C265.548 148.575 266.19 147.933 267.093 147.933C268.015 147.933 268.637 148.575 268.637 149.518ZM49.8992 177.686C49.8992 179.471 48.575 180.755 46.7894 180.755C45.0038 180.755 43.6797 179.471 43.6797 177.686C43.6797 175.84 45.0038 174.536 46.7894 174.536C48.575 174.536 49.8992 175.84 49.8992 177.686ZM65.6085 182.962H63.4016V168.557H68.7784C72.0888 168.557 74.0751 170.182 74.0751 173.051C74.0751 175.118 72.771 176.703 70.5841 177.224L74.4964 182.962H71.8481L68.2568 177.545H65.6085V182.962ZM65.6085 170.403V175.7H68.638C70.6844 175.7 71.8481 174.797 71.8481 173.051C71.8481 171.326 70.6844 170.403 68.638 170.403H65.6085ZM80.3305 183.163C77.2608 183.163 75.1943 180.936 75.1943 177.586C75.1943 174.436 77.3411 172.128 80.2703 172.128C83.4402 172.128 85.5468 174.696 85.1857 178.147H77.2608C77.4213 180.314 78.5047 181.578 80.2903 181.578C81.7951 181.578 82.8383 180.755 83.1794 179.371H85.1857C84.6641 181.739 82.8383 183.163 80.3305 183.163ZM80.2302 173.653C78.605 173.653 77.5016 174.817 77.2809 176.803H83.039C82.9387 174.837 81.8753 173.653 80.2302 173.653ZM89.3865 182.962H87.3401V168.557H89.3865V182.962ZM94.6669 169.861C94.6669 170.624 94.065 171.206 93.2023 171.206C92.3396 171.206 91.7176 170.624 91.7176 169.861C91.7176 169.079 92.3396 168.517 93.2023 168.517C94.065 168.517 94.6669 169.079 94.6669 169.861ZM94.2255 182.962H92.1991V172.329H94.2255V182.962ZM101.412 183.163C98.3426 183.163 96.2761 180.936 96.2761 177.586C96.2761 174.436 98.4229 172.128 101.352 172.128C104.522 172.128 106.629 174.696 106.267 178.147H98.3426C98.5031 180.314 99.5865 181.578 101.372 181.578C102.877 181.578 103.92 180.755 104.261 179.371H106.267C105.746 181.739 103.92 183.163 101.412 183.163ZM101.312 173.653C99.6868 173.653 98.5834 174.817 98.3627 176.803H104.121C104.02 174.837 102.957 173.653 101.312 173.653ZM116.848 179.792C116.848 181.879 115.223 183.163 112.394 183.163C109.586 183.163 107.92 181.779 107.72 179.492H109.666C109.746 180.816 110.809 181.638 112.435 181.638C113.859 181.638 114.802 181.137 114.802 180.134C114.802 179.251 114.26 178.87 112.936 178.609L111.211 178.288C109.244 177.907 108.141 176.903 108.141 175.298C108.141 173.432 109.766 172.128 112.234 172.128C114.782 172.128 116.507 173.493 116.688 175.68H114.742C114.621 174.396 113.678 173.653 112.254 173.653C110.97 173.653 110.107 174.195 110.107 175.118C110.107 175.98 110.649 176.382 111.933 176.623L113.739 176.964C115.845 177.345 116.848 178.268 116.848 179.792ZM127.708 183.163C124.698 183.163 122.491 180.796 122.491 177.646C122.491 174.496 124.698 172.128 127.708 172.128C130.717 172.128 132.924 174.496 132.924 177.646C132.924 180.796 130.717 183.163 127.708 183.163ZM127.708 181.377C129.453 181.377 130.837 179.973 130.837 177.646C130.837 175.318 129.453 173.934 127.708 173.934C125.962 173.934 124.598 175.318 124.598 177.646C124.598 179.973 125.962 181.377 127.708 181.377ZM137.016 176.964V182.962H134.99V172.329H136.876V174.095C137.598 172.911 138.802 172.128 140.266 172.128C142.453 172.128 143.898 173.533 143.898 176.081V182.962H141.871V176.763C141.871 174.937 141.069 173.914 139.564 173.914C138.18 173.914 137.016 175.078 137.016 176.964ZM155.035 187.055C152.246 187.055 150.44 185.571 150.32 183.163H152.286C152.407 184.648 153.37 185.45 155.015 185.45C156.84 185.45 157.803 184.467 157.803 182.641V180.715C157.202 181.999 155.998 182.742 154.553 182.742C151.905 182.742 150.019 180.555 150.019 177.425C150.019 174.255 151.825 172.128 154.493 172.128C156.018 172.128 157.222 172.871 157.944 174.215V172.329H159.83V182.601C159.83 185.39 158.044 187.055 155.035 187.055ZM152.065 177.425C152.065 179.632 153.149 180.976 154.914 180.976C156.64 180.976 157.803 179.592 157.803 177.485C157.803 175.278 156.66 173.874 154.914 173.874C153.169 173.874 152.065 175.238 152.065 177.425ZM169.276 178.589V172.329H171.302V182.962H169.416V181.277C168.855 182.381 167.611 183.163 166.166 183.163C164.019 183.163 162.535 181.899 162.535 179.171V172.329H164.561V178.769C164.561 180.615 165.484 181.377 166.808 181.377C168.172 181.377 169.276 180.254 169.276 178.589ZM180.115 180.996V182.782C179.493 183.063 178.952 183.163 178.31 183.163C176.343 183.163 174.979 182.1 174.979 179.752V174.054H172.632V172.329H174.979V169.179H177.005V172.329H180.216V174.054H177.005V179.291C177.005 180.755 177.708 181.277 178.791 181.277C179.273 181.277 179.694 181.197 180.115 180.996ZM189.332 182.962H187.305V174.054H184.958V172.329H187.305V171.547C187.305 169.5 188.409 168.377 190.415 168.377C191.017 168.377 191.498 168.477 191.9 168.637V170.283C191.579 170.142 191.218 170.102 190.856 170.102C189.893 170.102 189.332 170.543 189.332 171.567V172.329H192.301V174.054H189.332V182.962ZM197.926 183.163C194.856 183.163 192.79 180.936 192.79 177.586C192.79 174.436 194.937 172.128 197.866 172.128C201.036 172.128 203.142 174.696 202.781 178.147H194.856C195.017 180.314 196.1 181.578 197.886 181.578C199.391 181.578 200.434 180.755 200.775 179.371H202.781C202.26 181.739 200.434 183.163 197.926 183.163ZM197.826 173.653C196.201 173.653 195.097 174.817 194.877 176.803H200.635C200.534 174.837 199.471 173.653 197.826 173.653ZM209.114 183.163C206.044 183.163 203.977 180.936 203.977 177.586C203.977 174.436 206.124 172.128 209.053 172.128C212.223 172.128 214.33 174.696 213.969 178.147H206.044C206.204 180.314 207.288 181.578 209.073 181.578C210.578 181.578 211.621 180.755 211.963 179.371H213.969C213.447 181.739 211.621 183.163 209.114 183.163ZM209.013 173.653C207.388 173.653 206.285 174.817 206.064 176.803H211.822C211.722 174.837 210.658 173.653 209.013 173.653ZM218.17 182.962H216.123V168.557H218.17V182.962ZM223.45 169.861C223.45 170.624 222.848 171.206 221.985 171.206C221.123 171.206 220.501 170.624 220.501 169.861C220.501 169.079 221.123 168.517 221.985 168.517C222.848 168.517 223.45 169.079 223.45 169.861ZM223.009 182.962H220.982V172.329H223.009V182.962ZM227.848 176.964V182.962H225.822V172.329H227.708V174.095C228.43 172.911 229.634 172.128 231.098 172.128C233.285 172.128 234.73 173.533 234.73 176.081V182.962H232.703V176.763C232.703 174.937 231.901 173.914 230.396 173.914C229.012 173.914 227.848 175.078 227.848 176.964ZM241.674 187.055C238.885 187.055 237.079 185.571 236.959 183.163H238.925C239.046 184.648 240.009 185.45 241.654 185.45C243.48 185.45 244.443 184.467 244.443 182.641V180.715C243.841 181.999 242.637 182.742 241.192 182.742C238.544 182.742 236.658 180.555 236.658 177.425C236.658 174.255 238.464 172.128 241.132 172.128C242.657 172.128 243.861 172.871 244.583 174.215V172.329H246.469V182.601C246.469 185.39 244.683 187.055 241.674 187.055ZM238.705 177.425C238.705 179.632 239.788 180.976 241.554 180.976C243.279 180.976 244.443 179.592 244.443 177.485C244.443 175.278 243.299 173.874 241.554 173.874C239.808 173.874 238.705 175.238 238.705 177.425ZM256.456 182.962H254.43V174.054H252.083V172.329H254.43V171.547C254.43 169.5 255.533 168.377 257.54 168.377C258.142 168.377 258.623 168.477 259.024 168.637V170.283C258.703 170.142 258.342 170.102 257.981 170.102C257.018 170.102 256.456 170.543 256.456 171.567V172.329H259.426V174.054H256.456V182.962ZM265.131 183.163C262.122 183.163 259.915 180.796 259.915 177.646C259.915 174.496 262.122 172.128 265.131 172.128C268.141 172.128 270.347 174.496 270.347 177.646C270.347 180.796 268.141 183.163 265.131 183.163ZM265.131 181.377C266.877 181.377 268.261 179.973 268.261 177.646C268.261 175.318 266.877 173.934 265.131 173.934C263.386 173.934 262.021 175.318 262.021 177.646C262.021 179.973 263.386 181.377 265.131 181.377ZM274.44 177.525V182.962H272.413V172.329H274.299V174.576C275.041 173.111 276.646 172.189 278.392 172.189V174.295C276.105 174.175 274.44 175.178 274.44 177.525ZM283.426 177.646C283.426 174.416 285.272 172.128 288.141 172.128C289.565 172.128 290.809 172.851 291.552 174.155V168.557H293.578V182.962H291.692V181.056C290.93 182.401 289.646 183.163 288.141 183.163C285.272 183.163 283.426 180.836 283.426 177.646ZM285.533 177.646C285.533 180.013 286.777 181.357 288.542 181.357C290.267 181.357 291.552 179.953 291.552 177.606C291.552 175.218 290.227 173.914 288.542 173.914C286.777 173.914 285.533 175.238 285.533 177.646ZM300.768 183.163C297.699 183.163 295.632 180.936 295.632 177.586C295.632 174.436 297.779 172.128 300.708 172.128C303.878 172.128 305.985 174.696 305.624 178.147H297.699C297.859 180.314 298.943 181.578 300.728 181.578C302.233 181.578 303.276 180.755 303.617 179.371H305.624C305.102 181.739 303.276 183.163 300.768 183.163ZM300.668 173.653C299.043 173.653 297.94 174.817 297.719 176.803H303.477C303.377 174.837 302.313 173.653 300.668 173.653ZM311.775 183.183C308.866 183.183 306.82 180.896 306.82 177.646C306.82 174.436 308.906 172.128 311.775 172.128C314.404 172.128 316.31 173.874 316.691 176.643H314.564C314.343 174.937 313.28 173.914 311.795 173.914C310.05 173.914 308.906 175.399 308.906 177.646C308.906 179.913 310.05 181.377 311.795 181.377C313.3 181.377 314.343 180.374 314.584 178.649H316.691C316.33 181.458 314.444 183.183 311.775 183.183ZM321.198 169.861C321.198 170.624 320.596 171.206 319.734 171.206C318.871 171.206 318.249 170.624 318.249 169.861C318.249 169.079 318.871 168.517 319.734 168.517C320.596 168.517 321.198 169.079 321.198 169.861ZM320.757 182.962H318.73V172.329H320.757V182.962ZM331.996 179.792C331.996 181.879 330.371 183.163 327.542 183.163C324.733 183.163 323.068 181.779 322.868 179.492H324.814C324.894 180.816 325.957 181.638 327.582 181.638C329.007 181.638 329.95 181.137 329.95 180.134C329.95 179.251 329.408 178.87 328.084 178.609L326.359 178.288C324.392 177.907 323.289 176.903 323.289 175.298C323.289 173.432 324.914 172.128 327.382 172.128C329.93 172.128 331.655 173.493 331.836 175.68H329.89C329.769 174.396 328.826 173.653 327.402 173.653C326.118 173.653 325.255 174.195 325.255 175.118C325.255 175.98 325.797 176.382 327.081 176.623L328.887 176.964C330.993 177.345 331.996 178.268 331.996 179.792ZM336.676 169.861C336.676 170.624 336.075 171.206 335.212 171.206C334.349 171.206 333.727 170.624 333.727 169.861C333.727 169.079 334.349 168.517 335.212 168.517C336.075 168.517 336.676 169.079 336.676 169.861ZM336.235 182.962H334.209V172.329H336.235V182.962ZM343.502 183.163C340.493 183.163 338.286 180.796 338.286 177.646C338.286 174.496 340.493 172.128 343.502 172.128C346.512 172.128 348.718 174.496 348.718 177.646C348.718 180.796 346.512 183.163 343.502 183.163ZM343.502 181.377C345.248 181.377 346.632 179.973 346.632 177.646C346.632 175.318 345.248 173.934 343.502 173.934C341.757 173.934 340.392 175.318 340.392 177.646C340.392 179.973 341.757 181.377 343.502 181.377ZM352.81 176.964V182.962H350.784V172.329H352.67V174.095C353.392 172.911 354.596 172.128 356.061 172.128C358.248 172.128 359.692 173.533 359.692 176.081V182.962H357.666V176.763C357.666 174.937 356.863 173.914 355.358 173.914C353.974 173.914 352.81 175.078 352.81 176.964ZM367.72 178.348H361.48V176.522H367.72V178.348ZM65.2674 214.962H63.241V204.329H65.127V206.095C65.8492 204.871 66.9928 204.128 68.4574 204.128C70.0223 204.128 71.206 204.931 71.6876 206.335C72.4299 204.971 73.6537 204.128 75.2788 204.128C77.4657 204.128 78.8701 205.553 78.8701 208.081V214.962H76.8437V208.723C76.8437 206.957 76.0613 205.914 74.5766 205.914C73.1923 205.914 72.0688 207.078 72.0688 208.863V214.962H70.0424V208.723C70.0424 206.957 69.2599 205.914 67.7753 205.914C66.3709 205.914 65.2674 207.078 65.2674 208.863V214.962ZM88.0201 214.962V213.317C87.358 214.501 86.1743 215.163 84.6094 215.163C82.4024 215.163 80.9579 213.899 80.9579 211.953C80.9579 209.866 82.6231 208.783 85.7931 208.783C86.415 208.783 86.9166 208.803 87.7793 208.903V208.121C87.7793 206.596 86.9567 205.733 85.5523 205.733C84.0677 205.733 83.1648 206.616 83.1046 208.101H81.2588C81.3592 205.713 83.0645 204.128 85.5523 204.128C88.1806 204.128 89.7054 205.613 89.7054 208.141V214.962H88.0201ZM82.884 211.893C82.884 212.996 83.7065 213.718 85.0106 213.718C86.716 213.718 87.7793 212.655 87.7793 211.03V210.167C86.9969 210.067 86.4351 210.047 85.9135 210.047C83.8871 210.047 82.884 210.649 82.884 211.893ZM94.441 214.962H92.4146V200.557H94.441V209.084L98.9953 204.329H101.383L96.4674 209.485L101.844 214.962H99.2361L94.441 209.927V214.962ZM105.737 201.861C105.737 202.624 105.135 203.206 104.272 203.206C103.409 203.206 102.788 202.624 102.788 201.861C102.788 201.079 103.409 200.517 104.272 200.517C105.135 200.517 105.737 201.079 105.737 201.861ZM105.295 214.962H103.269V204.329H105.295V214.962ZM110.135 208.964V214.962H108.108V204.329H109.994V206.095C110.717 204.911 111.92 204.128 113.385 204.128C115.572 204.128 117.016 205.533 117.016 208.081V214.962H114.99V208.763C114.99 206.937 114.188 205.914 112.683 205.914C111.298 205.914 110.135 207.078 110.135 208.964ZM123.961 219.055C121.172 219.055 119.366 217.571 119.246 215.163H121.212C121.332 216.648 122.295 217.45 123.941 217.45C125.766 217.45 126.729 216.467 126.729 214.641V212.715C126.127 213.999 124.924 214.742 123.479 214.742C120.831 214.742 118.945 212.555 118.945 209.425C118.945 206.255 120.751 204.128 123.419 204.128C124.944 204.128 126.148 204.871 126.87 206.215V204.329H128.756V214.601C128.756 217.39 126.97 219.055 123.961 219.055ZM120.991 209.425C120.991 211.632 122.075 212.976 123.84 212.976C125.566 212.976 126.729 211.592 126.729 209.485C126.729 207.278 125.586 205.874 123.84 205.874C122.095 205.874 120.991 207.238 120.991 209.425ZM134.31 213.518C134.31 214.421 133.688 215.063 132.765 215.063C131.862 215.063 131.22 214.421 131.22 213.518C131.22 212.575 131.862 211.933 132.765 211.933C133.688 211.933 134.31 212.575 134.31 213.518ZM49.8992 241.686C49.8992 243.471 48.575 244.755 46.7894 244.755C45.0038 244.755 43.6797 243.471 43.6797 241.686C43.6797 239.84 45.0038 238.536 46.7894 238.536C48.575 238.536 49.8992 239.84 49.8992 241.686ZM69.8819 247.263C65.7088 247.263 62.5589 243.993 62.5589 239.74C62.5589 235.486 65.7088 232.256 69.8819 232.256C74.055 232.256 77.2049 235.486 77.2049 239.74C77.2049 243.993 74.055 247.263 69.8819 247.263ZM69.8819 245.277C72.9315 245.277 74.9177 242.829 74.9177 239.74C74.9177 236.65 72.9315 234.242 69.8819 234.242C66.8323 234.242 64.8461 236.65 64.8461 239.74C64.8461 242.829 66.8323 245.277 69.8819 245.277ZM82.3161 246.962H80.2897V238.054H77.9423V236.329H80.2897V235.547C80.2897 233.5 81.3932 232.377 83.3995 232.377C84.0014 232.377 84.4829 232.477 84.8841 232.637V234.283C84.5631 234.142 84.202 234.102 83.8409 234.102C82.8778 234.102 82.3161 234.543 82.3161 235.567V236.329H85.2854V238.054H82.3161V246.962ZM93.5153 244.996V246.782C92.8933 247.063 92.3516 247.163 91.7096 247.163C89.7434 247.163 88.3792 246.1 88.3792 243.752V238.054H86.0318V236.329H88.3792V233.179H90.4055V236.329H93.6156V238.054H90.4055V243.291C90.4055 244.755 91.1077 245.277 92.1911 245.277C92.6726 245.277 93.094 245.197 93.5153 244.996ZM99.6293 247.163C96.5597 247.163 94.4932 244.936 94.4932 241.586C94.4932 238.436 96.6399 236.128 99.5691 236.128C102.739 236.128 104.846 238.696 104.485 242.147H96.5597C96.7202 244.314 97.8036 245.578 99.5892 245.578C101.094 245.578 102.137 244.755 102.478 243.371H104.485C103.963 245.739 102.137 247.163 99.6293 247.163ZM99.529 237.653C97.9039 237.653 96.8004 238.817 96.5797 240.803H102.338C102.238 238.837 101.174 237.653 99.529 237.653ZM108.665 240.964V246.962H106.639V236.329H108.525V238.095C109.247 236.911 110.451 236.128 111.916 236.128C114.102 236.128 115.547 237.533 115.547 240.081V246.962H113.521V240.763C113.521 238.937 112.718 237.914 111.213 237.914C109.829 237.914 108.665 239.078 108.665 240.964ZM130.857 243.792C130.857 245.879 129.232 247.163 126.403 247.163C123.594 247.163 121.929 245.779 121.729 243.492H123.675C123.755 244.816 124.818 245.638 126.443 245.638C127.868 245.638 128.811 245.137 128.811 244.134C128.811 243.251 128.269 242.87 126.945 242.609L125.219 242.288C123.253 241.907 122.15 240.903 122.15 239.298C122.15 237.432 123.775 236.128 126.243 236.128C128.791 236.128 130.516 237.493 130.697 239.68H128.751C128.63 238.396 127.687 237.653 126.263 237.653C124.979 237.653 124.116 238.195 124.116 239.118C124.116 239.98 124.658 240.382 125.942 240.623L127.747 240.964C129.854 241.345 130.857 242.268 130.857 243.792ZM135.096 246.962H133.07V232.557H135.096V241.084L139.65 236.329H142.038L137.122 241.485L142.499 246.962H139.891L135.096 241.927V246.962ZM146.392 233.861C146.392 234.624 145.79 235.206 144.927 235.206C144.064 235.206 143.442 234.624 143.442 233.861C143.442 233.079 144.064 232.517 144.927 232.517C145.79 232.517 146.392 233.079 146.392 233.861ZM145.95 246.962H143.924V236.329H145.95V246.962ZM158.915 241.646C158.915 244.856 157.069 247.163 154.22 247.163C152.776 247.163 151.552 246.441 150.79 245.157V250.835H148.763V236.329H150.649V238.275C151.412 236.911 152.716 236.128 154.22 236.128C157.049 236.128 158.915 238.436 158.915 241.646ZM156.809 241.646C156.809 239.258 155.545 237.914 153.799 237.914C152.114 237.914 150.79 239.258 150.79 241.646C150.79 243.993 152.094 245.357 153.799 245.357C155.545 245.357 156.809 244.033 156.809 241.646ZM169.396 243.792C169.396 245.879 167.771 247.163 164.942 247.163C162.133 247.163 160.468 245.779 160.267 243.492H162.214C162.294 244.816 163.357 245.638 164.982 245.638C166.407 245.638 167.35 245.137 167.35 244.134C167.35 243.251 166.808 242.87 165.484 242.609L163.758 242.288C161.792 241.907 160.689 240.903 160.689 239.298C160.689 237.432 162.314 236.128 164.782 236.128C167.33 236.128 169.055 237.493 169.236 239.68H167.289C167.169 238.396 166.226 237.653 164.802 237.653C163.518 237.653 162.655 238.195 162.655 239.118C162.655 239.98 163.197 240.382 164.481 240.623L166.286 240.964C168.393 241.345 169.396 242.268 169.396 243.792ZM178.269 233.861C178.269 234.624 177.667 235.206 176.805 235.206C175.942 235.206 175.32 234.624 175.32 233.861C175.32 233.079 175.942 232.517 176.805 232.517C177.667 232.517 178.269 233.079 178.269 233.861ZM177.828 246.962H175.801V236.329H177.828V246.962ZM182.667 240.964V246.962H180.641V236.329H182.527V238.095C183.249 236.911 184.453 236.128 185.917 236.128C188.104 236.128 189.549 237.533 189.549 240.081V246.962H187.522V240.763C187.522 238.937 186.72 237.914 185.215 237.914C183.831 237.914 182.667 239.078 182.667 240.964ZM197.576 242.348H191.337V240.522H197.576V242.348ZM199.02 241.646C199.02 238.416 200.866 236.128 203.735 236.128C205.16 236.128 206.404 236.851 207.146 238.155V232.557H209.172V246.962H207.286V245.056C206.524 246.401 205.24 247.163 203.735 247.163C200.866 247.163 199.02 244.836 199.02 241.646ZM201.127 241.646C201.127 244.013 202.371 245.357 204.137 245.357C205.862 245.357 207.146 243.953 207.146 241.606C207.146 239.218 205.822 237.914 204.137 237.914C202.371 237.914 201.127 239.238 201.127 241.646ZM216.363 247.163C213.293 247.163 211.227 244.936 211.227 241.586C211.227 238.436 213.374 236.128 216.303 236.128C219.473 236.128 221.579 238.696 221.218 242.147H213.293C213.454 244.314 214.537 245.578 216.323 245.578C217.827 245.578 218.871 244.755 219.212 243.371H221.218C220.696 245.739 218.871 247.163 216.363 247.163ZM216.263 237.653C214.637 237.653 213.534 238.817 213.313 240.803H219.071C218.971 238.837 217.908 237.653 216.263 237.653ZM233.524 241.646C233.524 244.856 231.679 247.163 228.83 247.163C227.385 247.163 226.161 246.441 225.399 245.157V250.835H223.373V236.329H225.258V238.275C226.021 236.911 227.325 236.128 228.83 236.128C231.659 236.128 233.524 238.436 233.524 241.646ZM231.418 241.646C231.418 239.258 230.154 237.914 228.408 237.914C226.723 237.914 225.399 239.258 225.399 241.646C225.399 243.993 226.703 245.357 228.408 245.357C230.154 245.357 231.418 244.033 231.418 241.646ZM241.421 244.996V246.782C240.799 247.063 240.257 247.163 239.615 247.163C237.649 247.163 236.285 246.1 236.285 243.752V238.054H233.937V236.329H236.285V233.179H238.311V236.329H241.521V238.054H238.311V243.291C238.311 244.755 239.013 245.277 240.097 245.277C240.578 245.277 241 245.197 241.421 244.996ZM245.481 240.964V246.962H243.455V232.557H245.481V238.034C246.184 236.891 247.267 236.128 248.732 236.128C250.919 236.128 252.363 237.533 252.363 240.081V246.962H250.337V240.763C250.337 238.937 249.534 237.914 248.029 237.914C246.645 237.914 245.481 239.078 245.481 240.964ZM261.273 246.962H259.247V236.329H261.133V238.095C261.855 236.871 262.999 236.128 264.463 236.128C266.028 236.128 267.212 236.931 267.693 238.335C268.436 236.971 269.66 236.128 271.285 236.128C273.471 236.128 274.876 237.553 274.876 240.081V246.962H272.85V240.723C272.85 238.957 272.067 237.914 270.582 237.914C269.198 237.914 268.075 239.078 268.075 240.863V246.962H266.048V240.723C266.048 238.957 265.266 237.914 263.781 237.914C262.377 237.914 261.273 239.078 261.273 240.863V246.962ZM284.026 246.962V245.317C283.364 246.501 282.18 247.163 280.615 247.163C278.408 247.163 276.964 245.899 276.964 243.953C276.964 241.866 278.629 240.783 281.799 240.783C282.421 240.783 282.922 240.803 283.785 240.903V240.121C283.785 238.596 282.963 237.733 281.558 237.733C280.073 237.733 279.171 238.616 279.11 240.101H277.265C277.365 237.713 279.07 236.128 281.558 236.128C284.186 236.128 285.711 237.613 285.711 240.141V246.962H284.026ZM278.89 243.893C278.89 244.996 279.712 245.718 281.016 245.718C282.722 245.718 283.785 244.655 283.785 243.03V242.167C283.003 242.067 282.441 242.047 281.919 242.047C279.893 242.047 278.89 242.649 278.89 243.893ZM290.447 241.525V246.962H288.42V236.329H290.306V238.576C291.049 237.111 292.654 236.189 294.399 236.189V238.295C292.112 238.175 290.447 239.178 290.447 241.525ZM298.029 246.962H296.003V232.557H298.029V241.084L302.583 236.329H304.971L300.056 241.485L305.432 246.962H302.824L298.029 241.927V246.962ZM310.722 247.163C307.652 247.163 305.585 244.936 305.585 241.586C305.585 238.436 307.732 236.128 310.661 236.128C313.831 236.128 315.938 238.696 315.577 242.147H307.652C307.812 244.314 308.896 245.578 310.681 245.578C312.186 245.578 313.229 244.755 313.57 243.371H315.577C315.055 245.739 313.229 247.163 310.722 247.163ZM310.621 237.653C308.996 237.653 307.893 238.817 307.672 240.803H313.43C313.33 238.837 312.266 237.653 310.621 237.653ZM323.691 244.996V246.782C323.069 247.063 322.527 247.163 321.885 247.163C319.919 247.163 318.555 246.1 318.555 243.752V238.054H316.207V236.329H318.555V233.179H320.581V236.329H323.791V238.054H320.581V243.291C320.581 244.755 321.283 245.277 322.367 245.277C322.848 245.277 323.27 245.197 323.691 244.996ZM328.193 233.861C328.193 234.624 327.591 235.206 326.728 235.206C325.865 235.206 325.244 234.624 325.244 233.861C325.244 233.079 325.865 232.517 326.728 232.517C327.591 232.517 328.193 233.079 328.193 233.861ZM327.751 246.962H325.725V236.329H327.751V246.962ZM332.591 240.964V246.962H330.564V236.329H332.45V238.095C333.173 236.911 334.376 236.128 335.841 236.128C338.028 236.128 339.472 237.533 339.472 240.081V246.962H337.446V240.763C337.446 238.937 336.644 237.914 335.139 237.914C333.754 237.914 332.591 239.078 332.591 240.964ZM346.417 251.055C343.628 251.055 341.822 249.571 341.702 247.163H343.668C343.788 248.648 344.751 249.45 346.397 249.45C348.222 249.45 349.185 248.467 349.185 246.641V244.715C348.583 245.999 347.38 246.742 345.935 246.742C343.287 246.742 341.401 244.555 341.401 241.425C341.401 238.255 343.207 236.128 345.875 236.128C347.4 236.128 348.604 236.871 349.326 238.215V236.329H351.212V246.601C351.212 249.39 349.426 251.055 346.417 251.055ZM343.447 241.425C343.447 243.632 344.531 244.976 346.296 244.976C348.022 244.976 349.185 243.592 349.185 241.485C349.185 239.278 348.042 237.874 346.296 237.874C344.551 237.874 343.447 239.238 343.447 241.425ZM69.6813 278.962V277.317C69.0192 278.501 67.8355 279.163 66.2706 279.163C64.0636 279.163 62.6191 277.899 62.6191 275.953C62.6191 273.866 64.2843 272.783 67.4543 272.783C68.0762 272.783 68.5778 272.803 69.4405 272.903V272.121C69.4405 270.596 68.6179 269.733 67.2135 269.733C65.7289 269.733 64.826 270.616 64.7658 272.101H62.92C63.0204 269.713 64.7257 268.128 67.2135 268.128C69.8418 268.128 71.3666 269.613 71.3666 272.141V278.962H69.6813ZM64.5451 275.893C64.5451 276.996 65.3677 277.718 66.6718 277.718C68.3772 277.718 69.4405 276.655 69.4405 275.03V274.167C68.6581 274.067 68.0963 274.047 67.5747 274.047C65.5483 274.047 64.5451 274.649 64.5451 275.893ZM76.1022 272.964V278.962H74.0758V268.329H75.9618V270.095C76.684 268.911 77.8878 268.128 79.3524 268.128C81.5393 268.128 82.9838 269.533 82.9838 272.081V278.962H80.9574V272.763C80.9574 270.937 80.1549 269.914 78.6502 269.914C77.2658 269.914 76.1022 271.078 76.1022 272.964ZM92.115 278.962V277.317C91.4529 278.501 90.2692 279.163 88.7042 279.163C86.4973 279.163 85.0528 277.899 85.0528 275.953C85.0528 273.866 86.718 272.783 89.888 272.783C90.5099 272.783 91.0115 272.803 91.8742 272.903V272.121C91.8742 270.596 91.0516 269.733 89.6472 269.733C88.1625 269.733 87.2597 270.616 87.1995 272.101H85.3537C85.454 269.713 87.1594 268.128 89.6472 268.128C92.2755 268.128 93.8002 269.613 93.8002 272.141V278.962H92.115ZM86.9788 275.893C86.9788 276.996 87.8014 277.718 89.1055 277.718C90.8109 277.718 91.8742 276.655 91.8742 275.03V274.167C91.0917 274.067 90.53 274.047 90.0083 274.047C87.982 274.047 86.9788 274.649 86.9788 275.893ZM98.5559 278.962H96.5095V264.557H98.5559V278.962ZM110.196 268.329L104.88 282.835H102.673L104.197 278.822L100.004 268.329H102.191L105.281 276.434L108.15 268.329H110.196ZM119.826 275.792C119.826 277.879 118.201 279.163 115.372 279.163C112.564 279.163 110.898 277.779 110.698 275.492H112.644C112.724 276.816 113.788 277.638 115.413 277.638C116.837 277.638 117.78 277.137 117.78 276.134C117.78 275.251 117.238 274.87 115.914 274.609L114.189 274.288C112.223 273.907 111.119 272.903 111.119 271.298C111.119 269.432 112.744 268.128 115.212 268.128C117.76 268.128 119.485 269.493 119.666 271.68H117.72C117.599 270.396 116.657 269.653 115.232 269.653C113.948 269.653 113.085 270.195 113.085 271.118C113.085 271.98 113.627 272.382 114.911 272.623L116.717 272.964C118.823 273.345 119.826 274.268 119.826 275.792ZM124.507 265.861C124.507 266.624 123.905 267.206 123.042 267.206C122.179 267.206 121.557 266.624 121.557 265.861C121.557 265.079 122.179 264.517 123.042 264.517C123.905 264.517 124.507 265.079 124.507 265.861ZM124.065 278.962H122.039V268.329H124.065V278.962ZM135.305 275.792C135.305 277.879 133.68 279.163 130.851 279.163C128.042 279.163 126.377 277.779 126.176 275.492H128.122C128.202 276.816 129.266 277.638 130.891 277.638C132.315 277.638 133.258 277.137 133.258 276.134C133.258 275.251 132.717 274.87 131.392 274.609L129.667 274.288C127.701 273.907 126.597 272.903 126.597 271.298C126.597 269.432 128.222 268.128 130.69 268.128C133.238 268.128 134.964 269.493 135.144 271.68H133.198C133.078 270.396 132.135 269.653 130.71 269.653C129.426 269.653 128.564 270.195 128.564 271.118C128.564 271.98 129.105 272.382 130.389 272.623L132.195 272.964C134.302 273.345 135.305 274.268 135.305 275.792ZM140.948 273.646C140.948 270.416 142.793 268.128 145.662 268.128C147.087 268.128 148.331 268.851 149.073 270.155V264.557H151.099V278.962H149.214V277.056C148.451 278.401 147.167 279.163 145.662 279.163C142.793 279.163 140.948 276.836 140.948 273.646ZM143.054 273.646C143.054 276.013 144.298 277.357 146.064 277.357C147.789 277.357 149.073 275.953 149.073 273.606C149.073 271.218 147.749 269.914 146.064 269.914C144.298 269.914 143.054 271.238 143.054 273.646ZM160.557 274.589V268.329H162.583V278.962H160.698V277.277C160.136 278.381 158.892 279.163 157.447 279.163C155.301 279.163 153.816 277.899 153.816 275.171V268.329H155.842V274.769C155.842 276.615 156.765 277.377 158.089 277.377C159.454 277.377 160.557 276.254 160.557 274.589ZM169.771 279.163C166.702 279.163 164.635 276.936 164.635 273.586C164.635 270.436 166.782 268.128 169.711 268.128C172.881 268.128 174.988 270.696 174.627 274.147H166.702C166.862 276.314 167.946 277.578 169.731 277.578C171.236 277.578 172.279 276.755 172.62 275.371H174.627C174.105 277.739 172.279 279.163 169.771 279.163ZM169.671 269.653C168.046 269.653 166.942 270.817 166.722 272.803H172.48C172.38 270.837 171.316 269.653 169.671 269.653ZM186.973 276.996V278.782C186.351 279.063 185.809 279.163 185.167 279.163C183.201 279.163 181.837 278.1 181.837 275.752V270.054H179.489V268.329H181.837V265.179H183.863V268.329H187.073V270.054H183.863V275.291C183.863 276.755 184.565 277.277 185.649 277.277C186.13 277.277 186.551 277.197 186.973 276.996ZM193.167 279.163C190.158 279.163 187.951 276.796 187.951 273.646C187.951 270.496 190.158 268.128 193.167 268.128C196.176 268.128 198.383 270.496 198.383 273.646C198.383 276.796 196.176 279.163 193.167 279.163ZM193.167 277.377C194.912 277.377 196.297 275.973 196.297 273.646C196.297 271.318 194.912 269.934 193.167 269.934C191.421 269.934 190.057 271.318 190.057 273.646C190.057 275.973 191.421 277.377 193.167 277.377ZM208.835 279.183C205.926 279.183 203.879 276.896 203.879 273.646C203.879 270.436 205.966 268.128 208.835 268.128C211.463 268.128 213.369 269.874 213.75 272.643H211.624C211.403 270.937 210.34 269.914 208.855 269.914C207.11 269.914 205.966 271.399 205.966 273.646C205.966 275.913 207.11 277.377 208.855 277.377C210.36 277.377 211.403 276.374 211.644 274.649H213.75C213.389 277.458 211.503 279.183 208.835 279.183ZM220.146 279.163C217.137 279.163 214.93 276.796 214.93 273.646C214.93 270.496 217.137 268.128 220.146 268.128C223.156 268.128 225.363 270.496 225.363 273.646C225.363 276.796 223.156 279.163 220.146 279.163ZM220.146 277.377C221.892 277.377 223.276 275.973 223.276 273.646C223.276 271.318 221.892 269.934 220.146 269.934C218.401 269.934 217.036 271.318 217.036 273.646C217.036 275.973 218.401 277.377 220.146 277.377ZM229.455 278.962H227.428V268.329H229.314V270.095C230.036 268.871 231.18 268.128 232.645 268.128C234.21 268.128 235.393 268.931 235.875 270.335C236.617 268.971 237.841 268.128 239.466 268.128C241.653 268.128 243.057 269.553 243.057 272.081V278.962H241.031V272.723C241.031 270.957 240.248 269.914 238.764 269.914C237.379 269.914 236.256 271.078 236.256 272.863V278.962H234.23V272.723C234.23 270.957 233.447 269.914 231.962 269.914C230.558 269.914 229.455 271.078 229.455 272.863V278.962ZM255.919 273.646C255.919 276.856 254.073 279.163 251.224 279.163C249.78 279.163 248.556 278.441 247.793 277.157V282.835H245.767V268.329H247.653V270.275C248.415 268.911 249.719 268.128 251.224 268.128C254.053 268.128 255.919 270.436 255.919 273.646ZM253.812 273.646C253.812 271.258 252.548 269.914 250.803 269.914C249.118 269.914 247.793 271.258 247.793 273.646C247.793 275.993 249.098 277.357 250.803 277.357C252.548 277.357 253.812 276.033 253.812 273.646ZM260.02 278.962H257.973V264.557H260.02V278.962ZM267.206 279.163C264.136 279.163 262.07 276.936 262.07 273.586C262.07 270.436 264.217 268.128 267.146 268.128C270.316 268.128 272.422 270.696 272.061 274.147H264.136C264.297 276.314 265.38 277.578 267.166 277.578C268.671 277.578 269.714 276.755 270.055 275.371H272.061C271.54 277.739 269.714 279.163 267.206 279.163ZM267.106 269.653C265.481 269.653 264.377 270.817 264.156 272.803H269.915C269.814 270.837 268.751 269.653 267.106 269.653ZM274.869 278.962H272.581L276.353 273.525L272.822 268.329H275.169L277.798 272.342L280.426 268.329H282.613L279.122 273.586L282.854 278.962H280.526L277.677 274.729L274.869 278.962ZM286.95 265.861C286.95 266.624 286.348 267.206 285.485 267.206C284.623 267.206 284.001 266.624 284.001 265.861C284.001 265.079 284.623 264.517 285.485 264.517C286.348 264.517 286.95 265.079 286.95 265.861ZM286.509 278.962H284.482V268.329H286.509V278.962ZM295.321 276.996V278.782C294.699 279.063 294.157 279.163 293.515 279.163C291.549 279.163 290.184 278.1 290.184 275.752V270.054H287.837V268.329H290.184V265.179H292.211V268.329H295.421V270.054H292.211V275.291C292.211 276.755 292.913 277.277 293.996 277.277C294.478 277.277 294.899 277.197 295.321 276.996ZM306.182 268.329L300.866 282.835H298.659L300.184 278.822L295.99 268.329H298.177L301.267 276.434L304.136 268.329H306.182ZM309.057 277.518C309.057 278.421 308.435 279.063 307.512 279.063C306.61 279.063 305.968 278.421 305.968 277.518C305.968 276.575 306.61 275.933 307.512 275.933C308.435 275.933 309.057 276.575 309.057 277.518Z" fill="#B4CCFF"/>
<rect x="96.9482" y="1.24704" width="241.812" height="59.6609" rx="16.1032" fill="#16181C" stroke="#2563EB" stroke-width="1.58392"/>
<path d="M196.181 38.7104H190.563V24.3052H196.181C200.735 24.3052 203.604 27.2344 203.604 31.4276C203.604 35.6208 200.635 38.7104 196.181 38.7104ZM194.355 27.5755V35.4402H195.96C198.468 35.4402 199.712 34.1361 199.712 31.4276C199.712 28.8796 198.428 27.5755 195.96 27.5755H194.355ZM212.152 39.0114C207.999 39.0114 204.729 35.8615 204.729 31.4878C204.729 27.1141 207.999 24.0043 212.152 24.0043C216.325 24.0043 219.595 27.1141 219.595 31.4878C219.595 35.8615 216.325 39.0114 212.152 39.0114ZM212.152 35.6208C214.419 35.6208 215.683 33.7549 215.683 31.4878C215.683 29.2207 214.419 27.3949 212.152 27.3949C209.885 27.3949 208.621 29.2207 208.621 31.4878C208.621 33.7549 209.885 35.6208 212.152 35.6208ZM231.751 35.4201V38.7104H221.559V24.3052H231.611V27.5956H225.351V29.662H231.029V32.9524H225.351V35.4201H231.751ZM245.458 33.9957C245.458 36.965 243.091 38.9111 239.339 38.9111C235.587 38.9111 233.18 36.9248 232.919 33.7348H236.751C236.791 35.0991 237.694 35.9618 239.259 35.9618C240.563 35.9618 241.426 35.4602 241.426 34.5574C241.426 33.9355 240.804 33.474 239.961 33.3135L237.333 32.8119C235.025 32.3706 233.501 31.0263 233.501 28.699C233.501 26.0106 235.868 24.1247 239.098 24.1247C242.529 24.1247 244.997 26.0908 245.217 29.2006H241.385C241.285 27.8965 240.402 27.0539 239.138 27.0539C238.015 27.0539 237.333 27.6558 237.333 28.4382C237.333 29.0802 237.975 29.4614 238.737 29.6019L241.526 30.1436C244.094 30.6451 245.458 31.9091 245.458 33.9957Z" fill="#2563EB"/>
</svg>
