<svg width="572" height="125" viewBox="0 0 572 125" fill="none" xmlns="http://www.w3.org/2000/svg">
<path d="M41.1225 74.8647L39.287 85H2.17722L12.3126 27.6994L48.9435 27.6994L47.1877 37.8347H22.2085L19.9739 50.444L42.6388 50.444L40.8831 60.5794L18.2182 60.5794L15.6644 74.8647H41.1225ZM73.9215 85L66.3399 46.3739L59.4766 85H48.7826L58.918 27.6994H72.5648L81.0242 70.6349L104.647 27.6994H119.012L108.876 85H98.1027L105.126 46.0547L83.6578 85H73.9215ZM144.419 66.2456H135.641L132.448 85H120.717L130.852 27.6994L151.203 27.6994C162.615 27.6994 170.117 34.3233 170.117 44.299C170.117 57.5468 159.982 66.2456 144.419 66.2456ZM149.288 37.8347H140.748L137.476 56.1103H146.095C153.597 56.1103 158.306 51.9604 158.306 45.5759C158.306 40.7875 154.874 37.8347 149.288 37.8347ZM204.909 85L202.914 72.4705H181.526L175.062 85H162.532L193.497 27.6994H206.346L216.8 85H204.909ZM197.966 40.6279L186.314 63.1332L201.477 63.1332L197.966 40.6279ZM242.245 85H230.514L238.734 38.3135H221.336L223.172 27.6994L269.698 27.6994L267.863 38.3135H250.465L242.245 85ZM278.5 85H266.768L276.903 27.6994H288.635L284.565 50.3642L308.507 50.3642L312.577 27.6994L324.308 27.6994L314.173 85L302.441 85L306.671 60.6592L282.809 60.6592L278.5 85ZM355.767 63.4524L351.936 85H340.204L344.035 63.4524L330.787 27.6994L342.519 27.6994L351.138 52.5988L368.695 27.6994H381.863L355.767 63.4524ZM419.331 85L411.75 46.3739L404.887 85L394.193 85L404.328 27.6994L417.975 27.6994L426.434 70.6349L450.057 27.6994L464.422 27.6994L454.286 85H443.513L450.535 46.0547L429.068 85H419.331ZM503.636 85L501.641 72.4705L480.253 72.4705L473.788 85H461.259L492.223 27.6994L505.072 27.6994L515.527 85H503.636ZM496.693 40.6279L485.041 63.1332H500.204L496.693 40.6279ZM546.099 66.2456H537.32L534.128 85H522.396L532.532 27.6994L552.882 27.6994C564.294 27.6994 571.796 34.3233 571.796 44.299C571.796 57.5468 561.661 66.2456 546.099 66.2456ZM550.967 37.8347H542.428L539.156 56.1103H547.775C555.276 56.1103 559.985 51.9604 559.985 45.5759C559.985 40.7875 556.553 37.8347 550.967 37.8347Z" fill="#101C35"/>
<path d="M108.628 99.5184L107.052 108.41H79.4215L86.5683 68.005H113.861L112.342 76.8963H95.2908L94.1653 83.1989H109.584L108.009 92.0902H92.5896L91.239 99.5184H108.628ZM130.946 108.41L126.782 84.6058L122.505 108.41H113.164L120.311 68.005H132.184L137.137 95.8043L151.88 68.005H164.317L157.17 108.41H147.772L152.105 84.3244L139.331 108.41H130.946ZM182.541 95.9731H177.533L175.395 108.41H165.096L172.243 68.005H187.493C196.103 68.005 201.731 72.7883 201.731 80.1039C201.731 89.7267 194.19 95.9731 182.541 95.9731ZM185.861 76.8963H180.966L179.109 87.0818H184.004C188.563 87.0818 191.32 84.8872 191.32 81.3419C191.32 78.5282 189.294 76.8963 185.861 76.8963ZM225.553 108.41L224.484 100.756H210.697L206.87 108.41H195.897L217.562 68.005H228.817L235.964 108.41H225.553ZM221.445 79.3723L214.805 92.5967H223.302L221.445 79.3723ZM255.398 108.41H245.099L250.558 77.3464H238.572L240.204 68.005H274.418L272.843 77.3464H260.856L255.398 108.41ZM282.447 108.41H272.149L279.296 68.005H289.594L286.893 83.1427H301.355L304.056 68.005L314.354 68.005L307.207 108.41H296.909L299.779 92.1465H285.317L282.447 108.41ZM337.858 93.2157L335.157 108.41H324.859L327.56 93.2157L318.331 68.005H328.629L333.75 83.7617L344.611 68.005H356.147L337.858 93.2157ZM382.036 108.41L377.872 84.6058L373.595 108.41L364.253 108.41L371.4 68.005L383.274 68.005L388.226 95.8043L402.97 68.005H415.406L408.26 108.41H398.862L403.195 84.3244L390.421 108.41H382.036ZM442.241 108.41L441.172 100.756H427.384L423.558 108.41H412.584L434.25 68.005H445.505L452.651 108.41H442.241ZM438.133 79.3723L431.492 92.5967H439.99L438.133 79.3723ZM474.353 95.9731H469.344L467.206 108.41H456.908L464.054 68.005H479.305C487.915 68.005 493.542 72.7883 493.542 80.1039C493.542 89.7267 486.001 95.9731 474.353 95.9731ZM477.673 76.8963H472.777L470.92 87.0818H475.816C480.374 87.0818 483.131 84.8872 483.131 81.3419C483.131 78.5282 481.105 76.8963 477.673 76.8963Z" fill="#2563EB"/>
</svg>
