<svg width="437" height="448" viewBox="0 0 437 448" fill="none" xmlns="http://www.w3.org/2000/svg">
<rect x="0.0625" y="30.6226" width="436.106" height="416.571" rx="28" fill="#16181C"/>
<path d="M49.8992 113.231C49.8992 115.016 48.575 116.3 46.7894 116.3C45.0038 116.3 43.6797 115.016 43.6797 113.231C43.6797 111.385 45.0038 110.081 46.7894 110.081C48.575 110.081 49.8992 111.385 49.8992 113.231ZM65.1872 108.576H63.6222L63.4818 104.102H65.3276L65.1872 108.576ZM68.4374 108.576H66.8524L66.732 104.102H68.5778L68.4374 108.576ZM73.9942 118.507H71.7872V104.102H73.9942V118.507ZM89.9364 118.507L87.5288 110.603L85.1012 118.507H83.0548L79.9852 107.874H81.9714L84.1181 115.618L86.5257 107.874H88.532L90.8994 115.638L93.0462 107.874H95.0525L91.9628 118.507H89.9364ZM99.1732 105.406C99.1732 106.169 98.5713 106.75 97.7086 106.75C96.8459 106.75 96.2239 106.169 96.2239 105.406C96.2239 104.624 96.8459 104.062 97.7086 104.062C98.5713 104.062 99.1732 104.624 99.1732 105.406ZM98.7318 118.507H96.7055V107.874H98.7318V118.507ZM109.971 115.337C109.971 117.424 108.346 118.708 105.517 118.708C102.709 118.708 101.043 117.324 100.843 115.036H102.789C102.869 116.361 103.932 117.183 105.557 117.183C106.982 117.183 107.925 116.682 107.925 115.678C107.925 114.796 107.383 114.414 106.059 114.154L104.334 113.833C102.367 113.451 101.264 112.448 101.264 110.843C101.264 108.977 102.889 107.673 105.357 107.673C107.905 107.673 109.63 109.038 109.811 111.224H107.865C107.744 109.94 106.801 109.198 105.377 109.198C104.093 109.198 103.23 109.74 103.23 110.663C103.23 111.525 103.772 111.927 105.056 112.167L106.862 112.508C108.968 112.89 109.971 113.813 109.971 115.337ZM114.21 112.508V118.507H112.184V104.102H114.21V109.579C114.912 108.436 115.996 107.673 117.46 107.673C119.647 107.673 121.092 109.078 121.092 111.626V118.507H119.065V112.308C119.065 110.482 118.263 109.459 116.758 109.459C115.374 109.459 114.21 110.623 114.21 112.508ZM133.974 116.541V118.327C133.352 118.608 132.811 118.708 132.169 118.708C130.202 118.708 128.838 117.645 128.838 115.297V109.599H126.491V107.874H128.838V104.724H130.865V107.874H134.075V109.599H130.865V114.836C130.865 116.3 131.567 116.822 132.65 116.822C133.132 116.822 133.553 116.742 133.974 116.541ZM138.035 112.508V118.507H136.008V104.102H138.035V109.579C138.737 108.436 139.82 107.673 141.285 107.673C143.472 107.673 144.916 109.078 144.916 111.626V118.507H142.89V112.308C142.89 110.482 142.088 109.459 140.583 109.459C139.199 109.459 138.035 110.623 138.035 112.508ZM151.981 118.708C148.911 118.708 146.845 116.481 146.845 113.13C146.845 109.981 148.992 107.673 151.921 107.673C155.091 107.673 157.198 110.241 156.836 113.692H148.911C149.072 115.859 150.155 117.123 151.941 117.123C153.446 117.123 154.489 116.3 154.83 114.916H156.836C156.315 117.283 154.489 118.708 151.981 118.708ZM151.881 109.198C150.256 109.198 149.152 110.362 148.932 112.348H154.69C154.589 110.382 153.526 109.198 151.881 109.198ZM161.017 113.07V118.507H158.991V107.874H160.877V110.121C161.619 108.656 163.224 107.734 164.97 107.734V109.84C162.682 109.72 161.017 110.723 161.017 113.07ZM170.908 118.708C167.838 118.708 165.772 116.481 165.772 113.13C165.772 109.981 167.918 107.673 170.848 107.673C174.017 107.673 176.124 110.241 175.763 113.692H167.838C167.999 115.859 169.082 117.123 170.868 117.123C172.372 117.123 173.416 116.3 173.757 114.916H175.763C175.241 117.283 173.416 118.708 170.908 118.708ZM170.807 109.198C169.182 109.198 168.079 110.362 167.858 112.348H173.616C173.516 110.382 172.453 109.198 170.807 109.198ZM190.898 118.507L188.49 110.603L186.063 118.507H184.016L180.947 107.874H182.933L185.08 115.618L187.487 107.874H189.493L191.861 115.638L194.008 107.874H196.014L192.924 118.507H190.898ZM203.774 118.507V116.862C203.112 118.046 201.928 118.708 200.363 118.708C198.156 118.708 196.712 117.444 196.712 115.498C196.712 113.411 198.377 112.328 201.547 112.328C202.169 112.328 202.671 112.348 203.533 112.448V111.666C203.533 110.141 202.711 109.278 201.306 109.278C199.822 109.278 198.919 110.161 198.859 111.646H197.013C197.113 109.258 198.818 107.673 201.306 107.673C203.935 107.673 205.459 109.158 205.459 111.686V118.507H203.774ZM198.638 115.438C198.638 116.541 199.46 117.263 200.765 117.263C202.47 117.263 203.533 116.2 203.533 114.575V113.712C202.751 113.612 202.189 113.592 201.667 113.592C199.641 113.592 198.638 114.194 198.638 115.438ZM216.595 115.337C216.595 117.424 214.97 118.708 212.141 118.708C209.332 118.708 207.667 117.324 207.466 115.036H209.412C209.493 116.361 210.556 117.183 212.181 117.183C213.606 117.183 214.549 116.682 214.549 115.678C214.549 114.796 214.007 114.414 212.683 114.154L210.957 113.833C208.991 113.451 207.888 112.448 207.888 110.843C207.888 108.977 209.513 107.673 211.981 107.673C214.529 107.673 216.254 109.038 216.435 111.224H214.488C214.368 109.94 213.425 109.198 212.001 109.198C210.717 109.198 209.854 109.74 209.854 110.663C209.854 111.525 210.396 111.927 211.68 112.167L213.485 112.508C215.592 112.89 216.595 113.813 216.595 115.337ZM229.44 118.507V116.862C228.778 118.046 227.595 118.708 226.03 118.708C223.823 118.708 222.378 117.444 222.378 115.498C222.378 113.411 224.044 112.328 227.214 112.328C227.835 112.328 228.337 112.348 229.2 112.448V111.666C229.2 110.141 228.377 109.278 226.973 109.278C225.488 109.278 224.585 110.161 224.525 111.646H222.679C222.78 109.258 224.485 107.673 226.973 107.673C229.601 107.673 231.126 109.158 231.126 111.686V118.507H229.44ZM224.304 115.438C224.304 116.541 225.127 117.263 226.431 117.263C228.136 117.263 229.2 116.2 229.2 114.575V113.712C228.417 113.612 227.856 113.592 227.334 113.592C225.308 113.592 224.304 114.194 224.304 115.438ZM246.815 118.507L244.408 110.603L241.98 118.507H239.934L236.864 107.874H238.85L240.997 115.618L243.405 107.874H245.411L247.779 115.638L249.925 107.874H251.932L248.842 118.507H246.815ZM259.692 118.507V116.862C259.03 118.046 257.846 118.708 256.281 118.708C254.074 118.708 252.63 117.444 252.63 115.498C252.63 113.411 254.295 112.328 257.465 112.328C258.087 112.328 258.588 112.348 259.451 112.448V111.666C259.451 110.141 258.628 109.278 257.224 109.278C255.739 109.278 254.836 110.161 254.776 111.646H252.93C253.031 109.258 254.736 107.673 257.224 107.673C259.852 107.673 261.377 109.158 261.377 111.686V118.507H259.692ZM254.556 115.438C254.556 116.541 255.378 117.263 256.682 117.263C258.388 117.263 259.451 116.2 259.451 114.575V113.712C258.668 113.612 258.107 113.592 257.585 113.592C255.559 113.592 254.556 114.194 254.556 115.438ZM272.581 107.874L267.264 122.379H265.057L266.582 118.367L262.389 107.874H264.576L267.665 115.979L270.534 107.874H272.581ZM284.211 116.541V118.327C283.59 118.608 283.048 118.708 282.406 118.708C280.44 118.708 279.075 117.645 279.075 115.297V109.599H276.728V107.874H279.075V104.724H281.102V107.874H284.312V109.599H281.102V114.836C281.102 116.3 281.804 116.822 282.887 116.822C283.369 116.822 283.79 116.742 284.211 116.541ZM290.406 118.708C287.396 118.708 285.189 116.341 285.189 113.191C285.189 110.041 287.396 107.673 290.406 107.673C293.415 107.673 295.622 110.041 295.622 113.191C295.622 116.341 293.415 118.708 290.406 118.708ZM290.406 116.922C292.151 116.922 293.536 115.518 293.536 113.191C293.536 110.863 292.151 109.479 290.406 109.479C288.66 109.479 287.296 110.863 287.296 113.191C287.296 115.518 288.66 116.922 290.406 116.922ZM303.907 112.508V118.507H301.881V104.102H303.907V109.579C304.609 108.436 305.693 107.673 307.157 107.673C309.344 107.673 310.789 109.078 310.789 111.626V118.507H308.762V112.308C308.762 110.482 307.96 109.459 306.455 109.459C305.071 109.459 303.907 110.623 303.907 112.508ZM319.92 118.507V116.862C319.258 118.046 318.074 118.708 316.509 118.708C314.302 118.708 312.858 117.444 312.858 115.498C312.858 113.411 314.523 112.328 317.693 112.328C318.315 112.328 318.816 112.348 319.679 112.448V111.666C319.679 110.141 318.856 109.278 317.452 109.278C315.967 109.278 315.065 110.161 315.004 111.646H313.159C313.259 109.258 314.964 107.673 317.452 107.673C320.08 107.673 321.605 109.158 321.605 111.686V118.507H319.92ZM314.784 115.438C314.784 116.541 315.606 117.263 316.91 117.263C318.616 117.263 319.679 116.2 319.679 114.575V113.712C318.897 113.612 318.335 113.592 317.813 113.592C315.787 113.592 314.784 114.194 314.784 115.438ZM332.809 107.874L328.816 118.507H326.61L322.617 107.874H324.804L327.753 116.18L330.743 107.874H332.809ZM338.289 118.708C335.219 118.708 333.152 116.481 333.152 113.13C333.152 109.981 335.299 107.673 338.228 107.673C341.398 107.673 343.505 110.241 343.144 113.692H335.219C335.379 115.859 336.463 117.123 338.248 117.123C339.753 117.123 340.796 116.3 341.137 114.916H343.144C342.622 117.283 340.796 118.708 338.289 118.708ZM338.188 109.198C336.563 109.198 335.46 110.362 335.239 112.348H340.997C340.897 110.382 339.833 109.198 338.188 109.198ZM355.931 118.507V116.862C355.269 118.046 354.085 118.708 352.521 118.708C350.314 118.708 348.869 117.444 348.869 115.498C348.869 113.411 350.534 112.328 353.704 112.328C354.326 112.328 354.828 112.348 355.69 112.448V111.666C355.69 110.141 354.868 109.278 353.463 109.278C351.979 109.278 351.076 110.161 351.016 111.646H349.17C349.27 109.258 350.976 107.673 353.463 107.673C356.092 107.673 357.617 109.158 357.617 111.686V118.507H355.931ZM350.795 115.438C350.795 116.541 351.618 117.263 352.922 117.263C354.627 117.263 355.69 116.2 355.69 114.575V113.712C354.908 113.612 354.346 113.592 353.825 113.592C351.798 113.592 350.795 114.194 350.795 115.438ZM362.372 118.507H360.326V104.102H362.372V118.507ZM367.231 118.507H365.185V104.102H367.231V118.507ZM376.263 118.507H374.237V107.874H376.123V109.639C376.845 108.416 377.988 107.673 379.453 107.673C381.018 107.673 382.202 108.476 382.683 109.88C383.425 108.516 384.649 107.673 386.274 107.673C388.461 107.673 389.866 109.098 389.866 111.626V118.507H387.839V112.268C387.839 110.502 387.057 109.459 385.572 109.459C384.188 109.459 383.064 110.623 383.064 112.408V118.507H381.038V112.268C381.038 110.502 380.256 109.459 378.771 109.459C377.366 109.459 376.263 110.623 376.263 112.408V118.507ZM401.011 107.874L395.695 122.379H393.488L395.012 118.367L390.819 107.874H393.006L396.096 115.979L398.965 107.874H401.011ZM73.3929 145.191C73.3929 148.381 71.5471 150.708 68.6781 150.708C67.1734 150.708 65.8894 149.946 65.127 148.601V150.507H63.241V136.102H65.2674V141.7C66.0097 140.396 67.2336 139.673 68.6781 139.673C71.5271 139.673 73.3929 141.96 73.3929 145.191ZM71.2863 145.191C71.2863 142.783 70.0223 141.459 68.2769 141.459C66.5916 141.459 65.2674 142.763 65.2674 145.151C65.2674 147.498 66.5514 148.902 68.2769 148.902C70.0223 148.902 71.2863 147.558 71.2863 145.191ZM82.0882 146.134V139.874H84.1145V150.507H82.2286V148.822C81.6668 149.925 80.4229 150.708 78.9784 150.708C76.8317 150.708 75.347 149.444 75.347 146.715V139.874H77.3734V146.314C77.3734 148.16 78.2963 148.922 79.6204 148.922C80.9847 148.922 82.0882 147.799 82.0882 146.134ZM95.3551 147.337C95.3551 149.424 93.73 150.708 90.9011 150.708C88.0923 150.708 86.4271 149.324 86.2265 147.036H88.1726C88.2528 148.361 89.3162 149.183 90.9413 149.183C92.3657 149.183 93.3087 148.682 93.3087 147.678C93.3087 146.796 92.767 146.414 91.4428 146.154L89.7174 145.833C87.7513 145.451 86.6478 144.448 86.6478 142.843C86.6478 140.977 88.2729 139.673 90.7406 139.673C93.2886 139.673 95.0141 141.038 95.1946 143.224H93.2485C93.1281 141.94 92.1852 141.198 90.7607 141.198C89.4767 141.198 88.614 141.74 88.614 142.663C88.614 143.525 89.1557 143.927 90.4397 144.167L92.2454 144.508C94.352 144.89 95.3551 145.813 95.3551 147.337ZM100.035 137.406C100.035 138.169 99.4334 138.75 98.5707 138.75C97.708 138.75 97.086 138.169 97.086 137.406C97.086 136.624 97.708 136.062 98.5707 136.062C99.4334 136.062 100.035 136.624 100.035 137.406ZM99.5939 150.507H97.5675V139.874H99.5939V150.507ZM104.433 144.508V150.507H102.407V139.874H104.293V141.639C105.015 140.456 106.219 139.673 107.684 139.673C109.87 139.673 111.315 141.078 111.315 143.626V150.507H109.289V144.308C109.289 142.482 108.486 141.459 106.981 141.459C105.597 141.459 104.433 142.623 104.433 144.508ZM118.38 150.708C115.31 150.708 113.243 148.481 113.243 145.13C113.243 141.981 115.39 139.673 118.319 139.673C121.489 139.673 123.596 142.241 123.235 145.692H115.31C115.47 147.859 116.554 149.123 118.339 149.123C119.844 149.123 120.887 148.3 121.229 146.916H123.235C122.713 149.283 120.887 150.708 118.38 150.708ZM118.279 141.198C116.654 141.198 115.551 142.362 115.33 144.348H121.088C120.988 142.382 119.924 141.198 118.279 141.198ZM133.816 147.337C133.816 149.424 132.191 150.708 129.362 150.708C126.553 150.708 124.888 149.324 124.687 147.036H126.633C126.713 148.361 127.777 149.183 129.402 149.183C130.826 149.183 131.769 148.682 131.769 147.678C131.769 146.796 131.228 146.414 129.903 146.154L128.178 145.833C126.212 145.451 125.108 144.448 125.108 142.843C125.108 140.977 126.733 139.673 129.201 139.673C131.749 139.673 133.475 141.038 133.655 143.224H131.709C131.589 141.94 130.646 141.198 129.221 141.198C127.937 141.198 127.075 141.74 127.075 142.663C127.075 143.525 127.616 143.927 128.9 144.167L130.706 144.508C132.813 144.89 133.816 145.813 133.816 147.337ZM144.455 147.337C144.455 149.424 142.829 150.708 140.001 150.708C137.192 150.708 135.527 149.324 135.326 147.036H137.272C137.352 148.361 138.416 149.183 140.041 149.183C141.465 149.183 142.408 148.682 142.408 147.678C142.408 146.796 141.866 146.414 140.542 146.154L138.817 145.833C136.851 145.451 135.747 144.448 135.747 142.843C135.747 140.977 137.372 139.673 139.84 139.673C142.388 139.673 144.113 141.038 144.294 143.224H142.348C142.228 141.94 141.285 141.198 139.86 141.198C138.576 141.198 137.713 141.74 137.713 142.663C137.713 143.525 138.255 143.927 139.539 144.167L141.345 144.508C143.451 144.89 144.455 145.813 144.455 147.337ZM150.097 145.191C150.097 141.96 151.943 139.673 154.812 139.673C156.237 139.673 157.481 140.396 158.223 141.7V136.102H160.249V150.507H158.363V148.601C157.601 149.946 156.317 150.708 154.812 150.708C151.943 150.708 150.097 148.381 150.097 145.191ZM152.204 145.191C152.204 147.558 153.448 148.902 155.213 148.902C156.939 148.902 158.223 147.498 158.223 145.151C158.223 142.763 156.899 141.459 155.213 141.459C153.448 141.459 152.204 142.783 152.204 145.191ZM169.506 150.507V148.862C168.844 150.046 167.66 150.708 166.096 150.708C163.889 150.708 162.444 149.444 162.444 147.498C162.444 145.411 164.109 144.328 167.279 144.328C167.901 144.328 168.403 144.348 169.266 144.448V143.666C169.266 142.141 168.443 141.278 167.039 141.278C165.554 141.278 164.651 142.161 164.591 143.646H162.745C162.845 141.258 164.551 139.673 167.039 139.673C169.667 139.673 171.192 141.158 171.192 143.686V150.507H169.506ZM164.37 147.438C164.37 148.541 165.193 149.263 166.497 149.263C168.202 149.263 169.266 148.2 169.266 146.575V145.712C168.483 145.612 167.921 145.592 167.4 145.592C165.373 145.592 164.37 146.194 164.37 147.438ZM179.802 148.541V150.327C179.18 150.608 178.638 150.708 177.996 150.708C176.03 150.708 174.666 149.645 174.666 147.297V141.599H172.318V139.874H174.666V136.724H176.692V139.874H179.902V141.599H176.692V146.836C176.692 148.3 177.394 148.822 178.478 148.822C178.959 148.822 179.38 148.742 179.802 148.541ZM188.276 150.507V148.862C187.614 150.046 186.43 150.708 184.865 150.708C182.659 150.708 181.214 149.444 181.214 147.498C181.214 145.411 182.879 144.328 186.049 144.328C186.671 144.328 187.173 144.348 188.035 144.448V143.666C188.035 142.141 187.213 141.278 185.808 141.278C184.324 141.278 183.421 142.161 183.361 143.646H181.515C181.615 141.258 183.321 139.673 185.808 139.673C188.437 139.673 189.961 141.158 189.961 143.686V150.507H188.276ZM183.14 147.438C183.14 148.541 183.963 149.263 185.267 149.263C186.972 149.263 188.035 148.2 188.035 146.575V145.712C187.253 145.612 186.691 145.592 186.17 145.592C184.143 145.592 183.14 146.194 183.14 147.438ZM199.331 137.406C199.331 138.169 198.729 138.75 197.867 138.75C197.004 138.75 196.382 138.169 196.382 137.406C196.382 136.624 197.004 136.062 197.867 136.062C198.729 136.062 199.331 136.624 199.331 137.406ZM198.89 150.507H196.864V139.874H198.89V150.507ZM203.729 144.508V150.507H201.703V139.874H203.589V141.639C204.311 140.456 205.515 139.673 206.98 139.673C209.166 139.673 210.611 141.078 210.611 143.626V150.507H208.585V144.308C208.585 142.482 207.782 141.459 206.277 141.459C204.893 141.459 203.729 142.623 203.729 144.508ZM221.949 150.708C218.939 150.708 216.732 148.341 216.732 145.191C216.732 142.041 218.939 139.673 221.949 139.673C224.958 139.673 227.165 142.041 227.165 145.191C227.165 148.341 224.958 150.708 221.949 150.708ZM221.949 148.922C223.694 148.922 225.079 147.518 225.079 145.191C225.079 142.863 223.694 141.479 221.949 141.479C220.203 141.479 218.839 142.863 218.839 145.191C218.839 147.518 220.203 148.922 221.949 148.922ZM231.257 144.508V150.507H229.231V139.874H231.117V141.639C231.839 140.456 233.043 139.673 234.507 139.673C236.694 139.673 238.139 141.078 238.139 143.626V150.507H236.112V144.308C236.112 142.482 235.31 141.459 233.805 141.459C232.421 141.459 231.257 142.623 231.257 144.508ZM245.203 150.708C242.134 150.708 240.067 148.481 240.067 145.13C240.067 141.981 242.214 139.673 245.143 139.673C248.313 139.673 250.42 142.241 250.059 145.692H242.134C242.294 147.859 243.378 149.123 245.163 149.123C246.668 149.123 247.711 148.3 248.052 146.916H250.059C249.537 149.283 247.711 150.708 245.203 150.708ZM245.103 141.198C243.478 141.198 242.375 142.362 242.154 144.348H247.912C247.812 142.382 246.748 141.198 245.103 141.198ZM266.558 145.191C266.558 148.401 264.712 150.708 261.863 150.708C260.418 150.708 259.195 149.986 258.432 148.702V154.379H256.406V139.874H258.292V141.82C259.054 140.456 260.358 139.673 261.863 139.673C264.692 139.673 266.558 141.981 266.558 145.191ZM264.451 145.191C264.451 142.803 263.187 141.459 261.442 141.459C259.756 141.459 258.432 142.803 258.432 145.191C258.432 147.538 259.736 148.902 261.442 148.902C263.187 148.902 264.451 147.578 264.451 145.191ZM270.659 150.507H268.612V136.102H270.659V150.507ZM279.911 150.507V148.862C279.249 150.046 278.066 150.708 276.501 150.708C274.294 150.708 272.849 149.444 272.849 147.498C272.849 145.411 274.514 144.328 277.684 144.328C278.306 144.328 278.808 144.348 279.671 144.448V143.666C279.671 142.141 278.848 141.278 277.444 141.278C275.959 141.278 275.056 142.161 274.996 143.646H273.15C273.25 141.258 274.956 139.673 277.444 139.673C280.072 139.673 281.597 141.158 281.597 143.686V150.507H279.911ZM274.775 147.438C274.775 148.541 275.598 149.263 276.902 149.263C278.607 149.263 279.671 148.2 279.671 146.575V145.712C278.888 145.612 278.326 145.592 277.805 145.592C275.778 145.592 274.775 146.194 274.775 147.438ZM288.499 150.728C285.59 150.728 283.544 148.441 283.544 145.191C283.544 141.981 285.63 139.673 288.499 139.673C291.127 139.673 293.033 141.419 293.415 144.187H291.288C291.067 142.482 290.004 141.459 288.519 141.459C286.774 141.459 285.63 142.944 285.63 145.191C285.63 147.458 286.774 148.922 288.519 148.922C290.024 148.922 291.067 147.919 291.308 146.194H293.415C293.053 149.003 291.168 150.728 288.499 150.728ZM299.73 150.708C296.66 150.708 294.594 148.481 294.594 145.13C294.594 141.981 296.741 139.673 299.67 139.673C302.84 139.673 304.946 142.241 304.585 145.692H296.66C296.821 147.859 297.904 149.123 299.69 149.123C301.195 149.123 302.238 148.3 302.579 146.916H304.585C304.064 149.283 302.238 150.708 299.73 150.708ZM299.63 141.198C298.005 141.198 296.901 142.362 296.68 144.348H302.439C302.338 142.382 301.275 141.198 299.63 141.198ZM309.194 149.063C309.194 149.966 308.572 150.608 307.65 150.608C306.747 150.608 306.105 149.966 306.105 149.063C306.105 148.12 306.747 147.478 307.65 147.478C308.572 147.478 309.194 148.12 309.194 149.063ZM313.604 140.576H312.039L311.898 136.102H313.744L313.604 140.576ZM316.854 140.576H315.269L315.148 136.102H316.994L316.854 140.576ZM49.8992 177.231C49.8992 179.016 48.575 180.3 46.7894 180.3C45.0038 180.3 43.6797 179.016 43.6797 177.231C43.6797 175.385 45.0038 174.081 46.7894 174.081C48.575 174.081 49.8992 175.385 49.8992 177.231ZM65.1872 172.576H63.6222L63.4818 168.102H65.3276L65.1872 172.576ZM68.4374 172.576H66.8524L66.732 168.102H68.5778L68.4374 172.576ZM82.8821 168.102V177.331C82.8821 180.641 80.7554 182.808 77.3046 182.808C73.8537 182.808 71.7471 180.641 71.7471 177.331V168.102H73.954V177.391C73.954 179.478 75.1779 180.822 77.3046 180.822C79.4513 180.822 80.6751 179.478 80.6751 177.391V168.102H82.8821ZM87.8187 176.508V182.507H85.7923V171.874H87.6782V173.639C88.4005 172.456 89.6043 171.673 91.0689 171.673C93.2557 171.673 94.7003 173.078 94.7003 175.626V182.507H92.6739V176.308C92.6739 174.482 91.8714 173.459 90.3667 173.459C88.9823 173.459 87.8187 174.623 87.8187 176.508ZM96.6288 177.191C96.6288 173.96 98.4746 171.673 101.344 171.673C102.768 171.673 104.012 172.396 104.754 173.7V168.102H106.781V182.507H104.895V180.601C104.132 181.946 102.848 182.708 101.344 182.708C98.4746 182.708 96.6288 180.381 96.6288 177.191ZM98.7354 177.191C98.7354 179.558 99.9793 180.902 101.745 180.902C103.47 180.902 104.754 179.498 104.754 177.151C104.754 174.763 103.43 173.459 101.745 173.459C99.9793 173.459 98.7354 174.783 98.7354 177.191ZM113.971 182.708C110.902 182.708 108.835 180.481 108.835 177.13C108.835 173.981 110.982 171.673 113.911 171.673C117.081 171.673 119.188 174.241 118.826 177.692H110.902C111.062 179.859 112.145 181.123 113.931 181.123C115.436 181.123 116.479 180.3 116.82 178.916H118.826C118.305 181.283 116.479 182.708 113.971 182.708ZM113.871 173.198C112.246 173.198 111.142 174.362 110.922 176.348H116.68C116.579 174.382 115.516 173.198 113.871 173.198ZM123.007 177.07V182.507H120.981V171.874H122.867V174.121C123.609 172.656 125.214 171.734 126.96 171.734V173.84C124.672 173.72 123.007 174.723 123.007 177.07ZM136.99 179.337C136.99 181.424 135.365 182.708 132.536 182.708C129.727 182.708 128.062 181.324 127.861 179.036H129.807C129.887 180.361 130.951 181.183 132.576 181.183C134 181.183 134.943 180.682 134.943 179.678C134.943 178.796 134.402 178.414 133.077 178.154L131.352 177.833C129.386 177.451 128.282 176.448 128.282 174.843C128.282 172.977 129.907 171.673 132.375 171.673C134.923 171.673 136.649 173.038 136.829 175.224H134.883C134.763 173.94 133.82 173.198 132.395 173.198C131.111 173.198 130.249 173.74 130.249 174.663C130.249 175.525 130.79 175.927 132.074 176.167L133.88 176.508C135.987 176.89 136.99 177.813 136.99 179.337ZM145.064 180.541V182.327C144.442 182.608 143.9 182.708 143.258 182.708C141.292 182.708 139.928 181.645 139.928 179.297V173.599H137.58V171.874H139.928V168.724H141.954V171.874H145.164V173.599H141.954V178.836C141.954 180.3 142.656 180.822 143.74 180.822C144.221 180.822 144.642 180.742 145.064 180.541ZM153.538 182.507V180.862C152.876 182.046 151.692 182.708 150.127 182.708C147.921 182.708 146.476 181.444 146.476 179.498C146.476 177.411 148.141 176.328 151.311 176.328C151.933 176.328 152.435 176.348 153.297 176.448V175.666C153.297 174.141 152.475 173.278 151.07 173.278C149.586 173.278 148.683 174.161 148.623 175.646H146.777C146.877 173.258 148.583 171.673 151.07 171.673C153.699 171.673 155.223 173.158 155.223 175.686V182.507H153.538ZM148.402 179.438C148.402 180.541 149.225 181.263 150.529 181.263C152.234 181.263 153.297 180.2 153.297 178.575V177.712C152.515 177.612 151.953 177.592 151.432 177.592C149.405 177.592 148.402 178.194 148.402 179.438ZM159.959 176.508V182.507H157.933V171.874H159.819V173.639C160.541 172.456 161.745 171.673 163.209 171.673C165.396 171.673 166.841 173.078 166.841 175.626V182.507H164.814V176.308C164.814 174.482 164.012 173.459 162.507 173.459C161.123 173.459 159.959 174.623 159.959 176.508ZM168.769 177.191C168.769 173.96 170.615 171.673 173.484 171.673C174.909 171.673 176.152 172.396 176.895 173.7V168.102H178.921V182.507H177.035V180.601C176.273 181.946 174.989 182.708 173.484 182.708C170.615 182.708 168.769 180.381 168.769 177.191ZM170.876 177.191C170.876 179.558 172.12 180.902 173.885 180.902C175.611 180.902 176.895 179.498 176.895 177.151C176.895 174.763 175.571 173.459 173.885 173.459C172.12 173.459 170.876 174.783 170.876 177.191ZM184.206 169.406C184.206 170.169 183.604 170.75 182.741 170.75C181.878 170.75 181.256 170.169 181.256 169.406C181.256 168.624 181.878 168.062 182.741 168.062C183.604 168.062 184.206 168.624 184.206 169.406ZM183.764 182.507H181.738V171.874H183.764V182.507ZM188.604 176.508V182.507H186.577V171.874H188.463V173.639C189.186 172.456 190.389 171.673 191.854 171.673C194.041 171.673 195.485 173.078 195.485 175.626V182.507H193.459V176.308C193.459 174.482 192.656 173.459 191.152 173.459C189.767 173.459 188.604 174.623 188.604 176.508ZM202.43 186.6C199.641 186.6 197.835 185.116 197.715 182.708H199.681C199.801 184.193 200.764 184.995 202.41 184.995C204.235 184.995 205.198 184.012 205.198 182.186V180.26C204.596 181.544 203.393 182.287 201.948 182.287C199.3 182.287 197.414 180.1 197.414 176.97C197.414 173.8 199.22 171.673 201.888 171.673C203.413 171.673 204.616 172.416 205.339 173.76V171.874H207.225V182.146C207.225 184.935 205.439 186.6 202.43 186.6ZM199.46 176.97C199.46 179.177 200.544 180.521 202.309 180.521C204.035 180.521 205.198 179.137 205.198 177.03C205.198 174.823 204.055 173.419 202.309 173.419C200.564 173.419 199.46 174.783 199.46 176.97ZM218.416 182.728C215.507 182.728 213.46 180.441 213.46 177.191C213.46 173.981 215.547 171.673 218.416 171.673C221.044 171.673 222.95 173.419 223.331 176.187H221.205C220.984 174.482 219.921 173.459 218.436 173.459C216.69 173.459 215.547 174.944 215.547 177.191C215.547 179.458 216.69 180.922 218.436 180.922C219.941 180.922 220.984 179.919 221.225 178.194H223.331C222.97 181.003 221.084 182.728 218.416 182.728ZM232.012 178.134V171.874H234.038V182.507H232.152V180.822C231.591 181.925 230.347 182.708 228.902 182.708C226.755 182.708 225.271 181.444 225.271 178.715V171.874H227.297V178.314C227.297 180.16 228.22 180.922 229.544 180.922C230.908 180.922 232.012 179.799 232.012 178.134ZM245.279 179.337C245.279 181.424 243.654 182.708 240.825 182.708C238.016 182.708 236.351 181.324 236.15 179.036H238.096C238.177 180.361 239.24 181.183 240.865 181.183C242.289 181.183 243.232 180.682 243.232 179.678C243.232 178.796 242.691 178.414 241.367 178.154L239.641 177.833C237.675 177.451 236.571 176.448 236.571 174.843C236.571 172.977 238.197 171.673 240.664 171.673C243.212 171.673 244.938 173.038 245.118 175.224H243.172C243.052 173.94 242.109 173.198 240.684 173.198C239.4 173.198 238.538 173.74 238.538 174.663C238.538 175.525 239.079 175.927 240.363 176.167L242.169 176.508C244.276 176.89 245.279 177.813 245.279 179.337ZM253.353 180.541V182.327C252.731 182.608 252.189 182.708 251.547 182.708C249.581 182.708 248.217 181.645 248.217 179.297V173.599H245.869V171.874H248.217V168.724H250.243V171.874H253.453V173.599H250.243V178.836C250.243 180.3 250.945 180.822 252.029 180.822C252.51 180.822 252.932 180.742 253.353 180.541ZM259.547 182.708C256.538 182.708 254.331 180.341 254.331 177.191C254.331 174.041 256.538 171.673 259.547 171.673C262.557 171.673 264.764 174.041 264.764 177.191C264.764 180.341 262.557 182.708 259.547 182.708ZM259.547 180.922C261.293 180.922 262.677 179.518 262.677 177.191C262.677 174.863 261.293 173.479 259.547 173.479C257.802 173.479 256.437 174.863 256.437 177.191C256.437 179.518 257.802 180.922 259.547 180.922ZM268.856 182.507H266.829V171.874H268.715V173.639C269.437 172.416 270.581 171.673 272.046 171.673C273.611 171.673 274.794 172.476 275.276 173.88C276.018 172.516 277.242 171.673 278.867 171.673C281.054 171.673 282.458 173.098 282.458 175.626V182.507H280.432V176.268C280.432 174.502 279.649 173.459 278.165 173.459C276.78 173.459 275.657 174.623 275.657 176.408V182.507H273.631V176.268C273.631 174.502 272.848 173.459 271.363 173.459C269.959 173.459 268.856 174.623 268.856 176.408V182.507ZM289.542 182.708C286.472 182.708 284.406 180.481 284.406 177.13C284.406 173.981 286.552 171.673 289.482 171.673C292.652 171.673 294.758 174.241 294.397 177.692H286.472C286.633 179.859 287.716 181.123 289.502 181.123C291.006 181.123 292.05 180.3 292.391 178.916H294.397C293.875 181.283 292.05 182.708 289.542 182.708ZM289.441 173.198C287.816 173.198 286.713 174.362 286.492 176.348H292.25C292.15 174.382 291.087 173.198 289.441 173.198ZM298.578 177.07V182.507H296.551V171.874H298.437V174.121C299.18 172.656 300.785 171.734 302.53 171.734V173.84C300.243 173.72 298.578 174.723 298.578 177.07ZM318.479 177.191C318.479 180.381 316.633 182.708 313.764 182.708C312.259 182.708 310.975 181.946 310.213 180.601V182.507H308.327V168.102H310.353V173.7C311.095 172.396 312.319 171.673 313.764 171.673C316.613 171.673 318.479 173.96 318.479 177.191ZM316.372 177.191C316.372 174.783 315.108 173.459 313.362 173.459C311.677 173.459 310.353 174.763 310.353 177.151C310.353 179.498 311.637 180.902 313.362 180.902C315.108 180.902 316.372 179.558 316.372 177.191ZM324.907 182.708C321.837 182.708 319.771 180.481 319.771 177.13C319.771 173.981 321.917 171.673 324.846 171.673C328.016 171.673 330.123 174.241 329.762 177.692H321.837C321.998 179.859 323.081 181.123 324.867 181.123C326.371 181.123 327.415 180.3 327.756 178.916H329.762C329.24 181.283 327.415 182.708 324.907 182.708ZM324.806 173.198C323.181 173.198 322.078 174.362 321.857 176.348H327.615C327.515 174.382 326.452 173.198 324.806 173.198ZM333.943 176.508V182.507H331.916V168.102H333.943V173.579C334.645 172.436 335.728 171.673 337.193 171.673C339.38 171.673 340.824 173.078 340.824 175.626V182.507H338.798V176.308C338.798 174.482 337.995 173.459 336.491 173.459C335.106 173.459 333.943 174.623 333.943 176.508ZM349.955 182.507V180.862C349.293 182.046 348.11 182.708 346.545 182.708C344.338 182.708 342.893 181.444 342.893 179.498C342.893 177.411 344.559 176.328 347.728 176.328C348.35 176.328 348.852 176.348 349.715 176.448V175.666C349.715 174.141 348.892 173.278 347.488 173.278C346.003 173.278 345.1 174.161 345.04 175.646H343.194C343.295 173.258 345 171.673 347.488 171.673C350.116 171.673 351.641 173.158 351.641 175.686V182.507H349.955ZM344.819 179.438C344.819 180.541 345.642 181.263 346.946 181.263C348.651 181.263 349.715 180.2 349.715 178.575V177.712C348.932 177.612 348.37 177.592 347.849 177.592C345.822 177.592 344.819 178.194 344.819 179.438ZM362.845 171.874L358.852 182.507H356.645L352.653 171.874H354.84L357.789 180.18L360.778 171.874H362.845ZM366.751 169.406C366.751 170.169 366.149 170.75 365.287 170.75C364.424 170.75 363.802 170.169 363.802 169.406C363.802 168.624 364.424 168.062 365.287 168.062C366.149 168.062 366.751 168.624 366.751 169.406ZM366.31 182.507H364.284V171.874H366.31V182.507ZM373.577 182.708C370.567 182.708 368.361 180.341 368.361 177.191C368.361 174.041 370.567 171.673 373.577 171.673C376.586 171.673 378.793 174.041 378.793 177.191C378.793 180.341 376.586 182.708 373.577 182.708ZM373.577 180.922C375.322 180.922 376.707 179.518 376.707 177.191C376.707 174.863 375.322 173.479 373.577 173.479C371.831 173.479 370.467 174.863 370.467 177.191C370.467 179.518 371.831 180.922 373.577 180.922ZM382.885 177.07V182.507H380.859V171.874H382.745V174.121C383.487 172.656 385.092 171.734 386.838 171.734V173.84C384.551 173.72 382.885 174.723 382.885 177.07ZM67.4342 214.728C64.5251 214.728 62.4787 212.441 62.4787 209.191C62.4787 205.981 64.5652 203.673 67.4342 203.673C70.0625 203.673 71.9684 205.419 72.3496 208.187H70.223C70.0023 206.482 68.9389 205.459 67.4543 205.459C65.7088 205.459 64.5652 206.944 64.5652 209.191C64.5652 211.458 65.7088 212.922 67.4543 212.922C68.959 212.922 70.0023 211.919 70.243 210.194H72.3496C71.9885 213.003 70.1026 214.728 67.4342 214.728ZM80.8295 214.507V212.862C80.1675 214.046 78.9837 214.708 77.4188 214.708C75.2119 214.708 73.7674 213.444 73.7674 211.498C73.7674 209.411 75.4326 208.328 78.6025 208.328C79.2245 208.328 79.7261 208.348 80.5888 208.448V207.666C80.5888 206.141 79.7662 205.278 78.3618 205.278C76.8771 205.278 75.9743 206.161 75.9141 207.646H74.0683C74.1686 205.258 75.874 203.673 78.3618 203.673C80.99 203.673 82.5148 205.158 82.5148 207.686V214.507H80.8295ZM75.6934 211.438C75.6934 212.541 76.516 213.263 77.8201 213.263C79.5254 213.263 80.5888 212.2 80.5888 210.575V209.712C79.8063 209.612 79.2446 209.592 78.7229 209.592C76.6966 209.592 75.6934 210.194 75.6934 211.438ZM87.2505 208.508V214.507H85.2241V203.874H87.11V205.639C87.8323 204.456 89.0361 203.673 90.5007 203.673C92.6875 203.673 94.1321 205.078 94.1321 207.626V214.507H92.1057V208.308C92.1057 206.482 91.3032 205.459 89.7985 205.459C88.4141 205.459 87.2505 206.623 87.2505 208.508ZM103.042 208.508V214.507H101.016V200.102H103.042V205.579C103.744 204.436 104.828 203.673 106.292 203.673C108.479 203.673 109.924 205.078 109.924 207.626V214.507H107.897V208.308C107.897 206.482 107.095 205.459 105.59 205.459C104.206 205.459 103.042 206.623 103.042 208.508ZM116.988 214.708C113.919 214.708 111.852 212.481 111.852 209.13C111.852 205.981 113.999 203.673 116.928 203.673C120.098 203.673 122.205 206.241 121.844 209.692H113.919C114.079 211.859 115.163 213.123 116.948 213.123C118.453 213.123 119.496 212.3 119.837 210.916H121.844C121.322 213.283 119.496 214.708 116.988 214.708ZM116.888 205.198C115.263 205.198 114.16 206.362 113.939 208.348H119.697C119.597 206.382 118.533 205.198 116.888 205.198ZM126.045 214.507H123.998V200.102H126.045V214.507ZM139.009 209.191C139.009 212.401 137.163 214.708 134.314 214.708C132.87 214.708 131.646 213.986 130.884 212.702V218.379H128.857V203.874H130.743V205.82C131.505 204.456 132.81 203.673 134.314 203.673C137.143 203.673 139.009 205.981 139.009 209.191ZM136.902 209.191C136.902 206.803 135.638 205.459 133.893 205.459C132.208 205.459 130.884 206.803 130.884 209.191C130.884 211.538 132.188 212.902 133.893 212.902C135.638 212.902 136.902 211.578 136.902 209.191ZM147.724 201.406C147.724 202.169 147.122 202.75 146.259 202.75C145.397 202.75 144.775 202.169 144.775 201.406C144.775 200.624 145.397 200.062 146.259 200.062C147.122 200.062 147.724 200.624 147.724 201.406ZM147.283 214.507H145.256V203.874H147.283V214.507ZM152.122 214.507H150.096V203.874H151.982V205.639C152.704 204.416 153.847 203.673 155.312 203.673C156.877 203.673 158.061 204.476 158.542 205.88C159.285 204.516 160.508 203.673 162.133 203.673C164.32 203.673 165.725 205.098 165.725 207.626V214.507H163.698V208.268C163.698 206.502 162.916 205.459 161.431 205.459C160.047 205.459 158.923 206.623 158.923 208.408V214.507H156.897V208.268C156.897 206.502 156.115 205.459 154.63 205.459C153.226 205.459 152.122 206.623 152.122 208.408V214.507ZM178.586 209.191C178.586 212.401 176.741 214.708 173.892 214.708C172.447 214.708 171.223 213.986 170.461 212.702V218.379H168.434V203.874H170.32V205.82C171.083 204.456 172.387 203.673 173.892 203.673C176.72 203.673 178.586 205.981 178.586 209.191ZM176.48 209.191C176.48 206.803 175.216 205.459 173.47 205.459C171.785 205.459 170.461 206.803 170.461 209.191C170.461 211.538 171.765 212.902 173.47 212.902C175.216 212.902 176.48 211.578 176.48 209.191ZM182.667 209.07V214.507H180.641V203.874H182.527V206.121C183.269 204.656 184.874 203.734 186.62 203.734V205.84C184.332 205.72 182.667 206.723 182.667 209.07ZM192.638 214.708C189.629 214.708 187.422 212.341 187.422 209.191C187.422 206.041 189.629 203.673 192.638 203.673C195.647 203.673 197.854 206.041 197.854 209.191C197.854 212.341 195.647 214.708 192.638 214.708ZM192.638 212.922C194.383 212.922 195.768 211.518 195.768 209.191C195.768 206.863 194.383 205.479 192.638 205.479C190.892 205.479 189.528 206.863 189.528 209.191C189.528 211.518 190.892 212.922 192.638 212.922ZM208.415 203.874L204.422 214.507H202.215L198.223 203.874H200.41L203.359 212.18L206.348 203.874H208.415ZM213.894 214.708C210.825 214.708 208.758 212.481 208.758 209.13C208.758 205.981 210.905 203.673 213.834 203.673C217.004 203.673 219.111 206.241 218.749 209.692H210.825C210.985 211.859 212.068 213.123 213.854 213.123C215.359 213.123 216.402 212.3 216.743 210.916H218.749C218.228 213.283 216.402 214.708 213.894 214.708ZM213.794 205.198C212.169 205.198 211.065 206.362 210.845 208.348H216.603C216.502 206.382 215.439 205.198 213.794 205.198ZM229.551 214.708C226.541 214.708 224.334 212.341 224.334 209.191C224.334 206.041 226.541 203.673 229.551 203.673C232.56 203.673 234.767 206.041 234.767 209.191C234.767 212.341 232.56 214.708 229.551 214.708ZM229.551 212.922C231.296 212.922 232.681 211.518 232.681 209.191C232.681 206.863 231.296 205.479 229.551 205.479C227.805 205.479 226.441 206.863 226.441 209.191C226.441 211.518 227.805 212.922 229.551 212.922ZM243.474 210.134V203.874H245.5V214.507H243.614V212.822C243.052 213.925 241.808 214.708 240.364 214.708C238.217 214.708 236.732 213.444 236.732 210.715V203.874H238.759V210.314C238.759 212.16 239.682 212.922 241.006 212.922C242.37 212.922 243.474 211.799 243.474 210.134ZM250.34 209.07V214.507H248.314V203.874H250.2V206.121C250.942 204.656 252.547 203.734 254.293 203.734V205.84C252.006 205.72 250.34 206.723 250.34 209.07ZM270.241 209.191C270.241 212.401 268.395 214.708 265.546 214.708C264.102 214.708 262.878 213.986 262.116 212.702V218.379H260.089V203.874H261.975V205.82C262.738 204.456 264.042 203.673 265.546 203.673C268.375 203.673 270.241 205.981 270.241 209.191ZM268.135 209.191C268.135 206.803 266.871 205.459 265.125 205.459C263.44 205.459 262.116 206.803 262.116 209.191C262.116 211.538 263.42 212.902 265.125 212.902C266.871 212.902 268.135 211.578 268.135 209.191ZM274.322 209.07V214.507H272.296V203.874H274.182V206.121C274.924 204.656 276.529 203.734 278.274 203.734V205.84C275.987 205.72 274.322 206.723 274.322 209.07ZM284.293 214.708C281.283 214.708 279.076 212.341 279.076 209.191C279.076 206.041 281.283 203.673 284.293 203.673C287.302 203.673 289.509 206.041 289.509 209.191C289.509 212.341 287.302 214.708 284.293 214.708ZM284.293 212.922C286.038 212.922 287.423 211.518 287.423 209.191C287.423 206.863 286.038 205.479 284.293 205.479C282.547 205.479 281.183 206.863 281.183 209.191C281.183 211.518 282.547 212.922 284.293 212.922ZM290.812 209.191C290.812 205.96 292.658 203.673 295.527 203.673C296.952 203.673 298.196 204.396 298.938 205.7V200.102H300.964V214.507H299.078V212.601C298.316 213.946 297.032 214.708 295.527 214.708C292.658 214.708 290.812 212.381 290.812 209.191ZM292.919 209.191C292.919 211.558 294.163 212.902 295.929 212.902C297.654 212.902 298.938 211.498 298.938 209.151C298.938 206.763 297.614 205.459 295.929 205.459C294.163 205.459 292.919 206.783 292.919 209.191ZM310.422 210.134V203.874H312.448V214.507H310.562V212.822C310.001 213.925 308.757 214.708 307.312 214.708C305.165 214.708 303.681 213.444 303.681 210.715V203.874H305.707V210.314C305.707 212.16 306.63 212.922 307.954 212.922C309.319 212.922 310.422 211.799 310.422 210.134ZM319.456 214.728C316.547 214.728 314.5 212.441 314.5 209.191C314.5 205.981 316.587 203.673 319.456 203.673C322.084 203.673 323.99 205.419 324.371 208.187H322.244C322.024 206.482 320.96 205.459 319.476 205.459C317.73 205.459 316.587 206.944 316.587 209.191C316.587 211.458 317.73 212.922 319.476 212.922C320.98 212.922 322.024 211.919 322.264 210.194H324.371C324.01 213.003 322.124 214.728 319.456 214.728ZM332.41 212.541V214.327C331.788 214.608 331.246 214.708 330.604 214.708C328.638 214.708 327.273 213.645 327.273 211.297V205.599H324.926V203.874H327.273V200.724H329.3V203.874H332.51V205.599H329.3V210.836C329.3 212.3 330.002 212.822 331.085 212.822C331.567 212.822 331.988 212.742 332.41 212.541ZM342.831 211.337C342.831 213.424 341.206 214.708 338.377 214.708C335.568 214.708 333.903 213.324 333.702 211.036H335.649C335.729 212.361 336.792 213.183 338.417 213.183C339.842 213.183 340.785 212.682 340.785 211.678C340.785 210.796 340.243 210.414 338.919 210.154L337.193 209.833C335.227 209.451 334.124 208.448 334.124 206.843C334.124 204.977 335.749 203.673 338.217 203.673C340.765 203.673 342.49 205.038 342.671 207.224H340.724C340.604 205.94 339.661 205.198 338.237 205.198C336.953 205.198 336.09 205.74 336.09 206.663C336.09 207.525 336.632 207.927 337.916 208.167L339.721 208.508C341.828 208.89 342.831 209.813 342.831 211.337ZM344.654 218.379H342.628L351.516 200.102H353.522L344.654 218.379ZM71.6675 243.337C71.6675 245.424 70.0424 246.708 67.2135 246.708C64.4047 246.708 62.7395 245.324 62.5388 243.036H64.485C64.5652 244.361 65.6285 245.183 67.2536 245.183C68.6781 245.183 69.6211 244.682 69.6211 243.678C69.6211 242.796 69.0794 242.414 67.7552 242.154L66.0298 241.833C64.0636 241.451 62.9602 240.448 62.9602 238.843C62.9602 236.977 64.5853 235.673 67.053 235.673C69.601 235.673 71.3264 237.038 71.507 239.224H69.5609C69.4405 237.94 68.4975 237.198 67.0731 237.198C65.789 237.198 64.9263 237.74 64.9263 238.663C64.9263 239.525 65.468 239.927 66.7521 240.167L68.5577 240.508C70.6643 240.89 71.6675 241.813 71.6675 243.337ZM78.2536 246.708C75.184 246.708 73.1175 244.481 73.1175 241.13C73.1175 237.981 75.2643 235.673 78.1934 235.673C81.3634 235.673 83.47 238.241 83.1089 241.692H75.184C75.3445 243.859 76.4279 245.123 78.2135 245.123C79.7182 245.123 80.7615 244.3 81.1026 242.916H83.1089C82.5872 245.283 80.7615 246.708 78.2536 246.708ZM78.1533 237.198C76.5282 237.198 75.4248 238.362 75.2041 240.348H80.9621C80.8618 238.382 79.7985 237.198 78.1533 237.198ZM87.2897 241.07V246.507H85.2633V235.874H87.1492V238.121C87.8915 236.656 89.4966 235.734 91.2421 235.734V237.84C88.9549 237.72 87.2897 238.723 87.2897 241.07ZM101.869 235.874L97.8768 246.507H95.6699L91.6773 235.874H93.8642L96.8134 244.18L99.8028 235.874H101.869ZM105.776 233.406C105.776 234.169 105.174 234.75 104.311 234.75C103.449 234.75 102.827 234.169 102.827 233.406C102.827 232.624 103.449 232.062 104.311 232.062C105.174 232.062 105.776 232.624 105.776 233.406ZM105.335 246.507H103.308V235.874H105.335V246.507ZM112.341 246.728C109.432 246.728 107.385 244.441 107.385 241.191C107.385 237.981 109.472 235.673 112.341 235.673C114.969 235.673 116.875 237.419 117.256 240.187H115.13C114.909 238.482 113.846 237.459 112.361 237.459C110.615 237.459 109.472 238.944 109.472 241.191C109.472 243.458 110.615 244.922 112.361 244.922C113.866 244.922 114.909 243.919 115.15 242.194H117.256C116.895 245.003 115.009 246.728 112.341 246.728ZM123.572 246.708C120.502 246.708 118.436 244.481 118.436 241.13C118.436 237.981 120.582 235.673 123.511 235.673C126.681 235.673 128.788 238.241 128.427 241.692H120.502C120.663 243.859 121.746 245.123 123.532 245.123C125.036 245.123 126.08 244.3 126.421 242.916H128.427C127.905 245.283 126.08 246.708 123.572 246.708ZM123.471 237.198C121.846 237.198 120.743 238.362 120.522 240.348H126.28C126.18 238.382 125.117 237.198 123.471 237.198ZM139.008 243.337C139.008 245.424 137.383 246.708 134.554 246.708C131.745 246.708 130.08 245.324 129.879 243.036H131.825C131.905 244.361 132.969 245.183 134.594 245.183C136.018 245.183 136.961 244.682 136.961 243.678C136.961 242.796 136.42 242.414 135.095 242.154L133.37 241.833C131.404 241.451 130.3 240.448 130.3 238.843C130.3 236.977 131.926 235.673 134.393 235.673C136.941 235.673 138.667 237.038 138.847 239.224H136.901C136.781 237.94 135.838 237.198 134.413 237.198C133.129 237.198 132.267 237.74 132.267 238.663C132.267 239.525 132.808 239.927 134.092 240.167L135.898 240.508C138.005 240.89 139.008 241.813 139.008 243.337ZM143.969 245.063C143.969 245.966 143.347 246.608 142.424 246.608C141.521 246.608 140.879 245.966 140.879 245.063C140.879 244.12 141.521 243.478 142.424 243.478C143.347 243.478 143.969 244.12 143.969 245.063ZM148.378 236.576H146.813L146.673 232.102H148.518L148.378 236.576ZM151.628 236.576H150.043L149.923 232.102H151.769L151.628 236.576ZM49.8992 273.231C49.8992 275.016 48.575 276.3 46.7894 276.3C45.0038 276.3 43.6797 275.016 43.6797 273.231C43.6797 271.385 45.0038 270.081 46.7894 270.081C48.575 270.081 49.8992 271.385 49.8992 273.231ZM65.1872 268.576H63.6222L63.4818 264.102H65.3276L65.1872 268.576ZM68.4374 268.576H66.8524L66.732 264.102H68.5778L68.4374 268.576ZM81.6984 278.507L80.3943 274.936H74.1747L72.8506 278.507H70.6236L76.1409 264.102H78.5685L84.0457 278.507H81.6984ZM77.3046 266.51L74.8368 273.151H79.7322L77.3046 266.51ZM87.897 272.508V278.507H85.8707V267.874H87.7566V269.639C88.4789 268.456 89.6826 267.673 91.1472 267.673C93.3341 267.673 94.7786 269.078 94.7786 271.626V278.507H92.7523V272.308C92.7523 270.482 91.9497 269.459 90.445 269.459C89.0607 269.459 87.897 270.623 87.897 272.508ZM103.91 278.507V276.862C103.248 278.046 102.064 278.708 100.499 278.708C98.2922 278.708 96.8476 277.444 96.8476 275.498C96.8476 273.411 98.5128 272.328 101.683 272.328C102.305 272.328 102.806 272.348 103.669 272.448V271.666C103.669 270.141 102.846 269.278 101.442 269.278C99.9574 269.278 99.0545 270.161 98.9944 271.646H97.1486C97.2489 269.258 98.9542 267.673 101.442 267.673C104.07 267.673 105.595 269.158 105.595 271.686V278.507H103.91ZM98.7737 275.438C98.7737 276.541 99.5962 277.263 100.9 277.263C102.606 277.263 103.669 276.2 103.669 274.575V273.712C102.887 273.612 102.325 273.592 101.803 273.592C99.7768 273.592 98.7737 274.194 98.7737 275.438ZM110.351 278.507H108.304V264.102H110.351V278.507ZM121.991 267.874L116.674 282.379H114.467L115.992 278.367L111.799 267.874H113.986L117.076 275.979L119.945 267.874H121.991ZM131.475 278.507H122.708V276.922L128.747 269.619H122.808V267.874H131.275V269.499L125.236 276.742H131.475V278.507ZM135.949 265.406C135.949 266.169 135.347 266.75 134.484 266.75C133.621 266.75 133 266.169 133 265.406C133 264.624 133.621 264.062 134.484 264.062C135.347 264.062 135.949 264.624 135.949 265.406ZM135.507 278.507H133.481V267.874H135.507V278.507ZM140.347 272.508V278.507H138.32V267.874H140.206V269.639C140.929 268.456 142.132 267.673 143.597 267.673C145.784 267.673 147.228 269.078 147.228 271.626V278.507H145.202V272.308C145.202 270.482 144.4 269.459 142.895 269.459C141.51 269.459 140.347 270.623 140.347 272.508ZM154.173 282.6C151.384 282.6 149.578 281.116 149.458 278.708H151.424C151.544 280.193 152.507 280.995 154.153 280.995C155.978 280.995 156.941 280.012 156.941 278.186V276.26C156.339 277.544 155.136 278.287 153.691 278.287C151.043 278.287 149.157 276.1 149.157 272.97C149.157 269.8 150.963 267.673 153.631 267.673C155.156 267.673 156.36 268.416 157.082 269.76V267.874H158.968V278.146C158.968 280.935 157.182 282.6 154.173 282.6ZM151.203 272.97C151.203 275.177 152.287 276.521 154.052 276.521C155.778 276.521 156.941 275.137 156.941 273.03C156.941 270.823 155.798 269.419 154.052 269.419C152.307 269.419 151.203 270.783 151.203 272.97ZM167.992 278.507H165.966V267.874H167.852V269.639C168.574 268.416 169.718 267.673 171.182 267.673C172.747 267.673 173.931 268.476 174.412 269.88C175.155 268.516 176.378 267.673 178.004 267.673C180.19 267.673 181.595 269.098 181.595 271.626V278.507H179.569V272.268C179.569 270.502 178.786 269.459 177.301 269.459C175.917 269.459 174.794 270.623 174.794 272.408V278.507H172.767V272.268C172.767 270.502 171.985 269.459 170.5 269.459C169.096 269.459 167.992 270.623 167.992 272.408V278.507ZM190.745 278.507V276.862C190.083 278.046 188.899 278.708 187.334 278.708C185.127 278.708 183.683 277.444 183.683 275.498C183.683 273.411 185.348 272.328 188.518 272.328C189.14 272.328 189.641 272.348 190.504 272.448V271.666C190.504 270.141 189.681 269.278 188.277 269.278C186.792 269.278 185.89 270.161 185.829 271.646H183.984C184.084 269.258 185.789 267.673 188.277 267.673C190.905 267.673 192.43 269.158 192.43 271.686V278.507H190.745ZM185.609 275.438C185.609 276.541 186.431 277.263 187.735 277.263C189.441 277.263 190.504 276.2 190.504 274.575V273.712C189.722 273.612 189.16 273.592 188.638 273.592C186.612 273.592 185.609 274.194 185.609 275.438ZM197.166 273.07V278.507H195.139V267.874H197.025V270.121C197.768 268.656 199.373 267.734 201.118 267.734V269.84C198.831 269.72 197.166 270.723 197.166 273.07ZM204.748 278.507H202.722V264.102H204.748V272.629L209.302 267.874H211.69L206.775 273.03L212.151 278.507H209.543L204.748 273.472V278.507ZM217.44 278.708C214.371 278.708 212.304 276.481 212.304 273.13C212.304 269.981 214.451 267.673 217.38 267.673C220.55 267.673 222.657 270.241 222.296 273.692H214.371C214.531 275.859 215.615 277.123 217.4 277.123C218.905 277.123 219.948 276.3 220.289 274.916H222.296C221.774 277.283 219.948 278.708 217.44 278.708ZM217.34 269.198C215.715 269.198 214.612 270.362 214.391 272.348H220.149C220.049 270.382 218.985 269.198 217.34 269.198ZM230.41 276.541V278.327C229.788 278.608 229.246 278.708 228.604 278.708C226.638 278.708 225.274 277.645 225.274 275.297V269.599H222.926V267.874H225.274V264.724H227.3V267.874H230.51V269.599H227.3V274.836C227.3 276.3 228.002 276.822 229.086 276.822C229.567 276.822 229.988 276.742 230.41 276.541ZM234.912 265.406C234.912 266.169 234.31 266.75 233.447 266.75C232.584 266.75 231.962 266.169 231.962 265.406C231.962 264.624 232.584 264.062 233.447 264.062C234.31 264.062 234.912 264.624 234.912 265.406ZM234.47 278.507H232.444V267.874H234.47V278.507ZM239.31 272.508V278.507H237.283V267.874H239.169V269.639C239.892 268.456 241.095 267.673 242.56 267.673C244.747 267.673 246.191 269.078 246.191 271.626V278.507H244.165V272.308C244.165 270.482 243.362 269.459 241.858 269.459C240.473 269.459 239.31 270.623 239.31 272.508ZM253.136 282.6C250.347 282.6 248.541 281.116 248.421 278.708H250.387C250.507 280.193 251.47 280.995 253.116 280.995C254.941 280.995 255.904 280.012 255.904 278.186V276.26C255.302 277.544 254.099 278.287 252.654 278.287C250.006 278.287 248.12 276.1 248.12 272.97C248.12 269.8 249.926 267.673 252.594 267.673C254.119 267.673 255.323 268.416 256.045 269.76V267.874H257.931V278.146C257.931 280.935 256.145 282.6 253.136 282.6ZM250.166 272.97C250.166 275.177 251.25 276.521 253.015 276.521C254.741 276.521 255.904 275.137 255.904 273.03C255.904 270.823 254.761 269.419 253.015 269.419C251.27 269.419 250.166 270.783 250.166 272.97ZM269.302 278.708C266.233 278.708 264.166 276.481 264.166 273.13C264.166 269.981 266.313 267.673 269.242 267.673C272.412 267.673 274.519 270.241 274.158 273.692H266.233C266.393 275.859 267.477 277.123 269.262 277.123C270.767 277.123 271.81 276.3 272.151 274.916H274.158C273.636 277.283 271.81 278.708 269.302 278.708ZM269.202 269.198C267.577 269.198 266.474 270.362 266.253 272.348H272.011C271.911 270.382 270.847 269.198 269.202 269.198ZM279.262 278.507H277.236V269.599H274.889V267.874H277.236V267.091C277.236 265.045 278.339 263.922 280.346 263.922C280.948 263.922 281.429 264.022 281.83 264.182V265.828C281.509 265.687 281.148 265.647 280.787 265.647C279.824 265.647 279.262 266.088 279.262 267.112V267.874H282.232V269.599H279.262V278.507ZM287.354 278.507H285.328V269.599H282.98V267.874H285.328V267.091C285.328 265.045 286.431 263.922 288.438 263.922C289.039 263.922 289.521 264.022 289.922 264.182V265.828C289.601 265.687 289.24 265.647 288.879 265.647C287.916 265.647 287.354 266.088 287.354 267.112V267.874H290.323V269.599H287.354V278.507ZM295.949 278.708C292.879 278.708 290.812 276.481 290.812 273.13C290.812 269.981 292.959 267.673 295.888 267.673C299.058 267.673 301.165 270.241 300.804 273.692H292.879C293.039 275.859 294.123 277.123 295.908 277.123C297.413 277.123 298.456 276.3 298.798 274.916H300.804C300.282 277.283 298.456 278.708 295.949 278.708ZM295.848 269.198C294.223 269.198 293.12 270.362 292.899 272.348H298.657C298.557 270.382 297.493 269.198 295.848 269.198ZM306.956 278.728C304.046 278.728 302 276.441 302 273.191C302 269.981 304.087 267.673 306.956 267.673C309.584 267.673 311.49 269.419 311.871 272.187H309.744C309.524 270.482 308.46 269.459 306.976 269.459C305.23 269.459 304.087 270.944 304.087 273.191C304.087 275.458 305.23 276.922 306.976 276.922C308.48 276.922 309.524 275.919 309.764 274.194H311.871C311.51 277.003 309.624 278.728 306.956 278.728ZM319.909 276.541V278.327C319.287 278.608 318.746 278.708 318.104 278.708C316.138 278.708 314.773 277.645 314.773 275.297V269.599H312.426V267.874H314.773V264.724H316.8V267.874H320.01V269.599H316.8V274.836C316.8 276.3 317.502 276.822 318.585 276.822C319.067 276.822 319.488 276.742 319.909 276.541ZM324.411 265.406C324.411 266.169 323.809 266.75 322.947 266.75C322.084 266.75 321.462 266.169 321.462 265.406C321.462 264.624 322.084 264.062 322.947 264.062C323.809 264.062 324.411 264.624 324.411 265.406ZM323.97 278.507H321.944V267.874H323.97V278.507ZM335.611 267.874L331.618 278.507H329.411L325.419 267.874H327.606L330.555 276.18L333.544 267.874H335.611ZM341.09 278.708C338.021 278.708 335.954 276.481 335.954 273.13C335.954 269.981 338.101 267.673 341.03 267.673C344.2 267.673 346.307 270.241 345.946 273.692H338.021C338.181 275.859 339.265 277.123 341.05 277.123C342.555 277.123 343.598 276.3 343.939 274.916H345.946C345.424 277.283 343.598 278.708 341.09 278.708ZM340.99 269.198C339.365 269.198 338.261 270.362 338.041 272.348H343.799C343.698 270.382 342.635 269.198 340.99 269.198ZM350.126 272.508V278.507H348.1V267.874H349.986V269.639C350.708 268.456 351.912 267.673 353.376 267.673C355.563 267.673 357.008 269.078 357.008 271.626V278.507H354.982V272.308C354.982 270.482 354.179 269.459 352.674 269.459C351.29 269.459 350.126 270.623 350.126 272.508ZM364.073 278.708C361.003 278.708 358.936 276.481 358.936 273.13C358.936 269.981 361.083 267.673 364.012 267.673C367.182 267.673 369.289 270.241 368.928 273.692H361.003C361.163 275.859 362.247 277.123 364.032 277.123C365.537 277.123 366.58 276.3 366.922 274.916H368.928C368.406 277.283 366.58 278.708 364.073 278.708ZM363.972 269.198C362.347 269.198 361.244 270.362 361.023 272.348H366.781C366.681 270.382 365.617 269.198 363.972 269.198ZM379.509 275.337C379.509 277.424 377.884 278.708 375.055 278.708C372.246 278.708 370.581 277.324 370.38 275.036H372.326C372.406 276.361 373.47 277.183 375.095 277.183C376.519 277.183 377.462 276.682 377.462 275.678C377.462 274.796 376.921 274.414 375.596 274.154L373.871 273.833C371.905 273.451 370.801 272.448 370.801 270.843C370.801 268.977 372.426 267.673 374.894 267.673C377.442 267.673 379.168 269.038 379.348 271.224H377.402C377.282 269.94 376.339 269.198 374.914 269.198C373.63 269.198 372.768 269.74 372.768 270.663C372.768 271.525 373.309 271.927 374.593 272.167L376.399 272.508C378.506 272.89 379.509 273.813 379.509 275.337ZM390.148 275.337C390.148 277.424 388.522 278.708 385.694 278.708C382.885 278.708 381.22 277.324 381.019 275.036H382.965C383.045 276.361 384.109 277.183 385.734 277.183C387.158 277.183 388.101 276.682 388.101 275.678C388.101 274.796 387.559 274.414 386.235 274.154L384.51 273.833C382.544 273.451 381.44 272.448 381.44 270.843C381.44 268.977 383.065 267.673 385.533 267.673C388.081 267.673 389.806 269.038 389.987 271.224H388.041C387.921 269.94 386.978 269.198 385.553 269.198C384.269 269.198 383.406 269.74 383.406 270.663C383.406 271.525 383.948 271.927 385.232 272.167L387.038 272.508C389.144 272.89 390.148 273.813 390.148 275.337ZM71.6675 307.337C71.6675 309.424 70.0424 310.708 67.2135 310.708C64.4047 310.708 62.7395 309.324 62.5388 307.036H64.485C64.5652 308.361 65.6285 309.183 67.2536 309.183C68.6781 309.183 69.6211 308.682 69.6211 307.678C69.6211 306.796 69.0794 306.414 67.7552 306.154L66.0298 305.833C64.0636 305.451 62.9602 304.448 62.9602 302.843C62.9602 300.977 64.5853 299.673 67.053 299.673C69.601 299.673 71.3264 301.038 71.507 303.224H69.5609C69.4405 301.94 68.4975 301.198 67.0731 301.198C65.789 301.198 64.9263 301.74 64.9263 302.663C64.9263 303.525 65.468 303.927 66.7521 304.167L68.5577 304.508C70.6643 304.89 71.6675 305.813 71.6675 307.337ZM75.9063 304.508V310.507H73.8799V296.102H75.9063V301.579C76.6085 300.436 77.6919 299.673 79.1565 299.673C81.3433 299.673 82.7879 301.078 82.7879 303.626V310.507H80.7615V304.308C80.7615 302.482 79.959 301.459 78.4543 301.459C77.0699 301.459 75.9063 302.623 75.9063 304.508ZM89.9328 310.708C86.9233 310.708 84.7164 308.341 84.7164 305.191C84.7164 302.041 86.9233 299.673 89.9328 299.673C92.9422 299.673 95.1492 302.041 95.1492 305.191C95.1492 308.341 92.9422 310.708 89.9328 310.708ZM89.9328 308.922C91.6783 308.922 93.0626 307.518 93.0626 305.191C93.0626 302.863 91.6783 301.479 89.9328 301.479C88.1873 301.479 86.823 302.863 86.823 305.191C86.823 307.518 88.1873 308.922 89.9328 308.922ZM103.856 306.134V299.874H105.882V310.507H103.996V308.822C103.434 309.925 102.19 310.708 100.746 310.708C98.5992 310.708 97.1145 309.444 97.1145 306.715V299.874H99.1409V306.314C99.1409 308.16 100.064 308.922 101.388 308.922C102.752 308.922 103.856 307.799 103.856 306.134ZM110.743 310.507H108.696V296.102H110.743V310.507ZM112.793 305.191C112.793 301.96 114.639 299.673 117.508 299.673C118.932 299.673 120.176 300.396 120.918 301.7V296.102H122.945V310.507H121.059V308.601C120.296 309.946 119.012 310.708 117.508 310.708C114.639 310.708 112.793 308.381 112.793 305.191ZM114.899 305.191C114.899 307.558 116.143 308.902 117.909 308.902C119.634 308.902 120.918 307.498 120.918 305.151C120.918 302.763 119.594 301.459 117.909 301.459C116.143 301.459 114.899 302.783 114.899 305.191ZM140.106 305.191C140.106 308.381 138.26 310.708 135.391 310.708C133.887 310.708 132.603 309.946 131.84 308.601V310.507H129.954V296.102H131.981V301.7C132.723 300.396 133.947 299.673 135.391 299.673C138.24 299.673 140.106 301.96 140.106 305.191ZM138 305.191C138 302.783 136.736 301.459 134.99 301.459C133.305 301.459 131.981 302.763 131.981 305.151C131.981 307.498 133.265 308.902 134.99 308.902C136.736 308.902 138 307.558 138 305.191ZM146.534 310.708C143.465 310.708 141.398 308.481 141.398 305.13C141.398 301.981 143.545 299.673 146.474 299.673C149.644 299.673 151.751 302.241 151.39 305.692H143.465C143.625 307.859 144.709 309.123 146.494 309.123C147.999 309.123 149.042 308.3 149.383 306.916H151.39C150.868 309.283 149.042 310.708 146.534 310.708ZM146.434 301.198C144.809 301.198 143.705 302.362 143.485 304.348H149.243C149.143 302.382 148.079 301.198 146.434 301.198ZM166.163 307.337C166.163 309.424 164.538 310.708 161.709 310.708C158.901 310.708 157.235 309.324 157.035 307.036H158.981C159.061 308.361 160.124 309.183 161.749 309.183C163.174 309.183 164.117 308.682 164.117 307.678C164.117 306.796 163.575 306.414 162.251 306.154L160.526 305.833C158.559 305.451 157.456 304.448 157.456 302.843C157.456 300.977 159.081 299.673 161.549 299.673C164.097 299.673 165.822 301.038 166.003 303.224H164.057C163.936 301.94 162.993 301.198 161.569 301.198C160.285 301.198 159.422 301.74 159.422 302.663C159.422 303.525 159.964 303.927 161.248 304.167L163.054 304.508C165.16 304.89 166.163 305.813 166.163 307.337ZM174.237 308.541V310.327C173.615 310.608 173.074 310.708 172.432 310.708C170.466 310.708 169.101 309.645 169.101 307.297V301.599H166.754V299.874H169.101V296.724H171.128V299.874H174.338V301.599H171.128V306.836C171.128 308.3 171.83 308.822 172.913 308.822C173.395 308.822 173.816 308.742 174.237 308.541ZM178.298 305.07V310.507H176.272V299.874H178.157V302.121C178.9 300.656 180.505 299.734 182.25 299.734V301.84C179.963 301.72 178.298 302.723 178.298 305.07ZM190.294 310.507V308.862C189.632 310.046 188.448 310.708 186.883 310.708C184.677 310.708 183.232 309.444 183.232 307.498C183.232 305.411 184.897 304.328 188.067 304.328C188.689 304.328 189.191 304.348 190.053 304.448V303.666C190.053 302.141 189.231 301.278 187.826 301.278C186.342 301.278 185.439 302.161 185.379 303.646H183.533C183.633 301.258 185.339 299.673 187.826 299.673C190.455 299.673 191.979 301.158 191.979 303.686V310.507H190.294ZM185.158 307.438C185.158 308.541 185.981 309.263 187.285 309.263C188.99 309.263 190.053 308.2 190.053 306.575V305.712C189.271 305.612 188.709 305.592 188.188 305.592C186.161 305.592 185.158 306.194 185.158 307.438ZM197.157 297.406C197.157 298.169 196.555 298.75 195.692 298.75C194.829 298.75 194.207 298.169 194.207 297.406C194.207 296.624 194.829 296.062 195.692 296.062C196.555 296.062 197.157 296.624 197.157 297.406ZM196.715 310.507H194.689V299.874H196.715V310.507ZM203.782 314.6C200.993 314.6 199.187 313.116 199.067 310.708H201.033C201.153 312.193 202.116 312.995 203.761 312.995C205.587 312.995 206.55 312.012 206.55 310.186V308.26C205.948 309.544 204.745 310.287 203.3 310.287C200.652 310.287 198.766 308.1 198.766 304.97C198.766 301.8 200.571 299.673 203.24 299.673C204.765 299.673 205.968 300.416 206.691 301.76V299.874H208.577V310.146C208.577 312.935 206.791 314.6 203.782 314.6ZM200.812 304.97C200.812 307.177 201.896 308.521 203.661 308.521C205.387 308.521 206.55 307.137 206.55 305.03C206.55 302.823 205.407 301.419 203.661 301.419C201.916 301.419 200.812 302.783 200.812 304.97ZM213.408 304.508V310.507H211.382V296.102H213.408V301.579C214.11 300.436 215.194 299.673 216.658 299.673C218.845 299.673 220.29 301.078 220.29 303.626V310.507H218.263V304.308C218.263 302.482 217.461 301.459 215.956 301.459C214.572 301.459 213.408 302.623 213.408 304.508ZM228.94 308.541V310.327C228.318 310.608 227.777 310.708 227.135 310.708C225.168 310.708 223.804 309.645 223.804 307.297V301.599H221.457V299.874H223.804V296.724H225.831V299.874H229.041V301.599H225.831V306.836C225.831 308.3 226.533 308.822 227.616 308.822C228.098 308.822 228.519 308.742 228.94 308.541ZM234.16 310.507H232.133V301.599H229.786V299.874H232.133V299.091C232.133 297.045 233.237 295.922 235.243 295.922C235.845 295.922 236.327 296.022 236.728 296.182V297.828C236.407 297.687 236.046 297.647 235.685 297.647C234.722 297.647 234.16 298.088 234.16 299.112V299.874H237.129V301.599H234.16V310.507ZM242.835 310.708C239.825 310.708 237.618 308.341 237.618 305.191C237.618 302.041 239.825 299.673 242.835 299.673C245.844 299.673 248.051 302.041 248.051 305.191C248.051 308.341 245.844 310.708 242.835 310.708ZM242.835 308.922C244.58 308.922 245.964 307.518 245.964 305.191C245.964 302.863 244.58 301.479 242.835 301.479C241.089 301.479 239.725 302.863 239.725 305.191C239.725 307.518 241.089 308.922 242.835 308.922ZM252.143 305.07V310.507H250.117V299.874H252.003V302.121C252.745 300.656 254.35 299.734 256.095 299.734V301.84C253.808 301.72 252.143 302.723 252.143 305.07ZM266.487 310.507L264.079 302.603L261.651 310.507H259.605L256.535 299.874H258.522L260.668 307.618L263.076 299.874H265.082L267.45 307.638L269.596 299.874H271.603L268.513 310.507H266.487ZM279.363 310.507V308.862C278.701 310.046 277.517 310.708 275.952 310.708C273.745 310.708 272.301 309.444 272.301 307.498C272.301 305.411 273.966 304.328 277.136 304.328C277.758 304.328 278.259 304.348 279.122 304.448V303.666C279.122 302.141 278.299 301.278 276.895 301.278C275.41 301.278 274.508 302.161 274.447 303.646H272.602C272.702 301.258 274.407 299.673 276.895 299.673C279.523 299.673 281.048 301.158 281.048 303.686V310.507H279.363ZM274.227 307.438C274.227 308.541 275.049 309.263 276.353 309.263C278.059 309.263 279.122 308.2 279.122 306.575V305.712C278.34 305.612 277.778 305.592 277.256 305.592C275.23 305.592 274.227 306.194 274.227 307.438ZM285.784 305.07V310.507H283.757V299.874H285.643V302.121C286.386 300.656 287.991 299.734 289.736 299.734V301.84C287.449 301.72 285.784 302.723 285.784 305.07ZM290.538 305.191C290.538 301.96 292.384 299.673 295.253 299.673C296.677 299.673 297.921 300.396 298.664 301.7V296.102H300.69V310.507H298.804V308.601C298.042 309.946 296.758 310.708 295.253 310.708C292.384 310.708 290.538 308.381 290.538 305.191ZM292.645 305.191C292.645 307.558 293.889 308.902 295.654 308.902C297.38 308.902 298.664 307.498 298.664 305.151C298.664 302.763 297.34 301.459 295.654 301.459C293.889 301.459 292.645 302.783 292.645 305.191ZM306.255 309.063C306.255 309.966 305.634 310.608 304.711 310.608C303.808 310.608 303.166 309.966 303.166 309.063C303.166 308.12 303.808 307.478 304.711 307.478C305.634 307.478 306.255 308.12 306.255 309.063ZM310.665 300.576H309.1L308.959 296.102H310.805L310.665 300.576ZM313.915 300.576H312.33L312.209 296.102H314.055L313.915 300.576Z" fill="#B4CCFF"/>
<rect x="96.9482" y="0.791959" width="241.812" height="59.6609" rx="16.1032" fill="#16181C" stroke="#2563EB" stroke-width="1.58392"/>
<path d="M187.024 38.2554H183.232V27.2809H178.819V23.8502H191.438V27.2809H187.024V38.2554ZM196.939 38.2554H193.147V23.8502H196.939V29.207H202.256V23.8502H206.048V38.2554H202.256V32.4973H196.939V38.2554ZM212.652 38.2554H208.86V23.8502H212.652V38.2554ZM224.672 38.2554L218.934 29.2672V38.2554H215.463V23.8502H219.536L224.853 32.1763V23.8502H228.324V38.2554H224.672ZM234.929 38.2554H231.137V23.8502H234.929V29.9092L239.423 23.8502H243.737L238.661 30.6114L243.877 38.2554H239.263L234.929 31.755V38.2554ZM256.33 33.5406C256.33 36.5099 253.962 38.456 250.211 38.456C246.459 38.456 244.051 36.4698 243.79 33.2798H247.622C247.663 34.644 248.565 35.5067 250.13 35.5067C251.434 35.5067 252.297 35.0052 252.297 34.1023C252.297 33.4804 251.675 33.0189 250.833 32.8584L248.204 32.3569C245.897 31.9155 244.372 30.5713 244.372 28.2439C244.372 25.5555 246.74 23.6696 249.97 23.6696C253.401 23.6696 255.868 25.6358 256.089 28.7455H252.257C252.157 27.4414 251.274 26.5988 250.01 26.5988C248.886 26.5988 248.204 27.2007 248.204 27.9831C248.204 28.6251 248.846 29.0063 249.609 29.1468L252.397 29.6885C254.965 30.1901 256.33 31.454 256.33 33.5406Z" fill="#2563EB"/>
</svg>
