<svg width="910" height="272" viewBox="0 0 910 272" fill="none" xmlns="http://www.w3.org/2000/svg">
<rect y="30.7358" width="909.169" height="240.756" rx="48.5735" fill="#16181C"/>
<path d="M173.017 113.344C173.017 115.13 171.693 116.414 169.908 116.414C168.122 116.414 166.798 115.13 166.798 113.344C166.798 111.498 168.122 110.194 169.908 110.194C171.693 110.194 173.017 111.498 173.017 113.344ZM196.431 118.621L195.127 115.049H188.907L187.583 118.621H185.356L190.873 104.215H193.301L198.778 118.621H196.431ZM192.037 106.623L189.569 113.264H194.465L192.037 106.623ZM208.989 118.841C206.08 118.841 204.034 116.554 204.034 113.304C204.034 110.094 206.12 107.787 208.989 107.787C211.617 107.787 213.523 109.532 213.905 112.301H211.778C211.557 110.595 210.494 109.572 209.009 109.572C207.264 109.572 206.12 111.057 206.12 113.304C206.12 115.571 207.264 117.036 209.009 117.036C210.514 117.036 211.557 116.032 211.798 114.307H213.905C213.543 117.116 211.658 118.841 208.989 118.841ZM220.22 118.821C217.15 118.821 215.084 116.594 215.084 113.244C215.084 110.094 217.231 107.787 220.16 107.787C223.33 107.787 225.436 110.355 225.075 113.805H217.15C217.311 115.972 218.394 117.236 220.18 117.236C221.685 117.236 222.728 116.414 223.069 115.029H225.075C224.554 117.397 222.728 118.821 220.22 118.821ZM220.12 109.311C218.495 109.311 217.391 110.475 217.17 112.461H222.929C222.828 110.495 221.765 109.311 220.12 109.311ZM229.256 112.622V118.621H227.23V107.987H229.116V109.753C229.838 108.569 231.042 107.787 232.506 107.787C234.693 107.787 236.138 109.191 236.138 111.739V118.621H234.111V112.421C234.111 110.595 233.309 109.572 231.804 109.572C230.42 109.572 229.256 110.736 229.256 112.622ZM244.788 116.654V118.44C244.166 118.721 243.625 118.821 242.983 118.821C241.016 118.821 239.652 117.758 239.652 115.411V109.713H237.305V107.987H239.652V104.837H241.678V107.987H244.889V109.713H241.678V114.949C241.678 116.414 242.381 116.935 243.464 116.935C243.946 116.935 244.367 116.855 244.788 116.654ZM248.849 113.184V118.621H246.822V107.987H248.708V110.234C249.451 108.77 251.056 107.847 252.801 107.847V109.953C250.514 109.833 248.849 110.836 248.849 113.184ZM260.845 118.621V116.975C260.183 118.159 258.999 118.821 257.434 118.821C255.227 118.821 253.783 117.557 253.783 115.611C253.783 113.525 255.448 112.441 258.618 112.441C259.24 112.441 259.742 112.461 260.604 112.562V111.779C260.604 110.254 259.782 109.392 258.377 109.392C256.893 109.392 255.99 110.274 255.93 111.759H254.084C254.184 109.372 255.889 107.787 258.377 107.787C261.006 107.787 262.53 109.271 262.53 111.799V118.621H260.845ZM255.709 115.551C255.709 116.654 256.532 117.377 257.836 117.377C259.541 117.377 260.604 116.313 260.604 114.688V113.826C259.822 113.725 259.26 113.705 258.738 113.705C256.712 113.705 255.709 114.307 255.709 115.551ZM267.286 118.621H265.24V104.215H267.286V118.621ZM272.566 105.519C272.566 106.282 271.964 106.864 271.102 106.864C270.239 106.864 269.617 106.282 269.617 105.519C269.617 104.737 270.239 104.175 271.102 104.175C271.964 104.175 272.566 104.737 272.566 105.519ZM272.125 118.621H270.099V107.987H272.125V118.621ZM282.983 118.621H274.216V117.036L280.255 109.733H274.316V107.987H282.783V109.612L276.744 116.855H282.983V118.621ZM289.167 118.821C286.097 118.821 284.031 116.594 284.031 113.244C284.031 110.094 286.178 107.787 289.107 107.787C292.277 107.787 294.383 110.355 294.022 113.805H286.097C286.258 115.972 287.341 117.236 289.127 117.236C290.632 117.236 291.675 116.414 292.016 115.029H294.022C293.501 117.397 291.675 118.821 289.167 118.821ZM289.067 109.311C287.441 109.311 286.338 110.475 286.117 112.461H291.875C291.775 110.495 290.712 109.311 289.067 109.311ZM295.218 113.304C295.218 110.074 297.064 107.787 299.933 107.787C301.358 107.787 302.601 108.509 303.344 109.813V104.215H305.37V118.621H303.484V116.715C302.722 118.059 301.438 118.821 299.933 118.821C297.064 118.821 295.218 116.494 295.218 113.304ZM297.325 113.304C297.325 115.671 298.569 117.016 300.334 117.016C302.06 117.016 303.344 115.611 303.344 113.264C303.344 110.876 302.02 109.572 300.334 109.572C298.569 109.572 297.325 110.896 297.325 113.304ZM322.532 113.304C322.532 116.514 320.686 118.821 317.837 118.821C316.392 118.821 315.169 118.099 314.406 116.815V122.493H312.38V107.987H314.266V109.933C315.028 108.569 316.332 107.787 317.837 107.787C320.666 107.787 322.532 110.094 322.532 113.304ZM320.425 113.304C320.425 110.916 319.161 109.572 317.416 109.572C315.73 109.572 314.406 110.916 314.406 113.304C314.406 115.651 315.71 117.016 317.416 117.016C319.161 117.016 320.425 115.691 320.425 113.304ZM326.632 118.621H324.586V104.215H326.632V118.621ZM335.885 118.621V116.975C335.223 118.159 334.039 118.821 332.475 118.821C330.268 118.821 328.823 117.557 328.823 115.611C328.823 113.525 330.488 112.441 333.658 112.441C334.28 112.441 334.782 112.461 335.645 112.562V111.779C335.645 110.254 334.822 109.392 333.418 109.392C331.933 109.392 331.03 110.274 330.97 111.759H329.124C329.224 109.372 330.93 107.787 333.418 107.787C336.046 107.787 337.571 109.271 337.571 111.799V118.621H335.885ZM330.749 115.551C330.749 116.654 331.572 117.377 332.876 117.377C334.581 117.377 335.645 116.313 335.645 114.688V113.826C334.862 113.725 334.3 113.705 333.779 113.705C331.752 113.705 330.749 114.307 330.749 115.551ZM346.181 116.654V118.44C345.559 118.721 345.017 118.821 344.375 118.821C342.409 118.821 341.045 117.758 341.045 115.411V109.713H338.697V107.987H341.045V104.837H343.071V107.987H346.281V109.713H343.071V114.949C343.071 116.414 343.773 116.935 344.857 116.935C345.338 116.935 345.759 116.855 346.181 116.654ZM351.4 118.621H349.374V109.713H347.026V107.987H349.374V107.205C349.374 105.158 350.477 104.035 352.484 104.035C353.085 104.035 353.567 104.135 353.968 104.296V105.941C353.647 105.8 353.286 105.76 352.925 105.76C351.962 105.76 351.4 106.202 351.4 107.225V107.987H354.37V109.713H351.4V118.621ZM360.075 118.821C357.065 118.821 354.859 116.454 354.859 113.304C354.859 110.154 357.065 107.787 360.075 107.787C363.084 107.787 365.291 110.154 365.291 113.304C365.291 116.454 363.084 118.821 360.075 118.821ZM360.075 117.036C361.82 117.036 363.205 115.631 363.205 113.304C363.205 110.977 361.82 109.592 360.075 109.592C358.329 109.592 356.965 110.977 356.965 113.304C356.965 115.631 358.329 117.036 360.075 117.036ZM369.383 113.184V118.621H367.357V107.987H369.243V110.234C369.985 108.77 371.59 107.847 373.336 107.847V109.953C371.049 109.833 369.383 110.836 369.383 113.184ZM376.966 118.621H374.939V107.987H376.825V109.753C377.548 108.529 378.691 107.787 380.156 107.787C381.721 107.787 382.904 108.589 383.386 109.994C384.128 108.629 385.352 107.787 386.977 107.787C389.164 107.787 390.568 109.211 390.568 111.739V118.621H388.542V112.381C388.542 110.615 387.76 109.572 386.275 109.572C384.891 109.572 383.767 110.736 383.767 112.521V118.621H381.741V112.381C381.741 110.615 380.958 109.572 379.474 109.572C378.069 109.572 376.966 110.736 376.966 112.521V118.621ZM400.46 118.621H398.434V109.713H396.087V107.987H398.434V107.205C398.434 105.158 399.538 104.035 401.544 104.035C402.146 104.035 402.627 104.135 403.029 104.296V105.941C402.707 105.8 402.346 105.76 401.985 105.76C401.022 105.76 400.46 106.202 400.46 107.225V107.987H403.43V109.713H400.46V118.621ZM409.135 118.821C406.126 118.821 403.919 116.454 403.919 113.304C403.919 110.154 406.126 107.787 409.135 107.787C412.145 107.787 414.352 110.154 414.352 113.304C414.352 116.454 412.145 118.821 409.135 118.821ZM409.135 117.036C410.881 117.036 412.265 115.631 412.265 113.304C412.265 110.977 410.881 109.592 409.135 109.592C407.39 109.592 406.025 110.977 406.025 113.304C406.025 115.631 407.39 117.036 409.135 117.036ZM418.444 113.184V118.621H416.417V107.987H418.303V110.234C419.045 108.77 420.651 107.847 422.396 107.847V109.953C420.109 109.833 418.444 110.836 418.444 113.184ZM436.619 115.451C436.619 117.537 434.994 118.821 432.165 118.821C429.356 118.821 427.691 117.437 427.49 115.15H429.436C429.517 116.474 430.58 117.296 432.205 117.296C433.63 117.296 434.572 116.795 434.572 115.792C434.572 114.909 434.031 114.528 432.707 114.267L430.981 113.946C429.015 113.565 427.912 112.562 427.912 110.957C427.912 109.091 429.537 107.787 432.004 107.787C434.552 107.787 436.278 109.151 436.458 111.338H434.512C434.392 110.054 433.449 109.311 432.024 109.311C430.74 109.311 429.878 109.853 429.878 110.776C429.878 111.639 430.419 112.04 431.703 112.281L433.509 112.622C435.616 113.003 436.619 113.926 436.619 115.451ZM444.693 116.654V118.44C444.071 118.721 443.529 118.821 442.887 118.821C440.921 118.821 439.557 117.758 439.557 115.411V109.713H437.21V107.987H439.557V104.837H441.583V107.987H444.793V109.713H441.583V114.949C441.583 116.414 442.285 116.935 443.369 116.935C443.85 116.935 444.272 116.855 444.693 116.654ZM448.754 113.184V118.621H446.727V107.987H448.613V110.234C449.355 108.77 450.961 107.847 452.706 107.847V109.953C450.419 109.833 448.754 110.836 448.754 113.184ZM458.644 118.821C455.574 118.821 453.508 116.594 453.508 113.244C453.508 110.094 455.655 107.787 458.584 107.787C461.754 107.787 463.861 110.355 463.499 113.805H455.574C455.735 115.972 456.818 117.236 458.604 117.236C460.109 117.236 461.152 116.414 461.493 115.029H463.499C462.978 117.397 461.152 118.821 458.644 118.821ZM458.544 109.311C456.919 109.311 455.815 110.475 455.595 112.461H461.353C461.252 110.495 460.189 109.311 458.544 109.311ZM472.094 118.621V116.975C471.432 118.159 470.248 118.821 468.683 118.821C466.476 118.821 465.032 117.557 465.032 115.611C465.032 113.525 466.697 112.441 469.867 112.441C470.489 112.441 470.991 112.461 471.853 112.562V111.779C471.853 110.254 471.031 109.392 469.626 109.392C468.142 109.392 467.239 110.274 467.179 111.759H465.333C465.433 109.372 467.138 107.787 469.626 107.787C472.255 107.787 473.779 109.271 473.779 111.799V118.621H472.094ZM466.958 115.551C466.958 116.654 467.78 117.377 469.085 117.377C470.79 117.377 471.853 116.313 471.853 114.688V113.826C471.071 113.725 470.509 113.705 469.987 113.705C467.961 113.705 466.958 114.307 466.958 115.551ZM478.515 118.621H476.489V107.987H478.374V109.753C479.097 108.529 480.24 107.787 481.705 107.787C483.27 107.787 484.454 108.589 484.935 109.994C485.677 108.629 486.901 107.787 488.526 107.787C490.713 107.787 492.118 109.211 492.118 111.739V118.621H490.091V112.381C490.091 110.615 489.309 109.572 487.824 109.572C486.44 109.572 485.316 110.736 485.316 112.521V118.621H483.29V112.381C483.29 110.615 482.507 109.572 481.023 109.572C479.618 109.572 478.515 110.736 478.515 112.521V118.621ZM496.874 118.621H494.827V104.215H496.874V118.621ZM502.154 105.519C502.154 106.282 501.552 106.864 500.69 106.864C499.827 106.864 499.205 106.282 499.205 105.519C499.205 104.737 499.827 104.175 500.69 104.175C501.552 104.175 502.154 104.737 502.154 105.519ZM501.713 118.621H499.686V107.987H501.713V118.621ZM506.552 112.622V118.621H504.526V107.987H506.412V109.753C507.134 108.569 508.338 107.787 509.802 107.787C511.989 107.787 513.434 109.191 513.434 111.739V118.621H511.407V112.421C511.407 110.595 510.605 109.572 509.1 109.572C507.716 109.572 506.552 110.736 506.552 112.622ZM520.498 118.821C517.429 118.821 515.362 116.594 515.362 113.244C515.362 110.094 517.509 107.787 520.438 107.787C523.608 107.787 525.715 110.355 525.354 113.805H517.429C517.589 115.972 518.673 117.236 520.458 117.236C521.963 117.236 523.006 116.414 523.347 115.029H525.354C524.832 117.397 523.006 118.821 520.498 118.821ZM520.398 109.311C518.773 109.311 517.67 110.475 517.449 112.461H523.207C523.107 110.495 522.043 109.311 520.398 109.311ZM526.55 113.304C526.55 110.074 528.396 107.787 531.265 107.787C532.689 107.787 533.933 108.509 534.675 109.813V104.215H536.702V118.621H534.816V116.715C534.053 118.059 532.769 118.821 531.265 118.821C528.396 118.821 526.55 116.494 526.55 113.304ZM528.656 113.304C528.656 115.671 529.9 117.016 531.666 117.016C533.391 117.016 534.675 115.611 534.675 113.264C534.675 110.876 533.351 109.572 531.666 109.572C529.9 109.572 528.656 110.896 528.656 113.304ZM542.949 113.304C542.949 110.074 544.795 107.787 547.664 107.787C549.088 107.787 550.332 108.509 551.074 109.813V104.215H553.101V118.621H551.215V116.715C550.452 118.059 549.168 118.821 547.664 118.821C544.795 118.821 542.949 116.494 542.949 113.304ZM545.056 113.304C545.056 115.671 546.299 117.016 548.065 117.016C549.79 117.016 551.074 115.611 551.074 113.264C551.074 110.876 549.75 109.572 548.065 109.572C546.299 109.572 545.056 110.896 545.056 113.304ZM562.358 118.621V116.975C561.696 118.159 560.512 118.821 558.947 118.821C556.74 118.821 555.296 117.557 555.296 115.611C555.296 113.525 556.961 112.441 560.131 112.441C560.753 112.441 561.254 112.461 562.117 112.562V111.779C562.117 110.254 561.294 109.392 559.89 109.392C558.405 109.392 557.503 110.274 557.442 111.759H555.597C555.697 109.372 557.402 107.787 559.89 107.787C562.518 107.787 564.043 109.271 564.043 111.799V118.621H562.358ZM557.222 115.551C557.222 116.654 558.044 117.377 559.348 117.377C561.054 117.377 562.117 116.313 562.117 114.688V113.826C561.335 113.725 560.773 113.705 560.251 113.705C558.225 113.705 557.222 114.307 557.222 115.551ZM572.653 116.654V118.44C572.031 118.721 571.49 118.821 570.848 118.821C568.881 118.821 567.517 117.758 567.517 115.411V109.713H565.17V107.987H567.517V104.837H569.543V107.987H572.754V109.713H569.543V114.949C569.543 116.414 570.246 116.935 571.329 116.935C571.811 116.935 572.232 116.855 572.653 116.654ZM581.128 118.621V116.975C580.466 118.159 579.282 118.821 577.717 118.821C575.51 118.821 574.065 117.557 574.065 115.611C574.065 113.525 575.731 112.441 578.901 112.441C579.523 112.441 580.024 112.461 580.887 112.562V111.779C580.887 110.254 580.064 109.392 578.66 109.392C577.175 109.392 576.272 110.274 576.212 111.759H574.366C574.467 109.372 576.172 107.787 578.66 107.787C581.288 107.787 582.813 109.271 582.813 111.799V118.621H581.128ZM575.992 115.551C575.992 116.654 576.814 117.377 578.118 117.377C579.824 117.377 580.887 116.313 580.887 114.688V113.826C580.104 113.725 579.543 113.705 579.021 113.705C576.995 113.705 575.992 114.307 575.992 115.551ZM591.741 118.621H589.715V107.987H591.601V109.753C592.323 108.529 593.467 107.787 594.931 107.787C596.496 107.787 597.68 108.589 598.162 109.994C598.904 108.629 600.128 107.787 601.753 107.787C603.94 107.787 605.344 109.211 605.344 111.739V118.621H603.318V112.381C603.318 110.615 602.535 109.572 601.051 109.572C599.666 109.572 598.543 110.736 598.543 112.521V118.621H596.516V112.381C596.516 110.615 595.734 109.572 594.249 109.572C592.845 109.572 591.741 110.736 591.741 112.521V118.621ZM614.494 118.621V116.975C613.832 118.159 612.648 118.821 611.083 118.821C608.876 118.821 607.432 117.557 607.432 115.611C607.432 113.525 609.097 112.441 612.267 112.441C612.889 112.441 613.391 112.461 614.253 112.562V111.779C614.253 110.254 613.431 109.392 612.026 109.392C610.542 109.392 609.639 110.274 609.579 111.759H607.733C607.833 109.372 609.538 107.787 612.026 107.787C614.655 107.787 616.179 109.271 616.179 111.799V118.621H614.494ZM609.358 115.551C609.358 116.654 610.18 117.377 611.485 117.377C613.19 117.377 614.253 116.313 614.253 114.688V113.826C613.471 113.725 612.909 113.705 612.387 113.705C610.361 113.705 609.358 114.307 609.358 115.551ZM620.915 112.622V118.621H618.889V107.987H620.775V109.753C621.497 108.569 622.701 107.787 624.165 107.787C626.352 107.787 627.797 109.191 627.797 111.739V118.621H625.77V112.421C625.77 110.595 624.968 109.572 623.463 109.572C622.079 109.572 620.915 110.736 620.915 112.622ZM636.928 118.621V116.975C636.266 118.159 635.082 118.821 633.517 118.821C631.31 118.821 629.866 117.557 629.866 115.611C629.866 113.525 631.531 112.441 634.701 112.441C635.323 112.441 635.824 112.461 636.687 112.562V111.779C636.687 110.254 635.864 109.392 634.46 109.392C632.975 109.392 632.073 110.274 632.012 111.759H630.167C630.267 109.372 631.972 107.787 634.46 107.787C637.088 107.787 638.613 109.271 638.613 111.799V118.621H636.928ZM631.792 115.551C631.792 116.654 632.614 117.377 633.918 117.377C635.624 117.377 636.687 116.313 636.687 114.688V113.826C635.905 113.725 635.343 113.705 634.821 113.705C632.795 113.705 631.792 114.307 631.792 115.551ZM645.576 122.713C642.787 122.713 640.981 121.229 640.861 118.821H642.827C642.947 120.306 643.91 121.108 645.556 121.108C647.381 121.108 648.344 120.125 648.344 118.3V116.374C647.743 117.658 646.539 118.4 645.094 118.4C642.446 118.4 640.56 116.213 640.56 113.083C640.56 109.913 642.366 107.787 645.034 107.787C646.559 107.787 647.763 108.529 648.485 109.873V107.987H650.371V118.259C650.371 121.048 648.585 122.713 645.576 122.713ZM642.606 113.083C642.606 115.29 643.69 116.634 645.455 116.634C647.181 116.634 648.344 115.25 648.344 113.143C648.344 110.936 647.201 109.532 645.455 109.532C643.71 109.532 642.606 110.896 642.606 113.083ZM657.55 118.821C654.48 118.821 652.414 116.594 652.414 113.244C652.414 110.094 654.56 107.787 657.489 107.787C660.659 107.787 662.766 110.355 662.405 113.805H654.48C654.641 115.972 655.724 117.236 657.51 117.236C659.014 117.236 660.058 116.414 660.399 115.029H662.405C661.883 117.397 660.058 118.821 657.55 118.821ZM657.449 109.311C655.824 109.311 654.721 110.475 654.5 112.461H660.258C660.158 110.495 659.095 109.311 657.449 109.311ZM666.586 118.621H664.559V107.987H666.445V109.753C667.168 108.529 668.311 107.787 669.776 107.787C671.341 107.787 672.524 108.589 673.006 109.994C673.748 108.629 674.972 107.787 676.597 107.787C678.784 107.787 680.188 109.211 680.188 111.739V118.621H678.162V112.381C678.162 110.615 677.38 109.572 675.895 109.572C674.511 109.572 673.387 110.736 673.387 112.521V118.621H671.361V112.381C671.361 110.615 670.578 109.572 669.094 109.572C667.689 109.572 666.586 110.736 666.586 112.521V118.621ZM687.272 118.821C684.202 118.821 682.136 116.594 682.136 113.244C682.136 110.094 684.283 107.787 687.212 107.787C690.382 107.787 692.488 110.355 692.127 113.805H684.202C684.363 115.972 685.446 117.236 687.232 117.236C688.737 117.236 689.78 116.414 690.121 115.029H692.127C691.606 117.397 689.78 118.821 687.272 118.821ZM687.172 109.311C685.546 109.311 684.443 110.475 684.222 112.461H689.98C689.88 110.495 688.817 109.311 687.172 109.311ZM696.308 112.622V118.621H694.281V107.987H696.167V109.753C696.89 108.569 698.093 107.787 699.558 107.787C701.745 107.787 703.189 109.191 703.189 111.739V118.621H701.163V112.421C701.163 110.595 700.361 109.572 698.856 109.572C697.471 109.572 696.308 110.736 696.308 112.622ZM711.84 116.654V118.44C711.218 118.721 710.676 118.821 710.034 118.821C708.068 118.821 706.704 117.758 706.704 115.411V109.713H704.357V107.987H706.704V104.837H708.73V107.987H711.94V109.713H708.73V114.949C708.73 116.414 709.433 116.935 710.516 116.935C710.997 116.935 711.419 116.855 711.84 116.654ZM716.819 117.176C716.819 118.079 716.197 118.721 715.274 118.721C714.371 118.721 713.729 118.079 713.729 117.176C713.729 116.233 714.371 115.591 715.274 115.591C716.197 115.591 716.819 116.233 716.819 117.176ZM211.654 145.344C211.654 147.13 210.33 148.414 208.545 148.414C206.759 148.414 205.435 147.13 205.435 145.344C205.435 143.498 206.759 142.194 208.545 142.194C210.33 142.194 211.654 143.498 211.654 145.344ZM227.364 150.621H225.157V136.215H230.534C233.844 136.215 235.83 137.84 235.83 140.709C235.83 142.776 234.526 144.361 232.339 144.883L236.251 150.621H233.603L230.012 145.204H227.364V150.621ZM227.364 138.061V143.358H230.393C232.44 143.358 233.603 142.455 233.603 140.709C233.603 138.984 232.44 138.061 230.393 138.061H227.364ZM242.086 150.821C239.016 150.821 236.949 148.594 236.949 145.244C236.949 142.094 239.096 139.787 242.025 139.787C245.195 139.787 247.302 142.355 246.941 145.805H239.016C239.176 147.972 240.26 149.236 242.045 149.236C243.55 149.236 244.593 148.414 244.935 147.029H246.941C246.419 149.397 244.593 150.821 242.086 150.821ZM241.985 141.311C240.36 141.311 239.257 142.475 239.036 144.461H244.794C244.694 142.495 243.63 141.311 241.985 141.311ZM255.535 150.621V148.975C254.873 150.159 253.69 150.821 252.125 150.821C249.918 150.821 248.473 149.557 248.473 147.611C248.473 145.525 250.138 144.441 253.308 144.441C253.93 144.441 254.432 144.461 255.295 144.562V143.779C255.295 142.254 254.472 141.392 253.068 141.392C251.583 141.392 250.68 142.274 250.62 143.759H248.774C248.875 141.372 250.58 139.787 253.068 139.787C255.696 139.787 257.221 141.271 257.221 143.799V150.621H255.535ZM250.399 147.551C250.399 148.654 251.222 149.377 252.526 149.377C254.231 149.377 255.295 148.313 255.295 146.688V145.826C254.512 145.725 253.95 145.705 253.429 145.705C251.402 145.705 250.399 146.307 250.399 147.551ZM261.976 150.621H259.93V136.215H261.976V150.621ZM270.126 146.006H263.886V144.18H270.126V146.006ZM277.939 148.654V150.44C277.317 150.721 276.776 150.821 276.134 150.821C274.167 150.821 272.803 149.758 272.803 147.411V141.713H270.456V139.987H272.803V136.837H274.829V139.987H278.04V141.713H274.829V146.949C274.829 148.414 275.532 148.935 276.615 148.935C277.097 148.935 277.518 148.855 277.939 148.654ZM282.441 137.519C282.441 138.282 281.839 138.864 280.977 138.864C280.114 138.864 279.492 138.282 279.492 137.519C279.492 136.737 280.114 136.175 280.977 136.175C281.839 136.175 282.441 136.737 282.441 137.519ZM282 150.621H279.973V139.987H282V150.621ZM286.839 150.621H284.813V139.987H286.699V141.753C287.421 140.529 288.565 139.787 290.029 139.787C291.594 139.787 292.778 140.589 293.259 141.994C294.002 140.629 295.225 139.787 296.851 139.787C299.037 139.787 300.442 141.211 300.442 143.739V150.621H298.415V144.381C298.415 142.615 297.633 141.572 296.148 141.572C294.764 141.572 293.641 142.736 293.641 144.521V150.621H291.614V144.381C291.614 142.615 290.832 141.572 289.347 141.572C287.943 141.572 286.839 142.736 286.839 144.521V150.621ZM307.525 150.821C304.456 150.821 302.389 148.594 302.389 145.244C302.389 142.094 304.536 139.787 307.465 139.787C310.635 139.787 312.742 142.355 312.381 145.805H304.456C304.616 147.972 305.7 149.236 307.485 149.236C308.99 149.236 310.033 148.414 310.374 147.029H312.381C311.859 149.397 310.033 150.821 307.525 150.821ZM307.425 141.311C305.8 141.311 304.696 142.475 304.476 144.461H310.234C310.134 142.495 309.07 141.311 307.425 141.311ZM321.196 137.519C321.196 138.282 320.594 138.864 319.731 138.864C318.868 138.864 318.246 138.282 318.246 137.519C318.246 136.737 318.868 136.175 319.731 136.175C320.594 136.175 321.196 136.737 321.196 137.519ZM320.754 150.621H318.728V139.987H320.754V150.621ZM325.594 144.622V150.621H323.567V139.987H325.453V141.753C326.175 140.569 327.379 139.787 328.844 139.787C331.031 139.787 332.475 141.191 332.475 143.739V150.621H330.449V144.421C330.449 142.595 329.646 141.572 328.142 141.572C326.757 141.572 325.594 142.736 325.594 144.622ZM343.593 147.451C343.593 149.537 341.967 150.821 339.139 150.821C336.33 150.821 334.665 149.437 334.464 147.15H336.41C336.49 148.474 337.554 149.296 339.179 149.296C340.603 149.296 341.546 148.795 341.546 147.792C341.546 146.909 341.004 146.528 339.68 146.267L337.955 145.946C335.989 145.565 334.885 144.562 334.885 142.957C334.885 141.091 336.51 139.787 338.978 139.787C341.526 139.787 343.252 141.151 343.432 143.338H341.486C341.366 142.054 340.423 141.311 338.998 141.311C337.714 141.311 336.851 141.853 336.851 142.776C336.851 143.639 337.393 144.04 338.677 144.281L340.483 144.622C342.589 145.003 343.593 145.926 343.593 147.451ZM348.273 137.519C348.273 138.282 347.671 138.864 346.808 138.864C345.945 138.864 345.323 138.282 345.323 137.519C345.323 136.737 345.945 136.175 346.808 136.175C347.671 136.175 348.273 136.737 348.273 137.519ZM347.831 150.621H345.805V139.987H347.831V150.621ZM354.898 154.713C352.109 154.713 350.303 153.229 350.183 150.821H352.149C352.269 152.306 353.233 153.108 354.878 153.108C356.703 153.108 357.666 152.125 357.666 150.3V148.374C357.065 149.658 355.861 150.4 354.416 150.4C351.768 150.4 349.882 148.213 349.882 145.083C349.882 141.913 351.688 139.787 354.356 139.787C355.881 139.787 357.085 140.529 357.807 141.873V139.987H359.693V150.259C359.693 153.048 357.907 154.713 354.898 154.713ZM351.928 145.083C351.928 147.29 353.012 148.634 354.777 148.634C356.503 148.634 357.666 147.25 357.666 145.143C357.666 142.936 356.523 141.532 354.777 141.532C353.032 141.532 351.928 142.896 351.928 145.083ZM364.524 144.622V150.621H362.498V136.215H364.524V141.693C365.227 140.549 366.31 139.787 367.775 139.787C369.961 139.787 371.406 141.191 371.406 143.739V150.621H369.38V144.421C369.38 142.595 368.577 141.572 367.072 141.572C365.688 141.572 364.524 142.736 364.524 144.622ZM380.057 148.654V150.44C379.435 150.721 378.893 150.821 378.251 150.821C376.285 150.821 374.92 149.758 374.92 147.411V141.713H372.573V139.987H374.92V136.837H376.947V139.987H380.157V141.713H376.947V146.949C376.947 148.414 377.649 148.935 378.732 148.935C379.214 148.935 379.635 148.855 380.057 148.654ZM390.478 147.451C390.478 149.537 388.853 150.821 386.024 150.821C383.215 150.821 381.55 149.437 381.349 147.15H383.295C383.376 148.474 384.439 149.296 386.064 149.296C387.489 149.296 388.432 148.795 388.432 147.792C388.432 146.909 387.89 146.528 386.566 146.267L384.84 145.946C382.874 145.565 381.771 144.562 381.771 142.957C381.771 141.091 383.396 139.787 385.864 139.787C388.412 139.787 390.137 141.151 390.318 143.338H388.371C388.251 142.054 387.308 141.311 385.884 141.311C384.6 141.311 383.737 141.853 383.737 142.776C383.737 143.639 384.279 144.04 385.563 144.281L387.368 144.622C389.475 145.003 390.478 145.926 390.478 147.451ZM399.873 150.621H397.846V141.713H395.499V139.987H397.846V139.205C397.846 137.158 398.95 136.035 400.956 136.035C401.558 136.035 402.039 136.135 402.441 136.296V137.941C402.12 137.8 401.759 137.76 401.397 137.76C400.434 137.76 399.873 138.202 399.873 139.225V139.987H402.842V141.713H399.873V150.621ZM408.547 150.821C405.538 150.821 403.331 148.454 403.331 145.304C403.331 142.154 405.538 139.787 408.547 139.787C411.557 139.787 413.764 142.154 413.764 145.304C413.764 148.454 411.557 150.821 408.547 150.821ZM408.547 149.036C410.293 149.036 411.677 147.631 411.677 145.304C411.677 142.977 410.293 141.592 408.547 141.592C406.802 141.592 405.438 142.977 405.438 145.304C405.438 147.631 406.802 149.036 408.547 149.036ZM417.856 145.184V150.621H415.829V139.987H417.715V142.234C418.458 140.77 420.063 139.847 421.808 139.847V141.953C419.521 141.833 417.856 142.836 417.856 145.184ZM431.798 150.841C428.889 150.841 426.842 148.554 426.842 145.304C426.842 142.094 428.929 139.787 431.798 139.787C434.426 139.787 436.332 141.532 436.713 144.301H434.587C434.366 142.595 433.303 141.572 431.818 141.572C430.072 141.572 428.929 143.057 428.929 145.304C428.929 147.571 430.072 149.036 431.818 149.036C433.323 149.036 434.366 148.032 434.607 146.307H436.713C436.352 149.116 434.466 150.841 431.798 150.841ZM443.109 150.821C440.1 150.821 437.893 148.454 437.893 145.304C437.893 142.154 440.1 139.787 443.109 139.787C446.118 139.787 448.325 142.154 448.325 145.304C448.325 148.454 446.118 150.821 443.109 150.821ZM443.109 149.036C444.854 149.036 446.239 147.631 446.239 145.304C446.239 142.977 444.854 141.592 443.109 141.592C441.364 141.592 439.999 142.977 439.999 145.304C439.999 147.631 441.364 149.036 443.109 149.036ZM452.417 144.622V150.621H450.391V139.987H452.277V141.753C452.999 140.569 454.203 139.787 455.668 139.787C457.854 139.787 459.299 141.191 459.299 143.739V150.621H457.273V144.421C457.273 142.595 456.47 141.572 454.965 141.572C453.581 141.572 452.417 142.736 452.417 144.622ZM464.94 150.621H462.914V141.713H460.566V139.987H462.914V139.205C462.914 137.158 464.017 136.035 466.024 136.035C466.625 136.035 467.107 136.135 467.508 136.296V137.941C467.187 137.8 466.826 137.76 466.465 137.76C465.502 137.76 464.94 138.202 464.94 139.225V139.987H467.909V141.713H464.94V150.621ZM471.923 137.519C471.923 138.282 471.321 138.864 470.458 138.864C469.595 138.864 468.973 138.282 468.973 137.519C468.973 136.737 469.595 136.175 470.458 136.175C471.321 136.175 471.923 136.737 471.923 137.519ZM471.481 150.621H469.455V139.987H471.481V150.621ZM473.532 145.304C473.532 142.074 475.378 139.787 478.247 139.787C479.671 139.787 480.915 140.509 481.657 141.813V136.215H483.684V150.621H481.798V148.715C481.035 150.059 479.751 150.821 478.247 150.821C475.378 150.821 473.532 148.494 473.532 145.304ZM475.638 145.304C475.638 147.671 476.882 149.016 478.648 149.016C480.373 149.016 481.657 147.611 481.657 145.264C481.657 142.876 480.333 141.572 478.648 141.572C476.882 141.572 475.638 142.896 475.638 145.304ZM490.874 150.821C487.805 150.821 485.738 148.594 485.738 145.244C485.738 142.094 487.885 139.787 490.814 139.787C493.984 139.787 496.091 142.355 495.729 145.805H487.805C487.965 147.972 489.048 149.236 490.834 149.236C492.339 149.236 493.382 148.414 493.723 147.029H495.729C495.208 149.397 493.382 150.821 490.874 150.821ZM490.774 141.311C489.149 141.311 488.045 142.475 487.825 144.461H493.583C493.482 142.495 492.419 141.311 490.774 141.311ZM499.91 144.622V150.621H497.884V139.987H499.77V141.753C500.492 140.569 501.696 139.787 503.16 139.787C505.347 139.787 506.792 141.191 506.792 143.739V150.621H504.765V144.421C504.765 142.595 503.963 141.572 502.458 141.572C501.074 141.572 499.91 142.736 499.91 144.622ZM515.442 148.654V150.44C514.82 150.721 514.279 150.821 513.637 150.821C511.671 150.821 510.306 149.758 510.306 147.411V141.713H507.959V139.987H510.306V136.837H512.333V139.987H515.543V141.713H512.333V146.949C512.333 148.414 513.035 148.935 514.118 148.935C514.6 148.935 515.021 148.855 515.442 148.654ZM520.907 145.304C520.907 142.074 522.753 139.787 525.622 139.787C527.046 139.787 528.29 140.509 529.033 141.813V136.215H531.059V150.621H529.173V148.715C528.411 150.059 527.127 150.821 525.622 150.821C522.753 150.821 520.907 148.494 520.907 145.304ZM523.014 145.304C523.014 147.671 524.258 149.016 526.023 149.016C527.749 149.016 529.033 147.611 529.033 145.264C529.033 142.876 527.708 141.572 526.023 141.572C524.258 141.572 523.014 142.896 523.014 145.304ZM538.249 150.821C535.18 150.821 533.113 148.594 533.113 145.244C533.113 142.094 535.26 139.787 538.189 139.787C541.359 139.787 543.466 142.355 543.105 145.805H535.18C535.34 147.972 536.424 149.236 538.209 149.236C539.714 149.236 540.757 148.414 541.098 147.029H543.105C542.583 149.397 540.757 150.821 538.249 150.821ZM538.149 141.311C536.524 141.311 535.421 142.475 535.2 144.461H540.958C540.858 142.495 539.794 141.311 538.149 141.311ZM549.256 150.841C546.347 150.841 544.301 148.554 544.301 145.304C544.301 142.094 546.387 139.787 549.256 139.787C551.885 139.787 553.791 141.532 554.172 144.301H552.045C551.824 142.595 550.761 141.572 549.276 141.572C547.531 141.572 546.387 143.057 546.387 145.304C546.387 147.571 547.531 149.036 549.276 149.036C550.781 149.036 551.824 148.032 552.065 146.307H554.172C553.811 149.116 551.925 150.841 549.256 150.841ZM558.679 137.519C558.679 138.282 558.077 138.864 557.215 138.864C556.352 138.864 555.73 138.282 555.73 137.519C555.73 136.737 556.352 136.175 557.215 136.175C558.077 136.175 558.679 136.737 558.679 137.519ZM558.238 150.621H556.211V139.987H558.238V150.621ZM569.477 147.451C569.477 149.537 567.852 150.821 565.023 150.821C562.215 150.821 560.549 149.437 560.349 147.15H562.295C562.375 148.474 563.438 149.296 565.063 149.296C566.488 149.296 567.431 148.795 567.431 147.792C567.431 146.909 566.889 146.528 565.565 146.267L563.84 145.946C561.873 145.565 560.77 144.562 560.77 142.957C560.77 141.091 562.395 139.787 564.863 139.787C567.411 139.787 569.136 141.151 569.317 143.338H567.371C567.25 142.054 566.307 141.311 564.883 141.311C563.599 141.311 562.736 141.853 562.736 142.776C562.736 143.639 563.278 144.04 564.562 144.281L566.368 144.622C568.474 145.003 569.477 145.926 569.477 147.451ZM574.157 137.519C574.157 138.282 573.556 138.864 572.693 138.864C571.83 138.864 571.208 138.282 571.208 137.519C571.208 136.737 571.83 136.175 572.693 136.175C573.556 136.175 574.157 136.737 574.157 137.519ZM573.716 150.621H571.69V139.987H573.716V150.621ZM580.983 150.821C577.974 150.821 575.767 148.454 575.767 145.304C575.767 142.154 577.974 139.787 580.983 139.787C583.993 139.787 586.2 142.154 586.2 145.304C586.2 148.454 583.993 150.821 580.983 150.821ZM580.983 149.036C582.729 149.036 584.113 147.631 584.113 145.304C584.113 142.977 582.729 141.592 580.983 141.592C579.238 141.592 577.873 142.977 577.873 145.304C577.873 147.631 579.238 149.036 580.983 149.036ZM590.292 144.622V150.621H588.265V139.987H590.151V141.753C590.873 140.569 592.077 139.787 593.542 139.787C595.729 139.787 597.173 141.191 597.173 143.739V150.621H595.147V144.421C595.147 142.595 594.344 141.572 592.84 141.572C591.455 141.572 590.292 142.736 590.292 144.622ZM605.201 146.006H598.961V144.18H605.201V146.006ZM609.14 150.621H607.113V139.987H608.999V141.753C609.722 140.529 610.865 139.787 612.33 139.787C613.895 139.787 615.078 140.589 615.56 141.994C616.302 140.629 617.526 139.787 619.151 139.787C621.338 139.787 622.742 141.211 622.742 143.739V150.621H620.716V144.381C620.716 142.615 619.934 141.572 618.449 141.572C617.065 141.572 615.941 142.736 615.941 144.521V150.621H613.915V144.381C613.915 142.615 613.132 141.572 611.648 141.572C610.243 141.572 609.14 142.736 609.14 144.521V150.621ZM631.892 150.621V148.975C631.23 150.159 630.047 150.821 628.482 150.821C626.275 150.821 624.83 149.557 624.83 147.611C624.83 145.525 626.496 144.441 629.665 144.441C630.287 144.441 630.789 144.461 631.652 144.562V143.779C631.652 142.254 630.829 141.392 629.425 141.392C627.94 141.392 627.037 142.274 626.977 143.759H625.131C625.232 141.372 626.937 139.787 629.425 139.787C632.053 139.787 633.578 141.271 633.578 143.799V150.621H631.892ZM626.756 147.551C626.756 148.654 627.579 149.377 628.883 149.377C630.588 149.377 631.652 148.313 631.652 146.688V145.826C630.869 145.725 630.307 145.705 629.786 145.705C627.76 145.705 626.756 146.307 626.756 147.551ZM638.313 150.621H636.287V136.215H638.313V144.742L642.868 139.987H645.255L640.34 145.143L645.717 150.621H643.108L638.313 145.585V150.621ZM649.609 137.519C649.609 138.282 649.007 138.864 648.145 138.864C647.282 138.864 646.66 138.282 646.66 137.519C646.66 136.737 647.282 136.175 648.145 136.175C649.007 136.175 649.609 136.737 649.609 137.519ZM649.168 150.621H647.141V139.987H649.168V150.621ZM654.007 144.622V150.621H651.981V139.987H653.867V141.753C654.589 140.569 655.793 139.787 657.257 139.787C659.444 139.787 660.889 141.191 660.889 143.739V150.621H658.862V144.421C658.862 142.595 658.06 141.572 656.555 141.572C655.171 141.572 654.007 142.736 654.007 144.622ZM667.833 154.713C665.044 154.713 663.239 153.229 663.118 150.821H665.084C665.205 152.306 666.168 153.108 667.813 153.108C669.639 153.108 670.602 152.125 670.602 150.3V148.374C670 149.658 668.796 150.4 667.352 150.4C664.703 150.4 662.817 148.213 662.817 145.083C662.817 141.913 664.623 139.787 667.291 139.787C668.816 139.787 670.02 140.529 670.742 141.873V139.987H672.628V150.259C672.628 153.048 670.842 154.713 667.833 154.713ZM664.864 145.083C664.864 147.29 665.947 148.634 667.713 148.634C669.438 148.634 670.602 147.25 670.602 145.143C670.602 142.936 669.458 141.532 667.713 141.532C665.967 141.532 664.864 142.896 664.864 145.083ZM678.182 149.176C678.182 150.079 677.56 150.721 676.637 150.721C675.734 150.721 675.092 150.079 675.092 149.176C675.092 148.233 675.734 147.591 676.637 147.591C677.56 147.591 678.182 148.233 678.182 149.176ZM206.237 177.344C206.237 179.13 204.913 180.414 203.127 180.414C201.342 180.414 200.017 179.13 200.017 177.344C200.017 175.498 201.342 174.194 203.127 174.194C204.913 174.194 206.237 175.498 206.237 177.344ZM230.272 178.407C230.272 180.915 228.266 182.821 224.775 182.821C221.304 182.821 219.198 180.915 219.017 178.046H221.264C221.364 179.872 222.528 181.056 224.735 181.056C226.561 181.056 227.925 180.193 227.925 178.708C227.925 177.505 227.142 176.903 225.477 176.542L223.391 176.14C221.364 175.739 219.519 174.716 219.519 172.268C219.519 169.84 221.645 168.015 224.635 168.015C227.624 168.015 229.891 169.84 230.072 172.709H227.825C227.704 170.984 226.46 169.78 224.655 169.78C222.789 169.78 221.766 170.884 221.766 172.128C221.766 173.492 222.949 173.973 224.294 174.254L226.42 174.676C228.888 175.177 230.272 176.261 230.272 178.407ZM235.134 169.519C235.134 170.282 234.533 170.864 233.67 170.864C232.807 170.864 232.185 170.282 232.185 169.519C232.185 168.737 232.807 168.175 233.67 168.175C234.533 168.175 235.134 168.737 235.134 169.519ZM234.693 182.621H232.667V171.987H234.693V182.621ZM239.532 182.621H237.506V171.987H239.392V173.753C240.114 172.529 241.258 171.787 242.722 171.787C244.287 171.787 245.471 172.589 245.953 173.994C246.695 172.629 247.919 171.787 249.544 171.787C251.731 171.787 253.135 173.211 253.135 175.739V182.621H251.109V176.381C251.109 174.615 250.326 173.572 248.842 173.572C247.457 173.572 246.334 174.736 246.334 176.521V182.621H244.307V176.381C244.307 174.615 243.525 173.572 242.04 173.572C240.636 173.572 239.532 174.736 239.532 176.521V182.621ZM265.997 177.304C265.997 180.514 264.151 182.821 261.302 182.821C259.858 182.821 258.634 182.099 257.871 180.815V186.493H255.845V171.987H257.731V173.933C258.493 172.569 259.797 171.787 261.302 171.787C264.131 171.787 265.997 174.094 265.997 177.304ZM263.89 177.304C263.89 174.916 262.626 173.572 260.881 173.572C259.195 173.572 257.871 174.916 257.871 177.304C257.871 179.651 259.175 181.016 260.881 181.016C262.626 181.016 263.89 179.691 263.89 177.304ZM270.098 182.621H268.051V168.215H270.098V182.621ZM275.378 169.519C275.378 170.282 274.776 170.864 273.913 170.864C273.051 170.864 272.429 170.282 272.429 169.519C272.429 168.737 273.051 168.175 273.913 168.175C274.776 168.175 275.378 168.737 275.378 169.519ZM274.937 182.621H272.91V171.987H274.937V182.621ZM280.739 182.621H278.713V173.713H276.365V171.987H278.713V171.205C278.713 169.158 279.816 168.035 281.822 168.035C282.424 168.035 282.906 168.135 283.307 168.296V169.941C282.986 169.8 282.625 169.76 282.264 169.76C281.301 169.76 280.739 170.202 280.739 171.225V171.987H283.708V173.713H280.739V182.621ZM287.721 169.519C287.721 170.282 287.119 170.864 286.257 170.864C285.394 170.864 284.772 170.282 284.772 169.519C284.772 168.737 285.394 168.175 286.257 168.175C287.119 168.175 287.721 168.737 287.721 169.519ZM287.28 182.621H285.254V171.987H287.28V182.621ZM294.467 182.821C291.397 182.821 289.331 180.594 289.331 177.244C289.331 174.094 291.477 171.787 294.407 171.787C297.577 171.787 299.683 174.355 299.322 177.805H291.397C291.558 179.972 292.641 181.236 294.427 181.236C295.931 181.236 296.975 180.414 297.316 179.029H299.322C298.8 181.397 296.975 182.821 294.467 182.821ZM294.366 173.311C292.741 173.311 291.638 174.475 291.417 176.461H297.175C297.075 174.495 296.012 173.311 294.366 173.311ZM300.518 177.304C300.518 174.074 302.364 171.787 305.233 171.787C306.657 171.787 307.901 172.509 308.644 173.813V168.215H310.67V182.621H308.784V180.715C308.022 182.059 306.738 182.821 305.233 182.821C302.364 182.821 300.518 180.494 300.518 177.304ZM302.625 177.304C302.625 179.671 303.869 181.016 305.634 181.016C307.36 181.016 308.644 179.611 308.644 177.264C308.644 174.876 307.319 173.572 305.634 173.572C303.869 173.572 302.625 174.896 302.625 177.304ZM319.706 182.621H317.68V171.987H319.566V173.753C320.288 172.529 321.431 171.787 322.896 171.787C324.461 171.787 325.645 172.589 326.126 173.994C326.868 172.629 328.092 171.787 329.717 171.787C331.904 171.787 333.309 173.211 333.309 175.739V182.621H331.282V176.381C331.282 174.615 330.5 173.572 329.015 173.572C327.631 173.572 326.507 174.736 326.507 176.521V182.621H324.481V176.381C324.481 174.615 323.699 173.572 322.214 173.572C320.809 173.572 319.706 174.736 319.706 176.521V182.621ZM342.459 182.621V180.975C341.797 182.159 340.613 182.821 339.048 182.821C336.841 182.821 335.396 181.557 335.396 179.611C335.396 177.525 337.062 176.441 340.232 176.441C340.854 176.441 341.355 176.461 342.218 176.562V175.779C342.218 174.254 341.395 173.392 339.991 173.392C338.506 173.392 337.603 174.274 337.543 175.759H335.697C335.798 173.372 337.503 171.787 339.991 171.787C342.619 171.787 344.144 173.271 344.144 175.799V182.621H342.459ZM337.323 179.551C337.323 180.654 338.145 181.377 339.449 181.377C341.155 181.377 342.218 180.313 342.218 178.688V177.826C341.435 177.725 340.874 177.705 340.352 177.705C338.326 177.705 337.323 178.307 337.323 179.551ZM348.88 177.184V182.621H346.853V171.987H348.739V174.234C349.481 172.77 351.086 171.847 352.832 171.847V173.953C350.545 173.833 348.88 174.836 348.88 177.184ZM356.462 182.621H354.436V168.215H356.462V176.742L361.016 171.987H363.404L358.488 177.143L363.865 182.621H361.257L356.462 177.585V182.621ZM369.154 182.821C366.085 182.821 364.018 180.594 364.018 177.244C364.018 174.094 366.165 171.787 369.094 171.787C372.264 171.787 374.371 174.355 374.01 177.805H366.085C366.245 179.972 367.329 181.236 369.114 181.236C370.619 181.236 371.662 180.414 372.003 179.029H374.01C373.488 181.397 371.662 182.821 369.154 182.821ZM369.054 173.311C367.429 173.311 366.325 174.475 366.105 176.461H371.863C371.762 174.495 370.699 173.311 369.054 173.311ZM382.124 180.654V182.44C381.502 182.721 380.96 182.821 380.318 182.821C378.352 182.821 376.987 181.758 376.987 179.411V173.713H374.64V171.987H376.987V168.837H379.014V171.987H382.224V173.713H379.014V178.949C379.014 180.414 379.716 180.935 380.799 180.935C381.281 180.935 381.702 180.855 382.124 180.654ZM386.626 169.519C386.626 170.282 386.024 170.864 385.161 170.864C384.298 170.864 383.676 170.282 383.676 169.519C383.676 168.737 384.298 168.175 385.161 168.175C386.024 168.175 386.626 168.737 386.626 169.519ZM386.184 182.621H384.158V171.987H386.184V182.621ZM391.024 176.622V182.621H388.997V171.987H390.883V173.753C391.605 172.569 392.809 171.787 394.274 171.787C396.461 171.787 397.905 173.191 397.905 175.739V182.621H395.879V176.421C395.879 174.595 395.076 173.572 393.572 173.572C392.187 173.572 391.024 174.736 391.024 176.622ZM404.849 186.713C402.061 186.713 400.255 185.229 400.135 182.821H402.101C402.221 184.306 403.184 185.108 404.829 185.108C406.655 185.108 407.618 184.125 407.618 182.3V180.374C407.016 181.658 405.812 182.4 404.368 182.4C401.72 182.4 399.834 180.213 399.834 177.083C399.834 173.913 401.639 171.787 404.308 171.787C405.833 171.787 407.036 172.529 407.759 173.873V171.987H409.645V182.259C409.645 185.048 407.859 186.713 404.849 186.713ZM401.88 177.083C401.88 179.29 402.964 180.634 404.729 180.634C406.455 180.634 407.618 179.25 407.618 177.143C407.618 174.936 406.475 173.532 404.729 173.532C402.984 173.532 401.88 174.896 401.88 177.083ZM423.083 182.621V180.975C422.421 182.159 421.237 182.821 419.672 182.821C417.465 182.821 416.021 181.557 416.021 179.611C416.021 177.525 417.686 176.441 420.856 176.441C421.478 176.441 421.979 176.461 422.842 176.562V175.779C422.842 174.254 422.019 173.392 420.615 173.392C419.13 173.392 418.228 174.274 418.167 175.759H416.322C416.422 173.372 418.127 171.787 420.615 171.787C423.243 171.787 424.768 173.271 424.768 175.799V182.621H423.083ZM417.947 179.551C417.947 180.654 418.769 181.377 420.073 181.377C421.779 181.377 422.842 180.313 422.842 178.688V177.826C422.06 177.725 421.498 177.705 420.976 177.705C418.95 177.705 417.947 178.307 417.947 179.551ZM429.504 176.622V182.621H427.477V171.987H429.363V173.753C430.086 172.569 431.289 171.787 432.754 171.787C434.941 171.787 436.385 173.191 436.385 175.739V182.621H434.359V176.421C434.359 174.595 433.556 173.572 432.052 173.572C430.667 173.572 429.504 174.736 429.504 176.622ZM445.516 182.621V180.975C444.854 182.159 443.671 182.821 442.106 182.821C439.899 182.821 438.454 181.557 438.454 179.611C438.454 177.525 440.12 176.441 443.289 176.441C443.911 176.441 444.413 176.461 445.276 176.562V175.779C445.276 174.254 444.453 173.392 443.049 173.392C441.564 173.392 440.661 174.274 440.601 175.759H438.755C438.856 173.372 440.561 171.787 443.049 171.787C445.677 171.787 447.202 173.271 447.202 175.799V182.621H445.516ZM440.38 179.551C440.38 180.654 441.203 181.377 442.507 181.377C444.212 181.377 445.276 180.313 445.276 178.688V177.826C444.493 177.725 443.931 177.705 443.41 177.705C441.383 177.705 440.38 178.307 440.38 179.551ZM451.957 182.621H449.911V168.215H451.957V182.621ZM463.598 171.987L458.281 186.493H456.074L457.599 182.48L453.406 171.987H455.593L458.682 180.093L461.551 171.987H463.598ZM471.427 180.654V182.44C470.805 182.721 470.264 182.821 469.622 182.821C467.655 182.821 466.291 181.758 466.291 179.411V173.713H463.944V171.987H466.291V168.837H468.318V171.987H471.528V173.713H468.318V178.949C468.318 180.414 469.02 180.935 470.103 180.935C470.585 180.935 471.006 180.855 471.427 180.654ZM475.929 169.519C475.929 170.282 475.327 170.864 474.465 170.864C473.602 170.864 472.98 170.282 472.98 169.519C472.98 168.737 473.602 168.175 474.465 168.175C475.327 168.175 475.929 168.737 475.929 169.519ZM475.488 182.621H473.462V171.987H475.488V182.621ZM482.494 182.841C479.585 182.841 477.539 180.554 477.539 177.304C477.539 174.094 479.625 171.787 482.494 171.787C485.122 171.787 487.028 173.532 487.41 176.301H485.283C485.062 174.595 483.999 173.572 482.514 173.572C480.769 173.572 479.625 175.057 479.625 177.304C479.625 179.571 480.769 181.036 482.514 181.036C484.019 181.036 485.062 180.032 485.303 178.307H487.41C487.048 181.116 485.162 182.841 482.494 182.841ZM497.876 179.451C497.876 181.537 496.251 182.821 493.422 182.821C490.613 182.821 488.948 181.437 488.747 179.15H490.693C490.773 180.474 491.837 181.296 493.462 181.296C494.886 181.296 495.829 180.795 495.829 179.792C495.829 178.909 495.288 178.528 493.963 178.267L492.238 177.946C490.272 177.565 489.168 176.562 489.168 174.957C489.168 173.091 490.793 171.787 493.261 171.787C495.809 171.787 497.535 173.151 497.715 175.338H495.769C495.649 174.054 494.706 173.311 493.281 173.311C491.997 173.311 491.134 173.853 491.134 174.776C491.134 175.639 491.676 176.04 492.96 176.281L494.766 176.622C496.873 177.003 497.876 177.926 497.876 179.451ZM510.28 180.654V182.44C509.658 182.721 509.116 182.821 508.474 182.821C506.508 182.821 505.144 181.758 505.144 179.411V173.713H502.796V171.987H505.144V168.837H507.17V171.987H510.38V173.713H507.17V178.949C507.17 180.414 507.872 180.935 508.956 180.935C509.437 180.935 509.858 180.855 510.28 180.654ZM516.474 182.821C513.465 182.821 511.258 180.454 511.258 177.304C511.258 174.154 513.465 171.787 516.474 171.787C519.483 171.787 521.69 174.154 521.69 177.304C521.69 180.454 519.483 182.821 516.474 182.821ZM516.474 181.036C518.219 181.036 519.604 179.631 519.604 177.304C519.604 174.977 518.219 173.592 516.474 173.592C514.729 173.592 513.364 174.977 513.364 177.304C513.364 179.631 514.729 181.036 516.474 181.036ZM529.975 177.184V182.621H527.949V171.987H529.835V174.234C530.577 172.77 532.182 171.847 533.928 171.847V173.953C531.641 173.833 529.975 174.836 529.975 177.184ZM539.866 182.821C536.796 182.821 534.73 180.594 534.73 177.244C534.73 174.094 536.876 171.787 539.806 171.787C542.976 171.787 545.082 174.355 544.721 177.805H536.796C536.957 179.972 538.04 181.236 539.826 181.236C541.33 181.236 542.374 180.414 542.715 179.029H544.721C544.199 181.397 542.374 182.821 539.866 182.821ZM539.766 173.311C538.14 173.311 537.037 174.475 536.816 176.461H542.574C542.474 174.495 541.411 173.311 539.766 173.311ZM549.826 182.621H547.799V173.713H545.452V171.987H547.799V171.205C547.799 169.158 548.903 168.035 550.909 168.035C551.511 168.035 551.993 168.135 552.394 168.296V169.941C552.073 169.8 551.712 169.76 551.351 169.76C550.387 169.76 549.826 170.202 549.826 171.225V171.987H552.795V173.713H549.826V182.621ZM556.808 169.519C556.808 170.282 556.206 170.864 555.344 170.864C554.481 170.864 553.859 170.282 553.859 169.519C553.859 168.737 554.481 168.175 555.344 168.175C556.206 168.175 556.808 168.737 556.808 169.519ZM556.367 182.621H554.34V171.987H556.367V182.621ZM561.206 176.622V182.621H559.18V171.987H561.066V173.753C561.788 172.569 562.992 171.787 564.456 171.787C566.643 171.787 568.088 173.191 568.088 175.739V182.621H566.061V176.421C566.061 174.595 565.259 173.572 563.754 173.572C562.37 173.572 561.206 174.736 561.206 176.622ZM575.152 182.821C572.083 182.821 570.016 180.594 570.016 177.244C570.016 174.094 572.163 171.787 575.092 171.787C578.262 171.787 580.369 174.355 580.008 177.805H572.083C572.243 179.972 573.327 181.236 575.112 181.236C576.617 181.236 577.66 180.414 578.001 179.029H580.008C579.486 181.397 577.66 182.821 575.152 182.821ZM575.052 173.311C573.427 173.311 572.324 174.475 572.103 176.461H577.861C577.761 174.495 576.697 173.311 575.052 173.311ZM594.781 179.451C594.781 181.537 593.156 182.821 590.327 182.821C587.519 182.821 585.853 181.437 585.653 179.15H587.599C587.679 180.474 588.742 181.296 590.368 181.296C591.792 181.296 592.735 180.795 592.735 179.792C592.735 178.909 592.193 178.528 590.869 178.267L589.144 177.946C587.177 177.565 586.074 176.562 586.074 174.957C586.074 173.091 587.699 171.787 590.167 171.787C592.715 171.787 594.44 173.151 594.621 175.338H592.675C592.554 174.054 591.611 173.311 590.187 173.311C588.903 173.311 588.04 173.853 588.04 174.776C588.04 175.639 588.582 176.04 589.866 176.281L591.672 176.622C593.778 177.003 594.781 177.926 594.781 179.451ZM602.855 180.654V182.44C602.233 182.721 601.692 182.821 601.05 182.821C599.084 182.821 597.719 181.758 597.719 179.411V173.713H595.372V171.987H597.719V168.837H599.746V171.987H602.956V173.713H599.746V178.949C599.746 180.414 600.448 180.935 601.531 180.935C602.013 180.935 602.434 180.855 602.855 180.654ZM606.916 177.184V182.621H604.89V171.987H606.776V174.234C607.518 172.77 609.123 171.847 610.868 171.847V173.953C608.581 173.833 606.916 174.836 606.916 177.184ZM618.912 182.621V180.975C618.25 182.159 617.066 182.821 615.502 182.821C613.295 182.821 611.85 181.557 611.85 179.611C611.85 177.525 613.515 176.441 616.685 176.441C617.307 176.441 617.809 176.461 618.671 176.562V175.779C618.671 174.254 617.849 173.392 616.445 173.392C614.96 173.392 614.057 174.274 613.997 175.759H612.151C612.251 173.372 613.957 171.787 616.445 171.787C619.073 171.787 620.598 173.271 620.598 175.799V182.621H618.912ZM613.776 179.551C613.776 180.654 614.599 181.377 615.903 181.377C617.608 181.377 618.671 180.313 618.671 178.688V177.826C617.889 177.725 617.327 177.705 616.806 177.705C614.779 177.705 613.776 178.307 613.776 179.551ZM629.208 180.654V182.44C628.586 182.721 628.044 182.821 627.402 182.821C625.436 182.821 624.072 181.758 624.072 179.411V173.713H621.724V171.987H624.072V168.837H626.098V171.987H629.308V173.713H626.098V178.949C626.098 180.414 626.8 180.935 627.884 180.935C628.365 180.935 628.786 180.855 629.208 180.654ZM635.322 182.821C632.252 182.821 630.186 180.594 630.186 177.244C630.186 174.094 632.332 171.787 635.262 171.787C638.431 171.787 640.538 174.355 640.177 177.805H632.252C632.413 179.972 633.496 181.236 635.282 181.236C636.786 181.236 637.83 180.414 638.171 179.029H640.177C639.655 181.397 637.83 182.821 635.322 182.821ZM635.221 173.311C633.596 173.311 632.493 174.475 632.272 176.461H638.03C637.93 174.495 636.867 173.311 635.221 173.311ZM646.389 186.713C643.6 186.713 641.794 185.229 641.674 182.821H643.64C643.761 184.306 644.724 185.108 646.369 185.108C648.195 185.108 649.158 184.125 649.158 182.3V180.374C648.556 181.658 647.352 182.4 645.907 182.4C643.259 182.4 641.373 180.213 641.373 177.083C641.373 173.913 643.179 171.787 645.847 171.787C647.372 171.787 648.576 172.529 649.298 173.873V171.987H651.184V182.259C651.184 185.048 649.398 186.713 646.389 186.713ZM643.42 177.083C643.42 179.29 644.503 180.634 646.268 180.634C647.994 180.634 649.158 179.25 649.158 177.143C649.158 174.936 648.014 173.532 646.268 173.532C644.523 173.532 643.42 174.896 643.42 177.083ZM656.457 169.519C656.457 170.282 655.855 170.864 654.992 170.864C654.13 170.864 653.508 170.282 653.508 169.519C653.508 168.737 654.13 168.175 654.992 168.175C655.855 168.175 656.457 168.737 656.457 169.519ZM656.015 182.621H653.989V171.987H656.015V182.621ZM663.202 182.821C660.133 182.821 658.066 180.594 658.066 177.244C658.066 174.094 660.213 171.787 663.142 171.787C666.312 171.787 668.419 174.355 668.057 177.805H660.133C660.293 179.972 661.376 181.236 663.162 181.236C664.667 181.236 665.71 180.414 666.051 179.029H668.057C667.536 181.397 665.71 182.821 663.202 182.821ZM663.102 173.311C661.477 173.311 660.373 174.475 660.153 176.461H665.911C665.81 174.495 664.747 173.311 663.102 173.311ZM678.638 179.451C678.638 181.537 677.013 182.821 674.184 182.821C671.375 182.821 669.71 181.437 669.51 179.15H671.456C671.536 180.474 672.599 181.296 674.224 181.296C675.649 181.296 676.592 180.795 676.592 179.792C676.592 178.909 676.05 178.528 674.726 178.267L673.001 177.946C671.034 177.565 669.931 176.562 669.931 174.957C669.931 173.091 671.556 171.787 674.024 171.787C676.572 171.787 678.297 173.151 678.478 175.338H676.532C676.411 174.054 675.468 173.311 674.044 173.311C672.76 173.311 671.897 173.853 671.897 174.776C671.897 175.639 672.439 176.04 673.723 176.281L675.529 176.622C677.635 177.003 678.638 177.926 678.638 179.451ZM683.599 181.176C683.599 182.079 682.977 182.721 682.054 182.721C681.152 182.721 680.51 182.079 680.51 181.176C680.51 180.233 681.152 179.591 682.054 179.591C682.977 179.591 683.599 180.233 683.599 181.176ZM153.395 209.344C153.395 211.13 152.071 212.414 150.285 212.414C148.5 212.414 147.176 211.13 147.176 209.344C147.176 207.498 148.5 206.194 150.285 206.194C152.071 206.194 153.395 207.498 153.395 209.344ZM177.992 200.215V209.444C177.992 212.755 175.866 214.922 172.415 214.922C168.964 214.922 166.857 212.755 166.857 209.444V200.215H169.064V209.505C169.064 211.591 170.288 212.935 172.415 212.935C174.562 212.935 175.786 211.591 175.786 209.505V200.215H177.992ZM189.329 211.451C189.329 213.537 187.704 214.821 184.875 214.821C182.066 214.821 180.401 213.437 180.2 211.15H182.147C182.227 212.474 183.29 213.296 184.915 213.296C186.34 213.296 187.283 212.795 187.283 211.792C187.283 210.909 186.741 210.528 185.417 210.267L183.691 209.946C181.725 209.565 180.622 208.562 180.622 206.957C180.622 205.091 182.247 203.787 184.715 203.787C187.263 203.787 188.988 205.151 189.169 207.338H187.223C187.102 206.054 186.159 205.311 184.735 205.311C183.451 205.311 182.588 205.853 182.588 206.776C182.588 207.639 183.13 208.04 184.414 208.281L186.219 208.622C188.326 209.003 189.329 209.926 189.329 211.451ZM195.915 214.821C192.846 214.821 190.779 212.594 190.779 209.244C190.779 206.094 192.926 203.787 195.855 203.787C199.025 203.787 201.132 206.355 200.77 209.805H192.846C193.006 211.972 194.09 213.236 195.875 213.236C197.38 213.236 198.423 212.414 198.764 211.029H200.77C200.249 213.397 198.423 214.821 195.915 214.821ZM195.815 205.311C194.19 205.311 193.086 206.475 192.866 208.461H198.624C198.523 206.495 197.46 205.311 195.815 205.311ZM204.951 209.184V214.621H202.925V203.987H204.811V206.234C205.553 204.77 207.158 203.847 208.904 203.847V205.953C206.617 205.833 204.951 206.836 204.951 209.184ZM215.648 210.006H209.409V208.18H215.648V210.006ZM220.354 214.621H218.328V205.713H215.98V203.987H218.328V203.205C218.328 201.158 219.431 200.035 221.438 200.035C222.039 200.035 222.521 200.135 222.922 200.296V201.941C222.601 201.8 222.24 201.76 221.879 201.76C220.916 201.76 220.354 202.202 220.354 203.225V203.987H223.323V205.713H220.354V214.621ZM226.895 209.184V214.621H224.869V203.987H226.755V206.234C227.497 204.77 229.102 203.847 230.848 203.847V205.953C228.56 205.833 226.895 206.836 226.895 209.184ZM234.919 201.519C234.919 202.282 234.317 202.864 233.454 202.864C232.592 202.864 231.97 202.282 231.97 201.519C231.97 200.737 232.592 200.175 233.454 200.175C234.317 200.175 234.919 200.737 234.919 201.519ZM234.478 214.621H232.451V203.987H234.478V214.621ZM241.664 214.821C238.595 214.821 236.528 212.594 236.528 209.244C236.528 206.094 238.675 203.787 241.604 203.787C244.774 203.787 246.881 206.355 246.52 209.805H238.595C238.755 211.972 239.839 213.236 241.624 213.236C243.129 213.236 244.172 212.414 244.513 211.029H246.52C245.998 213.397 244.172 214.821 241.664 214.821ZM241.564 205.311C239.939 205.311 238.835 206.475 238.615 208.461H244.373C244.272 206.495 243.209 205.311 241.564 205.311ZM250.7 208.622V214.621H248.674V203.987H250.56V205.753C251.282 204.569 252.486 203.787 253.951 203.787C256.137 203.787 257.582 205.191 257.582 207.739V214.621H255.556V208.421C255.556 206.595 254.753 205.572 253.248 205.572C251.864 205.572 250.7 206.736 250.7 208.622ZM259.51 209.304C259.51 206.074 261.356 203.787 264.225 203.787C265.65 203.787 266.894 204.509 267.636 205.813V200.215H269.662V214.621H267.776V212.715C267.014 214.059 265.73 214.821 264.225 214.821C261.356 214.821 259.51 212.494 259.51 209.304ZM261.617 209.304C261.617 211.671 262.861 213.016 264.627 213.016C266.352 213.016 267.636 211.611 267.636 209.264C267.636 206.876 266.312 205.572 264.627 205.572C262.861 205.572 261.617 206.896 261.617 209.304ZM274.526 214.621H272.479V200.215H274.526V214.621ZM286.166 203.987L280.849 218.493H278.642L280.167 214.48L275.974 203.987H278.161L281.25 212.093L284.119 203.987H286.166ZM294.265 201.519C294.265 202.282 293.663 202.864 292.801 202.864C291.938 202.864 291.316 202.282 291.316 201.519C291.316 200.737 291.938 200.175 292.801 200.175C293.663 200.175 294.265 200.737 294.265 201.519ZM293.824 214.621H291.798V203.987H293.824V214.621ZM298.663 208.622V214.621H296.637V203.987H298.523V205.753C299.245 204.569 300.449 203.787 301.914 203.787C304.1 203.787 305.545 205.191 305.545 207.739V214.621H303.519V208.421C303.519 206.595 302.716 205.572 301.211 205.572C299.827 205.572 298.663 206.736 298.663 208.622ZM314.196 212.654V214.44C313.574 214.721 313.032 214.821 312.39 214.821C310.424 214.821 309.059 213.758 309.059 211.411V205.713H306.712V203.987H309.059V200.837H311.086V203.987H314.296V205.713H311.086V210.949C311.086 212.414 311.788 212.935 312.871 212.935C313.353 212.935 313.774 212.855 314.196 212.654ZM320.31 214.821C317.24 214.821 315.173 212.594 315.173 209.244C315.173 206.094 317.32 203.787 320.249 203.787C323.419 203.787 325.526 206.355 325.165 209.805H317.24C317.4 211.972 318.484 213.236 320.269 213.236C321.774 213.236 322.817 212.414 323.159 211.029H325.165C324.643 213.397 322.817 214.821 320.31 214.821ZM320.209 205.311C318.584 205.311 317.481 206.475 317.26 208.461H323.018C322.918 206.495 321.854 205.311 320.209 205.311ZM329.346 209.184V214.621H327.319V203.987H329.205V206.234C329.947 204.77 331.553 203.847 333.298 203.847V205.953C331.011 205.833 329.346 206.836 329.346 209.184ZM338.498 214.621H336.472V205.713H334.125V203.987H336.472V203.205C336.472 201.158 337.576 200.035 339.582 200.035C340.184 200.035 340.665 200.135 341.066 200.296V201.941C340.745 201.8 340.384 201.76 340.023 201.76C339.06 201.76 338.498 202.202 338.498 203.225V203.987H341.468V205.713H338.498V214.621ZM349.159 214.621V212.975C348.497 214.159 347.314 214.821 345.749 214.821C343.542 214.821 342.097 213.557 342.097 211.611C342.097 209.525 343.762 208.441 346.932 208.441C347.554 208.441 348.056 208.461 348.919 208.562V207.779C348.919 206.254 348.096 205.392 346.692 205.392C345.207 205.392 344.304 206.274 344.244 207.759H342.398C342.498 205.372 344.204 203.787 346.692 203.787C349.32 203.787 350.845 205.271 350.845 207.799V214.621H349.159ZM344.023 211.551C344.023 212.654 344.846 213.377 346.15 213.377C347.855 213.377 348.919 212.313 348.919 210.688V209.826C348.136 209.725 347.574 209.705 347.053 209.705C345.026 209.705 344.023 210.307 344.023 211.551ZM357.747 214.841C354.838 214.841 352.792 212.554 352.792 209.304C352.792 206.094 354.878 203.787 357.747 203.787C360.375 203.787 362.281 205.532 362.663 208.301H360.536C360.315 206.595 359.252 205.572 357.767 205.572C356.022 205.572 354.878 207.057 354.878 209.304C354.878 211.571 356.022 213.036 357.767 213.036C359.272 213.036 360.315 212.032 360.556 210.307H362.663C362.301 213.116 360.415 214.841 357.747 214.841ZM368.978 214.821C365.908 214.821 363.842 212.594 363.842 209.244C363.842 206.094 365.989 203.787 368.918 203.787C372.088 203.787 374.194 206.355 373.833 209.805H365.908C366.069 211.972 367.152 213.236 368.938 213.236C370.443 213.236 371.486 212.414 371.827 211.029H373.833C373.312 213.397 371.486 214.821 368.978 214.821ZM368.878 205.311C367.253 205.311 366.149 206.475 365.928 208.461H371.686C371.586 206.495 370.523 205.311 368.878 205.311ZM383.17 214.621H381.143V205.713H378.796V203.987H381.143V203.205C381.143 201.158 382.247 200.035 384.253 200.035C384.855 200.035 385.337 200.135 385.738 200.296V201.941C385.417 201.8 385.056 201.76 384.695 201.76C383.732 201.76 383.17 202.202 383.17 203.225V203.987H386.139V205.713H383.17V214.621ZM391.845 214.821C388.835 214.821 386.628 212.454 386.628 209.304C386.628 206.154 388.835 203.787 391.845 203.787C394.854 203.787 397.061 206.154 397.061 209.304C397.061 212.454 394.854 214.821 391.845 214.821ZM391.845 213.036C393.59 213.036 394.974 211.631 394.974 209.304C394.974 206.977 393.59 205.592 391.845 205.592C390.099 205.592 388.735 206.977 388.735 209.304C388.735 211.631 390.099 213.036 391.845 213.036ZM401.153 209.184V214.621H399.127V203.987H401.013V206.234C401.755 204.77 403.36 203.847 405.105 203.847V205.953C402.818 205.833 401.153 206.836 401.153 209.184ZM415.276 214.821C412.206 214.821 410.139 212.594 410.139 209.244C410.139 206.094 412.286 203.787 415.215 203.787C418.385 203.787 420.492 206.355 420.131 209.805H412.206C412.366 211.972 413.45 213.236 415.235 213.236C416.74 213.236 417.783 212.414 418.125 211.029H420.131C419.609 213.397 417.783 214.821 415.276 214.821ZM415.175 205.311C413.55 205.311 412.447 206.475 412.226 208.461H417.984C417.884 206.495 416.82 205.311 415.175 205.311ZM425.235 214.621H423.209V205.713H420.862V203.987H423.209V203.205C423.209 201.158 424.313 200.035 426.319 200.035C426.921 200.035 427.402 200.135 427.804 200.296V201.941C427.483 201.8 427.121 201.76 426.76 201.76C425.797 201.76 425.235 202.202 425.235 203.225V203.987H428.205V205.713H425.235V214.621ZM433.327 214.621H431.301V205.713H428.954V203.987H431.301V203.205C431.301 201.158 432.404 200.035 434.411 200.035C435.013 200.035 435.494 200.135 435.895 200.296V201.941C435.574 201.8 435.213 201.76 434.852 201.76C433.889 201.76 433.327 202.202 433.327 203.225V203.987H436.297V205.713H433.327V214.621ZM440.31 201.519C440.31 202.282 439.708 202.864 438.845 202.864C437.982 202.864 437.36 202.282 437.36 201.519C437.36 200.737 437.982 200.175 438.845 200.175C439.708 200.175 440.31 200.737 440.31 201.519ZM439.868 214.621H437.842V203.987H439.868V214.621ZM446.874 214.841C443.965 214.841 441.919 212.554 441.919 209.304C441.919 206.094 444.005 203.787 446.874 203.787C449.503 203.787 451.409 205.532 451.79 208.301H449.663C449.443 206.595 448.379 205.572 446.895 205.572C445.149 205.572 444.005 207.057 444.005 209.304C444.005 211.571 445.149 213.036 446.895 213.036C448.399 213.036 449.443 212.032 449.683 210.307H451.79C451.429 213.116 449.543 214.841 446.874 214.841ZM456.297 201.519C456.297 202.282 455.695 202.864 454.833 202.864C453.97 202.864 453.348 202.282 453.348 201.519C453.348 200.737 453.97 200.175 454.833 200.175C455.695 200.175 456.297 200.737 456.297 201.519ZM455.856 214.621H453.83V203.987H455.856V214.621ZM463.043 214.821C459.973 214.821 457.907 212.594 457.907 209.244C457.907 206.094 460.053 203.787 462.983 203.787C466.152 203.787 468.259 206.355 467.898 209.805H459.973C460.134 211.972 461.217 213.236 463.003 213.236C464.507 213.236 465.551 212.414 465.892 211.029H467.898C467.376 213.397 465.551 214.821 463.043 214.821ZM462.942 205.311C461.317 205.311 460.214 206.475 459.993 208.461H465.751C465.651 206.495 464.588 205.311 462.942 205.311ZM472.079 208.622V214.621H470.052V203.987H471.938V205.753C472.661 204.569 473.864 203.787 475.329 203.787C477.516 203.787 478.96 205.191 478.96 207.739V214.621H476.934V208.421C476.934 206.595 476.131 205.572 474.627 205.572C473.242 205.572 472.079 206.736 472.079 208.622ZM487.611 212.654V214.44C486.989 214.721 486.447 214.821 485.805 214.821C483.839 214.821 482.475 213.758 482.475 211.411V205.713H480.127V203.987H482.475V200.837H484.501V203.987H487.711V205.713H484.501V210.949C484.501 212.414 485.203 212.935 486.287 212.935C486.768 212.935 487.19 212.855 487.611 212.654ZM500.479 210.247V203.987H502.505V214.621H500.619V212.935C500.057 214.039 498.814 214.821 497.369 214.821C495.222 214.821 493.738 213.557 493.738 210.829V203.987H495.764V210.427C495.764 212.273 496.687 213.036 498.011 213.036C499.375 213.036 500.479 211.912 500.479 210.247ZM513.746 211.451C513.746 213.537 512.121 214.821 509.292 214.821C506.483 214.821 504.818 213.437 504.617 211.15H506.563C506.643 212.474 507.707 213.296 509.332 213.296C510.756 213.296 511.699 212.795 511.699 211.792C511.699 210.909 511.158 210.528 509.833 210.267L508.108 209.946C506.142 209.565 505.038 208.562 505.038 206.957C505.038 205.091 506.664 203.787 509.131 203.787C511.679 203.787 513.405 205.151 513.585 207.338H511.639C511.519 206.054 510.576 205.311 509.151 205.311C507.867 205.311 507.005 205.853 507.005 206.776C507.005 207.639 507.546 208.04 508.83 208.281L510.636 208.622C512.743 209.003 513.746 209.926 513.746 211.451ZM520.332 214.821C517.262 214.821 515.196 212.594 515.196 209.244C515.196 206.094 517.343 203.787 520.272 203.787C523.442 203.787 525.548 206.355 525.187 209.805H517.262C517.423 211.972 518.506 213.236 520.292 213.236C521.797 213.236 522.84 212.414 523.181 211.029H525.187C524.666 213.397 522.84 214.821 520.332 214.821ZM520.232 205.311C518.606 205.311 517.503 206.475 517.282 208.461H523.04C522.94 206.495 521.877 205.311 520.232 205.311ZM535.988 214.821C532.979 214.821 530.772 212.454 530.772 209.304C530.772 206.154 532.979 203.787 535.988 203.787C538.998 203.787 541.205 206.154 541.205 209.304C541.205 212.454 538.998 214.821 535.988 214.821ZM535.988 213.036C537.734 213.036 539.118 211.631 539.118 209.304C539.118 206.977 537.734 205.592 535.988 205.592C534.243 205.592 532.879 206.977 532.879 209.304C532.879 211.631 534.243 213.036 535.988 213.036ZM545.966 214.621H543.94V205.713H541.592V203.987H543.94V203.205C543.94 201.158 545.043 200.035 547.049 200.035C547.651 200.035 548.133 200.135 548.534 200.296V201.941C548.213 201.8 547.852 201.76 547.491 201.76C546.528 201.76 545.966 202.202 545.966 203.225V203.987H548.935V205.713H545.966V214.621ZM560.672 212.654V214.44C560.05 214.721 559.509 214.821 558.867 214.821C556.9 214.821 555.536 213.758 555.536 211.411V205.713H553.189V203.987H555.536V200.837H557.563V203.987H560.773V205.713H557.563V210.949C557.563 212.414 558.265 212.935 559.348 212.935C559.83 212.935 560.251 212.855 560.672 212.654ZM565.174 201.519C565.174 202.282 564.572 202.864 563.71 202.864C562.847 202.864 562.225 202.282 562.225 201.519C562.225 200.737 562.847 200.175 563.71 200.175C564.572 200.175 565.174 200.737 565.174 201.519ZM564.733 214.621H562.706V203.987H564.733V214.621ZM569.572 214.621H567.546V203.987H569.432V205.753C570.154 204.529 571.298 203.787 572.762 203.787C574.327 203.787 575.511 204.589 575.992 205.994C576.735 204.629 577.959 203.787 579.584 203.787C581.771 203.787 583.175 205.211 583.175 207.739V214.621H581.149V208.381C581.149 206.615 580.366 205.572 578.881 205.572C577.497 205.572 576.374 206.736 576.374 208.521V214.621H574.347V208.381C574.347 206.615 573.565 205.572 572.08 205.572C570.676 205.572 569.572 206.736 569.572 208.521V214.621ZM590.258 214.821C587.189 214.821 585.122 212.594 585.122 209.244C585.122 206.094 587.269 203.787 590.198 203.787C593.368 203.787 595.475 206.355 595.114 209.805H587.189C587.349 211.972 588.433 213.236 590.218 213.236C591.723 213.236 592.766 212.414 593.107 211.029H595.114C594.592 213.397 592.766 214.821 590.258 214.821ZM590.158 205.311C588.533 205.311 587.429 206.475 587.209 208.461H592.967C592.867 206.495 591.803 205.311 590.158 205.311ZM607.901 214.621V212.975C607.239 214.159 606.055 214.821 604.49 214.821C602.284 214.821 600.839 213.557 600.839 211.611C600.839 209.525 602.504 208.441 605.674 208.441C606.296 208.441 606.798 208.461 607.66 208.562V207.779C607.66 206.254 606.838 205.392 605.433 205.392C603.949 205.392 603.046 206.274 602.986 207.759H601.14C601.24 205.372 602.946 203.787 605.433 203.787C608.062 203.787 609.586 205.271 609.586 207.799V214.621H607.901ZM602.765 211.551C602.765 212.654 603.588 213.377 604.892 213.377C606.597 213.377 607.66 212.313 607.66 210.688V209.826C606.878 209.725 606.316 209.705 605.795 209.705C603.768 209.705 602.765 210.307 602.765 211.551ZM614.322 208.622V214.621H612.296V203.987H614.182V205.753C614.904 204.569 616.108 203.787 617.572 203.787C619.759 203.787 621.204 205.191 621.204 207.739V214.621H619.177V208.421C619.177 206.595 618.375 205.572 616.87 205.572C615.486 205.572 614.322 206.736 614.322 208.622ZM623.132 209.304C623.132 206.074 624.978 203.787 627.847 203.787C629.271 203.787 630.515 204.509 631.258 205.813V200.215H633.284V214.621H631.398V212.715C630.636 214.059 629.352 214.821 627.847 214.821C624.978 214.821 623.132 212.494 623.132 209.304ZM625.239 209.304C625.239 211.671 626.483 213.016 628.248 213.016C629.974 213.016 631.258 211.611 631.258 209.264C631.258 206.876 629.934 205.572 628.248 205.572C626.483 205.572 625.239 206.896 625.239 209.304ZM642.32 209.184V214.621H640.294V203.987H642.18V206.234C642.922 204.77 644.527 203.847 646.272 203.847V205.953C643.985 205.833 642.32 206.836 642.32 209.184ZM652.211 214.821C649.141 214.821 647.075 212.594 647.075 209.244C647.075 206.094 649.221 203.787 652.15 203.787C655.32 203.787 657.427 206.355 657.066 209.805H649.141C649.301 211.972 650.385 213.236 652.171 213.236C653.675 213.236 654.719 212.414 655.06 211.029H657.066C656.544 213.397 654.719 214.821 652.211 214.821ZM652.11 205.311C650.485 205.311 649.382 206.475 649.161 208.461H654.919C654.819 206.495 653.755 205.311 652.11 205.311ZM667.647 211.451C667.647 213.537 666.022 214.821 663.193 214.821C660.384 214.821 658.719 213.437 658.518 211.15H660.464C660.544 212.474 661.608 213.296 663.233 213.296C664.657 213.296 665.6 212.795 665.6 211.792C665.6 210.909 665.059 210.528 663.734 210.267L662.009 209.946C660.043 209.565 658.939 208.562 658.939 206.957C658.939 205.091 660.565 203.787 663.032 203.787C665.58 203.787 667.306 205.151 667.486 207.338H665.54C665.42 206.054 664.477 205.311 663.052 205.311C661.768 205.311 660.906 205.853 660.906 206.776C660.906 207.639 661.447 208.04 662.731 208.281L664.537 208.622C666.644 209.003 667.647 209.926 667.647 211.451ZM674.313 214.821C671.304 214.821 669.097 212.454 669.097 209.304C669.097 206.154 671.304 203.787 674.313 203.787C677.323 203.787 679.529 206.154 679.529 209.304C679.529 212.454 677.323 214.821 674.313 214.821ZM674.313 213.036C676.059 213.036 677.443 211.631 677.443 209.304C677.443 206.977 676.059 205.592 674.313 205.592C672.568 205.592 671.203 206.977 671.203 209.304C671.203 211.631 672.568 213.036 674.313 213.036ZM688.236 210.247V203.987H690.262V214.621H688.376V212.935C687.815 214.039 686.571 214.821 685.126 214.821C682.98 214.821 681.495 213.557 681.495 210.829V203.987H683.521V210.427C683.521 212.273 684.444 213.036 685.768 213.036C687.133 213.036 688.236 211.912 688.236 210.247ZM695.103 209.184V214.621H693.077V203.987H694.962V206.234C695.705 204.77 697.31 203.847 699.055 203.847V205.953C696.768 205.833 695.103 206.836 695.103 209.184ZM704.813 214.841C701.904 214.841 699.857 212.554 699.857 209.304C699.857 206.094 701.944 203.787 704.813 203.787C707.441 203.787 709.347 205.532 709.728 208.301H707.602C707.381 206.595 706.318 205.572 704.833 205.572C703.087 205.572 701.944 207.057 701.944 209.304C701.944 211.571 703.087 213.036 704.833 213.036C706.338 213.036 707.381 212.032 707.622 210.307H709.728C709.367 213.116 707.481 214.841 704.813 214.841ZM716.044 214.821C712.974 214.821 710.908 212.594 710.908 209.244C710.908 206.094 713.054 203.787 715.984 203.787C719.154 203.787 721.26 206.355 720.899 209.805H712.974C713.135 211.972 714.218 213.236 716.004 213.236C717.508 213.236 718.552 212.414 718.893 211.029H720.899C720.377 213.397 718.552 214.821 716.044 214.821ZM715.943 205.311C714.318 205.311 713.215 206.475 712.994 208.461H718.752C718.652 206.495 717.589 205.311 715.943 205.311ZM731.48 211.451C731.48 213.537 729.855 214.821 727.026 214.821C724.217 214.821 722.552 213.437 722.351 211.15H724.297C724.378 212.474 725.441 213.296 727.066 213.296C728.491 213.296 729.433 212.795 729.433 211.792C729.433 210.909 728.892 210.528 727.568 210.267L725.842 209.946C723.876 209.565 722.773 208.562 722.773 206.957C722.773 205.091 724.398 203.787 726.865 203.787C729.413 203.787 731.139 205.151 731.319 207.338H729.373C729.253 206.054 728.31 205.311 726.885 205.311C725.601 205.311 724.739 205.853 724.739 206.776C724.739 207.639 725.28 208.04 726.564 208.281L728.37 208.622C730.477 209.003 731.48 209.926 731.48 211.451ZM736.441 213.176C736.441 214.079 735.819 214.721 734.896 214.721C733.993 214.721 733.351 214.079 733.351 213.176C733.351 212.233 733.993 211.591 734.896 211.591C735.819 211.591 736.441 212.233 736.441 213.176Z" fill="#B4CCFF"/>
<rect x="333.415" y="0.90524" width="241.812" height="59.6609" rx="16.1032" fill="#16181C" stroke="#2563EB" stroke-width="1.58392"/>
<path d="M430.408 38.3687L424.67 29.3804V38.3687H421.199V23.9634H425.271L430.588 32.2896V23.9634H434.059V38.3687H430.408ZM447.065 35.0783V38.3687H436.873V23.9634H446.924V27.2538H440.665V29.3203H446.343V32.6106H440.665V35.0783H447.065ZM459.428 35.0783V38.3687H449.236V23.9634H459.287V27.2538H453.028V29.3203H458.706V32.6106H453.028V35.0783H459.428ZM467.217 38.3687H461.599V23.9634H467.217C471.771 23.9634 474.64 26.8926 474.64 31.0858C474.64 35.279 471.67 38.3687 467.217 38.3687ZM465.391 27.2337V35.0984H466.996C469.504 35.0984 470.748 33.7943 470.748 31.0858C470.748 28.5378 469.464 27.2337 466.996 27.2337H465.391ZM488.143 33.6539C488.143 36.6232 485.776 38.5693 482.024 38.5693C478.272 38.5693 475.865 36.583 475.604 33.393H479.436C479.476 34.7573 480.379 35.62 481.944 35.62C483.248 35.62 484.11 35.1185 484.11 34.2156C484.11 33.5937 483.489 33.1322 482.646 32.9717L480.018 32.4701C477.71 32.0288 476.186 30.6845 476.186 28.3572C476.186 25.6688 478.553 23.7829 481.783 23.7829C485.214 23.7829 487.682 25.749 487.902 28.8588H484.07C483.97 27.5547 483.087 26.7121 481.823 26.7121C480.7 26.7121 480.018 27.314 480.018 28.0964C480.018 28.7384 480.66 29.1196 481.422 29.2601L484.211 29.8018C486.779 30.3033 488.143 31.5673 488.143 33.6539Z" fill="#2563EB"/>
</svg>
