<svg width="437" height="448" viewBox="0 0 437 448" fill="none" xmlns="http://www.w3.org/2000/svg">
<rect y="30.6226" width="436.106" height="416.571" rx="28" fill="#16181C"/>
<path d="M49.8347 113.231C49.8347 115.016 48.5106 116.3 46.725 116.3C44.9394 116.3 43.6152 115.016 43.6152 113.231C43.6152 111.385 44.9394 110.081 46.725 110.081C48.5106 110.081 49.8347 111.385 49.8347 113.231ZM65.1227 108.576H63.5578L63.4174 104.102H65.2631L65.1227 108.576ZM68.3729 108.576H66.7879L66.6676 104.102H68.5133L68.3729 108.576ZM73.9297 118.507H71.7228V104.102H73.9297V118.507ZM83.1107 112.508V118.507H81.0844V107.874H82.9703V109.639C83.6925 108.456 84.8963 107.673 86.3609 107.673C88.5478 107.673 89.9923 109.078 89.9923 111.626V118.507H87.966V112.308C87.966 110.482 87.1634 109.459 85.6587 109.459C84.2744 109.459 83.1107 110.623 83.1107 112.508ZM97.057 118.708C93.9874 118.708 91.9209 116.481 91.9209 113.13C91.9209 109.981 94.0676 107.673 96.9968 107.673C100.167 107.673 102.273 110.241 101.912 113.692H93.9874C94.1479 115.859 95.2313 117.123 97.0169 117.123C98.5216 117.123 99.5649 116.3 99.9059 114.916H101.912C101.391 117.283 99.5649 118.708 97.057 118.708ZM96.9567 109.198C95.3316 109.198 94.2281 110.362 94.0074 112.348H99.7655C99.6652 110.382 98.6018 109.198 96.9567 109.198ZM108.244 118.708C105.175 118.708 103.108 116.481 103.108 113.13C103.108 109.981 105.255 107.673 108.184 107.673C111.354 107.673 113.461 110.241 113.1 113.692H105.175C105.335 115.859 106.419 117.123 108.204 117.123C109.709 117.123 110.752 116.3 111.093 114.916H113.1C112.578 117.283 110.752 118.708 108.244 118.708ZM108.144 109.198C106.519 109.198 105.416 110.362 105.195 112.348H110.953C110.853 110.382 109.789 109.198 108.144 109.198ZM114.296 113.191C114.296 109.96 116.142 107.673 119.011 107.673C120.435 107.673 121.679 108.396 122.421 109.7V104.102H124.448V118.507H122.562V116.601C121.799 117.946 120.515 118.708 119.011 118.708C116.142 118.708 114.296 116.381 114.296 113.191ZM116.402 113.191C116.402 115.558 117.646 116.902 119.412 116.902C121.137 116.902 122.421 115.498 122.421 113.151C122.421 110.763 121.097 109.459 119.412 109.459C117.646 109.459 116.402 110.783 116.402 113.191ZM137.898 118.507V116.862C137.235 118.046 136.052 118.708 134.487 118.708C132.28 118.708 130.835 117.444 130.835 115.498C130.835 113.411 132.501 112.328 135.671 112.328C136.292 112.328 136.794 112.348 137.657 112.448V111.666C137.657 110.141 136.834 109.278 135.43 109.278C133.945 109.278 133.042 110.161 132.982 111.646H131.136C131.237 109.258 132.942 107.673 135.43 107.673C138.058 107.673 139.583 109.158 139.583 111.686V118.507H137.898ZM132.761 115.438C132.761 116.541 133.584 117.263 134.888 117.263C136.593 117.263 137.657 116.2 137.657 114.575V113.712C136.874 113.612 136.313 113.592 135.791 113.592C133.765 113.592 132.761 114.194 132.761 115.438ZM152.484 116.541V118.327C151.862 118.608 151.32 118.708 150.678 118.708C148.712 118.708 147.348 117.645 147.348 115.297V109.599H145V107.874H147.348V104.724H149.374V107.874H152.584V109.599H149.374V114.836C149.374 116.3 150.076 116.822 151.16 116.822C151.641 116.822 152.062 116.742 152.484 116.541ZM158.678 118.708C155.669 118.708 153.462 116.341 153.462 113.191C153.462 110.041 155.669 107.673 158.678 107.673C161.687 107.673 163.894 110.041 163.894 113.191C163.894 116.341 161.687 118.708 158.678 118.708ZM158.678 116.922C160.424 116.922 161.808 115.518 161.808 113.191C161.808 110.863 160.424 109.479 158.678 109.479C156.933 109.479 155.568 110.863 155.568 113.191C155.568 115.518 156.933 116.922 158.678 116.922ZM170.414 118.708C167.405 118.708 165.198 116.341 165.198 113.191C165.198 110.041 167.405 107.673 170.414 107.673C173.424 107.673 175.63 110.041 175.63 113.191C175.63 116.341 173.424 118.708 170.414 118.708ZM170.414 116.922C172.16 116.922 173.544 115.518 173.544 113.191C173.544 110.863 172.16 109.479 170.414 109.479C168.669 109.479 167.304 110.863 167.304 113.191C167.304 115.518 168.669 116.922 170.414 116.922ZM179.743 118.507H177.696V104.102H179.743V118.507ZM192.747 116.541V118.327C192.125 118.608 191.583 118.708 190.941 118.708C188.975 118.708 187.611 117.645 187.611 115.297V109.599H185.263V107.874H187.611V104.724H189.637V107.874H192.847V109.599H189.637V114.836C189.637 116.3 190.339 116.822 191.423 116.822C191.904 116.822 192.326 116.742 192.747 116.541ZM196.807 112.508V118.507H194.781V104.102H196.807V109.579C197.51 108.436 198.593 107.673 200.058 107.673C202.244 107.673 203.689 109.078 203.689 111.626V118.507H201.663V112.308C201.663 110.482 200.86 109.459 199.355 109.459C197.971 109.459 196.807 110.623 196.807 112.508ZM212.82 118.507V116.862C212.158 118.046 210.974 118.708 209.409 118.708C207.203 118.708 205.758 117.444 205.758 115.498C205.758 113.411 207.423 112.328 210.593 112.328C211.215 112.328 211.717 112.348 212.579 112.448V111.666C212.579 110.141 211.757 109.278 210.352 109.278C208.868 109.278 207.965 110.161 207.905 111.646H206.059C206.159 109.258 207.865 107.673 210.352 107.673C212.981 107.673 214.505 109.158 214.505 111.686V118.507H212.82ZM207.684 115.438C207.684 116.541 208.507 117.263 209.811 117.263C211.516 117.263 212.579 116.2 212.579 114.575V113.712C211.797 113.612 211.235 113.592 210.714 113.592C208.687 113.592 207.684 114.194 207.684 115.438ZM223.116 116.541V118.327C222.494 118.608 221.952 118.708 221.31 118.708C219.344 118.708 217.979 117.645 217.979 115.297V109.599H215.632V107.874H217.979V104.724H220.006V107.874H223.216V109.599H220.006V114.836C220.006 116.3 220.708 116.822 221.791 116.822C222.273 116.822 222.694 116.742 223.116 116.541ZM237.769 115.337C237.769 117.424 236.144 118.708 233.315 118.708C230.506 118.708 228.841 117.324 228.64 115.036H230.587C230.667 116.361 231.73 117.183 233.355 117.183C234.78 117.183 235.723 116.682 235.723 115.678C235.723 114.796 235.181 114.414 233.857 114.154L232.131 113.833C230.165 113.451 229.062 112.448 229.062 110.843C229.062 108.977 230.687 107.673 233.155 107.673C235.703 107.673 237.428 109.038 237.609 111.224H235.662C235.542 109.94 234.599 109.198 233.175 109.198C231.891 109.198 231.028 109.74 231.028 110.663C231.028 111.525 231.57 111.927 232.854 112.167L234.659 112.508C236.766 112.89 237.769 113.813 237.769 115.337ZM242.449 105.406C242.449 106.169 241.847 106.75 240.985 106.75C240.122 106.75 239.5 106.169 239.5 105.406C239.5 104.624 240.122 104.062 240.985 104.062C241.847 104.062 242.449 104.624 242.449 105.406ZM242.008 118.507H239.982V107.874H242.008V118.507ZM246.847 118.507H244.821V107.874H246.707V109.639C247.429 108.416 248.573 107.673 250.037 107.673C251.602 107.673 252.786 108.476 253.267 109.88C254.01 108.516 255.234 107.673 256.859 107.673C259.046 107.673 260.45 109.098 260.45 111.626V118.507H258.424V112.268C258.424 110.502 257.641 109.459 256.156 109.459C254.772 109.459 253.649 110.623 253.649 112.408V118.507H251.622V112.268C251.622 110.502 250.84 109.459 249.355 109.459C247.951 109.459 246.847 110.623 246.847 112.408V118.507ZM273.312 113.191C273.312 116.401 271.466 118.708 268.617 118.708C267.172 118.708 265.948 117.986 265.186 116.702V122.379H263.16V107.874H265.046V109.82C265.808 108.456 267.112 107.673 268.617 107.673C271.446 107.673 273.312 109.981 273.312 113.191ZM271.205 113.191C271.205 110.803 269.941 109.459 268.196 109.459C266.51 109.459 265.186 110.803 265.186 113.191C265.186 115.538 266.49 116.902 268.196 116.902C269.941 116.902 271.205 115.578 271.205 113.191ZM277.412 118.507H275.366V104.102H277.412V118.507ZM282.693 105.406C282.693 106.169 282.091 106.75 281.228 106.75C280.365 106.75 279.743 106.169 279.743 105.406C279.743 104.624 280.365 104.062 281.228 104.062C282.091 104.062 282.693 104.624 282.693 105.406ZM282.251 118.507H280.225V107.874H282.251V118.507ZM288.054 118.507H286.027V109.599H283.68V107.874H286.027V107.091C286.027 105.045 287.131 103.922 289.137 103.922C289.739 103.922 290.221 104.022 290.622 104.182V105.828C290.301 105.687 289.94 105.647 289.579 105.647C288.616 105.647 288.054 106.088 288.054 107.112V107.874H291.023V109.599H288.054V118.507ZM295.036 105.406C295.036 106.169 294.434 106.75 293.572 106.75C292.709 106.75 292.087 106.169 292.087 105.406C292.087 104.624 292.709 104.062 293.572 104.062C294.434 104.062 295.036 104.624 295.036 105.406ZM294.595 118.507H292.568V107.874H294.595V118.507ZM301.782 118.708C298.712 118.708 296.645 116.481 296.645 113.13C296.645 109.981 298.792 107.673 301.721 107.673C304.891 107.673 306.998 110.241 306.637 113.692H298.712C298.872 115.859 299.956 117.123 301.741 117.123C303.246 117.123 304.289 116.3 304.631 114.916H306.637C306.115 117.283 304.289 118.708 301.782 118.708ZM301.681 109.198C300.056 109.198 298.953 110.362 298.732 112.348H304.49C304.39 110.382 303.326 109.198 301.681 109.198ZM317.218 115.337C317.218 117.424 315.593 118.708 312.764 118.708C309.955 118.708 308.29 117.324 308.089 115.036H310.035C310.115 116.361 311.179 117.183 312.804 117.183C314.228 117.183 315.171 116.682 315.171 115.678C315.171 114.796 314.63 114.414 313.305 114.154L311.58 113.833C309.614 113.451 308.51 112.448 308.51 110.843C308.51 108.977 310.135 107.673 312.603 107.673C315.151 107.673 316.877 109.038 317.057 111.224H315.111C314.991 109.94 314.048 109.198 312.623 109.198C311.339 109.198 310.477 109.74 310.477 110.663C310.477 111.525 311.018 111.927 312.302 112.167L314.108 112.508C316.215 112.89 317.218 113.813 317.218 115.337ZM65.203 150.507H63.1766V139.874H65.0625V141.639C65.7848 140.416 66.9284 139.673 68.393 139.673C69.9579 139.673 71.1416 140.476 71.6231 141.88C72.3654 140.516 73.5893 139.673 75.2144 139.673C77.4012 139.673 78.8056 141.098 78.8056 143.626V150.507H76.7793V144.268C76.7793 142.502 75.9968 141.459 74.5122 141.459C73.1278 141.459 72.0043 142.623 72.0043 144.408V150.507H69.9779V144.268C69.9779 142.502 69.1955 141.459 67.7108 141.459C66.3064 141.459 65.203 142.623 65.203 144.408V150.507ZM87.9556 150.507V148.862C87.2935 150.046 86.1098 150.708 84.5449 150.708C82.338 150.708 80.8935 149.444 80.8935 147.498C80.8935 145.411 82.5587 144.328 85.7286 144.328C86.3506 144.328 86.8522 144.348 87.7149 144.448V143.666C87.7149 142.141 86.8923 141.278 85.4879 141.278C84.0032 141.278 83.1004 142.161 83.0402 143.646H81.1944C81.2947 141.258 83.0001 139.673 85.4879 139.673C88.1161 139.673 89.6409 141.158 89.6409 143.686V150.507H87.9556ZM82.8195 147.438C82.8195 148.541 83.6421 149.263 84.9462 149.263C86.6515 149.263 87.7149 148.2 87.7149 146.575V145.712C86.9324 145.612 86.3706 145.592 85.849 145.592C83.8226 145.592 82.8195 146.194 82.8195 147.438ZM94.3766 144.508V150.507H92.3502V139.874H94.2361V141.639C94.9584 140.456 96.1622 139.673 97.6268 139.673C99.8136 139.673 101.258 141.078 101.258 143.626V150.507H99.2318V144.308C99.2318 142.482 98.4293 141.459 96.9246 141.459C95.5402 141.459 94.3766 142.623 94.3766 144.508ZM110.389 150.507V148.862C109.727 150.046 108.544 150.708 106.979 150.708C104.772 150.708 103.327 149.444 103.327 147.498C103.327 145.411 104.992 144.328 108.162 144.328C108.784 144.328 109.286 144.348 110.149 144.448V143.666C110.149 142.141 109.326 141.278 107.922 141.278C106.437 141.278 105.534 142.161 105.474 143.646H103.628C103.728 141.258 105.434 139.673 107.922 139.673C110.55 139.673 112.075 141.158 112.075 143.686V150.507H110.389ZM105.253 147.438C105.253 148.541 106.076 149.263 107.38 149.263C109.085 149.263 110.149 148.2 110.149 146.575V145.712C109.366 145.612 108.804 145.592 108.283 145.592C106.256 145.592 105.253 146.194 105.253 147.438ZM119.037 154.6C116.248 154.6 114.443 153.116 114.322 150.708H116.289C116.409 152.193 117.372 152.995 119.017 152.995C120.843 152.995 121.806 152.012 121.806 150.186V148.26C121.204 149.544 120 150.287 118.556 150.287C115.907 150.287 114.021 148.1 114.021 144.97C114.021 141.8 115.827 139.673 118.496 139.673C120.02 139.673 121.224 140.416 121.946 141.76V139.874H123.832V150.146C123.832 152.935 122.047 154.6 119.037 154.6ZM116.068 144.97C116.068 147.177 117.151 148.521 118.917 148.521C120.642 148.521 121.806 147.137 121.806 145.03C121.806 142.823 120.662 141.419 118.917 141.419C117.171 141.419 116.068 142.783 116.068 144.97ZM129.105 137.406C129.105 138.169 128.503 138.75 127.641 138.75C126.778 138.75 126.156 138.169 126.156 137.406C126.156 136.624 126.778 136.062 127.641 136.062C128.503 136.062 129.105 136.624 129.105 137.406ZM128.664 150.507H126.637V139.874H128.664V150.507ZM133.503 144.508V150.507H131.477V139.874H133.363V141.639C134.085 140.456 135.289 139.673 136.753 139.673C138.94 139.673 140.385 141.078 140.385 143.626V150.507H138.359V144.308C138.359 142.482 137.556 141.459 136.051 141.459C134.667 141.459 133.503 142.623 133.503 144.508ZM147.329 154.6C144.54 154.6 142.735 153.116 142.614 150.708H144.581C144.701 152.193 145.664 152.995 147.309 152.995C149.135 152.995 150.098 152.012 150.098 150.186V148.26C149.496 149.544 148.292 150.287 146.848 150.287C144.199 150.287 142.313 148.1 142.313 144.97C142.313 141.8 144.119 139.673 146.787 139.673C148.312 139.673 149.516 140.416 150.238 141.76V139.874H152.124V150.146C152.124 152.935 150.339 154.6 147.329 154.6ZM144.36 144.97C144.36 147.177 145.443 148.521 147.209 148.521C148.934 148.521 150.098 147.137 150.098 145.03C150.098 142.823 148.954 141.419 147.209 141.419C145.463 141.419 144.36 142.783 144.36 144.97ZM163.315 150.728C160.406 150.728 158.36 148.441 158.36 145.191C158.36 141.981 160.446 139.673 163.315 139.673C165.944 139.673 167.85 141.419 168.231 144.187H166.104C165.883 142.482 164.82 141.459 163.335 141.459C161.59 141.459 160.446 142.944 160.446 145.191C160.446 147.458 161.59 148.922 163.335 148.922C164.84 148.922 165.883 147.919 166.124 146.194H168.231C167.87 149.003 165.984 150.728 163.315 150.728ZM176.911 146.134V139.874H178.938V150.507H177.052V148.822C176.49 149.925 175.246 150.708 173.802 150.708C171.655 150.708 170.17 149.444 170.17 146.715V139.874H172.197V146.314C172.197 148.16 173.119 148.922 174.444 148.922C175.808 148.922 176.911 147.799 176.911 146.134ZM190.178 147.337C190.178 149.424 188.553 150.708 185.724 150.708C182.916 150.708 181.25 149.324 181.05 147.036H182.996C183.076 148.361 184.139 149.183 185.764 149.183C187.189 149.183 188.132 148.682 188.132 147.678C188.132 146.796 187.59 146.414 186.266 146.154L184.541 145.833C182.574 145.451 181.471 144.448 181.471 142.843C181.471 140.977 183.096 139.673 185.564 139.673C188.112 139.673 189.837 141.038 190.018 143.224H188.072C187.951 141.94 187.008 141.198 185.584 141.198C184.3 141.198 183.437 141.74 183.437 142.663C183.437 143.525 183.979 143.927 185.263 144.167L187.069 144.508C189.175 144.89 190.178 145.813 190.178 147.337ZM198.252 148.541V150.327C197.63 150.608 197.089 150.708 196.447 150.708C194.481 150.708 193.116 149.645 193.116 147.297V141.599H190.769V139.874H193.116V136.724H195.143V139.874H198.353V141.599H195.143V146.836C195.143 148.3 195.845 148.822 196.928 148.822C197.41 148.822 197.831 148.742 198.252 148.541ZM204.447 150.708C201.437 150.708 199.23 148.341 199.23 145.191C199.23 142.041 201.437 139.673 204.447 139.673C207.456 139.673 209.663 142.041 209.663 145.191C209.663 148.341 207.456 150.708 204.447 150.708ZM204.447 148.922C206.192 148.922 207.577 147.518 207.577 145.191C207.577 142.863 206.192 141.479 204.447 141.479C202.701 141.479 201.337 142.863 201.337 145.191C201.337 147.518 202.701 148.922 204.447 148.922ZM213.755 150.507H211.729V139.874H213.615V141.639C214.337 140.416 215.481 139.673 216.945 139.673C218.51 139.673 219.694 140.476 220.175 141.88C220.918 140.516 222.141 139.673 223.767 139.673C225.953 139.673 227.358 141.098 227.358 143.626V150.507H225.331V144.268C225.331 142.502 224.549 141.459 223.064 141.459C221.68 141.459 220.556 142.623 220.556 144.408V150.507H218.53V144.268C218.53 142.502 217.748 141.459 216.263 141.459C214.859 141.459 213.755 142.623 213.755 144.408V150.507ZM234.441 150.708C231.372 150.708 229.305 148.481 229.305 145.13C229.305 141.981 231.452 139.673 234.381 139.673C237.551 139.673 239.658 142.241 239.297 145.692H231.372C231.532 147.859 232.616 149.123 234.401 149.123C235.906 149.123 236.949 148.3 237.29 146.916H239.297C238.775 149.283 236.949 150.708 234.441 150.708ZM234.341 141.198C232.716 141.198 231.612 142.362 231.392 144.348H237.15C237.049 142.382 235.986 141.198 234.341 141.198ZM243.477 145.07V150.507H241.451V139.874H243.337V142.121C244.079 140.656 245.684 139.734 247.43 139.734V141.84C245.143 141.72 243.477 142.723 243.477 145.07ZM252.464 145.191C252.464 141.96 254.31 139.673 257.179 139.673C258.603 139.673 259.847 140.396 260.589 141.7V136.102H262.616V150.507H260.73V148.601C259.967 149.946 258.683 150.708 257.179 150.708C254.31 150.708 252.464 148.381 252.464 145.191ZM254.57 145.191C254.57 147.558 255.814 148.902 257.58 148.902C259.305 148.902 260.589 147.498 260.589 145.151C260.589 142.763 259.265 141.459 257.58 141.459C255.814 141.459 254.57 142.783 254.57 145.191ZM271.873 150.507V148.862C271.211 150.046 270.027 150.708 268.462 150.708C266.255 150.708 264.811 149.444 264.811 147.498C264.811 145.411 266.476 144.328 269.646 144.328C270.268 144.328 270.769 144.348 271.632 144.448V143.666C271.632 142.141 270.809 141.278 269.405 141.278C267.92 141.278 267.017 142.161 266.957 143.646H265.111C265.212 141.258 266.917 139.673 269.405 139.673C272.033 139.673 273.558 141.158 273.558 143.686V150.507H271.873ZM266.737 147.438C266.737 148.541 267.559 149.263 268.863 149.263C270.569 149.263 271.632 148.2 271.632 146.575V145.712C270.849 145.612 270.288 145.592 269.766 145.592C267.74 145.592 266.737 146.194 266.737 147.438ZM282.168 148.541V150.327C281.546 150.608 281.004 150.708 280.362 150.708C278.396 150.708 277.032 149.645 277.032 147.297V141.599H274.685V139.874H277.032V136.724H279.058V139.874H282.268V141.599H279.058V146.836C279.058 148.3 279.761 148.822 280.844 148.822C281.325 148.822 281.747 148.742 282.168 148.541ZM290.643 150.507V148.862C289.98 150.046 288.797 150.708 287.232 150.708C285.025 150.708 283.58 149.444 283.58 147.498C283.58 145.411 285.246 144.328 288.416 144.328C289.038 144.328 289.539 144.348 290.402 144.448V143.666C290.402 142.141 289.579 141.278 288.175 141.278C286.69 141.278 285.787 142.161 285.727 143.646H283.881C283.982 141.258 285.687 139.673 288.175 139.673C290.803 139.673 292.328 141.158 292.328 143.686V150.507H290.643ZM285.506 147.438C285.506 148.541 286.329 149.263 287.633 149.263C289.338 149.263 290.402 148.2 290.402 146.575V145.712C289.619 145.612 289.058 145.592 288.536 145.592C286.51 145.592 285.506 146.194 285.506 147.438ZM305.67 150.507V148.862C305.008 150.046 303.824 150.708 302.259 150.708C300.053 150.708 298.608 149.444 298.608 147.498C298.608 145.411 300.273 144.328 303.443 144.328C304.065 144.328 304.567 144.348 305.429 144.448V143.666C305.429 142.141 304.607 141.278 303.202 141.278C301.718 141.278 300.815 142.161 300.755 143.646H298.909C299.009 141.258 300.715 139.673 303.202 139.673C305.831 139.673 307.355 141.158 307.355 143.686V150.507H305.67ZM300.534 147.438C300.534 148.541 301.357 149.263 302.661 149.263C304.366 149.263 305.429 148.2 305.429 146.575V145.712C304.647 145.612 304.085 145.592 303.564 145.592C301.537 145.592 300.534 146.194 300.534 147.438ZM312.091 144.508V150.507H310.065V139.874H311.951V141.639C312.673 140.456 313.877 139.673 315.341 139.673C317.528 139.673 318.973 141.078 318.973 143.626V150.507H316.946V144.308C316.946 142.482 316.144 141.459 314.639 141.459C313.255 141.459 312.091 142.623 312.091 144.508ZM320.901 145.191C320.901 141.96 322.747 139.673 325.616 139.673C327.041 139.673 328.284 140.396 329.027 141.7V136.102H331.053V150.507H329.167V148.601C328.405 149.946 327.121 150.708 325.616 150.708C322.747 150.708 320.901 148.381 320.901 145.191ZM323.008 145.191C323.008 147.558 324.252 148.902 326.017 148.902C327.743 148.902 329.027 147.498 329.027 145.151C329.027 142.763 327.703 141.459 326.017 141.459C324.252 141.459 323.008 142.783 323.008 145.191ZM67.6306 182.708C64.6211 182.708 62.4142 180.341 62.4142 177.191C62.4142 174.041 64.6211 171.673 67.6306 171.673C70.64 171.673 72.8469 174.041 72.8469 177.191C72.8469 180.341 70.64 182.708 67.6306 182.708ZM67.6306 180.922C69.3761 180.922 70.7604 179.518 70.7604 177.191C70.7604 174.863 69.3761 173.479 67.6306 173.479C65.8851 173.479 64.5208 174.863 64.5208 177.191C64.5208 179.518 65.8851 180.922 67.6306 180.922ZM76.939 177.07V182.507H74.9126V171.874H76.7986V174.121C77.5409 172.656 79.1459 171.734 80.8914 171.734V173.84C78.6042 173.72 76.939 174.723 76.939 177.07ZM81.6935 177.191C81.6935 173.96 83.5393 171.673 86.4083 171.673C87.8327 171.673 89.0766 172.396 89.819 173.7V168.102H91.8453V182.507H89.9594V180.601C89.197 181.946 87.913 182.708 86.4083 182.708C83.5393 182.708 81.6935 180.381 81.6935 177.191ZM83.8001 177.191C83.8001 179.558 85.044 180.902 86.8095 180.902C88.5349 180.902 89.819 179.498 89.819 177.151C89.819 174.763 88.4948 173.459 86.8095 173.459C85.044 173.459 83.8001 174.783 83.8001 177.191ZM99.0359 182.708C95.9662 182.708 93.8997 180.481 93.8997 177.13C93.8997 173.981 96.0465 171.673 98.9757 171.673C102.146 171.673 104.252 174.241 103.891 177.692H95.9662C96.1267 179.859 97.2101 181.123 98.9957 181.123C100.5 181.123 101.544 180.3 101.885 178.916H103.891C103.369 181.283 101.544 182.708 99.0359 182.708ZM98.9355 173.198C97.3104 173.198 96.207 174.362 95.9863 176.348H101.744C101.644 174.382 100.581 173.198 98.9355 173.198ZM108.072 177.07V182.507H106.046V171.874H107.931V174.121C108.674 172.656 110.279 171.734 112.024 171.734V173.84C109.737 173.72 108.072 174.723 108.072 177.07ZM122.054 179.337C122.054 181.424 120.429 182.708 117.6 182.708C114.792 182.708 113.126 181.324 112.926 179.036H114.872C114.952 180.361 116.015 181.183 117.641 181.183C119.065 181.183 120.008 180.682 120.008 179.678C120.008 178.796 119.466 178.414 118.142 178.154L116.417 177.833C114.45 177.451 113.347 176.448 113.347 174.843C113.347 172.977 114.972 171.673 117.44 171.673C119.988 171.673 121.713 173.038 121.894 175.224H119.948C119.827 173.94 118.884 173.198 117.46 173.198C116.176 173.198 115.313 173.74 115.313 174.663C115.313 175.525 115.855 175.927 117.139 176.167L118.945 176.508C121.051 176.89 122.054 177.813 122.054 179.337ZM127.015 181.063C127.015 181.966 126.393 182.608 125.471 182.608C124.568 182.608 123.926 181.966 123.926 181.063C123.926 180.12 124.568 179.478 125.471 179.478C126.393 179.478 127.015 180.12 127.015 181.063ZM131.425 172.576H129.86L129.719 168.102H131.565L131.425 172.576ZM134.675 172.576H133.09L132.969 168.102H134.815L134.675 172.576ZM49.8347 209.231C49.8347 211.016 48.5106 212.3 46.725 212.3C44.9394 212.3 43.6152 211.016 43.6152 209.231C43.6152 207.385 44.9394 206.081 46.725 206.081C48.5106 206.081 49.8347 207.385 49.8347 209.231ZM65.1227 204.576H63.5578L63.4174 200.102H65.2631L65.1227 204.576ZM68.3729 204.576H66.7879L66.6676 200.102H68.5133L68.3729 204.576ZM82.8176 200.102V209.331C82.8176 212.641 80.6909 214.808 77.2401 214.808C73.7893 214.808 71.6827 212.641 71.6827 209.331V200.102H73.8896V209.391C73.8896 211.478 75.1134 212.822 77.2401 212.822C79.3868 212.822 80.6107 211.478 80.6107 209.391V200.102H82.8176ZM87.7542 208.508V214.507H85.7278V203.874H87.6138V205.639C88.336 204.456 89.5398 203.673 91.0044 203.673C93.1913 203.673 94.6358 205.078 94.6358 207.626V214.507H92.6094V208.308C92.6094 206.482 91.8069 205.459 90.3022 205.459C88.9179 205.459 87.7542 206.623 87.7542 208.508ZM96.5644 209.191C96.5644 205.96 98.4101 203.673 101.279 203.673C102.704 203.673 103.948 204.396 104.69 205.7V200.102H106.716V214.507H104.83V212.601C104.068 213.946 102.784 214.708 101.279 214.708C98.4101 214.708 96.5644 212.381 96.5644 209.191ZM98.671 209.191C98.671 211.558 99.9149 212.902 101.68 212.902C103.406 212.902 104.69 211.498 104.69 209.151C104.69 206.763 103.366 205.459 101.68 205.459C99.9149 205.459 98.671 206.783 98.671 209.191ZM113.907 214.708C110.837 214.708 108.771 212.481 108.771 209.13C108.771 205.981 110.917 203.673 113.847 203.673C117.017 203.673 119.123 206.241 118.762 209.692H110.837C110.998 211.859 112.081 213.123 113.867 213.123C115.371 213.123 116.415 212.3 116.756 210.916H118.762C118.24 213.283 116.415 214.708 113.907 214.708ZM113.806 205.198C112.181 205.198 111.078 206.362 110.857 208.348H116.615C116.515 206.382 115.452 205.198 113.806 205.198ZM122.943 209.07V214.507H120.916V203.874H122.802V206.121C123.545 204.656 125.15 203.734 126.895 203.734V205.84C124.608 205.72 122.943 206.723 122.943 209.07ZM136.925 211.337C136.925 213.424 135.3 214.708 132.471 214.708C129.662 214.708 127.997 213.324 127.797 211.036H129.743C129.823 212.361 130.886 213.183 132.511 213.183C133.936 213.183 134.879 212.682 134.879 211.678C134.879 210.796 134.337 210.414 133.013 210.154L131.288 209.833C129.321 209.451 128.218 208.448 128.218 206.843C128.218 204.977 129.843 203.673 132.311 203.673C134.859 203.673 136.584 205.038 136.765 207.224H134.819C134.698 205.94 133.755 205.198 132.331 205.198C131.047 205.198 130.184 205.74 130.184 206.663C130.184 207.525 130.726 207.927 132.01 208.167L133.815 208.508C135.922 208.89 136.925 209.813 136.925 211.337ZM144.999 212.541V214.327C144.377 214.608 143.836 214.708 143.194 214.708C141.228 214.708 139.863 213.645 139.863 211.297V205.599H137.516V203.874H139.863V200.724H141.89V203.874H145.1V205.599H141.89V210.836C141.89 212.3 142.592 212.822 143.675 212.822C144.157 212.822 144.578 212.742 144.999 212.541ZM153.474 214.507V212.862C152.812 214.046 151.628 214.708 150.063 214.708C147.856 214.708 146.412 213.444 146.412 211.498C146.412 209.411 148.077 208.328 151.247 208.328C151.869 208.328 152.37 208.348 153.233 208.448V207.666C153.233 206.141 152.41 205.278 151.006 205.278C149.521 205.278 148.619 206.161 148.558 207.646H146.713C146.813 205.258 148.518 203.673 151.006 203.673C153.634 203.673 155.159 205.158 155.159 207.686V214.507H153.474ZM148.338 211.438C148.338 212.541 149.16 213.263 150.464 213.263C152.17 213.263 153.233 212.2 153.233 210.575V209.712C152.451 209.612 151.889 209.592 151.367 209.592C149.341 209.592 148.338 210.194 148.338 211.438ZM159.895 208.508V214.507H157.868V203.874H159.754V205.639C160.477 204.456 161.68 203.673 163.145 203.673C165.332 203.673 166.776 205.078 166.776 207.626V214.507H164.75V208.308C164.75 206.482 163.947 205.459 162.443 205.459C161.058 205.459 159.895 206.623 159.895 208.508ZM168.705 209.191C168.705 205.96 170.551 203.673 173.42 203.673C174.844 203.673 176.088 204.396 176.83 205.7V200.102H178.857V214.507H176.971V212.601C176.208 213.946 174.924 214.708 173.42 214.708C170.551 214.708 168.705 212.381 168.705 209.191ZM170.811 209.191C170.811 211.558 172.055 212.902 173.821 212.902C175.546 212.902 176.83 211.498 176.83 209.151C176.83 206.763 175.506 205.459 173.821 205.459C172.055 205.459 170.811 206.783 170.811 209.191ZM184.141 201.406C184.141 202.169 183.539 202.75 182.677 202.75C181.814 202.75 181.192 202.169 181.192 201.406C181.192 200.624 181.814 200.062 182.677 200.062C183.539 200.062 184.141 200.624 184.141 201.406ZM183.7 214.507H181.674V203.874H183.7V214.507ZM188.539 208.508V214.507H186.513V203.874H188.399V205.639C189.121 204.456 190.325 203.673 191.789 203.673C193.976 203.673 195.421 205.078 195.421 207.626V214.507H193.395V208.308C193.395 206.482 192.592 205.459 191.087 205.459C189.703 205.459 188.539 206.623 188.539 208.508ZM202.365 218.6C199.576 218.6 197.771 217.116 197.65 214.708H199.617C199.737 216.193 200.7 216.995 202.345 216.995C204.171 216.995 205.134 216.012 205.134 214.186V212.26C204.532 213.544 203.328 214.287 201.884 214.287C199.235 214.287 197.349 212.1 197.349 208.97C197.349 205.8 199.155 203.673 201.823 203.673C203.348 203.673 204.552 204.416 205.274 205.76V203.874H207.16V214.146C207.16 216.935 205.375 218.6 202.365 218.6ZM199.396 208.97C199.396 211.177 200.479 212.521 202.245 212.521C203.97 212.521 205.134 211.137 205.134 209.03C205.134 206.823 203.99 205.419 202.245 205.419C200.499 205.419 199.396 206.783 199.396 208.97ZM216.185 214.507H214.158V203.874H216.044V205.639C216.766 204.416 217.91 203.673 219.375 203.673C220.94 203.673 222.123 204.476 222.605 205.88C223.347 204.516 224.571 203.673 226.196 203.673C228.383 203.673 229.787 205.098 229.787 207.626V214.507H227.761V208.268C227.761 206.502 226.979 205.459 225.494 205.459C224.11 205.459 222.986 206.623 222.986 208.408V214.507H220.96V208.268C220.96 206.502 220.177 205.459 218.692 205.459C217.288 205.459 216.185 206.623 216.185 208.408V214.507ZM240.933 203.874L235.616 218.379H233.409L234.934 214.367L230.741 203.874H232.928L236.018 211.979L238.887 203.874H240.933ZM256.717 209.191C256.717 212.381 254.871 214.708 252.002 214.708C250.497 214.708 249.213 213.946 248.451 212.601V214.507H246.565V200.102H248.591V205.7C249.333 204.396 250.557 203.673 252.002 203.673C254.851 203.673 256.717 205.96 256.717 209.191ZM254.61 209.191C254.61 206.783 253.346 205.459 251.6 205.459C249.915 205.459 248.591 206.763 248.591 209.151C248.591 211.498 249.875 212.902 251.6 212.902C253.346 212.902 254.61 211.558 254.61 209.191ZM265.412 210.134V203.874H267.438V214.507H265.552V212.822C264.99 213.925 263.747 214.708 262.302 214.708C260.155 214.708 258.671 213.444 258.671 210.715V203.874H260.697V210.314C260.697 212.16 261.62 212.922 262.944 212.922C264.308 212.922 265.412 211.799 265.412 210.134ZM278.679 211.337C278.679 213.424 277.054 214.708 274.225 214.708C271.416 214.708 269.751 213.324 269.55 211.036H271.496C271.576 212.361 272.64 213.183 274.265 213.183C275.689 213.183 276.632 212.682 276.632 211.678C276.632 210.796 276.091 210.414 274.766 210.154L273.041 209.833C271.075 209.451 269.971 208.448 269.971 206.843C269.971 204.977 271.597 203.673 274.064 203.673C276.612 203.673 278.338 205.038 278.518 207.224H276.572C276.452 205.94 275.509 205.198 274.084 205.198C272.8 205.198 271.938 205.74 271.938 206.663C271.938 207.525 272.479 207.927 273.763 208.167L275.569 208.508C277.676 208.89 278.679 209.813 278.679 211.337ZM283.359 201.406C283.359 202.169 282.757 202.75 281.894 202.75C281.032 202.75 280.41 202.169 280.41 201.406C280.41 200.624 281.032 200.062 281.894 200.062C282.757 200.062 283.359 200.624 283.359 201.406ZM282.918 214.507H280.891V203.874H282.918V214.507ZM287.757 208.508V214.507H285.731V203.874H287.616V205.639C288.339 204.456 289.543 203.673 291.007 203.673C293.194 203.673 294.639 205.078 294.639 207.626V214.507H292.612V208.308C292.612 206.482 291.81 205.459 290.305 205.459C288.921 205.459 287.757 206.623 287.757 208.508ZM301.703 214.708C298.634 214.708 296.567 212.481 296.567 209.13C296.567 205.981 298.714 203.673 301.643 203.673C304.813 203.673 306.92 206.241 306.558 209.692H298.634C298.794 211.859 299.877 213.123 301.663 213.123C303.168 213.123 304.211 212.3 304.552 210.916H306.558C306.037 213.283 304.211 214.708 301.703 214.708ZM301.603 205.198C299.978 205.198 298.874 206.362 298.654 208.348H304.412C304.311 206.382 303.248 205.198 301.603 205.198ZM317.139 211.337C317.139 213.424 315.514 214.708 312.685 214.708C309.877 214.708 308.211 213.324 308.011 211.036H309.957C310.037 212.361 311.1 213.183 312.725 213.183C314.15 213.183 315.093 212.682 315.093 211.678C315.093 210.796 314.551 210.414 313.227 210.154L311.502 209.833C309.535 209.451 308.432 208.448 308.432 206.843C308.432 204.977 310.057 203.673 312.525 203.673C315.073 203.673 316.798 205.038 316.979 207.224H315.033C314.912 205.94 313.969 205.198 312.545 205.198C311.261 205.198 310.398 205.74 310.398 206.663C310.398 207.525 310.94 207.927 312.224 208.167L314.03 208.508C316.136 208.89 317.139 209.813 317.139 211.337ZM327.778 211.337C327.778 213.424 326.153 214.708 323.324 214.708C320.515 214.708 318.85 213.324 318.65 211.036H320.596C320.676 212.361 321.739 213.183 323.364 213.183C324.789 213.183 325.732 212.682 325.732 211.678C325.732 210.796 325.19 210.414 323.866 210.154L322.14 209.833C320.174 209.451 319.071 208.448 319.071 206.843C319.071 204.977 320.696 203.673 323.164 203.673C325.712 203.673 327.437 205.038 327.618 207.224H325.672C325.551 205.94 324.608 205.198 323.184 205.198C321.9 205.198 321.037 205.74 321.037 206.663C321.037 207.525 321.579 207.927 322.863 208.167L324.668 208.508C326.775 208.89 327.778 209.813 327.778 211.337ZM73.3285 241.191C73.3285 244.401 71.4827 246.708 68.6337 246.708C67.1892 246.708 65.9653 245.986 65.203 244.702V250.379H63.1766V235.874H65.0625V237.82C65.8249 236.456 67.129 235.673 68.6337 235.673C71.4626 235.673 73.3285 237.981 73.3285 241.191ZM71.2218 241.191C71.2218 238.803 69.9579 237.459 68.2124 237.459C66.5271 237.459 65.203 238.803 65.203 241.191C65.203 243.538 66.507 244.902 68.2124 244.902C69.9579 244.902 71.2218 243.578 71.2218 241.191ZM79.7566 246.708C76.687 246.708 74.6205 244.481 74.6205 241.13C74.6205 237.981 76.7672 235.673 79.6964 235.673C82.8664 235.673 84.973 238.241 84.6118 241.692H76.687C76.8475 243.859 77.9309 245.123 79.7165 245.123C81.2212 245.123 82.2645 244.3 82.6055 242.916H84.6118C84.0902 245.283 82.2645 246.708 79.7566 246.708ZM79.6563 237.198C78.0312 237.198 76.9277 238.362 76.707 240.348H82.4651C82.3648 238.382 81.3014 237.198 79.6563 237.198ZM88.7926 241.07V246.507H86.7663V235.874H88.6522V238.121C89.3945 236.656 90.9995 235.734 92.745 235.734V237.84C90.4578 237.72 88.7926 238.723 88.7926 241.07ZM97.9454 246.507H95.919V237.599H93.5717V235.874H95.919V235.091C95.919 233.045 97.0225 231.922 99.0288 231.922C99.6307 231.922 100.112 232.022 100.513 232.182V233.828C100.192 233.687 99.8313 233.647 99.4702 233.647C98.5072 233.647 97.9454 234.088 97.9454 235.112V235.874H100.915V237.599H97.9454V246.507ZM106.62 246.708C103.611 246.708 101.404 244.341 101.404 241.191C101.404 238.041 103.611 235.673 106.62 235.673C109.63 235.673 111.837 238.041 111.837 241.191C111.837 244.341 109.63 246.708 106.62 246.708ZM106.62 244.922C108.366 244.922 109.75 243.518 109.75 241.191C109.75 238.863 108.366 237.479 106.62 237.479C104.875 237.479 103.51 238.863 103.51 241.191C103.51 243.518 104.875 244.922 106.62 244.922ZM115.929 241.07V246.507H113.902V235.874H115.788V238.121C116.53 236.656 118.135 235.734 119.881 235.734V237.84C117.594 237.72 115.929 238.723 115.929 241.07ZM123.511 246.507H121.485V235.874H123.371V237.639C124.093 236.416 125.236 235.673 126.701 235.673C128.266 235.673 129.45 236.476 129.931 237.88C130.673 236.516 131.897 235.673 133.522 235.673C135.709 235.673 137.114 237.098 137.114 239.626V246.507H135.087V240.268C135.087 238.502 134.305 237.459 132.82 237.459C131.436 237.459 130.312 238.623 130.312 240.408V246.507H128.286V240.268C128.286 238.502 127.503 237.459 126.019 237.459C124.614 237.459 123.511 238.623 123.511 240.408V246.507ZM146.264 246.507V244.862C145.602 246.046 144.418 246.708 142.853 246.708C140.646 246.708 139.201 245.444 139.201 243.498C139.201 241.411 140.867 240.328 144.037 240.328C144.659 240.328 145.16 240.348 146.023 240.448V239.666C146.023 238.141 145.2 237.278 143.796 237.278C142.311 237.278 141.408 238.161 141.348 239.646H139.502C139.603 237.258 141.308 235.673 143.796 235.673C146.424 235.673 147.949 237.158 147.949 239.686V246.507H146.264ZM141.127 243.438C141.127 244.541 141.95 245.263 143.254 245.263C144.96 245.263 146.023 244.2 146.023 242.575V241.712C145.24 241.612 144.679 241.592 144.157 241.592C142.131 241.592 141.127 242.194 141.127 243.438ZM152.685 240.508V246.507H150.658V235.874H152.544V237.639C153.266 236.456 154.47 235.673 155.935 235.673C158.122 235.673 159.566 237.078 159.566 239.626V246.507H157.54V240.308C157.54 238.482 156.737 237.459 155.233 237.459C153.848 237.459 152.685 238.623 152.685 240.508ZM166.45 246.728C163.541 246.728 161.495 244.441 161.495 241.191C161.495 237.981 163.581 235.673 166.45 235.673C169.079 235.673 170.984 237.419 171.366 240.187H169.239C169.018 238.482 167.955 237.459 166.47 237.459C164.725 237.459 163.581 238.944 163.581 241.191C163.581 243.458 164.725 244.922 166.47 244.922C167.975 244.922 169.018 243.919 169.259 242.194H171.366C171.005 245.003 169.119 246.728 166.45 246.728ZM177.681 246.708C174.612 246.708 172.545 244.481 172.545 241.13C172.545 237.981 174.692 235.673 177.621 235.673C180.791 235.673 182.898 238.241 182.536 241.692H174.612C174.772 243.859 175.855 245.123 177.641 245.123C179.146 245.123 180.189 244.3 180.53 242.916H182.536C182.015 245.283 180.189 246.708 177.681 246.708ZM177.581 237.198C175.956 237.198 174.852 238.362 174.632 240.348H180.39C180.289 238.382 179.226 237.198 177.581 237.198ZM191.351 233.406C191.351 234.169 190.749 234.75 189.887 234.75C189.024 234.75 188.402 234.169 188.402 233.406C188.402 232.624 189.024 232.062 189.887 232.062C190.749 232.062 191.351 232.624 191.351 233.406ZM190.91 246.507H188.884V235.874H190.91V246.507ZM202.149 243.337C202.149 245.424 200.524 246.708 197.696 246.708C194.887 246.708 193.221 245.324 193.021 243.036H194.967C195.047 244.361 196.111 245.183 197.736 245.183C199.16 245.183 200.103 244.682 200.103 243.678C200.103 242.796 199.561 242.414 198.237 242.154L196.512 241.833C194.546 241.451 193.442 240.448 193.442 238.843C193.442 236.977 195.067 235.673 197.535 235.673C200.083 235.673 201.808 237.038 201.989 239.224H200.043C199.922 237.94 198.98 237.198 197.555 237.198C196.271 237.198 195.408 237.74 195.408 238.663C195.408 239.525 195.95 239.927 197.234 240.167L199.04 240.508C201.146 240.89 202.149 241.813 202.149 243.337ZM212.748 246.728C209.839 246.728 207.792 244.441 207.792 241.191C207.792 237.981 209.879 235.673 212.748 235.673C215.376 235.673 217.282 237.419 217.663 240.187H215.537C215.316 238.482 214.253 237.459 212.768 237.459C211.022 237.459 209.879 238.944 209.879 241.191C209.879 243.458 211.022 244.922 212.768 244.922C214.273 244.922 215.316 243.919 215.557 242.194H217.663C217.302 245.003 215.416 246.728 212.748 246.728ZM221.729 241.07V246.507H219.703V235.874H221.589V238.121C222.331 236.656 223.936 235.734 225.682 235.734V237.84C223.395 237.72 221.729 238.723 221.729 241.07ZM233.926 242.134V235.874H235.953V246.507H234.067V244.822C233.505 245.925 232.261 246.708 230.817 246.708C228.67 246.708 227.185 245.444 227.185 242.715V235.874H229.211V242.314C229.211 244.16 230.134 244.922 231.459 244.922C232.823 244.922 233.926 243.799 233.926 242.134ZM242.96 246.728C240.051 246.728 238.004 244.441 238.004 241.191C238.004 237.981 240.091 235.673 242.96 235.673C245.588 235.673 247.494 237.419 247.875 240.187H245.749C245.528 238.482 244.465 237.459 242.98 237.459C241.235 237.459 240.091 238.944 240.091 241.191C240.091 243.458 241.235 244.922 242.98 244.922C244.485 244.922 245.528 243.919 245.769 242.194H247.875C247.514 245.003 245.628 246.728 242.96 246.728ZM252.383 233.406C252.383 234.169 251.781 234.75 250.918 234.75C250.055 234.75 249.434 234.169 249.434 233.406C249.434 232.624 250.055 232.062 250.918 232.062C251.781 232.062 252.383 232.624 252.383 233.406ZM251.941 246.507H249.915V235.874H251.941V246.507ZM261.195 246.507V244.862C260.533 246.046 259.349 246.708 257.784 246.708C255.577 246.708 254.132 245.444 254.132 243.498C254.132 241.411 255.798 240.328 258.968 240.328C259.59 240.328 260.091 240.348 260.954 240.448V239.666C260.954 238.141 260.131 237.278 258.727 237.278C257.242 237.278 256.339 238.161 256.279 239.646H254.433C254.534 237.258 256.239 235.673 258.727 235.673C261.355 235.673 262.88 237.158 262.88 239.686V246.507H261.195ZM256.059 243.438C256.059 244.541 256.881 245.263 258.185 245.263C259.891 245.263 260.954 244.2 260.954 242.575V241.712C260.171 241.612 259.61 241.592 259.088 241.592C257.062 241.592 256.059 242.194 256.059 243.438ZM267.636 246.507H265.589V232.102H267.636V246.507ZM277.63 246.507H275.604V237.599H273.257V235.874H275.604V235.091C275.604 233.045 276.708 231.922 278.714 231.922C279.316 231.922 279.797 232.022 280.199 232.182V233.828C279.878 233.687 279.516 233.647 279.155 233.647C278.192 233.647 277.63 234.088 277.63 235.112V235.874H280.6V237.599H277.63V246.507ZM286.305 246.708C283.296 246.708 281.089 244.341 281.089 241.191C281.089 238.041 283.296 235.673 286.305 235.673C289.315 235.673 291.522 238.041 291.522 241.191C291.522 244.341 289.315 246.708 286.305 246.708ZM286.305 244.922C288.051 244.922 289.435 243.518 289.435 241.191C289.435 238.863 288.051 237.479 286.305 237.479C284.56 237.479 283.195 238.863 283.195 241.191C283.195 243.518 284.56 244.922 286.305 244.922ZM295.614 241.07V246.507H293.587V235.874H295.473V238.121C296.216 236.656 297.821 235.734 299.566 235.734V237.84C297.279 237.72 295.614 238.723 295.614 241.07ZM304.6 241.191C304.6 237.96 306.446 235.673 309.315 235.673C310.739 235.673 311.983 236.396 312.726 237.7V232.102H314.752V246.507H312.866V244.601C312.104 245.946 310.82 246.708 309.315 246.708C306.446 246.708 304.6 244.381 304.6 241.191ZM306.707 241.191C306.707 243.558 307.951 244.902 309.716 244.902C311.442 244.902 312.726 243.498 312.726 241.151C312.726 238.763 311.401 237.459 309.716 237.459C307.951 237.459 306.707 238.783 306.707 241.191ZM321.943 246.708C318.873 246.708 316.806 244.481 316.806 241.13C316.806 237.981 318.953 235.673 321.882 235.673C325.052 235.673 327.159 238.241 326.798 241.692H318.873C319.033 243.859 320.117 245.123 321.902 245.123C323.407 245.123 324.45 244.3 324.791 242.916H326.798C326.276 245.283 324.45 246.708 321.943 246.708ZM321.842 237.198C320.217 237.198 319.114 238.362 318.893 240.348H324.651C324.551 238.382 323.487 237.198 321.842 237.198ZM332.949 246.728C330.04 246.728 327.994 244.441 327.994 241.191C327.994 237.981 330.08 235.673 332.949 235.673C335.578 235.673 337.484 237.419 337.865 240.187H335.738C335.517 238.482 334.454 237.459 332.969 237.459C331.224 237.459 330.08 238.944 330.08 241.191C330.08 243.458 331.224 244.922 332.969 244.922C334.474 244.922 335.517 243.919 335.758 242.194H337.865C337.504 245.003 335.618 246.728 332.949 246.728ZM342.372 233.406C342.372 234.169 341.77 234.75 340.908 234.75C340.045 234.75 339.423 234.169 339.423 233.406C339.423 232.624 340.045 232.062 340.908 232.062C341.77 232.062 342.372 232.624 342.372 233.406ZM341.931 246.507H339.904V235.874H341.931V246.507ZM353.17 243.337C353.17 245.424 351.545 246.708 348.716 246.708C345.908 246.708 344.242 245.324 344.042 243.036H345.988C346.068 244.361 347.131 245.183 348.757 245.183C350.181 245.183 351.124 244.682 351.124 243.678C351.124 242.796 350.582 242.414 349.258 242.154L347.533 241.833C345.566 241.451 344.463 240.448 344.463 238.843C344.463 236.977 346.088 235.673 348.556 235.673C351.104 235.673 352.829 237.038 353.01 239.224H351.064C350.943 237.94 350 237.198 348.576 237.198C347.292 237.198 346.429 237.74 346.429 238.663C346.429 239.525 346.971 239.927 348.255 240.167L350.061 240.508C352.167 240.89 353.17 241.813 353.17 243.337ZM357.851 233.406C357.851 234.169 357.249 234.75 356.386 234.75C355.523 234.75 354.901 234.169 354.901 233.406C354.901 232.624 355.523 232.062 356.386 232.062C357.249 232.062 357.851 232.624 357.851 233.406ZM357.409 246.507H355.383V235.874H357.409V246.507ZM364.676 246.708C361.667 246.708 359.46 244.341 359.46 241.191C359.46 238.041 361.667 235.673 364.676 235.673C367.686 235.673 369.893 238.041 369.893 241.191C369.893 244.341 367.686 246.708 364.676 246.708ZM364.676 244.922C366.422 244.922 367.806 243.518 367.806 241.191C367.806 238.863 366.422 237.479 364.676 237.479C362.931 237.479 361.566 238.863 361.566 241.191C361.566 243.518 362.931 244.922 364.676 244.922ZM373.985 240.508V246.507H371.958V235.874H373.844V237.639C374.566 236.456 375.77 235.673 377.235 235.673C379.422 235.673 380.866 237.078 380.866 239.626V246.507H378.84V240.308C378.84 238.482 378.037 237.459 376.533 237.459C375.148 237.459 373.985 238.623 373.985 240.508ZM388.894 241.893H382.654V240.067H388.894V241.893ZM65.203 278.507H63.1766V267.874H65.0625V269.639C65.7848 268.416 66.9284 267.673 68.393 267.673C69.9579 267.673 71.1416 268.476 71.6231 269.88C72.3654 268.516 73.5893 267.673 75.2144 267.673C77.4012 267.673 78.8056 269.098 78.8056 271.626V278.507H76.7793V272.268C76.7793 270.502 75.9968 269.459 74.5122 269.459C73.1278 269.459 72.0043 270.623 72.0043 272.408V278.507H69.9779V272.268C69.9779 270.502 69.1955 269.459 67.7108 269.459C66.3064 269.459 65.203 270.623 65.203 272.408V278.507ZM87.9556 278.507V276.862C87.2935 278.046 86.1098 278.708 84.5449 278.708C82.338 278.708 80.8935 277.444 80.8935 275.498C80.8935 273.411 82.5587 272.328 85.7286 272.328C86.3506 272.328 86.8522 272.348 87.7149 272.448V271.666C87.7149 270.141 86.8923 269.278 85.4879 269.278C84.0032 269.278 83.1004 270.161 83.0402 271.646H81.1944C81.2947 269.258 83.0001 267.673 85.4879 267.673C88.1161 267.673 89.6409 269.158 89.6409 271.686V278.507H87.9556ZM82.8195 275.438C82.8195 276.541 83.6421 277.263 84.9462 277.263C86.6515 277.263 87.7149 276.2 87.7149 274.575V273.712C86.9324 273.612 86.3706 273.592 85.849 273.592C83.8226 273.592 82.8195 274.194 82.8195 275.438ZM94.3766 278.507H92.3502V264.102H94.3766V272.629L98.9308 267.874H101.318L96.4029 273.03L101.78 278.507H99.1716L94.3766 273.472V278.507ZM105.672 265.406C105.672 266.169 105.07 266.75 104.208 266.75C103.345 266.75 102.723 266.169 102.723 265.406C102.723 264.624 103.345 264.062 104.208 264.062C105.07 264.062 105.672 264.624 105.672 265.406ZM105.231 278.507H103.205V267.874H105.231V278.507ZM110.07 272.508V278.507H108.044V267.874H109.93V269.639C110.652 268.456 111.856 267.673 113.321 267.673C115.507 267.673 116.952 269.078 116.952 271.626V278.507H114.926V272.308C114.926 270.482 114.123 269.459 112.618 269.459C111.234 269.459 110.07 270.623 110.07 272.508ZM123.896 282.6C121.107 282.6 119.302 281.116 119.181 278.708H121.148C121.268 280.193 122.231 280.995 123.876 280.995C125.702 280.995 126.665 280.012 126.665 278.186V276.26C126.063 277.544 124.859 278.287 123.415 278.287C120.766 278.287 118.88 276.1 118.88 272.97C118.88 269.8 120.686 267.673 123.355 267.673C124.879 267.673 126.083 268.416 126.805 269.76V267.874H128.691V278.146C128.691 280.935 126.906 282.6 123.896 282.6ZM120.927 272.97C120.927 275.177 122.01 276.521 123.776 276.521C125.501 276.521 126.665 275.137 126.665 273.03C126.665 270.823 125.521 269.419 123.776 269.419C122.03 269.419 120.927 270.783 120.927 272.97ZM134.245 277.063C134.245 277.966 133.623 278.608 132.7 278.608C131.797 278.608 131.155 277.966 131.155 277.063C131.155 276.12 131.797 275.478 132.7 275.478C133.623 275.478 134.245 276.12 134.245 277.063ZM138.654 268.576H137.089L136.949 264.102H138.795L138.654 268.576ZM141.904 268.576H140.319L140.199 264.102H142.045L141.904 268.576ZM49.8347 305.231C49.8347 307.016 48.5106 308.3 46.725 308.3C44.9394 308.3 43.6152 307.016 43.6152 305.231C43.6152 303.385 44.9394 302.081 46.725 302.081C48.5106 302.081 49.8347 303.385 49.8347 305.231ZM65.1227 300.576H63.5578L63.4174 296.102H65.2631L65.1227 300.576ZM68.3729 300.576H66.7879L66.6676 296.102H68.5133L68.3729 300.576ZM73.9297 310.507H71.7228V296.102H73.9297V310.507ZM89.8719 310.507L87.4644 302.603L85.0368 310.507H82.9903L79.9207 299.874H81.9069L84.0537 307.618L86.4612 299.874H88.4675L90.835 307.638L92.9817 299.874H94.988L91.8983 310.507H89.8719ZM102.748 310.507V308.862C102.086 310.046 100.902 310.708 99.3374 310.708C97.1305 310.708 95.686 309.444 95.686 307.498C95.686 305.411 97.3512 304.328 100.521 304.328C101.143 304.328 101.645 304.348 102.507 304.448V303.666C102.507 302.141 101.685 301.278 100.28 301.278C98.7957 301.278 97.8929 302.161 97.8327 303.646H95.9869C96.0872 301.258 97.7926 299.673 100.28 299.673C102.909 299.673 104.433 301.158 104.433 303.686V310.507H102.748ZM97.612 307.438C97.612 308.541 98.4346 309.263 99.7387 309.263C101.444 309.263 102.507 308.2 102.507 306.575V305.712C101.725 305.612 101.163 305.592 100.642 305.592C98.6152 305.592 97.612 306.194 97.612 307.438ZM109.169 304.508V310.507H107.143V299.874H109.029V301.639C109.751 300.456 110.955 299.673 112.419 299.673C114.606 299.673 116.051 301.078 116.051 303.626V310.507H114.024V304.308C114.024 302.482 113.222 301.459 111.717 301.459C110.333 301.459 109.169 302.623 109.169 304.508ZM124.701 308.541V310.327C124.079 310.608 123.538 310.708 122.896 310.708C120.929 310.708 119.565 309.645 119.565 307.297V301.599H117.218V299.874H119.565V296.724H121.591V299.874H124.802V301.599H121.591V306.836C121.591 308.3 122.294 308.822 123.377 308.822C123.859 308.822 124.28 308.742 124.701 308.541ZM132.955 310.507H130.928V299.874H132.814V301.639C133.536 300.416 134.68 299.673 136.145 299.673C137.71 299.673 138.893 300.476 139.375 301.88C140.117 300.516 141.341 299.673 142.966 299.673C145.153 299.673 146.557 301.098 146.557 303.626V310.507H144.531V304.268C144.531 302.502 143.749 301.459 142.264 301.459C140.88 301.459 139.756 302.623 139.756 304.408V310.507H137.73V304.268C137.73 302.502 136.947 301.459 135.463 301.459C134.058 301.459 132.955 302.623 132.955 304.408V310.507ZM155.707 310.507V308.862C155.045 310.046 153.862 310.708 152.297 310.708C150.09 310.708 148.645 309.444 148.645 307.498C148.645 305.411 150.31 304.328 153.48 304.328C154.102 304.328 154.604 304.348 155.467 304.448V303.666C155.467 302.141 154.644 301.278 153.24 301.278C151.755 301.278 150.852 302.161 150.792 303.646H148.946C149.046 301.258 150.752 299.673 153.24 299.673C155.868 299.673 157.393 301.158 157.393 303.686V310.507H155.707ZM150.571 307.438C150.571 308.541 151.394 309.263 152.698 309.263C154.403 309.263 155.467 308.2 155.467 306.575V305.712C154.684 305.612 154.122 305.592 153.601 305.592C151.574 305.592 150.571 306.194 150.571 307.438ZM162.128 305.07V310.507H160.102V299.874H161.988V302.121C162.73 300.656 164.335 299.734 166.081 299.734V301.84C163.793 301.72 162.128 302.723 162.128 305.07ZM169.711 310.507H167.684V296.102H169.711V304.629L174.265 299.874H176.652L171.737 305.03L177.114 310.507H174.506L169.711 305.472V310.507ZM182.403 310.708C179.333 310.708 177.267 308.481 177.267 305.13C177.267 301.981 179.414 299.673 182.343 299.673C185.513 299.673 187.619 302.241 187.258 305.692H179.333C179.494 307.859 180.577 309.123 182.363 309.123C183.868 309.123 184.911 308.3 185.252 306.916H187.258C186.737 309.283 184.911 310.708 182.403 310.708ZM182.303 301.198C180.678 301.198 179.574 302.362 179.353 304.348H185.111C185.011 302.382 183.948 301.198 182.303 301.198ZM195.372 308.541V310.327C194.75 310.608 194.209 310.708 193.567 310.708C191.6 310.708 190.236 309.645 190.236 307.297V301.599H187.889V299.874H190.236V296.724H192.263V299.874H195.473V301.599H192.263V306.836C192.263 308.3 192.965 308.822 194.048 308.822C194.53 308.822 194.951 308.742 195.372 308.541ZM199.874 297.406C199.874 298.169 199.272 298.75 198.41 298.75C197.547 298.75 196.925 298.169 196.925 297.406C196.925 296.624 197.547 296.062 198.41 296.062C199.272 296.062 199.874 296.624 199.874 297.406ZM199.433 310.507H197.406V299.874H199.433V310.507ZM204.272 304.508V310.507H202.246V299.874H204.132V301.639C204.854 300.456 206.058 299.673 207.522 299.673C209.709 299.673 211.154 301.078 211.154 303.626V310.507H209.127V304.308C209.127 302.482 208.325 301.459 206.82 301.459C205.436 301.459 204.272 302.623 204.272 304.508ZM218.098 314.6C215.309 314.6 213.504 313.116 213.383 310.708H215.35C215.47 312.193 216.433 312.995 218.078 312.995C219.904 312.995 220.867 312.012 220.867 310.186V308.26C220.265 309.544 219.061 310.287 217.617 310.287C214.968 310.287 213.082 308.1 213.082 304.97C213.082 301.8 214.888 299.673 217.556 299.673C219.081 299.673 220.285 300.416 221.007 301.76V299.874H222.893V310.146C222.893 312.935 221.108 314.6 218.098 314.6ZM215.129 304.97C215.129 307.177 216.212 308.521 217.978 308.521C219.703 308.521 220.867 307.137 220.867 305.03C220.867 302.823 219.723 301.419 217.978 301.419C216.232 301.419 215.129 302.783 215.129 304.97ZM232.359 297.406C232.359 298.169 231.757 298.75 230.894 298.75C230.032 298.75 229.41 298.169 229.41 297.406C229.41 296.624 230.032 296.062 230.894 296.062C231.757 296.062 232.359 296.624 232.359 297.406ZM231.918 310.507H229.891V299.874H231.918V310.507ZM236.757 304.508V310.507H234.731V299.874H236.617V301.639C237.339 300.456 238.543 299.673 240.007 299.673C242.194 299.673 243.639 301.078 243.639 303.626V310.507H241.612V304.308C241.612 302.482 240.81 301.459 239.305 301.459C237.921 301.459 236.757 302.623 236.757 304.508ZM254.756 307.337C254.756 309.424 253.131 310.708 250.302 310.708C247.493 310.708 245.828 309.324 245.627 307.036H247.573C247.654 308.361 248.717 309.183 250.342 309.183C251.767 309.183 252.71 308.682 252.71 307.678C252.71 306.796 252.168 306.414 250.844 306.154L249.118 305.833C247.152 305.451 246.049 304.448 246.049 302.843C246.049 300.977 247.674 299.673 250.142 299.673C252.69 299.673 254.415 301.038 254.596 303.224H252.649C252.529 301.94 251.586 301.198 250.162 301.198C248.878 301.198 248.015 301.74 248.015 302.663C248.015 303.525 248.557 303.927 249.841 304.167L251.646 304.508C253.753 304.89 254.756 305.813 254.756 307.337ZM259.436 297.406C259.436 298.169 258.834 298.75 257.972 298.75C257.109 298.75 256.487 298.169 256.487 297.406C256.487 296.624 257.109 296.062 257.972 296.062C258.834 296.062 259.436 296.624 259.436 297.406ZM258.995 310.507H256.968V299.874H258.995V310.507ZM266.061 314.6C263.272 314.6 261.467 313.116 261.346 310.708H263.313C263.433 312.193 264.396 312.995 266.041 312.995C267.867 312.995 268.83 312.012 268.83 310.186V308.26C268.228 309.544 267.024 310.287 265.58 310.287C262.931 310.287 261.045 308.1 261.045 304.97C261.045 301.8 262.851 299.673 265.519 299.673C267.044 299.673 268.248 300.416 268.97 301.76V299.874H270.856V310.146C270.856 312.935 269.071 314.6 266.061 314.6ZM263.092 304.97C263.092 307.177 264.175 308.521 265.941 308.521C267.666 308.521 268.83 307.137 268.83 305.03C268.83 302.823 267.686 301.419 265.941 301.419C264.195 301.419 263.092 302.783 263.092 304.97ZM275.688 304.508V310.507H273.661V296.102H275.688V301.579C276.39 300.436 277.473 299.673 278.938 299.673C281.125 299.673 282.569 301.078 282.569 303.626V310.507H280.543V304.308C280.543 302.482 279.741 301.459 278.236 301.459C276.851 301.459 275.688 302.623 275.688 304.508ZM291.22 308.541V310.327C290.598 310.608 290.056 310.708 289.414 310.708C287.448 310.708 286.084 309.645 286.084 307.297V301.599H283.736V299.874H286.084V296.724H288.11V299.874H291.32V301.599H288.11V306.836C288.11 308.3 288.812 308.822 289.896 308.822C290.377 308.822 290.799 308.742 291.22 308.541ZM301.641 307.337C301.641 309.424 300.016 310.708 297.187 310.708C294.379 310.708 292.713 309.324 292.513 307.036H294.459C294.539 308.361 295.602 309.183 297.228 309.183C298.652 309.183 299.595 308.682 299.595 307.678C299.595 306.796 299.053 306.414 297.729 306.154L296.004 305.833C294.038 305.451 292.934 304.448 292.934 302.843C292.934 300.977 294.559 299.673 297.027 299.673C299.575 299.673 301.3 301.038 301.481 303.224H299.535C299.414 301.94 298.471 301.198 297.047 301.198C295.763 301.198 294.9 301.74 294.9 302.663C294.9 303.525 295.442 303.927 296.726 304.167L298.532 304.508C300.638 304.89 301.641 305.813 301.641 307.337ZM316.834 310.507L314.427 302.603L311.999 310.507H309.953L306.883 299.874H308.869L311.016 307.618L313.424 299.874H315.43L317.797 307.638L319.944 299.874H321.95L318.861 310.507H316.834ZM326.071 297.406C326.071 298.169 325.469 298.75 324.607 298.75C323.744 298.75 323.122 298.169 323.122 297.406C323.122 296.624 323.744 296.062 324.607 296.062C325.469 296.062 326.071 296.624 326.071 297.406ZM325.63 310.507H323.603V299.874H325.63V310.507ZM334.442 308.541V310.327C333.82 310.608 333.278 310.708 332.636 310.708C330.67 310.708 329.305 309.645 329.305 307.297V301.599H326.958V299.874H329.305V296.724H331.332V299.874H334.542V301.599H331.332V306.836C331.332 308.3 332.034 308.822 333.117 308.822C333.599 308.822 334.02 308.742 334.442 308.541ZM338.502 304.508V310.507H336.476V296.102H338.502V301.579C339.204 300.436 340.288 299.673 341.752 299.673C343.939 299.673 345.384 301.078 345.384 303.626V310.507H343.357V304.308C343.357 302.482 342.555 301.459 341.05 301.459C339.666 301.459 338.502 302.623 338.502 304.508ZM352.529 310.708C349.519 310.708 347.312 308.341 347.312 305.191C347.312 302.041 349.519 299.673 352.529 299.673C355.538 299.673 357.745 302.041 357.745 305.191C357.745 308.341 355.538 310.708 352.529 310.708ZM352.529 308.922C354.274 308.922 355.658 307.518 355.658 305.191C355.658 302.863 354.274 301.479 352.529 301.479C350.783 301.479 349.419 302.863 349.419 305.191C349.419 307.518 350.783 308.922 352.529 308.922ZM366.452 306.134V299.874H368.478V310.507H366.592V308.822C366.03 309.925 364.786 310.708 363.342 310.708C361.195 310.708 359.71 309.444 359.71 306.715V299.874H361.737V306.314C361.737 308.16 362.66 308.922 363.984 308.922C365.348 308.922 366.452 307.799 366.452 306.134ZM377.291 308.541V310.327C376.669 310.608 376.127 310.708 375.485 310.708C373.519 310.708 372.155 309.645 372.155 307.297V301.599H369.807V299.874H372.155V296.724H374.181V299.874H377.391V301.599H374.181V306.836C374.181 308.3 374.883 308.822 375.967 308.822C376.448 308.822 376.87 308.742 377.291 308.541ZM62.4142 337.191C62.4142 333.96 64.26 331.673 67.129 331.673C68.5535 331.673 69.7974 332.396 70.5397 333.7V328.102H72.5661V342.507H70.6801V340.601C69.9178 341.946 68.6337 342.708 67.129 342.708C64.26 342.708 62.4142 340.381 62.4142 337.191ZM64.5208 337.191C64.5208 339.558 65.7647 340.902 67.5303 340.902C69.2557 340.902 70.5397 339.498 70.5397 337.151C70.5397 334.763 69.2156 333.459 67.5303 333.459C65.7647 333.459 64.5208 334.783 64.5208 337.191ZM77.8506 329.406C77.8506 330.169 77.2487 330.75 76.386 330.75C75.5233 330.75 74.9014 330.169 74.9014 329.406C74.9014 328.624 75.5233 328.062 76.386 328.062C77.2487 328.062 77.8506 328.624 77.8506 329.406ZM77.4092 342.507H75.3829V331.874H77.4092V342.507ZM89.05 331.874L85.0575 342.507H82.8505L78.858 331.874H81.0449L83.9941 340.18L86.9835 331.874H89.05ZM92.9566 329.406C92.9566 330.169 92.3547 330.75 91.492 330.75C90.6293 330.75 90.0074 330.169 90.0074 329.406C90.0074 328.624 90.6293 328.062 91.492 328.062C92.3547 328.062 92.9566 328.624 92.9566 329.406ZM92.5152 342.507H90.4889V331.874H92.5152V342.507ZM97.3546 336.508V342.507H95.3283V331.874H97.2142V333.639C97.9365 332.456 99.1403 331.673 100.605 331.673C102.792 331.673 104.236 333.078 104.236 335.626V342.507H102.21V336.308C102.21 334.482 101.407 333.459 99.9026 333.459C98.5183 333.459 97.3546 334.623 97.3546 336.508ZM111.181 346.6C108.392 346.6 106.586 345.116 106.466 342.708H108.432C108.552 344.193 109.515 344.995 111.16 344.995C112.986 344.995 113.949 344.012 113.949 342.186V340.26C113.347 341.544 112.144 342.287 110.699 342.287C108.051 342.287 106.165 340.1 106.165 336.97C106.165 333.8 107.97 331.673 110.639 331.673C112.164 331.673 113.367 332.416 114.09 333.76V331.874H115.976V342.146C115.976 344.935 114.19 346.6 111.181 346.6ZM108.211 336.97C108.211 339.177 109.295 340.521 111.06 340.521C112.786 340.521 113.949 339.137 113.949 337.03C113.949 334.823 112.806 333.419 111.06 333.419C109.315 333.419 108.211 334.783 108.211 336.97ZM125.441 329.406C125.441 330.169 124.84 330.75 123.977 330.75C123.114 330.75 122.492 330.169 122.492 329.406C122.492 328.624 123.114 328.062 123.977 328.062C124.84 328.062 125.441 328.624 125.441 329.406ZM125 342.507H122.974V331.874H125V342.507ZM129.839 336.508V342.507H127.813V331.874H129.699V333.639C130.421 332.456 131.625 331.673 133.09 331.673C135.276 331.673 136.721 333.078 136.721 335.626V342.507H134.695V336.308C134.695 334.482 133.892 333.459 132.387 333.459C131.003 333.459 129.839 334.623 129.839 336.508ZM145.372 340.541V342.327C144.75 342.608 144.208 342.708 143.566 342.708C141.6 342.708 140.235 341.645 140.235 339.297V333.599H137.888V331.874H140.235V328.724H142.262V331.874H145.472V333.599H142.262V338.836C142.262 340.3 142.964 340.822 144.047 340.822C144.529 340.822 144.95 340.742 145.372 340.541ZM151.566 342.708C148.556 342.708 146.35 340.341 146.35 337.191C146.35 334.041 148.556 331.673 151.566 331.673C154.575 331.673 156.782 334.041 156.782 337.191C156.782 340.341 154.575 342.708 151.566 342.708ZM151.566 340.922C153.311 340.922 154.696 339.518 154.696 337.191C154.696 334.863 153.311 333.479 151.566 333.479C149.82 333.479 148.456 334.863 148.456 337.191C148.456 339.518 149.82 340.922 151.566 340.922ZM167.234 342.728C164.325 342.728 162.278 340.441 162.278 337.191C162.278 333.981 164.365 331.673 167.234 331.673C169.862 331.673 171.768 333.419 172.149 336.187H170.023C169.802 334.482 168.739 333.459 167.254 333.459C165.509 333.459 164.365 334.944 164.365 337.191C164.365 339.458 165.509 340.922 167.254 340.922C168.759 340.922 169.802 339.919 170.043 338.194H172.149C171.788 341.003 169.902 342.728 167.234 342.728ZM178.545 342.708C175.536 342.708 173.329 340.341 173.329 337.191C173.329 334.041 175.536 331.673 178.545 331.673C181.555 331.673 183.761 334.041 183.761 337.191C183.761 340.341 181.555 342.708 178.545 342.708ZM178.545 340.922C180.291 340.922 181.675 339.518 181.675 337.191C181.675 334.863 180.291 333.479 178.545 333.479C176.8 333.479 175.435 334.863 175.435 337.191C175.435 339.518 176.8 340.922 178.545 340.922ZM187.854 342.507H185.827V331.874H187.713V333.639C188.435 332.416 189.579 331.673 191.044 331.673C192.608 331.673 193.792 332.476 194.274 333.88C195.016 332.516 196.24 331.673 197.865 331.673C200.052 331.673 201.456 333.098 201.456 335.626V342.507H199.43V336.268C199.43 334.502 198.647 333.459 197.163 333.459C195.778 333.459 194.655 334.623 194.655 336.408V342.507H192.629V336.268C192.629 334.502 191.846 333.459 190.361 333.459C188.957 333.459 187.854 334.623 187.854 336.408V342.507ZM214.318 337.191C214.318 340.401 212.472 342.708 209.623 342.708C208.179 342.708 206.955 341.986 206.192 340.702V346.379H204.166V331.874H206.052V333.82C206.814 332.456 208.118 331.673 209.623 331.673C212.452 331.673 214.318 333.981 214.318 337.191ZM212.211 337.191C212.211 334.803 210.947 333.459 209.202 333.459C207.516 333.459 206.192 334.803 206.192 337.191C206.192 339.538 207.496 340.902 209.202 340.902C210.947 340.902 212.211 339.578 212.211 337.191ZM218.419 342.507H216.372V328.102H218.419V342.507ZM225.605 342.708C222.535 342.708 220.469 340.481 220.469 337.13C220.469 333.981 222.616 331.673 225.545 331.673C228.715 331.673 230.821 334.241 230.46 337.692H222.535C222.696 339.859 223.779 341.123 225.565 341.123C227.07 341.123 228.113 340.3 228.454 338.916H230.46C229.939 341.283 228.113 342.708 225.605 342.708ZM225.505 333.198C223.88 333.198 222.776 334.362 222.555 336.348H228.313C228.213 334.382 227.15 333.198 225.505 333.198ZM233.267 342.507H230.98L234.752 337.07L231.221 331.874H233.568L236.197 335.887L238.825 331.874H241.012L237.521 337.13L241.253 342.507H238.925L236.076 338.274L233.267 342.507ZM253.514 342.507V340.862C252.852 342.046 251.669 342.708 250.104 342.708C247.897 342.708 246.452 341.444 246.452 339.498C246.452 337.411 248.117 336.328 251.287 336.328C251.909 336.328 252.411 336.348 253.274 336.448V335.666C253.274 334.141 252.451 333.278 251.047 333.278C249.562 333.278 248.659 334.161 248.599 335.646H246.753C246.853 333.258 248.559 331.673 251.047 331.673C253.675 331.673 255.2 333.158 255.2 335.686V342.507H253.514ZM248.378 339.438C248.378 340.541 249.201 341.263 250.505 341.263C252.21 341.263 253.274 340.2 253.274 338.575V337.712C252.491 337.612 251.929 337.592 251.408 337.592C249.381 337.592 248.378 338.194 248.378 339.438ZM259.935 336.508V342.507H257.909V331.874H259.795V333.639C260.517 332.456 261.721 331.673 263.185 331.673C265.372 331.673 266.817 333.078 266.817 335.626V342.507H264.79V336.308C264.79 334.482 263.988 333.459 262.483 333.459C261.099 333.459 259.935 334.623 259.935 336.508ZM275.948 342.507V340.862C275.286 342.046 274.102 342.708 272.537 342.708C270.33 342.708 268.886 341.444 268.886 339.498C268.886 337.411 270.551 336.328 273.721 336.328C274.343 336.328 274.845 336.348 275.707 336.448V335.666C275.707 334.141 274.885 333.278 273.48 333.278C271.996 333.278 271.093 334.161 271.033 335.646H269.187C269.287 333.258 270.992 331.673 273.48 331.673C276.108 331.673 277.633 333.158 277.633 335.686V342.507H275.948ZM270.812 339.438C270.812 340.541 271.634 341.263 272.939 341.263C274.644 341.263 275.707 340.2 275.707 338.575V337.712C274.925 337.612 274.363 337.592 273.841 337.592C271.815 337.592 270.812 338.194 270.812 339.438ZM282.389 342.507H280.343V328.102H282.389V342.507ZM294.029 331.874L288.713 346.379H286.506L288.03 342.367L283.837 331.874H286.024L289.114 339.979L291.983 331.874H294.029ZM301.859 340.541V342.327C301.237 342.608 300.695 342.708 300.053 342.708C298.087 342.708 296.723 341.645 296.723 339.297V333.599H294.375V331.874H296.723V328.724H298.749V331.874H301.959V333.599H298.749V338.836C298.749 340.3 299.451 340.822 300.535 340.822C301.016 340.822 301.438 340.742 301.859 340.541ZM306.361 329.406C306.361 330.169 305.759 330.75 304.896 330.75C304.033 330.75 303.412 330.169 303.412 329.406C303.412 328.624 304.033 328.062 304.896 328.062C305.759 328.062 306.361 328.624 306.361 329.406ZM305.919 342.507H303.893V331.874H305.919V342.507ZM312.926 342.728C310.016 342.728 307.97 340.441 307.97 337.191C307.97 333.981 310.057 331.673 312.926 331.673C315.554 331.673 317.46 333.419 317.841 336.187H315.714C315.494 334.482 314.43 333.459 312.946 333.459C311.2 333.459 310.057 334.944 310.057 337.191C310.057 339.458 311.2 340.922 312.946 340.922C314.45 340.922 315.494 339.919 315.734 338.194H317.841C317.48 341.003 315.594 342.728 312.926 342.728ZM328.307 339.337C328.307 341.424 326.682 342.708 323.853 342.708C321.044 342.708 319.379 341.324 319.179 339.036H321.125C321.205 340.361 322.268 341.183 323.893 341.183C325.318 341.183 326.261 340.682 326.261 339.678C326.261 338.796 325.719 338.414 324.395 338.154L322.669 337.833C320.703 337.451 319.6 336.448 319.6 334.843C319.6 332.977 321.225 331.673 323.693 331.673C326.241 331.673 327.966 333.038 328.147 335.224H326.201C326.08 333.94 325.137 333.198 323.713 333.198C322.429 333.198 321.566 333.74 321.566 334.663C321.566 335.525 322.108 335.927 323.392 336.167L325.197 336.508C327.304 336.89 328.307 337.813 328.307 339.337ZM333.268 341.063C333.268 341.966 332.646 342.608 331.723 342.608C330.821 342.608 330.179 341.966 330.179 341.063C330.179 340.12 330.821 339.478 331.723 339.478C332.646 339.478 333.268 340.12 333.268 341.063ZM337.677 332.576H336.112L335.972 328.102H337.818L337.677 332.576ZM340.928 332.576H339.343L339.222 328.102H341.068L340.928 332.576ZM49.8347 369.231C49.8347 371.016 48.5106 372.3 46.725 372.3C44.9394 372.3 43.6152 371.016 43.6152 369.231C43.6152 367.385 44.9394 366.081 46.725 366.081C48.5106 366.081 49.8347 367.385 49.8347 369.231ZM65.1227 364.576H63.5578L63.4174 360.102H65.2631L65.1227 364.576ZM68.3729 364.576H66.7879L66.6676 360.102H68.5133L68.3729 364.576ZM80.8514 372.581V374.507H71.7228V360.102H80.711V362.028H73.9297V366.121H80.1091V368.047H73.9297V372.581H80.8514ZM86.2681 374.507H84.2418V365.599H81.8944V363.874H84.2418V363.091C84.2418 361.045 85.3452 359.922 87.3515 359.922C87.9534 359.922 88.4349 360.022 88.8362 360.182V361.828C88.5152 361.687 88.1541 361.647 87.7929 361.647C86.8299 361.647 86.2681 362.088 86.2681 363.112V363.874H89.2375V365.599H86.2681V374.507ZM94.3599 374.507H92.3336V365.599H89.9862V363.874H92.3336V363.091C92.3336 361.045 93.437 359.922 95.4433 359.922C96.0452 359.922 96.5267 360.022 96.928 360.182V361.828C96.607 361.687 96.2459 361.647 95.8847 361.647C94.9217 361.647 94.3599 362.088 94.3599 363.112V363.874H97.3293V365.599H94.3599V374.507ZM101.342 361.406C101.342 362.169 100.74 362.75 99.8777 362.75C99.015 362.75 98.3931 362.169 98.3931 361.406C98.3931 360.624 99.015 360.062 99.8777 360.062C100.74 360.062 101.342 360.624 101.342 361.406ZM100.901 374.507H98.8746V363.874H100.901V374.507ZM107.907 374.728C104.998 374.728 102.952 372.441 102.952 369.191C102.952 365.981 105.038 363.673 107.907 363.673C110.535 363.673 112.441 365.419 112.823 368.187H110.696C110.475 366.482 109.412 365.459 107.927 365.459C106.182 365.459 105.038 366.944 105.038 369.191C105.038 371.458 106.182 372.922 107.927 372.922C109.432 372.922 110.475 371.919 110.716 370.194H112.823C112.461 373.003 110.576 374.728 107.907 374.728ZM117.33 361.406C117.33 362.169 116.728 362.75 115.865 362.75C115.003 362.75 114.381 362.169 114.381 361.406C114.381 360.624 115.003 360.062 115.865 360.062C116.728 360.062 117.33 360.624 117.33 361.406ZM116.889 374.507H114.862V363.874H116.889V374.507ZM124.075 374.708C121.006 374.708 118.939 372.481 118.939 369.13C118.939 365.981 121.086 363.673 124.015 363.673C127.185 363.673 129.292 366.241 128.931 369.692H121.006C121.166 371.859 122.25 373.123 124.035 373.123C125.54 373.123 126.583 372.3 126.924 370.916H128.931C128.409 373.283 126.583 374.708 124.075 374.708ZM123.975 365.198C122.35 365.198 121.247 366.362 121.026 368.348H126.784C126.684 366.382 125.62 365.198 123.975 365.198ZM133.111 368.508V374.507H131.085V363.874H132.971V365.639C133.693 364.456 134.897 363.673 136.362 363.673C138.548 363.673 139.993 365.078 139.993 367.626V374.507H137.967V368.308C137.967 366.482 137.164 365.459 135.659 365.459C134.275 365.459 133.111 366.623 133.111 368.508ZM146.877 374.728C143.968 374.728 141.922 372.441 141.922 369.191C141.922 365.981 144.008 363.673 146.877 363.673C149.505 363.673 151.411 365.419 151.793 368.187H149.666C149.445 366.482 148.382 365.459 146.897 365.459C145.152 365.459 144.008 366.944 144.008 369.191C144.008 371.458 145.152 372.922 146.897 372.922C148.402 372.922 149.445 371.919 149.686 370.194H151.793C151.431 373.003 149.545 374.728 146.877 374.728ZM162.268 363.874L156.951 378.379H154.744L156.269 374.367L152.076 363.874H154.263L157.353 371.979L160.222 363.874H162.268ZM170.368 361.406C170.368 362.169 169.766 362.75 168.903 362.75C168.04 362.75 167.418 362.169 167.418 361.406C167.418 360.624 168.04 360.062 168.903 360.062C169.766 360.062 170.368 360.624 170.368 361.406ZM169.926 374.507H167.9V363.874H169.926V374.507ZM181.166 371.337C181.166 373.424 179.541 374.708 176.712 374.708C173.903 374.708 172.238 373.324 172.037 371.036H173.983C174.063 372.361 175.127 373.183 176.752 373.183C178.176 373.183 179.119 372.682 179.119 371.678C179.119 370.796 178.578 370.414 177.253 370.154L175.528 369.833C173.562 369.451 172.458 368.448 172.458 366.843C172.458 364.977 174.083 363.673 176.551 363.673C179.099 363.673 180.825 365.038 181.005 367.224H179.059C178.939 365.94 177.996 365.198 176.571 365.198C175.287 365.198 174.425 365.74 174.425 366.663C174.425 367.525 174.966 367.927 176.25 368.167L178.056 368.508C180.163 368.89 181.166 369.813 181.166 371.337ZM189.597 374.507H187.571V360.102H189.597V368.629L194.152 363.874H196.539L191.624 369.03L197.001 374.507H194.392L189.597 369.472V374.507ZM202.29 374.708C199.22 374.708 197.154 372.481 197.154 369.13C197.154 365.981 199.3 363.673 202.229 363.673C205.399 363.673 207.506 366.241 207.145 369.692H199.22C199.38 371.859 200.464 373.123 202.249 373.123C203.754 373.123 204.797 372.3 205.139 370.916H207.145C206.623 373.283 204.797 374.708 202.29 374.708ZM202.189 365.198C200.564 365.198 199.461 366.362 199.24 368.348H204.998C204.898 366.382 203.834 365.198 202.189 365.198ZM217.794 363.874L212.477 378.379H210.27L211.795 374.367L207.602 363.874H209.789L212.878 371.979L215.747 363.874H217.794ZM221.941 365.399C221.941 366.302 221.299 366.944 220.396 366.944C219.494 366.944 218.852 366.302 218.852 365.399C218.852 364.476 219.494 363.834 220.396 363.834C221.299 363.834 221.941 364.476 221.941 365.399ZM221.981 373.645C221.981 375.551 220.477 377.035 218.27 377.075V375.932C219.574 375.892 220.457 375.189 220.577 374.206C220.396 374.267 220.276 374.287 220.136 374.287C219.373 374.287 218.811 373.665 218.811 372.922C218.811 372.06 219.453 371.498 220.276 371.498C221.38 371.498 221.981 372.3 221.981 373.645ZM231.005 374.507H228.798V360.102H231.005V374.507ZM246.947 374.507L244.539 366.603L242.112 374.507H240.065L236.996 363.874H238.982L241.129 371.618L243.536 363.874H245.543L247.91 371.638L250.057 363.874H252.063L248.973 374.507H246.947ZM259.823 374.507V372.862C259.161 374.046 257.977 374.708 256.412 374.708C254.206 374.708 252.761 373.444 252.761 371.498C252.761 369.411 254.426 368.328 257.596 368.328C258.218 368.328 258.72 368.348 259.582 368.448V367.666C259.582 366.141 258.76 365.278 257.355 365.278C255.871 365.278 254.968 366.161 254.908 367.646H253.062C253.162 365.258 254.868 363.673 257.355 363.673C259.984 363.673 261.508 365.158 261.508 367.686V374.507H259.823ZM254.687 371.438C254.687 372.541 255.51 373.263 256.814 373.263C258.519 373.263 259.582 372.2 259.582 370.575V369.712C258.8 369.612 258.238 369.592 257.717 369.592C255.69 369.592 254.687 370.194 254.687 371.438ZM266.244 368.508V374.507H264.218V363.874H266.104V365.639C266.826 364.456 268.03 363.673 269.494 363.673C271.681 363.673 273.126 365.078 273.126 367.626V374.507H271.099V368.308C271.099 366.482 270.297 365.459 268.792 365.459C267.408 365.459 266.244 366.623 266.244 368.508ZM281.776 372.541V374.327C281.154 374.608 280.613 374.708 279.971 374.708C278.004 374.708 276.64 373.645 276.64 371.297V365.599H274.293V363.874H276.64V360.724H278.667V363.874H281.877V365.599H278.667V370.836C278.667 372.3 279.369 372.822 280.452 372.822C280.934 372.822 281.355 372.742 281.776 372.541ZM294.444 374.507V372.862C293.781 374.046 292.598 374.708 291.033 374.708C288.826 374.708 287.381 373.444 287.381 371.498C287.381 369.411 289.047 368.328 292.217 368.328C292.839 368.328 293.34 368.348 294.203 368.448V367.666C294.203 366.141 293.38 365.278 291.976 365.278C290.491 365.278 289.588 366.161 289.528 367.646H287.682C287.783 365.258 289.488 363.673 291.976 363.673C294.604 363.673 296.129 365.158 296.129 367.686V374.507H294.444ZM289.307 371.438C289.307 372.541 290.13 373.263 291.434 373.263C293.139 373.263 294.203 372.2 294.203 370.575V369.712C293.42 369.612 292.859 369.592 292.337 369.592C290.311 369.592 289.307 370.194 289.307 371.438ZM311.457 371.337C311.457 373.424 309.832 374.708 307.003 374.708C304.195 374.708 302.529 373.324 302.329 371.036H304.275C304.355 372.361 305.418 373.183 307.044 373.183C308.468 373.183 309.411 372.682 309.411 371.678C309.411 370.796 308.869 370.414 307.545 370.154L305.82 369.833C303.854 369.451 302.75 368.448 302.75 366.843C302.75 364.977 304.375 363.673 306.843 363.673C309.391 363.673 311.116 365.038 311.297 367.224H309.351C309.23 365.94 308.287 365.198 306.863 365.198C305.579 365.198 304.716 365.74 304.716 366.663C304.716 367.525 305.258 367.927 306.542 368.167L308.348 368.508C310.454 368.89 311.457 369.813 311.457 371.337ZM318.124 374.708C315.114 374.708 312.907 372.341 312.907 369.191C312.907 366.041 315.114 363.673 318.124 363.673C321.133 363.673 323.34 366.041 323.34 369.191C323.34 372.341 321.133 374.708 318.124 374.708ZM318.124 372.922C319.869 372.922 321.254 371.518 321.254 369.191C321.254 366.863 319.869 365.479 318.124 365.479C316.378 365.479 315.014 366.863 315.014 369.191C315.014 371.518 316.378 372.922 318.124 372.922ZM327.452 374.507H325.406V360.102H327.452V374.507ZM336.906 370.134V363.874H338.932V374.507H337.046V372.822C336.484 373.925 335.24 374.708 333.796 374.708C331.649 374.708 330.165 373.444 330.165 370.715V363.874H332.191V370.314C332.191 372.16 333.114 372.922 334.438 372.922C335.802 372.922 336.906 371.799 336.906 370.134ZM347.745 372.541V374.327C347.123 374.608 346.581 374.708 345.939 374.708C343.973 374.708 342.609 373.645 342.609 371.297V365.599H340.262V363.874H342.609V360.724H344.635V363.874H347.845V365.599H344.635V370.836C344.635 372.3 345.338 372.822 346.421 372.822C346.902 372.822 347.324 372.742 347.745 372.541ZM352.247 361.406C352.247 362.169 351.645 362.75 350.782 362.75C349.92 362.75 349.298 362.169 349.298 361.406C349.298 360.624 349.92 360.062 350.782 360.062C351.645 360.062 352.247 360.624 352.247 361.406ZM351.806 374.507H349.779V363.874H351.806V374.507ZM359.073 374.708C356.063 374.708 353.856 372.341 353.856 369.191C353.856 366.041 356.063 363.673 359.073 363.673C362.082 363.673 364.289 366.041 364.289 369.191C364.289 372.341 362.082 374.708 359.073 374.708ZM359.073 372.922C360.818 372.922 362.202 371.518 362.202 369.191C362.202 366.863 360.818 365.479 359.073 365.479C357.327 365.479 355.963 366.863 355.963 369.191C355.963 371.518 357.327 372.922 359.073 372.922ZM368.381 368.508V374.507H366.355V363.874H368.241V365.639C368.963 364.456 370.167 363.673 371.631 363.673C373.818 363.673 375.263 365.078 375.263 367.626V374.507H373.236V368.308C373.236 366.482 372.434 365.459 370.929 365.459C369.545 365.459 368.381 366.623 368.381 368.508ZM69.1754 404.541V406.327C68.5535 406.608 68.0118 406.708 67.3698 406.708C65.4036 406.708 64.0393 405.645 64.0393 403.297V397.599H61.6919V395.874H64.0393V392.724H66.0657V395.874H69.2757V397.599H66.0657V402.836C66.0657 404.3 66.7679 404.822 67.8513 404.822C68.3328 404.822 68.7541 404.742 69.1754 404.541ZM73.236 400.508V406.507H71.2096V392.102H73.236V397.579C73.9382 396.436 75.0216 395.673 76.4862 395.673C78.673 395.673 80.1176 397.078 80.1176 399.626V406.507H78.0912V400.308C78.0912 398.482 77.2887 397.459 75.784 397.459C74.3996 397.459 73.236 398.623 73.236 400.508ZM89.2487 406.507V404.862C88.5867 406.046 87.4029 406.708 85.838 406.708C83.6311 406.708 82.1866 405.444 82.1866 403.498C82.1866 401.411 83.8518 400.328 87.0217 400.328C87.6437 400.328 88.1453 400.348 89.008 400.448V399.666C89.008 398.141 88.1854 397.278 86.781 397.278C85.2963 397.278 84.3935 398.161 84.3333 399.646H82.4875C82.5878 397.258 84.2932 395.673 86.781 395.673C89.4092 395.673 90.934 397.158 90.934 399.686V406.507H89.2487ZM84.1126 403.438C84.1126 404.541 84.9352 405.263 86.2393 405.263C87.9446 405.263 89.008 404.2 89.008 402.575V401.712C88.2255 401.612 87.6638 401.592 87.1421 401.592C85.1158 401.592 84.1126 402.194 84.1126 403.438ZM99.5442 404.541V406.327C98.9222 406.608 98.3805 406.708 97.7385 406.708C95.7723 406.708 94.4081 405.645 94.4081 403.297V397.599H92.0607V395.874H94.4081V392.724H96.4344V395.874H99.6445V397.599H96.4344V402.836C96.4344 404.3 97.1366 404.822 98.22 404.822C98.7015 404.822 99.1229 404.742 99.5442 404.541ZM114.198 403.337C114.198 405.424 112.573 406.708 109.744 406.708C106.935 406.708 105.27 405.324 105.069 403.036H107.015C107.095 404.361 108.159 405.183 109.784 405.183C111.208 405.183 112.151 404.682 112.151 403.678C112.151 402.796 111.61 402.414 110.285 402.154L108.56 401.833C106.594 401.451 105.49 400.448 105.49 398.843C105.49 396.977 107.115 395.673 109.583 395.673C112.131 395.673 113.857 397.038 114.037 399.224H112.091C111.971 397.94 111.028 397.198 109.603 397.198C108.319 397.198 107.457 397.74 107.457 398.663C107.457 399.525 107.998 399.927 109.282 400.167L111.088 400.508C113.195 400.89 114.198 401.813 114.198 403.337ZM122.85 406.507V404.862C122.188 406.046 121.004 406.708 119.44 406.708C117.233 406.708 115.788 405.444 115.788 403.498C115.788 401.411 117.453 400.328 120.623 400.328C121.245 400.328 121.747 400.348 122.61 400.448V399.666C122.61 398.141 121.787 397.278 120.383 397.278C118.898 397.278 117.995 398.161 117.935 399.646H116.089C116.189 397.258 117.895 395.673 120.383 395.673C123.011 395.673 124.536 397.158 124.536 399.686V406.507H122.85ZM117.714 403.438C117.714 404.541 118.537 405.263 119.841 405.263C121.546 405.263 122.61 404.2 122.61 402.575V401.712C121.827 401.612 121.265 401.592 120.744 401.592C118.717 401.592 117.714 402.194 117.714 403.438ZM135.74 395.874L131.747 406.507H129.54L125.548 395.874H127.734L130.684 404.18L133.673 395.874H135.74ZM141.219 406.708C138.149 406.708 136.083 404.481 136.083 401.13C136.083 397.981 138.23 395.673 141.159 395.673C144.329 395.673 146.435 398.241 146.074 401.692H138.149C138.31 403.859 139.393 405.123 141.179 405.123C142.684 405.123 143.727 404.3 144.068 402.916H146.074C145.553 405.283 143.727 406.708 141.219 406.708ZM141.119 397.198C139.494 397.198 138.39 398.362 138.169 400.348H143.928C143.827 398.382 142.764 397.198 141.119 397.198ZM156.655 403.337C156.655 405.424 155.03 406.708 152.201 406.708C149.392 406.708 147.727 405.324 147.526 403.036H149.473C149.553 404.361 150.616 405.183 152.241 405.183C153.666 405.183 154.609 404.682 154.609 403.678C154.609 402.796 154.067 402.414 152.743 402.154L151.017 401.833C149.051 401.451 147.948 400.448 147.948 398.843C147.948 396.977 149.573 395.673 152.041 395.673C154.589 395.673 156.314 397.038 156.495 399.224H154.549C154.428 397.94 153.485 397.198 152.061 397.198C150.777 397.198 149.914 397.74 149.914 398.663C149.914 399.525 150.456 399.927 151.74 400.167L153.545 400.508C155.652 400.89 156.655 401.813 156.655 403.337ZM169.059 404.541V406.327C168.437 406.608 167.896 406.708 167.254 406.708C165.287 406.708 163.923 405.645 163.923 403.297V397.599H161.576V395.874H163.923V392.724H165.949V395.874H169.16V397.599H165.949V402.836C165.949 404.3 166.652 404.822 167.735 404.822C168.217 404.822 168.638 404.742 169.059 404.541ZM173.561 393.406C173.561 394.169 172.959 394.75 172.097 394.75C171.234 394.75 170.612 394.169 170.612 393.406C170.612 392.624 171.234 392.062 172.097 392.062C172.959 392.062 173.561 392.624 173.561 393.406ZM173.12 406.507H171.093V395.874H173.12V406.507ZM177.959 406.507H175.933V395.874H177.819V397.639C178.541 396.416 179.685 395.673 181.149 395.673C182.714 395.673 183.898 396.476 184.379 397.88C185.122 396.516 186.346 395.673 187.971 395.673C190.157 395.673 191.562 397.098 191.562 399.626V406.507H189.536V400.268C189.536 398.502 188.753 397.459 187.268 397.459C185.884 397.459 184.761 398.623 184.761 400.408V406.507H182.734V400.268C182.734 398.502 181.952 397.459 180.467 397.459C179.063 397.459 177.959 398.623 177.959 400.408V406.507ZM198.645 406.708C195.576 406.708 193.509 404.481 193.509 401.13C193.509 397.981 195.656 395.673 198.585 395.673C201.755 395.673 203.862 398.241 203.501 401.692H195.576C195.736 403.859 196.82 405.123 198.605 405.123C200.11 405.123 201.153 404.3 201.494 402.916H203.501C202.979 405.283 201.153 406.708 198.645 406.708ZM198.545 397.198C196.92 397.198 195.816 398.362 195.596 400.348H201.354C201.254 398.382 200.19 397.198 198.545 397.198ZM216.288 406.507V404.862C215.626 406.046 214.442 406.708 212.877 406.708C210.67 406.708 209.226 405.444 209.226 403.498C209.226 401.411 210.891 400.328 214.061 400.328C214.683 400.328 215.185 400.348 216.047 400.448V399.666C216.047 398.141 215.225 397.278 213.82 397.278C212.336 397.278 211.433 398.161 211.373 399.646H209.527C209.627 397.258 211.333 395.673 213.82 395.673C216.449 395.673 217.973 397.158 217.973 399.686V406.507H216.288ZM211.152 403.438C211.152 404.541 211.975 405.263 213.279 405.263C214.984 405.263 216.047 404.2 216.047 402.575V401.712C215.265 401.612 214.703 401.592 214.181 401.592C212.155 401.592 211.152 402.194 211.152 403.438ZM222.709 400.508V406.507H220.683V395.874H222.569V397.639C223.291 396.456 224.495 395.673 225.959 395.673C228.146 395.673 229.591 397.078 229.591 399.626V406.507H227.564V400.308C227.564 398.482 226.762 397.459 225.257 397.459C223.873 397.459 222.709 398.623 222.709 400.508ZM231.519 401.191C231.519 397.96 233.365 395.673 236.234 395.673C237.658 395.673 238.902 396.396 239.645 397.7V392.102H241.671V406.507H239.785V404.601C239.023 405.946 237.739 406.708 236.234 406.708C233.365 406.708 231.519 404.381 231.519 401.191ZM233.626 401.191C233.626 403.558 234.87 404.902 236.635 404.902C238.361 404.902 239.645 403.498 239.645 401.151C239.645 398.763 238.321 397.459 236.635 397.459C234.87 397.459 233.626 398.783 233.626 401.191ZM253.054 406.708C249.985 406.708 247.918 404.481 247.918 401.13C247.918 397.981 250.065 395.673 252.994 395.673C256.164 395.673 258.271 398.241 257.91 401.692H249.985C250.145 403.859 251.229 405.123 253.014 405.123C254.519 405.123 255.562 404.3 255.903 402.916H257.91C257.388 405.283 255.562 406.708 253.054 406.708ZM252.954 397.198C251.329 397.198 250.226 398.362 250.005 400.348H255.763C255.663 398.382 254.599 397.198 252.954 397.198ZM263.014 406.507H260.988V397.599H258.641V395.874H260.988V395.091C260.988 393.045 262.091 391.922 264.098 391.922C264.7 391.922 265.181 392.022 265.582 392.182V393.828C265.261 393.687 264.9 393.647 264.539 393.647C263.576 393.647 263.014 394.088 263.014 395.112V395.874H265.984V397.599H263.014V406.507ZM271.106 406.507H269.08V397.599H266.732V395.874H269.08V395.091C269.08 393.045 270.183 391.922 272.189 391.922C272.791 391.922 273.273 392.022 273.674 392.182V393.828C273.353 393.687 272.992 393.647 272.631 393.647C271.668 393.647 271.106 394.088 271.106 395.112V395.874H274.075V397.599H271.106V406.507ZM279.781 406.708C276.771 406.708 274.564 404.341 274.564 401.191C274.564 398.041 276.771 395.673 279.781 395.673C282.79 395.673 284.997 398.041 284.997 401.191C284.997 404.341 282.79 406.708 279.781 406.708ZM279.781 404.922C281.526 404.922 282.911 403.518 282.911 401.191C282.911 398.863 281.526 397.479 279.781 397.479C278.035 397.479 276.671 398.863 276.671 401.191C276.671 403.518 278.035 404.922 279.781 404.922ZM289.089 401.07V406.507H287.063V395.874H288.949V398.121C289.691 396.656 291.296 395.734 293.042 395.734V397.84C290.754 397.72 289.089 398.723 289.089 401.07ZM301.291 404.541V406.327C300.669 406.608 300.127 406.708 299.485 406.708C297.519 406.708 296.155 405.645 296.155 403.297V397.599H293.807V395.874H296.155V392.724H298.181V395.874H301.391V397.599H298.181V402.836C298.181 404.3 298.883 404.822 299.967 404.822C300.448 404.822 300.869 404.742 301.291 404.541ZM306.269 405.063C306.269 405.966 305.647 406.608 304.725 406.608C303.822 406.608 303.18 405.966 303.18 405.063C303.18 404.12 303.822 403.478 304.725 403.478C305.647 403.478 306.269 404.12 306.269 405.063ZM310.679 396.576H309.114L308.973 392.102H310.819L310.679 396.576ZM313.929 396.576H312.344L312.223 392.102H314.069L313.929 396.576Z" fill="#B4CCFF"/>
<rect x="96.8818" y="0.791959" width="241.812" height="59.6609" rx="16.1032" fill="#16181C" stroke="#2563EB" stroke-width="1.58392"/>
<path d="M204.5 33.5406C204.5 36.5099 202.132 38.456 198.381 38.456C194.629 38.456 192.221 36.4698 191.96 33.2798H195.792C195.833 34.644 196.735 35.5067 198.3 35.5067C199.604 35.5067 200.467 35.0052 200.467 34.1023C200.467 33.4804 199.845 33.0189 199.003 32.8584L196.374 32.3569C194.067 31.9155 192.542 30.5713 192.542 28.2439C192.542 25.5555 194.91 23.6696 198.14 23.6696C201.571 23.6696 204.038 25.6358 204.259 28.7455H200.427C200.327 27.4414 199.444 26.5988 198.18 26.5988C197.056 26.5988 196.374 27.2007 196.374 27.9831C196.374 28.6251 197.016 29.0063 197.779 29.1468L200.567 29.6885C203.136 30.1901 204.5 31.454 204.5 33.5406ZM215.441 38.2554L214.558 35.587H209.502L208.6 38.2554H204.768L210.104 23.8502H214.257L219.534 38.2554H215.441ZM212.07 28.0233L210.526 32.5976H213.575L212.07 28.0233ZM226.761 32.8384V38.2554H222.969V32.8384L217.933 23.8502H222.026L224.995 29.3675L228.025 23.8502H231.837L226.761 32.8384ZM244.156 33.5406C244.156 36.5099 241.788 38.456 238.036 38.456C234.285 38.456 231.877 36.4698 231.616 33.2798H235.448C235.488 34.644 236.391 35.5067 237.956 35.5067C239.26 35.5067 240.123 35.0052 240.123 34.1023C240.123 33.4804 239.501 33.0189 238.658 32.8584L236.03 32.3569C233.723 31.9155 232.198 30.5713 232.198 28.2439C232.198 25.5555 234.565 23.6696 237.796 23.6696C241.226 23.6696 243.694 25.6358 243.915 28.7455H240.083C239.982 27.4414 239.1 26.5988 237.836 26.5988C236.712 26.5988 236.03 27.2007 236.03 27.9831C236.03 28.6251 236.672 29.0063 237.434 29.1468L240.223 29.6885C242.791 30.1901 244.156 31.454 244.156 33.5406Z" fill="#2563EB"/>
</svg>
