<svg width="933" height="102" viewBox="0 0 933 102" fill="none" xmlns="http://www.w3.org/2000/svg">
<rect y="13" width="466.5" height="76.7781" fill="#2563EB"/>
<rect x="466.5" y="13" width="466.5" height="76.7781" fill="#111827"/>
<path d="M169.193 60H157.409V42.768H161.945V55.896H169.193V60ZM176.124 60H171.588V42.768H176.124V60ZM187.431 60.36C182.415 60.36 178.479 56.664 178.479 51.288C178.479 46.2 182.223 42.408 187.287 42.408C191.607 42.408 194.799 44.904 195.999 48.768H190.623C190.191 47.448 188.919 46.464 187.167 46.464C184.935 46.464 183.135 48.024 183.135 51.408C183.135 54.288 184.551 56.52 187.671 56.52C189.639 56.52 190.863 55.416 191.367 53.976H187.215V50.4H196.215C196.575 56.088 193.143 60.36 187.431 60.36ZM203.124 60H198.588V42.768H203.124V49.176H209.484V42.768H214.02V60H209.484V53.112H203.124V60ZM225.881 60H221.345V46.872H216.065V42.768H231.161V46.872H225.881V60ZM246.021 60L242.325 50.064V60H238.221V42.768H243.573L247.917 54.456L252.237 42.768H257.589V60H253.485V49.944L249.765 60H246.021ZM268.827 60.36C263.859 60.36 259.947 56.592 259.947 51.36C259.947 46.128 263.859 42.408 268.827 42.408C273.819 42.408 277.731 46.128 277.731 51.36C277.731 56.592 273.819 60.36 268.827 60.36ZM268.827 56.304C271.539 56.304 273.051 54.072 273.051 51.36C273.051 48.648 271.539 46.464 268.827 46.464C266.115 46.464 264.603 48.648 264.603 51.36C264.603 54.072 266.115 56.304 268.827 56.304ZM286.8 60H280.08V42.768H286.8C292.248 42.768 295.68 46.272 295.68 51.288C295.68 56.304 292.128 60 286.8 60ZM284.616 46.68V56.088H286.536C289.536 56.088 291.024 54.528 291.024 51.288C291.024 48.24 289.488 46.68 286.536 46.68H284.616ZM310.226 56.064V60H298.034V42.768H310.058V46.704H302.57V49.176H309.362V53.112H302.57V56.064H310.226Z" fill="white"/>
<path d="M466.088 50.6023L472.214 56.9836C472.406 55.5797 472.533 54.1758 472.533 52.8358H482.552C482.552 56.3455 481.276 60.6848 479.361 64.386L490.529 76H477L473.171 72.1074C469.725 75.0428 465.897 76.5743 461.685 76.5743C451.858 76.5743 445.54 70.9587 445.54 62.1525C445.54 57.6856 448.156 53.5377 452.751 50.6661C451.602 48.6879 450.964 46.5182 450.964 44.2848C450.964 37.2653 457.027 32.2241 465.386 32.2241C473.682 32.2241 479.042 37.0739 479.042 44.54H468.832C468.577 42.1789 467.428 40.9665 465.386 40.9665C463.535 40.9665 462.259 42.3066 462.259 44.3486C462.259 46.1992 463.408 47.7945 466.088 50.6023ZM456.005 61.5144C456.005 65.3432 458.43 67.5766 462.578 67.5766C464.365 67.5766 465.96 67.0661 467.364 66.1727L458.494 57.1113C456.899 58.1323 456.005 59.6638 456.005 61.5144Z" fill="white"/>
<path d="M634.416 60H627.696V42.768H634.416C639.864 42.768 643.296 46.272 643.296 51.288C643.296 56.304 639.744 60 634.416 60ZM632.232 46.68V56.088H634.152C637.152 56.088 638.64 54.528 638.64 51.288C638.64 48.24 637.104 46.68 634.152 46.68H632.232ZM655.92 60L654.864 56.808H648.816L647.736 60H643.152L649.536 42.768H654.504L660.816 60H655.92ZM651.888 47.76L650.04 53.232H653.688L651.888 47.76ZM667.177 60H662.641V42.768H669.697C674.353 42.768 677.017 44.856 677.017 48.528C677.017 50.736 675.697 52.56 673.369 53.544L677.593 60H672.193L668.665 54.264H667.177V60ZM667.177 46.512V50.52H669.505C671.521 50.52 672.457 49.896 672.457 48.528C672.457 47.16 671.521 46.512 669.505 46.512H667.177ZM684.169 60H679.633V42.768H684.169V50.016L689.545 42.768H694.705L688.633 50.856L694.873 60H689.353L684.169 52.224V60ZM709.511 60L705.815 50.064V60H701.711V42.768H707.063L711.407 54.456L715.727 42.768H721.079V60H716.975V49.944L713.255 60H709.511ZM732.318 60.36C727.35 60.36 723.438 56.592 723.438 51.36C723.438 46.128 727.35 42.408 732.318 42.408C737.31 42.408 741.222 46.128 741.222 51.36C741.222 56.592 737.31 60.36 732.318 60.36ZM732.318 56.304C735.03 56.304 736.542 54.072 736.542 51.36C736.542 48.648 735.03 46.464 732.318 46.464C729.606 46.464 728.094 48.648 728.094 51.36C728.094 54.072 729.606 56.304 732.318 56.304ZM750.291 60H743.571V42.768H750.291C755.739 42.768 759.171 46.272 759.171 51.288C759.171 56.304 755.619 60 750.291 60ZM748.107 46.68V56.088H750.027C753.027 56.088 754.515 54.528 754.515 51.288C754.515 48.24 752.979 46.68 750.027 46.68H748.107ZM773.716 56.064V60H761.524V42.768H773.548V46.704H766.06V49.176H772.852V53.112H766.06V56.064H773.716Z" fill="white"/>
</svg>
