<svg width="513" height="179" viewBox="0 0 513 179" fill="none" xmlns="http://www.w3.org/2000/svg">
<path d="M38.1182 122H21.2913L33.0816 55.0356L8.12731 55.0356L10.7601 39.8112L77.4956 39.8112L74.8628 55.0356L49.9085 55.0356L38.1182 122ZM90.1194 122H73.2924L87.83 39.8112H104.657L98.8191 72.3204L133.16 72.3204L138.998 39.8112L155.825 39.8112L141.287 122L124.46 122L130.527 87.0869H96.3007L90.1194 122ZM212.05 122L209.189 104.028H178.511L169.239 122H151.267L195.681 39.8112L214.111 39.8112L229.106 122L212.05 122ZM202.092 58.3552L185.379 90.6355H207.128L202.092 58.3552ZM290.7 122L264.944 63.8497L254.642 122H238.96L253.497 39.8112H271.583L296.08 95.2142L305.924 39.8112H321.721L307.183 122H290.7ZM340.968 122H324.141L338.678 39.8112H355.505L348.981 75.9834L383.436 39.8112H403.468L364.319 81.02L388.015 122H369.242L347.607 84.3397L340.968 122ZM461.913 96.8168C461.913 112.842 449.436 123.145 430.091 123.145C409.83 123.145 397.582 112.385 397.467 94.6419L414.065 94.6419C414.18 103.799 420.933 109.637 431.007 109.637C439.592 109.637 444.972 105.631 444.972 99.3351C444.972 94.2985 442.339 91.7801 434.555 89.6052L422.879 86.1712C410.631 82.6226 404.106 74.9532 404.106 64.3076C404.106 48.8542 416.469 38.7809 435.471 38.7809C453.328 38.7809 465.118 49.77 465.233 66.5969H448.635C448.635 58.1262 442.797 52.0594 434.555 52.0594C425.97 52.0594 420.933 56.0658 420.933 62.705C420.933 67.6272 424.253 70.7178 430.663 72.4349L442.911 75.9834C455.274 79.5319 461.913 86.7435 461.913 96.8168ZM488.095 97.5036L476.533 97.5036L482.943 39.8112H502.289L488.095 97.5036ZM490.613 110.439C490.613 116.849 484.889 122.572 478.136 122.572C472.641 122.572 469.093 119.138 469.093 114.216C469.093 107.577 474.931 101.968 481.684 101.968C487.179 101.968 490.613 105.516 490.613 110.439Z" fill="#101C35"/>
<path d="M175.074 155.436H160.302L168.132 110.88H150.939L153.28 97.4813L202.356 97.4813L200.096 110.88H182.903L175.074 155.436ZM213.872 155.436H199.1L209.351 97.4813H224.123L220.248 119.194H240.992L244.867 97.4813H259.638L249.387 155.436H234.616L238.732 132.109H217.988L213.872 155.436ZM298.113 155.436L296.579 144.458L276.804 144.458L271.315 155.436H255.575L286.651 97.4813H302.794L313.045 155.436H298.113ZM292.221 113.786L282.696 132.754H294.884L292.221 113.786ZM355.069 155.436L339.41 118.629L332.953 155.436H319.15L329.401 97.4813H345.221L359.67 131.624L365.723 97.4813L379.526 97.4813L369.275 155.436L355.069 155.436ZM395.404 155.436H380.633L390.884 97.4813H405.655L401.297 121.858L422.444 97.4813H439.96L414.615 126.297L428.74 155.436H412.355L400.005 129.203L395.404 155.436ZM482.158 136.871C482.158 148.736 473.118 156.243 458.67 156.243C443.657 156.243 434.617 148.413 434.536 135.418H449.065C449.065 140.826 453.343 144.458 459.558 144.458C464.482 144.458 467.307 142.521 467.307 139.212C467.307 136.467 465.854 135.176 461.091 133.804L452.051 131.14C443.495 128.638 438.814 122.988 438.814 115.4C438.814 104.181 448.015 96.7549 461.979 96.7549C475.298 96.7549 484.015 104.746 484.096 117.095H469.567C469.567 112.01 466.096 108.378 461.091 108.378C456.329 108.378 453.504 110.477 453.504 113.947C453.504 116.45 455.199 118.145 458.912 119.194L468.437 121.938C477.315 124.521 482.158 129.768 482.158 136.871ZM501.494 136.79H491.405L494.956 97.4813H512.068L501.494 136.79ZM503.512 145.992C503.512 151.238 498.831 155.839 493.261 155.839C488.822 155.839 485.835 153.095 485.835 149.059C485.835 143.651 490.598 139.131 496.167 139.131C500.687 139.131 503.512 142.037 503.512 145.992Z" fill="#2563EB"/>
</svg>
