<svg width="554" height="125" viewBox="0 0 554 125" fill="none" xmlns="http://www.w3.org/2000/svg">
<path d="M26.8661 85H15.1346L23.3546 38.3135L5.95693 38.3135L7.79246 27.6994L54.3193 27.6994L52.4838 38.3135H35.0861L26.8661 85ZM81.1565 63.4524L77.3258 85H65.5944L69.4251 63.4524L56.1773 27.6994H67.9087L76.5278 52.5988L94.0851 27.6994L107.253 27.6994L81.1565 63.4524ZM127.386 66.2456H118.607L115.415 85H103.684L113.819 27.6994L134.169 27.6994C145.582 27.6994 153.083 34.3233 153.083 44.299C153.083 57.5468 142.948 66.2456 127.386 66.2456ZM132.254 37.8347H123.715L120.443 56.1103H129.062C136.564 56.1103 141.272 51.9604 141.272 45.5759C141.272 40.7875 137.841 37.8347 132.254 37.8347ZM180.197 86.1971C165.991 86.1971 155.856 75.7425 155.856 61.2976C155.856 41.5058 170.221 26.5023 189.135 26.5023C203.261 26.5023 213.476 36.877 213.476 51.4017C213.476 71.1138 199.111 86.1971 180.197 86.1971ZM181.474 75.8223C192.806 75.8223 201.425 65.3677 201.425 51.6411C201.425 42.8625 195.998 36.877 187.938 36.877C176.526 36.877 167.907 47.2518 167.907 61.0582C167.907 69.9167 173.334 75.8223 181.474 75.8223ZM243.345 86.1971C228.501 86.1971 218.127 75.9819 218.127 61.2976C218.127 41.5856 232.571 26.5023 251.406 26.5023C265.132 26.5023 274.629 34.8021 275.587 47.4912H263.616C262.898 40.8673 258.029 36.877 250.608 36.877C238.876 36.877 230.177 47.2518 230.177 61.0582C230.177 70.1561 236.003 76.381 244.542 76.381C252.523 76.381 259.147 71.5926 261.142 63.612H245.181L246.777 54.1949H275.268C272.474 74.1464 260.743 86.1971 243.345 86.1971ZM290.146 85H278.415L288.55 27.6994L310.098 27.6994C321.59 27.6994 329.251 34.0838 329.251 43.7404C329.251 53.3171 323.505 60.2602 312.971 63.1332L324.144 85H311.215L301.08 64.6495H293.658L290.146 85ZM298.526 37.5155L295.414 54.7536H304.831C312.891 54.7536 317.44 51.2421 317.44 45.0172C317.44 40.2289 314.088 37.5155 307.783 37.5155H298.526ZM368.842 85L366.847 72.4705H345.459L338.994 85H326.465L357.43 27.6994L370.278 27.6994L380.733 85H368.842ZM361.899 40.6279L350.247 63.1332H365.41L361.899 40.6279ZM411.305 66.2456H402.526L399.334 85L387.602 85L397.738 27.6994L418.088 27.6994C429.501 27.6994 437.002 34.3233 437.002 44.299C437.002 57.5468 426.867 66.2456 411.305 66.2456ZM416.173 37.8347H407.634L404.362 56.1103H412.981C420.482 56.1103 425.191 51.9604 425.191 45.5759C425.191 40.7875 421.759 37.8347 416.173 37.8347ZM450.07 85H438.338L448.474 27.6994L460.205 27.6994L456.135 50.3642L480.077 50.3642L484.147 27.6994H495.878L485.743 85H474.012L478.241 60.6592L454.379 60.6592L450.07 85ZM527.337 63.4524L523.506 85H511.775L515.605 63.4524L502.358 27.6994H514.089L522.708 52.5988L540.265 27.6994L553.433 27.6994L527.337 63.4524Z" fill="#101C35"/>
<path d="M96.651 108.41H86.3529L91.8115 77.3464H79.8251L81.457 68.005H115.672L114.096 77.3464H102.11L96.651 108.41ZM136.137 93.2157L133.436 108.41H123.138L125.839 93.2157L116.61 68.005H126.908L132.029 83.7617L142.89 68.005H154.426L136.137 93.2157ZM168.766 95.9731H163.758L161.619 108.41H151.321L158.468 68.005H173.718C182.328 68.005 187.955 72.7883 187.955 80.1039C187.955 89.7267 180.415 95.9731 168.766 95.9731ZM172.086 76.8963H167.19L165.333 87.0818H170.229C174.787 87.0818 177.545 84.8872 177.545 81.3419C177.545 78.5282 175.519 76.8963 172.086 76.8963ZM206.982 109.254C196.853 109.254 189.594 101.882 189.594 91.6963C189.594 77.6841 199.779 67.1609 213.285 67.1609C223.414 67.1609 230.73 74.5327 230.73 84.7183C230.73 98.7305 220.544 109.254 206.982 109.254ZM208.051 100.137C214.973 100.137 220.15 93.6096 220.15 84.9997C220.15 79.7662 216.999 76.2772 212.272 76.2772C205.35 76.2772 200.173 82.7487 200.173 91.4712C200.173 96.7047 203.324 100.137 208.051 100.137ZM251.565 109.254C240.986 109.254 233.558 102.051 233.558 91.6963C233.558 77.7966 243.743 67.1609 257.08 67.1609C266.928 67.1609 273.794 72.9571 274.638 82.0172H264.114C263.495 78.3594 260.682 76.2772 256.405 76.2772C249.314 76.2772 244.137 82.7487 244.137 91.4712C244.137 96.9298 247.57 100.7 252.578 100.7C257.136 100.7 261.019 98.2804 262.145 94.1724H252.747L254.154 85.9564H274.581C272.612 100.588 264.283 109.254 251.565 109.254ZM286.532 108.41H276.234L283.381 68.005H299.419C308.141 68.005 313.825 72.6194 313.825 79.6537C313.825 86.294 310.055 91.021 302.739 93.4971L310.449 108.41H299.081L292.328 94.8476H288.896L286.532 108.41ZM292.159 76.6149L290.415 86.2377H295.705C300.769 86.2377 303.471 84.3807 303.471 80.8917C303.471 78.0217 301.501 76.6149 297.449 76.6149H292.159ZM341.307 108.41L340.238 100.756H326.451L322.624 108.41L311.65 108.41L333.316 68.005H344.571L351.718 108.41H341.307ZM337.199 79.3723L330.559 92.5967H339.056L337.199 79.3723ZM373.419 95.9731H368.41L366.272 108.41L355.974 108.41L363.12 68.005L378.371 68.005C386.981 68.005 392.608 72.7883 392.608 80.1039C392.608 89.7267 385.067 95.9731 373.419 95.9731ZM376.739 76.8963L371.843 76.8963L369.986 87.0818H374.882C379.44 87.0818 382.197 84.8872 382.197 81.3419C382.197 78.5282 380.171 76.8963 376.739 76.8963ZM403.531 108.41H393.233L400.38 68.005H410.678L407.977 83.1427H422.439L425.141 68.005H435.439L428.292 108.41H417.994L420.864 92.1465H406.401L403.531 108.41ZM458.943 93.2157L456.242 108.41H445.943L448.645 93.2157L439.416 68.005H449.714L454.835 83.7617L465.696 68.005H477.232L458.943 93.2157Z" fill="#2563EB"/>
</svg>
