<svg width="929" height="76" viewBox="0 0 929 76" fill="none" xmlns="http://www.w3.org/2000/svg">
<path d="M12.4489 1.56263V59H0.305195V1.56263H12.4489ZM32.2281 1.56263V7.62048C32.2281 9.34061 31.8915 11.0981 31.2184 12.8931C30.564 14.6693 29.6853 16.352 28.5822 17.9413C27.479 19.5118 26.2731 20.8486 24.9643 21.9518L19.6917 18.8387C20.6266 17.3616 21.4492 15.7257 22.1597 13.9307C22.8889 12.1358 23.2535 10.0511 23.2535 7.67657V1.56263H32.2281ZM38.4893 59V15.922H49.8758V23.5223H50.3806C51.2781 20.9982 52.7738 19.007 54.8679 17.5486C56.962 16.0902 59.4674 15.3611 62.3841 15.3611C65.3382 15.3611 67.853 16.0996 69.9284 17.5767C72.0037 19.035 73.3873 21.0169 74.0791 23.5223H74.5278C75.4066 21.0543 76.9959 19.0818 79.2956 17.6047C81.614 16.1089 84.3532 15.3611 87.513 15.3611C91.5328 15.3611 94.7955 16.6418 97.3009 19.2033C99.825 21.7461 101.087 25.3546 101.087 30.0289V59H89.1676V32.3847C89.1676 29.9915 88.5319 28.1966 87.2605 27C85.9891 25.8034 84.3999 25.2051 82.4928 25.2051C80.3239 25.2051 78.6318 25.8969 77.4165 27.2804C76.2012 28.6453 75.5936 30.4496 75.5936 32.6932V59H64.0107V32.1323C64.0107 30.0196 63.4031 28.3368 62.1878 27.0841C60.9912 25.8314 59.4113 25.2051 57.4481 25.2051C56.1206 25.2051 54.924 25.5416 53.8582 26.2147C52.8112 26.8691 51.9792 27.7946 51.3622 28.9912C50.7452 30.1691 50.4367 31.5527 50.4367 33.142V59H38.4893ZM140.75 34.0955V59H128.803V15.922H140.19V23.5223H140.694C141.648 21.0169 143.247 19.035 145.49 17.5767C147.734 16.0996 150.454 15.3611 153.651 15.3611C156.643 15.3611 159.251 16.0155 161.476 17.3243C163.701 18.633 165.431 20.5028 166.665 22.9334C167.899 25.3453 168.516 28.2246 168.516 31.5714V59H156.568V33.7029C156.587 31.0666 155.914 29.0099 154.549 27.5328C153.184 26.0371 151.305 25.2892 148.912 25.2892C147.304 25.2892 145.883 25.6351 144.649 26.3269C143.434 27.0187 142.48 28.0283 141.788 29.3558C141.115 30.6646 140.769 32.2445 140.75 34.0955ZM197.396 59.8414C193.039 59.8414 189.272 58.9159 186.093 57.0649C182.933 55.1951 180.493 52.5963 178.773 49.2682C177.053 45.9214 176.193 42.0418 176.193 37.6293C176.193 33.1794 177.053 29.2904 178.773 25.9623C180.493 22.6155 182.933 20.0166 186.093 18.1656C189.272 16.2959 193.039 15.3611 197.396 15.3611C201.752 15.3611 205.51 16.2959 208.67 18.1656C211.848 20.0166 214.298 22.6155 216.018 25.9623C217.738 29.2904 218.598 33.1794 218.598 37.6293C218.598 42.0418 217.738 45.9214 216.018 49.2682C214.298 52.5963 211.848 55.1951 208.67 57.0649C205.51 58.9159 201.752 59.8414 197.396 59.8414ZM197.452 50.5863C199.434 50.5863 201.088 50.0254 202.416 48.9036C203.743 47.7631 204.744 46.2112 205.417 44.248C206.108 42.2848 206.454 40.0505 206.454 37.5451C206.454 35.0397 206.108 32.8054 205.417 30.8422C204.744 28.879 203.743 27.3272 202.416 26.1867C201.088 25.0461 199.434 24.4759 197.452 24.4759C195.451 24.4759 193.768 25.0461 192.403 26.1867C191.057 27.3272 190.038 28.879 189.346 30.8422C188.673 32.8054 188.337 35.0397 188.337 37.5451C188.337 40.0505 188.673 42.2848 189.346 44.248C190.038 46.2112 191.057 47.7631 192.403 48.9036C193.768 50.0254 195.451 50.5863 197.452 50.5863ZM249.28 15.922V24.8966H223.338V15.922H249.28ZM229.227 5.6012H241.175V45.7625C241.175 46.8656 241.343 47.7257 241.68 48.3427C242.016 48.941 242.484 49.3617 243.082 49.6047C243.699 49.8478 244.409 49.9693 245.213 49.9693C245.774 49.9693 246.335 49.9226 246.896 49.8291C247.457 49.7169 247.887 49.6328 248.186 49.5767L250.065 58.4671C249.467 58.6541 248.626 58.8691 247.541 59.1122C246.457 59.3739 245.139 59.5329 243.587 59.589C240.707 59.7011 238.183 59.3179 236.014 58.4391C233.864 57.5603 232.191 56.1954 230.994 54.3444C229.798 52.4934 229.209 50.1563 229.227 47.333V5.6012ZM328.347 30.2813C328.347 36.5448 327.16 41.8735 324.786 46.2673C322.43 50.6611 319.214 54.0172 315.138 56.3357C311.081 58.6354 306.519 59.7853 301.452 59.7853C296.347 59.7853 291.767 58.6261 287.709 56.3076C283.652 53.9892 280.446 50.6331 278.09 46.2393C275.734 41.8454 274.556 36.5261 274.556 30.2813C274.556 24.0178 275.734 18.6891 278.09 14.2953C280.446 9.90152 283.652 6.55475 287.709 4.25501C291.767 1.93657 296.347 0.777355 301.452 0.777355C306.519 0.777355 311.081 1.93657 315.138 4.25501C319.214 6.55475 322.43 9.90152 324.786 14.2953C327.16 18.6891 328.347 24.0178 328.347 30.2813ZM316.035 30.2813C316.035 26.2241 315.428 22.8025 314.212 20.0166C313.016 17.2308 311.324 15.118 309.136 13.6783C306.949 12.2387 304.387 11.5188 301.452 11.5188C298.516 11.5188 295.955 12.2387 293.767 13.6783C291.58 15.118 289.878 17.2308 288.663 20.0166C287.466 22.8025 286.868 26.2241 286.868 30.2813C286.868 34.3386 287.466 37.7601 288.663 40.546C289.878 43.3319 291.58 45.4446 293.767 46.8843C295.955 48.324 298.516 49.0438 301.452 49.0438C304.387 49.0438 306.949 48.324 309.136 46.8843C311.324 45.4446 313.016 43.3319 314.212 40.546C315.428 37.7601 316.035 34.3386 316.035 30.2813ZM349.066 34.0955V59H337.119V15.922H348.505V23.5223H349.01C349.964 21.0169 351.562 19.035 353.806 17.5767C356.049 16.0996 358.77 15.3611 361.967 15.3611C364.959 15.3611 367.567 16.0155 369.792 17.3243C372.017 18.633 373.746 20.5028 374.98 22.9334C376.214 25.3453 376.831 28.2246 376.831 31.5714V59H364.884V33.7029C364.903 31.0666 364.229 29.0099 362.865 27.5328C361.5 26.0371 359.621 25.2892 357.227 25.2892C355.619 25.2892 354.198 25.6351 352.964 26.3269C351.749 27.0187 350.796 28.0283 350.104 29.3558C349.431 30.6646 349.085 32.2445 349.066 34.0955ZM398.195 1.56263V59H386.248V1.56263H398.195ZM415.142 75.1543C413.627 75.1543 412.206 75.0327 410.879 74.7897C409.57 74.5653 408.485 74.2755 407.625 73.9203L410.318 65.0018C411.72 65.4318 412.982 65.6655 414.104 65.7029C415.244 65.7403 416.226 65.4785 417.049 64.9176C417.89 64.3567 418.572 63.4032 419.096 62.057L419.797 60.234L404.344 15.922H416.908L425.827 47.5574H426.276L435.278 15.922H447.927L431.184 63.6556C430.38 65.974 429.286 67.9933 427.902 69.7134C426.537 71.4522 424.808 72.7891 422.714 73.7239C420.62 74.6775 418.096 75.1543 415.142 75.1543ZM484.603 59.8133C481.855 59.8133 479.406 59.3365 477.256 58.383C475.105 57.4107 473.404 55.9804 472.151 54.092C470.917 52.1849 470.3 49.8104 470.3 46.9684C470.3 44.5752 470.74 42.5653 471.618 40.9386C472.497 39.312 473.694 38.0032 475.208 37.0123C476.723 36.0213 478.443 35.2734 480.369 34.7686C482.313 34.2638 484.351 33.9085 486.483 33.7029C488.988 33.4411 491.007 33.1981 492.54 32.9737C494.074 32.7306 495.186 32.3754 495.878 31.908C496.57 31.4405 496.915 30.7487 496.915 29.8326V29.6643C496.915 27.8881 496.355 26.5139 495.233 25.5416C494.13 24.5694 492.559 24.0832 490.521 24.0832C488.371 24.0832 486.66 24.56 485.389 25.5136C484.117 26.4484 483.276 27.6263 482.865 29.0473L471.815 28.1499C472.376 25.5323 473.479 23.2699 475.124 21.3628C476.769 19.437 478.891 17.96 481.49 16.9316C484.108 15.8846 487.137 15.3611 490.577 15.3611C492.97 15.3611 495.261 15.6415 497.448 16.2024C499.655 16.7633 501.608 17.6328 503.31 18.8107C505.03 19.9886 506.386 21.503 507.376 23.3541C508.367 25.1864 508.863 27.3833 508.863 29.9448V59H497.532V53.0263H497.196C496.504 54.3725 495.579 55.5597 494.419 56.5881C493.26 57.5977 491.867 58.3923 490.241 58.972C488.614 59.5329 486.735 59.8133 484.603 59.8133ZM488.025 51.5679C489.783 51.5679 491.334 51.222 492.681 50.5302C494.027 49.8197 495.083 48.8662 495.85 47.6696C496.616 46.473 497 45.1174 497 43.603V39.0315C496.626 39.2746 496.111 39.499 495.457 39.7046C494.821 39.8916 494.102 40.0692 493.298 40.2375C492.494 40.3871 491.69 40.5273 490.886 40.6582C490.082 40.7704 489.352 40.8732 488.698 40.9667C487.296 41.1724 486.071 41.4996 485.024 41.9483C483.977 42.397 483.164 43.0047 482.584 43.7712C482.005 44.5191 481.715 45.454 481.715 46.5758C481.715 48.2024 482.304 49.4458 483.482 50.3059C484.678 51.1472 486.193 51.5679 488.025 51.5679ZM556.996 59H536.635V1.56263H557.164C562.942 1.56263 567.915 2.7125 572.085 5.01224C576.254 7.29328 579.461 10.5746 581.704 14.8562C583.967 19.1379 585.098 24.2609 585.098 30.2252C585.098 36.2083 583.967 41.35 581.704 45.6503C579.461 49.9506 576.235 53.2507 572.029 55.5504C567.84 57.8501 562.83 59 556.996 59ZM548.779 48.5951H556.491C560.081 48.5951 563.101 47.9594 565.55 46.688C568.018 45.3979 569.869 43.4067 571.103 40.7143C572.356 38.0032 572.982 34.5069 572.982 30.2252C572.982 25.981 572.356 22.5127 571.103 19.8203C569.869 17.1279 568.027 15.146 565.578 13.8746C563.129 12.6032 560.109 11.9675 556.519 11.9675H548.779V48.5951ZM594.093 59V1.56263H632.796V11.5749H606.237V25.2612H630.805V35.2734H606.237V48.9877H632.909V59H594.093ZM673.61 18.0815C673.385 15.8191 672.422 14.0616 670.721 12.8089C669.019 11.5562 666.71 10.9299 663.794 10.9299C661.812 10.9299 660.138 11.2103 658.774 11.7712C657.409 12.3134 656.362 13.0707 655.632 14.0429C654.922 15.0152 654.567 16.1183 654.567 17.3523C654.529 18.3806 654.744 19.2781 655.212 20.0447C655.698 20.8113 656.362 21.475 657.203 22.0359C658.044 22.5781 659.017 23.0549 660.12 23.4662C661.223 23.8589 662.401 24.1954 663.653 24.4759L668.814 25.7099C671.319 26.2708 673.619 27.0187 675.713 27.9535C677.807 28.8884 679.621 30.0383 681.154 31.4031C682.687 32.768 683.874 34.376 684.716 36.227C685.576 38.078 686.015 40.2001 686.034 42.5933C686.015 46.1084 685.118 49.156 683.341 51.7362C681.584 54.2977 679.041 56.2889 675.713 57.7099C672.404 59.1122 668.412 59.8133 663.738 59.8133C659.101 59.8133 655.062 59.1028 651.622 57.6819C648.2 56.2609 645.527 54.1575 643.601 51.3716C641.694 48.567 640.693 45.0987 640.6 40.9667H652.351C652.482 42.8925 653.034 44.5004 654.006 45.7905C654.997 47.0619 656.315 48.0248 657.96 48.6792C659.624 49.3149 661.503 49.6328 663.597 49.6328C665.654 49.6328 667.44 49.3336 668.954 48.7353C670.487 48.137 671.674 47.305 672.516 46.2393C673.357 45.1735 673.778 43.9489 673.778 42.5653C673.778 41.2752 673.395 40.1908 672.628 39.312C671.88 38.4332 670.777 37.6854 669.319 37.0683C667.879 36.4513 666.112 35.8904 664.018 35.3856L657.764 33.8151C652.921 32.6371 649.098 30.7955 646.293 28.2901C643.489 25.7847 642.096 22.4099 642.114 18.1656C642.096 14.688 643.021 11.6497 644.891 9.05081C646.779 6.45191 649.369 4.42328 652.66 2.96491C655.95 1.50654 659.69 0.777355 663.878 0.777355C668.141 0.777355 671.861 1.50654 675.04 2.96491C678.237 4.42328 680.724 6.45191 682.5 9.05081C684.276 11.6497 685.192 14.6599 685.249 18.0815H673.61ZM706.346 1.56263V59H694.202V1.56263H706.346ZM754.423 20.1288C754.03 18.7639 753.479 17.558 752.768 16.5109C752.058 15.4452 751.188 14.5477 750.16 13.8186C749.15 13.0707 747.991 12.5004 746.682 12.1078C745.392 11.7151 743.962 11.5188 742.391 11.5188C739.456 11.5188 736.876 12.248 734.651 13.7064C732.445 15.1647 730.724 17.2869 729.49 20.0727C728.256 22.8399 727.639 26.2241 727.639 30.2252C727.639 34.2264 728.247 37.6293 729.462 40.4338C730.678 43.2384 732.398 45.3792 734.623 46.8563C736.848 48.3146 739.475 49.0438 742.504 49.0438C745.252 49.0438 747.599 48.5577 749.543 47.5854C751.506 46.5945 753.002 45.2016 754.03 43.4067C755.077 41.6117 755.601 39.4896 755.601 37.0403L758.069 37.4049H743.261V28.262H767.296V35.4978C767.296 40.546 766.23 44.8837 764.099 48.5109C761.967 52.1195 759.032 54.9053 755.292 56.8685C751.553 58.813 747.271 59.7853 742.448 59.7853C737.063 59.7853 732.332 58.598 728.256 56.2235C724.181 53.8303 721.002 50.4367 718.721 46.0429C716.459 41.6304 715.327 36.3953 715.327 30.3374C715.327 25.6818 716.001 21.5311 717.347 17.8852C718.712 14.2205 720.619 11.1168 723.068 8.57403C725.517 6.03123 728.369 4.09608 731.622 2.76859C734.875 1.4411 738.4 0.777355 742.195 0.777355C745.448 0.777355 748.477 1.25413 751.282 2.20768C754.086 3.14253 756.573 4.47003 758.742 6.19015C760.93 7.91028 762.715 9.95761 764.099 12.3321C765.482 14.688 766.37 17.2869 766.763 20.1288H754.423ZM824.46 1.56263V59H813.971L788.982 22.8492H788.562V59H776.418V1.56263H787.075L811.867 37.6854H812.372V1.56263H824.46ZM834.493 59V1.56263H873.196V11.5749H846.637V25.2612H871.205V35.2734H846.637V48.9877H873.308V59H834.493ZM882.851 59V1.56263H905.512C909.849 1.56263 913.551 2.33856 916.618 3.89042C919.703 5.42357 922.049 7.60178 923.657 10.425C925.284 13.2296 926.097 16.5296 926.097 20.3251C926.097 24.1393 925.274 27.4207 923.629 30.1691C921.984 32.8989 919.6 34.993 916.477 36.4513C913.374 37.9097 909.616 38.6389 905.203 38.6389H890.03V28.879H903.24C905.558 28.879 907.484 28.5612 909.017 27.9255C910.55 27.2898 911.691 26.3362 912.439 25.0648C913.205 23.7934 913.589 22.2135 913.589 20.3251C913.589 18.418 913.205 16.8101 912.439 15.5013C911.691 14.1925 910.541 13.2016 908.989 12.5285C907.456 11.8367 905.521 11.4908 903.184 11.4908H894.994V59H882.851ZM913.869 32.8615L928.144 59H914.739L900.772 32.8615H913.869Z" fill="#292929"/>
</svg>
