<svg width="54" height="55" viewBox="0 0 54 55" fill="none" xmlns="http://www.w3.org/2000/svg">
<g clip-path="url(#clip0_256_1450)">
<path d="M20.155 9.29852C20.5492 9.49636 20.7464 9.49636 27.8433 9.49636C34.9403 9.49636 35.1374 9.49636 35.5317 9.29852C36.1231 9.10067 36.9117 8.30931 37.1088 7.71578C37.306 7.3201 37.306 6.92442 37.306 5.73737C37.306 4.15463 37.306 3.95679 36.5174 3.36326C36.3203 3.16542 36.1231 3.16542 33.5603 3.16542H30.9976L30.8004 2.5719C30.4061 0.59348 28.4348 -0.395728 26.6605 0.197797C25.4777 0.59348 24.6891 1.38485 24.492 2.5719L24.2949 3.16542L21.9292 2.96758C19.3664 2.96758 19.1693 2.96758 18.9721 3.16542C18.3807 3.75895 18.1836 3.95679 18.1836 5.53952C18.1836 6.92442 18.1836 7.12226 18.3807 7.51794C18.775 8.30931 19.5636 8.90283 20.155 9.29852Z" fill="#EDF9FF"/>
<path d="M48.7399 10.2877C48.3456 8.30932 46.7685 6.72658 44.7971 6.3309C44.4029 6.3309 43.4172 6.13306 42.4315 6.13306H40.6573V6.72658C40.4601 9.49637 38.2916 11.6726 35.5317 12.2662C34.3488 12.464 21.1406 12.464 19.9578 12.2662C18.1835 12.2662 16.4093 10.8813 15.6207 9.10068C15.2265 8.50716 15.0293 7.12227 15.0293 6.52874V6.3309H13.2551C12.2694 6.3309 11.2837 6.3309 11.2837 6.3309C9.90375 6.52874 8.91806 7.12227 8.12951 7.91363C7.53809 8.50716 7.14382 9.49637 6.94668 10.2877C6.74954 11.0791 6.74954 50.0539 6.94668 50.8453C7.34096 52.8237 8.91806 54.4064 10.8894 54.8021C11.678 55 44.2057 55 44.9943 54.8021C46.1771 54.6043 47.5571 53.6151 48.1485 52.428C48.937 51.241 48.7399 52.8237 48.7399 30.8633C48.937 17.6079 48.937 10.6834 48.7399 10.2877ZM14.8322 19.7841C13.6494 18.5971 13.4522 18.2014 13.4522 17.6079C13.4522 16.8165 14.2408 16.0251 15.0293 16.0251C15.2265 16.0251 15.6207 16.0251 15.8179 16.223C16.015 16.4208 16.6064 16.8165 17.1978 17.41L18.3807 18.3992L19.5635 17.41C20.7463 16.223 21.1406 16.0251 21.732 16.0251C22.5206 16.0251 23.3091 16.8165 23.3091 17.6079C23.3091 18.2014 23.112 18.5971 21.9292 19.7841L20.9435 20.9712L21.9292 22.1582C23.112 23.3453 23.3091 23.741 23.3091 24.3345C23.3091 25.1259 22.5206 25.9172 21.732 25.9172C21.1406 25.9172 20.7463 25.7194 19.5635 24.5323L18.3807 23.5431L17.0007 24.3345C15.8179 25.5215 15.4236 25.7194 14.8322 25.7194C14.0436 25.7194 13.2551 24.928 13.2551 24.1367C13.2551 23.5431 13.4522 23.1474 14.6351 21.9604L15.6207 20.7733L14.8322 19.7841ZM17.9864 48.8669C15.4236 48.8669 13.2551 46.6906 13.2551 44.1187C13.2551 41.5467 15.4236 39.3705 17.9864 39.3705C20.5492 39.3705 22.7177 41.5467 22.7177 44.1187C22.7177 46.6906 20.7463 48.8669 17.9864 48.8669ZM26.0691 29.6762C25.8719 30.0719 19.7606 36.205 18.9721 36.6007C17.9864 37.1942 17.395 36.9964 15.2265 34.6223C13.6494 33.0395 13.2551 32.6439 13.2551 32.0503C13.2551 31.259 14.0436 30.4676 14.8322 30.4676C15.4236 30.4676 15.8179 30.6654 17.0007 31.8525L18.1835 32.8417L20.7463 30.2698C22.1263 28.8849 23.5063 27.5 23.7034 27.3021C24.0977 27.1043 24.6891 27.1043 25.2805 27.3021C26.0691 27.8956 26.4633 28.8849 26.0691 29.6762ZM41.6429 44.91C41.2487 45.1079 41.0515 45.1079 35.9259 45.1079C30.9975 45.1079 30.6032 45.1079 30.2089 44.91C29.8147 44.7122 29.4204 44.1187 29.4204 43.5251C29.4204 42.9316 29.8147 42.3381 30.2089 42.1403C30.6032 41.9424 30.8004 41.9424 35.9259 41.9424C41.0515 41.9424 41.2487 41.9424 41.6429 42.1403C42.0372 42.3381 42.4315 42.9316 42.4315 43.5251C42.4315 43.9208 42.0372 44.5144 41.6429 44.91ZM41.6429 33.6331C41.2487 33.8309 41.0515 33.8309 35.9259 33.8309C30.9975 33.8309 30.6032 33.8309 30.2089 33.6331C29.8147 33.4352 29.4204 32.8417 29.4204 32.2482C29.4204 31.6546 29.8147 31.0611 30.2089 30.8633C30.6032 30.6654 30.8004 30.6654 35.9259 30.6654C41.0515 30.6654 41.2487 30.6654 41.6429 30.8633C42.0372 31.0611 42.4315 31.6546 42.4315 32.2482C42.4315 32.8417 42.0372 33.2374 41.6429 33.6331ZM41.6429 22.1582C41.2487 22.3561 41.0515 22.3561 35.9259 22.3561C30.9975 22.3561 30.6032 22.3561 30.2089 22.1582C29.8147 21.9604 29.4204 21.3669 29.4204 20.7733C29.4204 20.1798 29.8147 19.5863 30.2089 19.3885C30.6032 19.1906 30.8004 19.1906 35.9259 19.1906C41.0515 19.1906 41.2487 19.1906 41.6429 19.3885C42.0372 19.5863 42.4315 20.1798 42.4315 20.7733C42.4315 21.3669 42.0372 21.9604 41.6429 22.1582Z" fill="#EDF9FF"/>
</g>
<defs>
<clipPath id="clip0_256_1450">
<rect width="42.1875" height="55" fill="white" transform="translate(6.75)"/>
</clipPath>
</defs>
</svg>
